<?xml version="1.0" encoding="UTF-8"?>
<svg id="Layer_2" data-name="Layer 2" xmlns="http://www.w3.org/2000/svg" viewBox="0 0 11.76 17.02">
  <defs>
    <style>
      .cls-1 {
        fill: #d2232a;
      }
    </style>
  </defs>
  <g id="Layer_1-2" data-name="Layer 1">
    <path class="cls-1" d="M2.96.99l.14.3c.42.91.84,1.79,1.26,2.62.42.84.85,1.67,1.29,2.5.73-1.05,1.48-2.09,2.25-3.1.77-1.01,1.57-2,2.39-2.97.09-.1.17-.17.24-.22.07-.05.14-.09.21-.12l.02.22.34-.22-.16.38.5-.23-.12.3.32-.05-.3.4.4-.18c-.03.07-.06.13-.09.19-.03.05-.07.1-.11.16-.91,1.07-1.79,2.18-2.64,3.31-.85,1.13-1.67,2.31-2.48,3.55.51.91,1.05,1.83,1.62,2.78.57.95,1.18,1.96,1.84,3.02.05.07.09.15.13.23.04.08.08.18.14.29l-.26-.02.06.34-.42-.25.17.5-.36-.17-.02.26-.34-.42.06.34-.21-.24v.1c-.65-.96-1.25-1.88-1.78-2.74-.54-.86-1.04-1.71-1.52-2.55-.71,1.13-1.39,2.3-2.05,3.52s-1.29,2.47-1.92,3.78l-.16.28-.14-.16-.24.31v-.48l-.36.48v-.38l-.34.24.17-.6-.38.31.06-.36-.16.11c.02-.07.04-.13.05-.18s.04-.1.07-.16c.64-1.36,1.35-2.72,2.12-4.09.77-1.36,1.6-2.72,2.48-4.08-.21-.39-.45-.83-.7-1.32s-.51-1-.77-1.53c-.26-.53-.52-1.06-.77-1.6-.25-.53-.48-1.04-.68-1.51l-.19-.42.28.2-.12-.5.25.17-.06-.38.4.34-.16-.47.26.19v-.21l.23.3-.04-.26.28.3v-.16Z"/>
  </g>
</svg>