<?xml version="1.0" encoding="UTF-8"?>
<svg id="Layer_2" data-name="Layer 2" xmlns="http://www.w3.org/2000/svg" viewBox="0 0 13.14 14.9">
  <defs>
    <style>
      .cls-1 {
        fill: #d2232a;
      }
    </style>
  </defs>
  <g id="Layer_1-2" data-name="Layer 1">
    <path class="cls-1" d="M.52,10.03c-.15-.15-.27-.29-.37-.41-.1-.12-.15-.23-.15-.32,0-.1.04-.18.13-.26.09-.08.19-.14.32-.19s.26-.08.4-.11c.14-.02.26-.03.36-.03.1,0,.19.02.26.07s.15.12.24.21c.61.61,1.17,1.27,1.67,1.97s.96,1.4,1.38,2.09c.81-2.25,1.76-4.44,2.84-6.55,1.08-2.12,2.3-4.1,3.65-5.95.13-.18.33-.32.61-.42s.59-.15.93-.15c.11,0,.2.02.26.06.06.04.1.1.1.18s0,.14-.03.2c-.02.05-.06.13-.14.22-.72.96-1.42,1.96-2.1,3.01-.68,1.05-1.33,2.15-1.95,3.32s-1.2,2.38-1.76,3.66c-.55,1.28-1.06,2.62-1.52,4.02-.01.04-.05.07-.11.1s-.13.05-.21.07-.18.03-.28.04-.21.01-.31.01c-.15,0-.29-.01-.41-.04s-.21-.09-.27-.19c-.31-.53-.6-1-.87-1.41-.27-.41-.54-.79-.81-1.14s-.56-.69-.85-1.03-.63-.69-.99-1.06Z"/>
  </g>
</svg>