<?xml version="1.0" encoding="UTF-8"?>
<svg id="Layer_2" data-name="Layer 2" xmlns="http://www.w3.org/2000/svg" xmlns:xlink="http://www.w3.org/1999/xlink" viewBox="0 0 538.37 188.28">
  <defs>
    <style>
      .cls-1 {
        fill: #6d2a7f;
      }

      .cls-2 {
        stroke-dasharray: 4.1 4.1;
      }

      .cls-2, .cls-3, .cls-4, .cls-5, .cls-6, .cls-7, .cls-8, .cls-9, .cls-10, .cls-11 {
        fill: none;
      }

      .cls-2, .cls-3, .cls-5, .cls-6, .cls-7, .cls-8, .cls-9, .cls-10, .cls-11 {
        stroke: #2a5caa;
        stroke-miterlimit: 10;
        stroke-width: .75px;
      }

      .cls-12 {
        clip-path: url(#clippath-4);
      }

      .cls-13 {
        fill: #8d619a;
      }

      .cls-14 {
        fill: #231f20;
      }

      .cls-3 {
        stroke-dasharray: 4 4;
      }

      .cls-15 {
        fill: #fff;
      }

      .cls-5 {
        stroke-dasharray: 4.09 4.09;
      }

      .cls-16 {
        clip-path: url(#clippath-1);
      }

      .cls-17 {
        clip-path: url(#clippath-5);
      }

      .cls-18 {
        clip-path: url(#clippath-3);
      }

      .cls-6 {
        stroke-dasharray: 4.11 4.11;
      }

      .cls-7 {
        stroke-dasharray: 4 4;
      }

      .cls-8 {
        stroke-dasharray: 4.09 4.09;
      }

      .cls-19 {
        clip-path: url(#clippath-2);
      }

      .cls-9 {
        stroke-dasharray: 4.03 4.03;
      }

      .cls-20 {
        fill: #b499bd;
      }

      .cls-21 {
        clip-path: url(#clippath);
      }

      .cls-11 {
        stroke-dasharray: 3.98 3.98;
      }
    </style>
    <clipPath id="clippath">
      <rect class="cls-4" width="538.37" height="188.28"/>
    </clipPath>
    <clipPath id="clippath-1">
      <rect class="cls-4" width="538.37" height="188.28"/>
    </clipPath>
    <clipPath id="clippath-2">
      <rect class="cls-4" width="538.37" height="188.28"/>
    </clipPath>
    <clipPath id="clippath-3">
      <rect class="cls-4" width="538.37" height="188.28"/>
    </clipPath>
    <clipPath id="clippath-4">
      <rect class="cls-4" width="538.37" height="188.28"/>
    </clipPath>
    <clipPath id="clippath-5">
      <rect class="cls-4" width="538.37" height="188.28"/>
    </clipPath>
  </defs>
  <g id="Layer_1-2" data-name="Layer 1">
    <g class="cls-21">
      <path class="cls-1" d="M538.37,177.3c0,6.06-1.88,10.98-4.2,10.98H6.42c-2.32,0-4.2-4.91-4.2-10.98V17.18C2.22,11.12,4.1,1.13,6.42,1.13h527.76c2.32,0,4.2,9.98,4.2,16.05v160.12Z"/>
      <path class="cls-15" d="M535.49,111.36c0,4.36-1.91,9.89-4.27,9.89H4.43c-2.36,0-4.27-5.53-4.27-9.89V15.42c0-4.36,1.91-7.89,4.27-7.89h526.79c2.36,0,4.27,3.53,4.27,7.89v95.95Z"/>
      <path class="cls-20" d="M535.61,44.91c0,.62-1.88,1.13-4.2,1.13H4.19C1.88,46.04,0,45.53,0,44.91v-22.19c0-.62,1.88-1.13,4.19-1.13h527.22c2.32,0,4.2.51,4.2,1.13v22.19Z"/>
      <path class="cls-13" d="M535.75,22.47c0,.62-1.88,1.12-4.2,1.12H4.2c-2.32,0-4.2-.5-4.2-1.12V2.09C0,1.47,1.88.98,4.2.98h527.36c2.32,0,4.2.5,4.2,1.11v20.38Z"/>
    </g>
    <g>
      <path class="cls-15" d="M180.84,15.14h-3.14l-.82,1.49h-2.15l4.84-8.42h2.38l1.26,8.42h-2.17l-.19-1.49ZM180.26,10.47l-1.69,3.08h2.08l-.39-3.08Z"/>
      <path class="cls-15" d="M188,9.83c.89,0,1.57.41,1.85,1.02l.66-3.11h2.05l-1.89,8.88h-2.05l.2-.96c-.5.61-1.3,1.06-2.29,1.06-1.64,0-2.66-1.34-2.22-3.46.45-2.11,2.04-3.43,3.68-3.43ZM188.22,11.62c-.77,0-1.58.58-1.81,1.64s.34,1.67,1.11,1.67,1.59-.59,1.82-1.66c.23-1.07-.33-1.66-1.11-1.66Z"/>
      <path class="cls-15" d="M195.53,9.93l-1.61,7.56c-.37,1.74-1.47,2.33-2.86,2.33h-.8l.37-1.74h.49c.46,0,.66-.17.74-.56l1.61-7.58h2.05ZM193.66,8.13c.13-.62.73-1.12,1.46-1.12s1.11.49.97,1.12c-.13.61-.73,1.1-1.45,1.1s-1.12-.49-.99-1.1Z"/>
      <path class="cls-15" d="M198.43,16.72c-1.97,0-3.1-1.32-2.65-3.44.45-2.12,2.12-3.44,4.11-3.44s3.06,1.3,2.62,3.34c-.04.19-.1.4-.16.6h-4.64c-.11.88.34,1.28,1,1.28.58,0,.96-.29,1.21-.65h2.18c-.6,1.31-2,2.32-3.67,2.32ZM197.97,12.63h2.57c.16-.73-.33-1.15-1.01-1.15s-1.27.41-1.55,1.15Z"/>
      <path class="cls-15" d="M207.15,9.83c1.68,0,2.67.92,2.68,2.52h-2.18c-.07-.47-.34-.77-.9-.77-.73,0-1.36.58-1.59,1.69-.24,1.12.14,1.69.88,1.69.56,0,.95-.28,1.23-.77h2.18c-.68,1.55-2.07,2.52-3.75,2.52-1.97,0-3.08-1.32-2.63-3.44.45-2.11,2.12-3.44,4.09-3.44Z"/>
      <path class="cls-15" d="M211.3,11.63h-.82l.36-1.7h.82l.35-1.63h2.05l-.35,1.63h1.34l-.36,1.7h-1.34l-.57,2.69c-.08.4.05.56.5.56h.73l-.37,1.74h-1.04c-1.39,0-2.24-.59-1.87-2.33l.57-2.66Z"/>
      <path class="cls-15" d="M216.1,9.93h2.05l-1.42,6.7h-2.05l1.42-6.7ZM216.29,8.13c.13-.62.73-1.12,1.46-1.12s1.11.49.97,1.12c-.13.61-.73,1.1-1.45,1.1s-1.12-.49-.99-1.1Z"/>
      <path class="cls-15" d="M221.09,9.93l.44,4.78,2.47-4.78h2.18l-3.8,6.7h-2.53l-.95-6.7h2.19Z"/>
      <path class="cls-15" d="M228.47,16.72c-1.97,0-3.1-1.32-2.65-3.44.45-2.12,2.12-3.44,4.11-3.44s3.06,1.3,2.62,3.34c-.04.19-.1.4-.16.6h-4.64c-.11.88.34,1.28,1,1.28.58,0,.96-.29,1.21-.65h2.18c-.6,1.31-2,2.32-3.67,2.32ZM228.01,12.63h2.57c.16-.73-.33-1.15-1.01-1.15s-1.27.41-1.55,1.15Z"/>
      <path class="cls-15" d="M235.5,16.72c-1.79,0-2.77-1-2.59-2.29h2.03c-.05.47.3.78.87.78.53,0,.85-.24.92-.54.23-1.08-3.58-.3-3.06-2.76.24-1.14,1.41-2.08,3.16-2.08s2.48.96,2.33,2.28h-1.89c.04-.46-.25-.76-.82-.76-.48,0-.78.19-.85.52-.23,1.07,3.56.31,3.06,2.81-.25,1.16-1.46,2.04-3.14,2.04Z"/>
      <path class="cls-15" d="M245.81,9.83c1,0,1.61.46,1.84,1.04l.2-.95h2.05l-1.42,6.7h-2.05l.2-.95c-.5.59-1.3,1.04-2.3,1.04-1.63,0-2.65-1.34-2.2-3.46.45-2.11,2.04-3.43,3.68-3.43ZM246.03,11.62c-.77,0-1.58.58-1.81,1.64s.34,1.67,1.11,1.67,1.59-.59,1.82-1.66c.23-1.07-.33-1.66-1.11-1.66Z"/>
      <path class="cls-15" d="M255.25,12.99c.19-.91-.2-1.42-.98-1.42s-1.39.5-1.58,1.42l-.77,3.64h-2.05l1.42-6.7h2.05l-.19.89c.53-.56,1.33-.96,2.23-.96,1.55,0,2.35,1.06,1.97,2.86l-.83,3.91h-2.04l.77-3.64Z"/>
      <path class="cls-15" d="M261.83,9.83c.89,0,1.57.41,1.85,1.02l.66-3.11h2.05l-1.89,8.88h-2.05l.2-.96c-.5.61-1.3,1.06-2.29,1.06-1.64,0-2.66-1.34-2.22-3.46.45-2.11,2.04-3.43,3.68-3.43ZM262.05,11.62c-.77,0-1.58.58-1.81,1.64s.34,1.67,1.11,1.67,1.59-.59,1.82-1.66c.23-1.07-.33-1.66-1.11-1.66Z"/>
      <path class="cls-15" d="M269.7,11.63h-.82l.36-1.7h.82l.35-1.63h2.05l-.35,1.63h1.34l-.36,1.7h-1.34l-.57,2.69c-.08.4.05.56.5.56h.73l-.37,1.74h-1.04c-1.39,0-2.24-.59-1.87-2.33l.57-2.66Z"/>
      <path class="cls-15" d="M274.97,7.75h2.05l-.66,3.08c.53-.58,1.35-.97,2.27-.97,1.52,0,2.32,1.06,1.94,2.86l-.83,3.91h-2.04l.77-3.64c.19-.91-.2-1.42-.98-1.42s-1.39.5-1.58,1.42l-.77,3.64h-2.05l1.89-8.88Z"/>
      <path class="cls-15" d="M284.01,16.72c-1.97,0-3.1-1.32-2.65-3.44.45-2.12,2.12-3.44,4.11-3.44s3.06,1.3,2.62,3.34c-.04.19-.1.4-.16.6h-4.64c-.11.88.34,1.28,1,1.28.58,0,.96-.29,1.21-.65h2.18c-.6,1.31-2,2.32-3.67,2.32ZM283.55,12.63h2.57c.16-.73-.33-1.15-1.01-1.15s-1.27.41-1.55,1.15Z"/>
      <path class="cls-15" d="M298.3,8.2h2.17l-4.78,8.42h-2.57l-1.2-8.42h2.18l.73,6.36,3.45-6.36Z"/>
      <path class="cls-15" d="M302.37,16.72c-1.97,0-3.1-1.32-2.65-3.44.45-2.12,2.12-3.44,4.11-3.44s3.06,1.3,2.62,3.34c-.04.19-.1.4-.16.6h-4.64c-.11.88.34,1.28,1,1.28.58,0,.96-.29,1.21-.65h2.18c-.6,1.31-2,2.32-3.67,2.32ZM301.91,12.63h2.57c.16-.73-.33-1.15-1.01-1.15s-1.27.41-1.55,1.15Z"/>
      <path class="cls-15" d="M308.75,16.63h-2.05l1.42-6.7h2.05l-.24,1.12c.62-.71,1.45-1.19,2.35-1.19l-.46,2.17h-.56c-.97,0-1.61.33-1.85,1.49l-.66,3.11Z"/>
      <path class="cls-15" d="M317.28,9.83c1.66,0,2.67,1.32,2.22,3.43-.45,2.11-2.04,3.46-3.69,3.46-.98,0-1.6-.44-1.84-1.03l-.2.94h-2.05l1.89-8.88h2.05l-.67,3.13c.5-.6,1.32-1.04,2.28-1.04ZM316.29,11.62c-.77,0-1.59.59-1.82,1.66-.23,1.07.34,1.66,1.11,1.66s1.6-.6,1.83-1.67-.35-1.64-1.13-1.64Z"/>
      <path class="cls-15" d="M323.97,7.03h1.69l-.72,2.65h-1.38l.41-2.65ZM326.25,7.03h1.69l-.72,2.65h-1.38l.41-2.65Z"/>
      <path class="cls-15" d="M328.35,8.2h6.51l-.35,1.64h-2.23l-1.44,6.78h-2.05l1.44-6.78h-2.23l.35-1.64Z"/>
      <path class="cls-15" d="M337.03,16.72c-1.97,0-3.17-1.32-2.72-3.44.45-2.12,2.25-3.44,4.21-3.44s3.2,1.32,2.75,3.44c-.45,2.12-2.27,3.44-4.23,3.44ZM337.41,14.95c.73,0,1.53-.54,1.77-1.67.24-1.14-.32-1.67-1.04-1.67s-1.5.53-1.75,1.67c-.24,1.13.27,1.67,1.01,1.67Z"/>
      <path class="cls-15" d="M347.9,16.63h-3.92l1.79-8.42h3.79c1.72,0,2.55.85,2.27,2.18-.22,1.02-.97,1.68-1.83,1.92.94.2,1.39,1.07,1.19,2.03-.3,1.39-1.51,2.29-3.28,2.29ZM348.26,13.11h-1.49l-.4,1.86h1.51c.68,0,1.15-.31,1.27-.91.13-.6-.22-.95-.9-.95ZM348.81,9.85h-1.34l-.38,1.76h1.34c.67,0,1.11-.3,1.23-.88s-.18-.89-.85-.89Z"/>
      <path class="cls-15" d="M354.72,16.72c-1.97,0-3.1-1.32-2.65-3.44.45-2.12,2.12-3.44,4.11-3.44s3.06,1.3,2.62,3.34c-.04.19-.1.4-.16.6h-4.64c-.11.88.34,1.28,1,1.28.58,0,.96-.29,1.21-.65h2.18c-.6,1.31-2,2.32-3.67,2.32ZM354.26,12.63h2.57c.16-.73-.33-1.15-1.01-1.15s-1.27.41-1.55,1.15Z"/>
      <path class="cls-15" d="M360.81,7.03h1.69l-.72,2.65h-1.38l.41-2.65ZM363.09,7.03h1.69l-.72,2.65h-1.38l.41-2.65Z"/>
    </g>
    <line class="cls-2" x1="153.36" y1="23.59" x2="153.36" y2="93.28"/>
    <line class="cls-6" x1="370.41" y1="23.26" x2="370.41" y2="93.13"/>
    <g class="cls-16">
      <path class="cls-15" d="M535.49,181.31c0,2.39-1.91,4.33-4.27,4.33H4.43c-2.36,0-4.27-1.94-4.27-4.33v-65.17c0-2.39,1.91-4.33,4.27-4.33h526.79c2.36,0,4.27,1.94,4.27,4.33v65.17Z"/>
      <path class="cls-20" d="M535.61,137.52c0,.56-1.88,1.02-4.2,1.02H4.19C1.88,138.54,0,138.08,0,137.52v-20.63c0-.56,1.88-1.02,4.19-1.02h527.22c2.32,0,4.2.46,4.2,1.02v20.63Z"/>
      <path class="cls-13" d="M535.75,116.75c0,.62-1.88,1.12-4.2,1.12H4.2c-2.32,0-4.2-.5-4.2-1.12v-22.38c0-.62,1.88-1.11,4.2-1.11h527.36c2.32,0,4.2.5,4.2,1.11v22.38Z"/>
    </g>
    <g>
      <path class="cls-14" d="M23.49,36.83c-1.4,0-2.39-.78-2.41-1.93h.97c.06.58.47,1.16,1.44,1.16.88,0,1.4-.5,1.4-1.16,0-1.88-3.77-.68-3.77-3.27,0-1.15.93-1.93,2.31-1.93s2.2.73,2.31,1.79h-1c-.06-.47-.5-1-1.35-1.01-.75-.02-1.34.37-1.34,1.12,0,1.8,3.76.68,3.76,3.26,0,.99-.81,1.97-2.32,1.97Z"/>
      <path class="cls-14" d="M32.01,36.76h-.91v-.81c-.35.57-1.02.89-1.75.89-1.26,0-2.25-.78-2.25-2.35v-3.21h.9v3.09c0,1.11.61,1.68,1.53,1.68s1.57-.58,1.57-1.76v-3.01h.91v5.48Z"/>
      <path class="cls-14" d="M36.51,31.2c1.48,0,2.6,1.1,2.6,2.81s-1.13,2.85-2.6,2.85c-1,0-1.71-.5-2.05-1.1v1.01h-.91v-7.4h.91v2.94c.35-.61,1.08-1.11,2.05-1.11ZM36.32,31.99c-.99,0-1.86.76-1.86,2.03s.87,2.04,1.86,2.04,1.86-.76,1.86-2.05-.85-2.02-1.86-2.02Z"/>
      <path class="cls-14" d="M41.25,31.29v6.67c0,.99-.52,1.41-1.45,1.41h-.53v-.77h.38c.5,0,.69-.18.69-.66v-6.65h.91ZM40.19,29.78c0-.35.27-.62.61-.62s.61.27.61.62-.27.62-.61.62-.61-.27-.61-.62Z"/>
      <path class="cls-14" d="M45.16,36.85c-1.56,0-2.71-1.1-2.71-2.84s1.11-2.82,2.71-2.82,2.63,1.12,2.63,2.62c0,.2,0,.36-.03.55h-4.38c.07,1.11.85,1.72,1.78,1.72.82,0,1.34-.42,1.54-1.01h.98c-.28,1-1.16,1.78-2.52,1.78ZM43.39,33.63h3.46c.01-1.07-.79-1.66-1.73-1.66-.89,0-1.63.59-1.73,1.66Z"/>
      <path class="cls-14" d="M51.32,31.2c1.36,0,2.25.7,2.53,1.85h-.98c-.19-.66-.74-1.08-1.55-1.08-1,0-1.74.71-1.74,2.05s.74,2.07,1.74,2.07c.81,0,1.35-.39,1.55-1.08h.98c-.28,1.09-1.17,1.85-2.53,1.85-1.56,0-2.67-1.1-2.67-2.84s1.11-2.82,2.67-2.82Z"/>
      <path class="cls-14" d="M55.26,32.04h-.71v-.75h.71v-1.38h.91v1.38h1.43v.75h-1.43v3.23c0,.54.2.73.76.73h.67v.77h-.82c-.97,0-1.52-.4-1.52-1.5v-3.23Z"/>
    </g>
    <g>
      <path class="cls-14" d="M23.49,132.81c-1.4,0-2.39-.78-2.41-1.93h.97c.06.58.47,1.16,1.44,1.16.88,0,1.4-.5,1.4-1.16,0-1.88-3.77-.68-3.77-3.27,0-1.15.93-1.93,2.31-1.93s2.2.73,2.31,1.79h-1c-.06-.47-.5-1-1.35-1.01-.75-.02-1.34.37-1.34,1.12,0,1.8,3.76.68,3.76,3.26,0,.99-.81,1.97-2.32,1.97Z"/>
      <path class="cls-14" d="M32.01,132.74h-.91v-.81c-.35.57-1.02.89-1.75.89-1.26,0-2.25-.78-2.25-2.35v-3.21h.9v3.09c0,1.11.61,1.68,1.53,1.68s1.57-.58,1.57-1.76v-3.01h.91v5.48Z"/>
      <path class="cls-14" d="M36.51,127.17c1.48,0,2.6,1.1,2.6,2.81s-1.13,2.85-2.6,2.85c-1,0-1.71-.5-2.05-1.1v1.01h-.91v-7.4h.91v2.94c.35-.61,1.08-1.11,2.05-1.11ZM36.32,127.96c-.99,0-1.86.76-1.86,2.03s.87,2.04,1.86,2.04,1.86-.76,1.86-2.05-.85-2.02-1.86-2.02Z"/>
      <path class="cls-14" d="M41.25,127.26v6.67c0,.99-.52,1.41-1.45,1.41h-.53v-.77h.38c.5,0,.69-.18.69-.66v-6.65h.91ZM40.19,125.75c0-.35.27-.62.61-.62s.61.27.61.62-.27.62-.61.62-.61-.27-.61-.62Z"/>
      <path class="cls-14" d="M45.16,132.82c-1.56,0-2.71-1.1-2.71-2.84s1.11-2.82,2.71-2.82,2.63,1.12,2.63,2.62c0,.2,0,.36-.03.55h-4.38c.07,1.11.85,1.72,1.78,1.72.82,0,1.34-.42,1.54-1.01h.98c-.28,1-1.16,1.78-2.52,1.78ZM43.39,129.6h3.46c.01-1.07-.79-1.66-1.73-1.66-.89,0-1.63.59-1.73,1.66Z"/>
      <path class="cls-14" d="M51.32,127.17c1.36,0,2.25.7,2.53,1.85h-.98c-.19-.66-.74-1.08-1.55-1.08-1,0-1.74.71-1.74,2.05s.74,2.07,1.74,2.07c.81,0,1.35-.39,1.55-1.08h.98c-.28,1.09-1.17,1.85-2.53,1.85-1.56,0-2.67-1.1-2.67-2.84s1.11-2.82,2.67-2.82Z"/>
      <path class="cls-14" d="M55.26,128.01h-.71v-.75h.71v-1.38h.91v1.38h1.43v.75h-1.43v3.23c0,.54.2.73.76.73h.67v.77h-.82c-.97,0-1.52-.4-1.52-1.5v-3.23Z"/>
    </g>
    <g>
      <path class="cls-14" d="M27.07,56.32h.92l-1.1,5.15c-.25,1.16-1.18,1.89-2.33,1.89s-1.78-.74-1.52-1.96h.91c-.13.64.07,1.15.79,1.15s1.12-.5,1.24-1.08l1.1-5.15Z"/>
      <path class="cls-14" d="M29.46,57.81h.91l-1.17,5.48h-.91l1.17-5.48ZM29.63,56.3c.07-.35.4-.62.75-.62.33,0,.54.27.47.62-.07.35-.4.62-.73.62-.35,0-.56-.27-.49-.62Z"/>
      <path class="cls-14" d="M39.32,60.19c.24-1.12-.24-1.69-1.14-1.69s-1.67.59-1.92,1.77l-.64,3.02h-.9l.66-3.1c.24-1.12-.24-1.69-1.14-1.69s-1.67.59-1.93,1.77l-.64,3.02h-.91l1.17-5.48h.91l-.17.79c.48-.58,1.2-.89,1.92-.89.9,0,1.56.4,1.75,1.22.49-.79,1.36-1.22,2.2-1.22,1.25,0,2.05.78,1.72,2.35l-.69,3.23h-.9l.66-3.1Z"/>
      <path class="cls-14" d="M49.62,60.19c.24-1.12-.24-1.69-1.14-1.69s-1.67.59-1.92,1.77l-.64,3.02h-.9l.66-3.1c.24-1.12-.24-1.69-1.14-1.69s-1.67.59-1.93,1.77l-.64,3.02h-.91l1.17-5.48h.91l-.17.79c.48-.58,1.2-.89,1.92-.89.9,0,1.56.4,1.75,1.22.49-.79,1.36-1.22,2.2-1.22,1.25,0,2.05.78,1.72,2.35l-.69,3.23h-.9l.66-3.1Z"/>
      <path class="cls-14" d="M56.3,57.81h.94l-5.01,8.06h-.94l1.64-2.64-1.06-5.42h1.01l.78,4.44,2.64-4.44Z"/>
    </g>
    <g>
      <path class="cls-14" d="M20.7,150.43h4.72l-.16.74h-1.9l-1.32,6.23h-.91l1.32-6.23h-1.91l.16-.74Z"/>
      <path class="cls-14" d="M26.63,150h.91l-.58,2.71c.48-.58,1.23-.89,2-.89,1.22,0,2.02.78,1.69,2.35l-.69,3.23h-.9l.66-3.1c.24-1.12-.25-1.69-1.17-1.69s-1.69.58-1.94,1.76l-.64,3.03h-.91l1.57-7.4Z"/>
      <path class="cls-14" d="M33.8,157.49c-1.56,0-2.48-1.1-2.11-2.84.37-1.73,1.71-2.82,3.31-2.82s2.39,1.12,2.07,2.62c-.04.2-.09.36-.15.55h-4.38c-.17,1.11.48,1.72,1.41,1.72.82,0,1.43-.42,1.75-1.01h.98c-.49,1-1.54,1.78-2.9,1.78ZM32.72,154.26h3.46c.24-1.07-.44-1.66-1.38-1.66-.89,0-1.76.59-2.08,1.66Z"/>
      <path class="cls-14" d="M48.89,154.3c.24-1.12-.24-1.69-1.14-1.69s-1.67.59-1.92,1.77l-.64,3.02h-.9l.66-3.1c.24-1.12-.24-1.69-1.14-1.69s-1.68.59-1.93,1.77l-.64,3.02h-.91l1.16-5.48h.91l-.17.79c.48-.58,1.2-.89,1.92-.89.9,0,1.56.4,1.75,1.22.49-.79,1.36-1.22,2.2-1.22,1.25,0,2.05.78,1.72,2.35l-.69,3.23h-.9l.66-3.1Z"/>
      <path class="cls-14" d="M51.79,151.92h.91l-1.16,5.48h-.91l1.16-5.48ZM51.96,150.41c.07-.35.4-.62.75-.62.33,0,.54.27.47.62-.07.35-.4.62-.73.62-.35,0-.56-.27-.49-.62Z"/>
      <path class="cls-14" d="M54.66,150h.91l-1.57,7.4h-.91l1.57-7.4Z"/>
      <path class="cls-14" d="M57.12,150h.91l-.92,4.35,2.63-2.43h1.27l-3.16,2.73,2,2.75h-1.24l-1.64-2.42-.51,2.42h-.91l1.57-7.4Z"/>
    </g>
    <g>
      <path class="cls-14" d="M114.25,57.81h.91l-1.17,5.48h-.91l1.17-5.48ZM114.43,56.3c.07-.35.4-.62.75-.62.33,0,.54.27.47.62-.07.35-.4.62-.73.62-.35,0-.56-.27-.49-.62Z"/>
      <path class="cls-14" d="M117.47,63.38c-1.28,0-2.03-.7-1.88-1.7h.94c-.06.53.32.93,1.09.93.72,0,1.2-.36,1.29-.81.26-1.22-3.13-.51-2.7-2.55.18-.84,1.11-1.53,2.33-1.53s1.87.65,1.7,1.72h-.91c.08-.55-.26-.95-.99-.95-.67,0-1.14.32-1.23.76-.28,1.3,3.05.59,2.68,2.55-.19.9-1.12,1.58-2.33,1.58Z"/>
    </g>
    <g>
      <path class="cls-14" d="M216.02,58.56h-.71l.16-.75h.71l.29-1.38h.91l-.29,1.38h1.43l-.16.75h-1.43l-.69,3.23c-.11.54.04.73.6.73h.67l-.16.77h-.82c-.97,0-1.43-.4-1.2-1.5l.69-3.23Z"/>
      <path class="cls-14" d="M221.9,57.72c1.02,0,1.61.52,1.81,1.09l.21-1h.92l-1.17,5.48h-.92l.22-1.02c-.46.59-1.28,1.11-2.28,1.11-1.46,0-2.34-1.15-1.98-2.85.36-1.71,1.73-2.81,3.2-2.81ZM221.91,58.51c-1,0-2,.73-2.28,2.02-.27,1.29.41,2.05,1.41,2.05s2.02-.75,2.29-2.04c.27-1.27-.43-2.03-1.43-2.03Z"/>
      <path class="cls-14" d="M226.79,55.89h.91l-1.57,7.4h-.91l1.57-7.4Z"/>
      <path class="cls-14" d="M229.25,55.89h.91l-1.57,7.4h-.91l1.57-7.4Z"/>
      <path class="cls-14" d="M230.42,63.35c-.35,0-.56-.27-.49-.62.07-.35.4-.62.75-.62.33,0,.54.27.47.62-.07.35-.4.62-.73.62Z"/>
    </g>
    <g>
      <path class="cls-14" d="M330.7,56.76l-1.28,6.02h.44l-.1.47h-1.79l.1-.47h.44l1.28-6.02h-.44l.1-.48h1.79l-.1.48h-.44Z"/>
      <path class="cls-14" d="M332.73,63.38c-1.28,0-2.03-.7-1.88-1.7h.94c-.06.53.32.93,1.09.93.72,0,1.2-.36,1.29-.81.26-1.22-3.13-.51-2.7-2.55.18-.84,1.11-1.53,2.33-1.53s1.87.65,1.7,1.72h-.91c.08-.55-.26-.95-.99-.95-.67,0-1.14.32-1.23.76-.28,1.3,3.05.59,2.68,2.55-.19.9-1.12,1.58-2.33,1.58Z"/>
    </g>
    <g>
      <path class="cls-14" d="M396.59,56.32h.92l-1.1,5.15c-.25,1.16-1.18,1.89-2.33,1.89s-1.78-.74-1.52-1.96h.91c-.13.64.07,1.15.79,1.15s1.12-.5,1.24-1.08l1.1-5.15Z"/>
      <path class="cls-14" d="M398.98,57.81h.91l-1.17,5.48h-.91l1.17-5.48ZM399.16,56.3c.07-.35.4-.62.75-.62.33,0,.54.27.47.62-.07.35-.4.62-.73.62-.35,0-.56-.27-.49-.62Z"/>
      <path class="cls-14" d="M408.84,60.19c.24-1.12-.24-1.69-1.14-1.69s-1.67.59-1.92,1.77l-.64,3.02h-.9l.66-3.1c.24-1.12-.24-1.69-1.14-1.69s-1.67.59-1.93,1.77l-.64,3.02h-.91l1.17-5.48h.91l-.17.79c.48-.58,1.2-.89,1.92-.89.9,0,1.56.4,1.75,1.22.49-.79,1.36-1.22,2.2-1.22,1.25,0,2.05.78,1.72,2.35l-.69,3.23h-.9l.66-3.1Z"/>
      <path class="cls-14" d="M419.14,60.19c.24-1.12-.24-1.69-1.14-1.69s-1.67.59-1.92,1.77l-.64,3.02h-.9l.66-3.1c.24-1.12-.24-1.69-1.14-1.69s-1.67.59-1.93,1.77l-.64,3.02h-.91l1.17-5.48h.91l-.17.79c.48-.58,1.2-.89,1.92-.89.9,0,1.56.4,1.75,1.22.49-.79,1.36-1.22,2.2-1.22,1.25,0,2.05.78,1.72,2.35l-.69,3.23h-.9l.66-3.1Z"/>
      <path class="cls-14" d="M425.82,57.81h.94l-5.01,8.06h-.94l1.64-2.64-1.06-5.42h1.01l.78,4.44,2.64-4.44Z"/>
    </g>
    <g>
      <path class="cls-14" d="M483.24,58.56h-.71l.16-.75h.71l.29-1.38h.91l-.29,1.38h1.43l-.16.75h-1.43l-.69,3.23c-.11.54.04.73.6.73h.67l-.16.77h-.82c-.97,0-1.43-.4-1.2-1.5l.69-3.23Z"/>
      <path class="cls-14" d="M489.12,57.72c1.02,0,1.61.52,1.81,1.09l.21-1h.92l-1.17,5.48h-.92l.22-1.02c-.46.59-1.28,1.11-2.28,1.11-1.46,0-2.34-1.15-1.98-2.85.36-1.71,1.73-2.81,3.2-2.81ZM489.13,58.51c-1,0-2,.73-2.28,2.02-.27,1.29.41,2.05,1.41,2.05s2.02-.75,2.29-2.04c.27-1.27-.43-2.03-1.43-2.03Z"/>
      <path class="cls-14" d="M494.01,55.89h.91l-1.57,7.4h-.91l1.57-7.4Z"/>
      <path class="cls-14" d="M496.47,55.89h.91l-1.57,7.4h-.91l1.57-7.4Z"/>
      <path class="cls-14" d="M498.49,63.35c-.35,0-.56-.27-.49-.62.07-.35.4-.62.75-.62.33,0,.54.27.47.62-.07.35-.4.62-.73.62ZM500.64,56.23c1.31,0,2.04.79,1.77,2.06-.31,1.46-1.45,2.06-2.85,2.06l-.23.95h-.79l.3-1.58h.29c1.14,0,2.16-.22,2.41-1.43.17-.8-.24-1.3-1.05-1.3s-1.43.47-1.59,1.25h-.86c.25-1.21,1.3-2.01,2.61-2.01Z"/>
    </g>
    <g>
      <path class="cls-14" d="M8.96,77.81h4.72l-.16.74h-1.9l-1.32,6.23h-.91l1.32-6.23h-1.91l.16-.74Z"/>
      <path class="cls-14" d="M14.89,77.38h.91l-.58,2.71c.48-.58,1.23-.89,2-.89,1.22,0,2.02.78,1.69,2.35l-.69,3.23h-.9l.66-3.1c.24-1.12-.25-1.69-1.17-1.69s-1.69.58-1.94,1.76l-.64,3.03h-.91l1.57-7.4Z"/>
      <path class="cls-14" d="M22.07,84.87c-1.56,0-2.48-1.1-2.11-2.84.37-1.73,1.71-2.82,3.31-2.82s2.39,1.12,2.07,2.62c-.04.2-.09.36-.15.55h-4.38c-.17,1.11.48,1.72,1.41,1.72.82,0,1.43-.42,1.75-1.01h.98c-.49,1-1.54,1.78-2.9,1.78ZM20.99,81.64h3.46c.24-1.07-.44-1.66-1.38-1.66-.89,0-1.76.59-2.08,1.66Z"/>
      <path class="cls-14" d="M30.51,84.87c-1.28,0-2.03-.7-1.88-1.7h.94c-.06.53.32.93,1.09.93.72,0,1.2-.36,1.29-.81.26-1.22-3.13-.51-2.7-2.55.18-.84,1.11-1.53,2.33-1.53s1.87.65,1.7,1.72h-.91c.08-.55-.26-.95-.99-.95-.67,0-1.14.32-1.23.76-.28,1.3,3.05.59,2.68,2.55-.19.9-1.12,1.58-2.33,1.58Z"/>
      <path class="cls-14" d="M35.02,80.05h-.71l.16-.75h.71l.29-1.38h.91l-.29,1.38h1.43l-.16.75h-1.43l-.69,3.23c-.11.54.04.73.6.73h.67l-.16.77h-.82c-.97,0-1.43-.4-1.2-1.5l.69-3.23Z"/>
      <path class="cls-14" d="M42.31,84.78h-.91l.17-.81c-.47.57-1.21.89-1.94.89-1.26,0-2.08-.78-1.75-2.35l.68-3.21h.9l-.66,3.09c-.24,1.11.25,1.68,1.17,1.68s1.69-.58,1.94-1.76l.64-3.01h.91l-1.17,5.48Z"/>
      <path class="cls-14" d="M47.3,79.21c.86,0,1.56.44,1.8,1.07l.62-2.9h.92l-1.57,7.4h-.92l.22-1.03c-.46.61-1.28,1.12-2.28,1.12-1.47,0-2.35-1.15-1.99-2.85.36-1.71,1.73-2.81,3.21-2.81ZM47.3,80c-1,0-2,.73-2.28,2.02-.27,1.29.41,2.05,1.41,2.05s2.02-.75,2.29-2.04c.27-1.27-.43-2.03-1.43-2.03Z"/>
      <path class="cls-14" d="M52.96,84.87c-1.56,0-2.48-1.1-2.11-2.84.37-1.73,1.71-2.82,3.31-2.82s2.39,1.12,2.07,2.62c-.04.2-.09.36-.15.55h-4.38c-.17,1.11.48,1.72,1.41,1.72.82,0,1.43-.42,1.75-1.01h.98c-.49,1-1.54,1.78-2.9,1.78ZM51.88,81.64h3.46c.24-1.07-.44-1.66-1.38-1.66-.89,0-1.76.59-2.08,1.66Z"/>
      <path class="cls-14" d="M61.48,81.68c.24-1.12-.25-1.69-1.17-1.69s-1.69.58-1.94,1.76l-.64,3.03h-.91l1.17-5.48h.91l-.17.78c.48-.57,1.21-.88,1.95-.88,1.27,0,2.07.78,1.74,2.35l-.69,3.23h-.9l.66-3.1Z"/>
      <path class="cls-14" d="M64.42,80.05h-.71l.16-.75h.71l.29-1.38h.91l-.29,1.38h1.43l-.16.75h-1.43l-.69,3.23c-.11.54.04.73.6.73h.67l-.16.77h-.82c-.97,0-1.43-.4-1.2-1.5l.69-3.23Z"/>
      <path class="cls-14" d="M68.77,84.87c-1.28,0-2.03-.7-1.88-1.7h.94c-.06.53.32.93,1.09.93.72,0,1.2-.36,1.29-.81.26-1.22-3.13-.51-2.7-2.55.18-.84,1.11-1.53,2.33-1.53s1.87.65,1.7,1.72h-.91c.08-.55-.26-.95-.99-.95-.67,0-1.14.32-1.23.76-.28,1.3,3.05.59,2.68,2.55-.19.9-1.12,1.58-2.33,1.58Z"/>
    </g>
    <g class="cls-19">
      <g>
        <path class="cls-14" d="M11.63,171.92h4.72l-.16.74h-1.9l-1.32,6.23h-.91l1.32-6.23h-1.91l.16-.74Z"/>
        <path class="cls-14" d="M17.56,171.49h.91l-.58,2.71c.48-.58,1.23-.89,2-.89,1.22,0,2.02.78,1.69,2.35l-.69,3.23h-.9l.66-3.1c.24-1.12-.25-1.69-1.17-1.69s-1.69.58-1.94,1.76l-.64,3.03h-.91l1.57-7.4Z"/>
        <path class="cls-14" d="M24.74,178.98c-1.56,0-2.48-1.1-2.11-2.84.37-1.73,1.71-2.82,3.31-2.82s2.39,1.12,2.07,2.62c-.04.2-.09.36-.15.55h-4.38c-.17,1.11.48,1.72,1.41,1.72.82,0,1.43-.42,1.75-1.01h.98c-.49,1-1.54,1.78-2.9,1.78ZM23.66,175.75h3.46c.24-1.07-.44-1.66-1.38-1.66-.89,0-1.75.59-2.08,1.66Z"/>
        <path class="cls-14" d="M29.75,173.41h.91l-1.16,5.48h-.91l1.16-5.48ZM29.93,171.9c.07-.35.4-.62.75-.62.33,0,.54.27.47.62-.07.35-.4.62-.73.62-.35,0-.56-.27-.49-.62Z"/>
        <path class="cls-14" d="M31.96,178.89h-.91l1.16-5.48h.91l-.19.89c.44-.61,1.11-.99,1.98-.99l-.2.94h-.24c-.87,0-1.61.39-1.88,1.66l-.63,2.98Z"/>
        <path class="cls-14" d="M38.94,173.41l.72,4.64,2.69-4.64h.97l-3.31,5.48h-1.06l-.98-5.48h.98Z"/>
        <path class="cls-14" d="M45.43,178.98c-1.55,0-2.5-1.1-2.12-2.84.37-1.73,1.82-2.82,3.37-2.82s2.54,1.09,2.17,2.82c-.37,1.74-1.85,2.84-3.41,2.84ZM45.6,178.18c.95,0,2.02-.65,2.31-2.04.29-1.38-.48-2.03-1.42-2.03s-1.97.65-2.26,2.03c-.3,1.39.42,2.04,1.37,2.04Z"/>
        <path class="cls-14" d="M50.62,173.41h.91l-1.16,5.48h-.91l1.16-5.48ZM50.8,171.9c.07-.35.4-.62.75-.62.33,0,.54.27.47.62-.07.35-.4.62-.73.62-.35,0-.56-.27-.49-.62Z"/>
        <path class="cls-14" d="M55.43,173.32c1.36,0,2.1.7,2.13,1.85h-.98c-.05-.66-.51-1.08-1.32-1.08-1,0-1.89.71-2.17,2.05-.29,1.36.3,2.07,1.3,2.07.81,0,1.43-.39,1.78-1.08h.98c-.51,1.09-1.56,1.85-2.92,1.85-1.56,0-2.44-1.1-2.07-2.84.37-1.72,1.71-2.82,3.27-2.82Z"/>
        <path class="cls-14" d="M60.34,178.98c-1.56,0-2.48-1.1-2.11-2.84.37-1.73,1.71-2.82,3.31-2.82s2.39,1.12,2.07,2.62c-.04.2-.09.36-.15.55h-4.38c-.17,1.11.48,1.72,1.41,1.72.82,0,1.43-.42,1.75-1.01h.98c-.49,1-1.54,1.78-2.9,1.78ZM59.26,175.75h3.46c.24-1.07-.44-1.66-1.38-1.66-.89,0-1.75.59-2.08,1.66Z"/>
        <path class="cls-14" d="M66.11,178.98c-1.28,0-2.03-.7-1.88-1.7h.94c-.06.53.32.93,1.09.93.72,0,1.2-.36,1.29-.81.26-1.22-3.13-.51-2.7-2.55.18-.84,1.11-1.53,2.33-1.53s1.87.65,1.7,1.72h-.91c.08-.55-.26-.95-.99-.95-.67,0-1.14.32-1.23.76-.28,1.3,3.05.59,2.68,2.55-.19.9-1.12,1.58-2.33,1.58Z"/>
      </g>
    </g>
    <g>
      <path class="cls-14" d="M111.97,79.21c1.02,0,1.61.52,1.81,1.09l.21-1h.92l-1.17,5.48h-.92l.22-1.02c-.46.59-1.28,1.11-2.28,1.11-1.46,0-2.34-1.15-1.98-2.85.36-1.71,1.73-2.81,3.2-2.81ZM111.98,80c-1,0-2,.73-2.28,2.02-.27,1.29.41,2.05,1.41,2.05s2.02-.75,2.29-2.04c.27-1.27-.43-2.03-1.43-2.03Z"/>
      <path class="cls-14" d="M116.19,84.78h-.91l1.17-5.48h.91l-.19.89c.44-.61,1.11-.99,1.98-.99l-.2.94h-.24c-.87,0-1.61.39-1.88,1.66l-.63,2.98Z"/>
      <path class="cls-14" d="M121.36,84.87c-1.56,0-2.48-1.1-2.11-2.84.37-1.73,1.71-2.82,3.31-2.82s2.39,1.12,2.07,2.62c-.04.2-.09.36-.15.55h-4.38c-.17,1.11.48,1.72,1.41,1.72.82,0,1.43-.42,1.75-1.01h.98c-.49,1-1.54,1.78-2.9,1.78ZM120.28,81.64h3.46c.24-1.07-.44-1.66-1.38-1.66-.89,0-1.76.59-2.08,1.66Z"/>
    </g>
    <g class="cls-18">
      <g>
        <path class="cls-14" d="M103.25,178.98c-1.28,0-2.03-.7-1.88-1.7h.94c-.06.53.32.93,1.09.93.72,0,1.2-.36,1.29-.81.26-1.22-3.13-.51-2.7-2.55.18-.84,1.11-1.53,2.33-1.53s1.87.65,1.7,1.72h-.91c.08-.55-.26-.95-.99-.95-.67,0-1.14.32-1.23.76-.28,1.3,3.05.59,2.68,2.55-.19.9-1.12,1.58-2.33,1.58Z"/>
        <path class="cls-14" d="M108.92,178.98c-1.55,0-2.5-1.1-2.12-2.84.37-1.73,1.82-2.82,3.37-2.82s2.54,1.09,2.17,2.82c-.37,1.74-1.85,2.84-3.41,2.84ZM109.09,178.18c.95,0,2.02-.65,2.31-2.04.29-1.38-.48-2.03-1.42-2.03s-1.97.65-2.26,2.03c-.3,1.39.42,2.04,1.37,2.04Z"/>
        <path class="cls-14" d="M117.81,178.89h-.91l.17-.81c-.47.57-1.21.89-1.94.89-1.26,0-2.08-.78-1.75-2.35l.68-3.21h.9l-.66,3.09c-.24,1.11.25,1.68,1.17,1.68s1.69-.58,1.94-1.76l.64-3.01h.91l-1.16,5.48Z"/>
        <path class="cls-14" d="M124.01,175.79c.24-1.12-.25-1.69-1.17-1.69s-1.69.58-1.94,1.76l-.64,3.03h-.91l1.16-5.48h.91l-.17.78c.48-.57,1.21-.88,1.95-.88,1.27,0,2.07.78,1.74,2.35l-.69,3.23h-.9l.66-3.1Z"/>
        <path class="cls-14" d="M129.2,173.32c.86,0,1.56.44,1.8,1.07l.62-2.9h.92l-1.57,7.4h-.92l.22-1.03c-.46.61-1.28,1.12-2.28,1.12-1.47,0-2.35-1.15-1.99-2.85.36-1.71,1.73-2.81,3.21-2.81ZM129.2,174.11c-1,0-2,.73-2.28,2.02-.27,1.29.41,2.05,1.41,2.05s2.02-.75,2.29-2.04c.27-1.27-.43-2.03-1.43-2.03Z"/>
      </g>
      <g>
        <path class="cls-14" d="M177.52,173.32c1.36,0,2.1.7,2.13,1.85h-.98c-.05-.66-.51-1.08-1.32-1.08-1,0-1.89.71-2.17,2.05-.29,1.36.3,2.07,1.3,2.07.81,0,1.43-.39,1.78-1.08h.98c-.51,1.09-1.56,1.85-2.92,1.85-1.56,0-2.44-1.1-2.07-2.84.37-1.72,1.71-2.82,3.27-2.82Z"/>
        <path class="cls-14" d="M181.65,171.49h.91l-1.57,7.4h-.91l1.57-7.4Z"/>
        <path class="cls-14" d="M184.89,178.98c-1.56,0-2.48-1.1-2.11-2.84.37-1.73,1.71-2.82,3.31-2.82s2.39,1.12,2.07,2.62c-.04.2-.09.36-.15.55h-4.38c-.17,1.11.48,1.72,1.41,1.72.82,0,1.43-.42,1.75-1.01h.98c-.49,1-1.54,1.78-2.9,1.78ZM183.81,175.75h3.46c.24-1.07-.44-1.66-1.38-1.66-.89,0-1.75.59-2.08,1.66Z"/>
        <path class="cls-14" d="M192.18,173.32c1.02,0,1.61.52,1.81,1.09l.21-1h.92l-1.16,5.48h-.92l.22-1.02c-.46.59-1.28,1.11-2.28,1.11-1.46,0-2.34-1.15-1.98-2.85.36-1.71,1.73-2.81,3.2-2.81ZM192.19,174.11c-1,0-2,.73-2.28,2.02-.27,1.29.41,2.05,1.41,2.05s2.02-.75,2.29-2.04c.27-1.27-.43-2.03-1.43-2.03Z"/>
        <path class="cls-14" d="M196.41,178.89h-.91l1.16-5.48h.91l-.19.89c.44-.61,1.11-.99,1.98-.99l-.2.94h-.24c-.87,0-1.61.39-1.88,1.66l-.63,2.98Z"/>
        <path class="cls-14" d="M199.51,178.95c-.35,0-.56-.27-.49-.62.07-.35.4-.62.75-.62.33,0,.54.27.47.62-.07.35-.4.62-.73.62Z"/>
      </g>
      <g>
        <path class="cls-14" d="M261.68,175.42c-.46,2.16-2.15,3.47-4.44,3.47h-2.17l1.48-6.97h2.17c2.29,0,3.41,1.34,2.95,3.5ZM257.41,178.14c1.82,0,2.99-1.02,3.35-2.72.36-1.7-.36-2.76-2.18-2.76h-1.26l-1.16,5.48h1.26Z"/>
        <path class="cls-14" d="M264.52,178.98c-1.55,0-2.5-1.1-2.12-2.84.37-1.73,1.82-2.82,3.37-2.82s2.54,1.09,2.17,2.82c-.37,1.74-1.85,2.84-3.41,2.84ZM264.69,178.18c.95,0,2.02-.65,2.31-2.04.29-1.38-.48-2.03-1.42-2.03s-1.97.65-2.26,2.03c-.3,1.39.42,2.04,1.37,2.04Z"/>
      </g>
      <g>
        <path class="cls-14" d="M308.59,174.16h-.71l.16-.75h.71l.29-1.38h.91l-.29,1.38h1.43l-.16.75h-1.43l-.69,3.23c-.11.54.04.73.6.73h.67l-.16.77h-.82c-.97,0-1.43-.4-1.2-1.5l.69-3.23Z"/>
        <path class="cls-14" d="M312.6,171.49h.91l-.58,2.71c.48-.58,1.23-.89,2-.89,1.22,0,2.02.78,1.69,2.35l-.69,3.23h-.9l.66-3.1c.24-1.12-.25-1.69-1.17-1.69s-1.69.58-1.94,1.76l-.64,3.03h-.91l1.57-7.4Z"/>
        <path class="cls-14" d="M319.78,178.98c-1.56,0-2.48-1.1-2.11-2.84.37-1.73,1.71-2.82,3.31-2.82s2.39,1.12,2.07,2.62c-.04.2-.09.36-.15.55h-4.38c-.17,1.11.48,1.72,1.41,1.72.82,0,1.43-.42,1.75-1.01h.98c-.49,1-1.54,1.78-2.9,1.78ZM318.7,175.75h3.46c.24-1.07-.44-1.66-1.38-1.66-.89,0-1.75.59-2.08,1.66Z"/>
        <path class="cls-14" d="M324.79,173.41h.91l-1.16,5.48h-.91l1.16-5.48ZM324.97,171.9c.07-.35.4-.62.75-.62.33,0,.54.27.47.62-.07.35-.4.62-.73.62-.35,0-.56-.27-.49-.62Z"/>
        <path class="cls-14" d="M327,178.89h-.91l1.16-5.48h.91l-.19.89c.44-.61,1.11-.99,1.98-.99l-.2.94h-.24c-.87,0-1.61.39-1.88,1.66l-.63,2.98Z"/>
        <path class="cls-14" d="M333.98,173.41l.72,4.64,2.69-4.64h.97l-3.31,5.48h-1.06l-.98-5.48h.98Z"/>
        <path class="cls-14" d="M340.47,178.98c-1.55,0-2.5-1.1-2.12-2.84.37-1.73,1.82-2.82,3.37-2.82s2.54,1.09,2.17,2.82c-.37,1.74-1.85,2.84-3.41,2.84ZM340.64,178.18c.95,0,2.02-.65,2.31-2.04.29-1.38-.48-2.03-1.42-2.03s-1.97.65-2.26,2.03c-.3,1.39.42,2.04,1.37,2.04Z"/>
        <path class="cls-14" d="M345.66,173.41h.91l-1.16,5.48h-.91l1.16-5.48ZM345.83,171.9c.07-.35.4-.62.75-.62.33,0,.54.27.47.62-.07.35-.4.62-.73.62-.35,0-.56-.27-.49-.62Z"/>
        <path class="cls-14" d="M350.47,173.32c1.36,0,2.1.7,2.13,1.85h-.98c-.05-.66-.51-1.08-1.32-1.08-1,0-1.89.71-2.17,2.05-.29,1.36.3,2.07,1.3,2.07.81,0,1.43-.39,1.78-1.08h.98c-.51,1.09-1.56,1.85-2.92,1.85-1.56,0-2.44-1.1-2.07-2.84.37-1.72,1.71-2.82,3.27-2.82Z"/>
        <path class="cls-14" d="M355.38,178.98c-1.56,0-2.48-1.1-2.11-2.84.37-1.73,1.71-2.82,3.31-2.82s2.39,1.12,2.07,2.62c-.04.2-.09.36-.15.55h-4.38c-.17,1.11.48,1.72,1.41,1.72.82,0,1.43-.42,1.75-1.01h.98c-.49,1-1.54,1.78-2.9,1.78ZM354.3,175.75h3.46c.24-1.07-.44-1.66-1.38-1.66-.89,0-1.75.59-2.08,1.66Z"/>
        <path class="cls-14" d="M361.15,178.98c-1.28,0-2.03-.7-1.88-1.7h.94c-.06.53.32.93,1.09.93.72,0,1.2-.36,1.29-.81.26-1.22-3.13-.51-2.7-2.55.18-.84,1.11-1.53,2.33-1.53s1.87.65,1.7,1.72h-.91c.08-.55-.26-.95-.99-.95-.67,0-1.14.32-1.23.76-.28,1.3,3.05.59,2.68,2.55-.19.9-1.12,1.58-2.33,1.58Z"/>
      </g>
    </g>
    <g>
      <path class="cls-14" d="M102.68,152.14h-.71l.16-.75h.71l.29-1.38h.91l-.29,1.38h1.43l-.16.75h-1.43l-.69,3.23c-.11.54.05.73.6.73h.67l-.16.77h-.82c-.97,0-1.43-.4-1.2-1.5l.69-3.23Z"/>
      <path class="cls-14" d="M108.56,151.3c1.02,0,1.61.52,1.81,1.09l.21-1h.92l-1.17,5.48h-.92l.22-1.02c-.46.59-1.28,1.11-2.28,1.11-1.46,0-2.34-1.15-1.98-2.85.36-1.71,1.73-2.81,3.2-2.81ZM108.57,152.09c-1,0-2,.73-2.28,2.02s.41,2.05,1.41,2.05,2.02-.75,2.29-2.04c.27-1.27-.43-2.03-1.43-2.03Z"/>
      <path class="cls-14" d="M113.8,156.96c-1.28,0-2.03-.7-1.88-1.7h.94c-.06.53.32.93,1.09.93.72,0,1.2-.36,1.29-.81.26-1.22-3.13-.51-2.7-2.55.18-.84,1.11-1.53,2.33-1.53s1.87.65,1.7,1.72h-.91c.08-.55-.26-.95-.99-.95-.67,0-1.14.32-1.23.76-.28,1.3,3.05.59,2.68,2.55-.19.9-1.12,1.58-2.33,1.58Z"/>
      <path class="cls-14" d="M118.3,152.14h-.71l.16-.75h.71l.29-1.38h.91l-.29,1.38h1.43l-.16.75h-1.43l-.69,3.23c-.11.54.05.73.6.73h.67l-.16.77h-.82c-.97,0-1.43-.4-1.2-1.5l.69-3.23Z"/>
      <path class="cls-14" d="M123.09,156.96c-1.56,0-2.48-1.1-2.1-2.84.37-1.73,1.71-2.82,3.31-2.82s2.39,1.12,2.07,2.62c-.04.2-.09.36-.15.55h-4.38c-.17,1.11.48,1.72,1.41,1.72.82,0,1.43-.42,1.75-1.01h.98c-.49,1-1.54,1.78-2.9,1.78ZM122.01,153.73h3.46c.24-1.07-.44-1.66-1.38-1.66-.89,0-1.76.59-2.08,1.66Z"/>
      <path class="cls-14" d="M128.86,156.96c-1.28,0-2.03-.7-1.88-1.7h.94c-.06.53.32.93,1.09.93.72,0,1.2-.36,1.29-.81.26-1.22-3.13-.51-2.7-2.55.18-.84,1.11-1.53,2.33-1.53s1.87.65,1.7,1.72h-.91c.08-.55-.26-.95-.99-.95-.67,0-1.14.32-1.23.76-.28,1.3,3.05.59,2.68,2.55-.19.9-1.12,1.58-2.33,1.58Z"/>
    </g>
    <g>
      <path class="cls-14" d="M177.61,156.96c-1.28,0-2.03-.7-1.88-1.7h.94c-.06.53.32.93,1.09.93.72,0,1.2-.36,1.29-.81.26-1.22-3.13-.51-2.7-2.55.18-.84,1.11-1.53,2.33-1.53s1.87.65,1.7,1.72h-.91c.08-.55-.26-.95-.99-.95-.67,0-1.14.32-1.23.76-.28,1.3,3.05.59,2.68,2.55-.19.9-1.12,1.58-2.33,1.58Z"/>
      <path class="cls-14" d="M183.28,156.96c-1.55,0-2.49-1.1-2.12-2.84.37-1.73,1.82-2.82,3.37-2.82s2.54,1.09,2.17,2.82c-.37,1.74-1.85,2.84-3.41,2.84ZM183.45,156.16c.95,0,2.02-.65,2.31-2.04.29-1.38-.48-2.03-1.42-2.03s-1.97.65-2.26,2.03c-.3,1.39.42,2.04,1.36,2.04Z"/>
      <path class="cls-14" d="M192.17,156.87h-.91l.17-.81c-.47.57-1.21.89-1.94.89-1.26,0-2.08-.78-1.75-2.35l.68-3.21h.9l-.66,3.09c-.24,1.11.25,1.68,1.17,1.68s1.69-.58,1.94-1.76l.64-3.01h.91l-1.17,5.48Z"/>
      <path class="cls-14" d="M194.62,156.87h-.91l1.17-5.48h.91l-.19.89c.44-.61,1.11-.99,1.98-.99l-.2.94h-.24c-.87,0-1.61.39-1.88,1.66l-.63,2.98Z"/>
      <path class="cls-14" d="M197.72,156.93c-.35,0-.56-.27-.49-.62.07-.35.4-.62.75-.62.33,0,.54.27.47.62-.07.35-.4.62-.73.62Z"/>
    </g>
    <g>
      <path class="cls-14" d="M255.92,153.4c-.46,2.16-2.15,3.47-4.44,3.47h-2.17l1.48-6.97h2.17c2.29,0,3.41,1.34,2.95,3.5ZM251.65,156.12c1.82,0,2.99-1.02,3.35-2.72s-.36-2.76-2.18-2.76h-1.26l-1.16,5.48h1.26Z"/>
      <path class="cls-14" d="M258.76,156.96c-1.55,0-2.49-1.1-2.12-2.84.37-1.73,1.82-2.82,3.37-2.82s2.54,1.09,2.17,2.82c-.37,1.74-1.85,2.84-3.41,2.84ZM258.93,156.16c.95,0,2.02-.65,2.31-2.04.29-1.38-.48-2.03-1.42-2.03s-1.97.65-2.26,2.03c-.3,1.39.42,2.04,1.36,2.04Z"/>
      <path class="cls-14" d="M265.14,156.96c-1.56,0-2.48-1.1-2.1-2.84.37-1.73,1.71-2.82,3.31-2.82s2.39,1.12,2.07,2.62c-.04.2-.09.36-.15.55h-4.38c-.17,1.11.48,1.72,1.41,1.72.82,0,1.43-.42,1.75-1.01h.98c-.49,1-1.54,1.78-2.9,1.78ZM264.06,153.73h3.46c.24-1.07-.44-1.66-1.38-1.66-.89,0-1.76.59-2.08,1.66Z"/>
      <path class="cls-14" d="M270.91,156.96c-1.28,0-2.03-.7-1.88-1.7h.94c-.06.53.32.93,1.09.93.72,0,1.2-.36,1.29-.81.26-1.22-3.13-.51-2.7-2.55.18-.84,1.11-1.53,2.33-1.53s1.87.65,1.7,1.72h-.91c.08-.55-.26-.95-.99-.95-.67,0-1.14.32-1.23.76-.28,1.3,3.05.59,2.68,2.55-.19.9-1.12,1.58-2.33,1.58Z"/>
    </g>
    <g>
      <path class="cls-14" d="M317.43,152.14h-.71l.16-.75h.71l.29-1.38h.91l-.29,1.38h1.43l-.16.75h-1.43l-.69,3.23c-.11.54.05.73.6.73h.67l-.16.77h-.82c-.97,0-1.43-.4-1.2-1.5l.69-3.23Z"/>
      <path class="cls-14" d="M321.44,149.47h.91l-.58,2.71c.48-.58,1.23-.89,2-.89,1.22,0,2.02.78,1.69,2.35l-.69,3.23h-.9l.66-3.1c.24-1.12-.25-1.69-1.17-1.69s-1.69.58-1.94,1.76l-.64,3.03h-.91l1.57-7.4Z"/>
      <path class="cls-14" d="M328.62,156.96c-1.56,0-2.48-1.1-2.1-2.84.37-1.73,1.71-2.82,3.31-2.82s2.39,1.12,2.07,2.62c-.04.2-.09.36-.15.55h-4.38c-.17,1.11.48,1.72,1.41,1.72.82,0,1.43-.42,1.75-1.01h.98c-.49,1-1.54,1.78-2.9,1.78ZM327.54,153.73h3.46c.24-1.07-.44-1.66-1.38-1.66-.89,0-1.76.59-2.08,1.66Z"/>
      <path class="cls-14" d="M343.7,153.77c.24-1.12-.24-1.69-1.14-1.69s-1.67.59-1.93,1.77l-.64,3.02h-.9l.66-3.1c.24-1.12-.24-1.69-1.14-1.69s-1.68.59-1.93,1.77l-.64,3.02h-.91l1.17-5.48h.91l-.17.79c.48-.58,1.2-.89,1.92-.89.9,0,1.56.4,1.75,1.22.49-.79,1.36-1.22,2.2-1.22,1.25,0,2.05.78,1.72,2.35l-.69,3.23h-.9l.66-3.1Z"/>
      <path class="cls-14" d="M346.6,151.39h.91l-1.17,5.48h-.91l1.17-5.48ZM346.78,149.88c.07-.35.4-.62.75-.62.33,0,.54.27.47.62-.07.35-.4.62-.73.62-.35,0-.56-.27-.49-.62Z"/>
      <path class="cls-14" d="M349.47,149.47h.91l-1.57,7.4h-.91l1.57-7.4Z"/>
      <path class="cls-14" d="M351.93,149.47h.91l-.92,4.35,2.63-2.43h1.27l-3.16,2.73,2,2.75h-1.24l-1.63-2.42-.51,2.42h-.91l1.57-7.4Z"/>
    </g>
    <g>
      <path class="cls-14" d="M397.04,152.14h-.71l.16-.75h.71l.29-1.38h.91l-.29,1.38h1.43l-.16.75h-1.43l-.69,3.23c-.11.54.05.73.6.73h.67l-.16.77h-.82c-.97,0-1.43-.4-1.2-1.5l.69-3.23Z"/>
      <path class="cls-14" d="M402.92,151.3c1.02,0,1.61.52,1.81,1.09l.21-1h.92l-1.17,5.48h-.92l.22-1.02c-.46.59-1.28,1.11-2.28,1.11-1.46,0-2.34-1.15-1.98-2.85.36-1.71,1.73-2.81,3.2-2.81ZM402.93,152.09c-1,0-2,.73-2.28,2.02s.41,2.05,1.41,2.05,2.02-.75,2.29-2.04c.27-1.27-.43-2.03-1.43-2.03Z"/>
      <path class="cls-14" d="M408.16,156.96c-1.28,0-2.03-.7-1.88-1.7h.94c-.06.53.32.93,1.09.93.72,0,1.2-.36,1.29-.81.26-1.22-3.13-.51-2.7-2.55.18-.84,1.11-1.53,2.33-1.53s1.87.65,1.7,1.72h-.91c.08-.55-.26-.95-.99-.95-.67,0-1.14.32-1.23.76-.28,1.3,3.05.59,2.68,2.55-.19.9-1.12,1.58-2.33,1.58Z"/>
      <path class="cls-14" d="M412.66,152.14h-.71l.16-.75h.71l.29-1.38h.91l-.29,1.38h1.43l-.16.75h-1.43l-.69,3.23c-.11.54.05.73.6.73h.67l-.16.77h-.82c-.97,0-1.43-.4-1.2-1.5l.69-3.23Z"/>
      <path class="cls-14" d="M417.45,156.96c-1.56,0-2.48-1.1-2.1-2.84.37-1.73,1.71-2.82,3.31-2.82s2.39,1.12,2.07,2.62c-.04.2-.09.36-.15.55h-4.38c-.17,1.11.48,1.72,1.41,1.72.82,0,1.43-.42,1.75-1.01h.98c-.49,1-1.54,1.78-2.9,1.78ZM416.36,153.73h3.46c.24-1.07-.44-1.66-1.38-1.66-.89,0-1.76.59-2.08,1.66Z"/>
    </g>
    <g>
      <path class="cls-14" d="M480.75,156.96c-1.28,0-2.03-.7-1.88-1.7h.94c-.06.53.32.93,1.09.93.72,0,1.2-.36,1.29-.81.26-1.22-3.13-.51-2.7-2.55.18-.84,1.11-1.53,2.33-1.53s1.87.65,1.7,1.72h-.91c.08-.55-.26-.95-.99-.95-.67,0-1.14.32-1.23.76-.28,1.3,3.05.59,2.68,2.55-.19.9-1.12,1.58-2.33,1.58Z"/>
      <path class="cls-14" d="M486.42,156.96c-1.55,0-2.49-1.1-2.12-2.84.37-1.73,1.82-2.82,3.37-2.82s2.54,1.09,2.17,2.82c-.37,1.74-1.85,2.84-3.41,2.84ZM486.59,156.16c.95,0,2.02-.65,2.31-2.04.29-1.38-.48-2.03-1.42-2.03s-1.97.65-2.26,2.03c-.3,1.39.42,2.04,1.36,2.04Z"/>
      <path class="cls-14" d="M495.31,156.87h-.91l.17-.81c-.47.57-1.21.89-1.94.89-1.26,0-2.08-.78-1.75-2.35l.68-3.21h.9l-.66,3.09c-.24,1.11.25,1.68,1.17,1.68s1.69-.58,1.94-1.76l.64-3.01h.91l-1.17,5.48Z"/>
      <path class="cls-14" d="M497.76,156.87h-.91l1.17-5.48h.91l-.19.89c.44-.61,1.11-.99,1.98-.99l-.2.94h-.24c-.87,0-1.61.39-1.88,1.66l-.63,2.98Z"/>
      <path class="cls-14" d="M501.72,156.93c-.35,0-.56-.27-.49-.62.07-.35.4-.62.75-.62.33,0,.54.27.47.62-.07.35-.4.62-.73.62ZM503.86,149.81c1.31,0,2.04.79,1.77,2.06-.31,1.46-1.45,2.06-2.85,2.06l-.23.95h-.79l.3-1.58h.29c1.14,0,2.16-.22,2.41-1.43.17-.8-.24-1.3-1.05-1.3s-1.43.47-1.59,1.25h-.86c.25-1.21,1.3-2.01,2.61-2.01Z"/>
    </g>
    <g>
      <path class="cls-14" d="M208.05,77.38h.91l-.58,2.71c.48-.58,1.23-.89,2-.89,1.22,0,2.02.78,1.69,2.35l-.69,3.23h-.9l.66-3.1c.24-1.12-.25-1.69-1.17-1.69s-1.69.58-1.94,1.76l-.64,3.03h-.91l1.57-7.4Z"/>
      <path class="cls-14" d="M216.32,79.21c1.02,0,1.61.52,1.81,1.09l.21-1h.92l-1.17,5.48h-.92l.22-1.02c-.46.59-1.28,1.11-2.28,1.11-1.46,0-2.34-1.15-1.98-2.85.36-1.71,1.73-2.81,3.2-2.81ZM216.34,80c-1,0-2,.73-2.28,2.02-.27,1.29.41,2.05,1.41,2.05s2.02-.75,2.29-2.04c.27-1.27-.43-2.03-1.43-2.03Z"/>
      <path class="cls-14" d="M223.78,79.21c1.47,0,2.37,1.1,2,2.81-.36,1.7-1.73,2.85-3.2,2.85-1,0-1.59-.54-1.82-1.1l-.77,3.61h-.91l1.72-8.08h.91l-.21,1.01c.45-.58,1.28-1.1,2.28-1.1ZM223.43,80c-.99,0-2.02.76-2.29,2.03-.27,1.29.44,2.04,1.43,2.04s2.02-.76,2.29-2.05c.27-1.29-.42-2.02-1.43-2.02Z"/>
      <path class="cls-14" d="M230.54,79.21c1.47,0,2.37,1.1,2,2.81-.36,1.7-1.73,2.85-3.2,2.85-1,0-1.59-.54-1.82-1.1l-.77,3.61h-.91l1.72-8.08h.91l-.21,1.01c.45-.58,1.28-1.1,2.28-1.1ZM230.19,80c-.99,0-2.02.76-2.29,2.03-.27,1.29.44,2.04,1.43,2.04s2.02-.76,2.29-2.05c.27-1.29-.42-2.02-1.43-2.02Z"/>
      <path class="cls-14" d="M238.1,79.3h.94l-5.01,8.06h-.94l1.64-2.64-1.06-5.42h1.01l.78,4.44,2.64-4.44Z"/>
      <path class="cls-14" d="M239.07,84.84c-.35,0-.56-.27-.49-.62.07-.35.4-.62.75-.62.33,0,.54.27.47.62-.07.35-.4.62-.73.62Z"/>
    </g>
    <g>
      <path class="cls-14" d="M328.34,83.23h-3.04l-.89,1.55h-.96l3.99-6.93h1.05l1.04,6.93h-.96l-.23-1.55ZM327.73,78.97l-2.01,3.52h2.52l-.51-3.52Z"/>
      <path class="cls-14" d="M331.54,84.78h-.91l1.17-5.48h.91l-.19.89c.44-.61,1.11-.99,1.98-.99l-.2.94h-.24c-.87,0-1.61.39-1.88,1.66l-.63,2.98Z"/>
      <path class="cls-14" d="M336.71,84.87c-1.56,0-2.48-1.1-2.11-2.84.37-1.73,1.71-2.82,3.31-2.82s2.39,1.12,2.07,2.62c-.04.2-.09.36-.15.55h-4.38c-.17,1.11.48,1.72,1.41,1.72.82,0,1.43-.42,1.75-1.01h.98c-.49,1-1.54,1.78-2.9,1.78ZM335.63,81.64h3.46c.24-1.07-.44-1.66-1.38-1.66-.89,0-1.76.59-2.08,1.66Z"/>
    </g>
    <g>
      <path class="cls-14" d="M379.59,80.05h-.71l.16-.75h.71l.29-1.38h.91l-.29,1.38h1.43l-.16.75h-1.43l-.69,3.23c-.12.54.04.73.6.73h.67l-.16.77h-.82c-.97,0-1.43-.4-1.2-1.5l.69-3.23Z"/>
      <path class="cls-14" d="M383.59,77.38h.91l-.58,2.71c.48-.58,1.23-.89,2-.89,1.22,0,2.02.78,1.69,2.35l-.69,3.23h-.9l.66-3.1c.24-1.12-.25-1.69-1.17-1.69s-1.69.58-1.94,1.76l-.64,3.03h-.91l1.57-7.4Z"/>
      <path class="cls-14" d="M390.77,84.87c-1.56,0-2.48-1.1-2.11-2.84.37-1.73,1.71-2.82,3.31-2.82s2.39,1.12,2.07,2.62c-.04.2-.09.36-.15.55h-4.38c-.17,1.11.48,1.72,1.41,1.72.82,0,1.43-.42,1.75-1.01h.98c-.49,1-1.54,1.78-2.9,1.78ZM389.69,81.64h3.46c.24-1.07-.44-1.66-1.38-1.66-.89,0-1.76.59-2.08,1.66Z"/>
      <path class="cls-14" d="M399.21,84.87c-1.28,0-2.03-.7-1.88-1.7h.94c-.06.53.32.93,1.09.93.72,0,1.2-.36,1.29-.81.26-1.22-3.13-.51-2.7-2.55.18-.84,1.11-1.53,2.33-1.53s1.87.65,1.7,1.72h-.91c.08-.55-.26-.95-.99-.95-.67,0-1.14.32-1.23.76-.28,1.3,3.05.59,2.68,2.55-.19.9-1.12,1.58-2.33,1.58Z"/>
      <path class="cls-14" d="M403.72,80.05h-.71l.16-.75h.71l.29-1.38h.91l-.29,1.38h1.43l-.16.75h-1.43l-.69,3.23c-.12.54.04.73.6.73h.67l-.16.77h-.82c-.97,0-1.43-.4-1.2-1.5l.69-3.23Z"/>
      <path class="cls-14" d="M411.01,84.78h-.91l.17-.81c-.47.57-1.21.89-1.94.89-1.26,0-2.08-.78-1.75-2.35l.68-3.21h.9l-.66,3.09c-.24,1.11.25,1.68,1.17,1.68s1.69-.58,1.94-1.76l.64-3.01h.91l-1.17,5.48Z"/>
      <path class="cls-14" d="M416,79.21c.86,0,1.56.44,1.8,1.07l.62-2.9h.92l-1.57,7.4h-.92l.22-1.03c-.46.61-1.28,1.12-2.28,1.12-1.47,0-2.35-1.15-1.99-2.85.36-1.71,1.73-2.81,3.21-2.81ZM416.01,80c-1,0-2,.73-2.28,2.02-.27,1.29.41,2.05,1.41,2.05s2.02-.75,2.29-2.04c.27-1.27-.43-2.03-1.43-2.03Z"/>
      <path class="cls-14" d="M421.66,84.87c-1.56,0-2.48-1.1-2.11-2.84.37-1.73,1.71-2.82,3.31-2.82s2.39,1.12,2.07,2.62c-.04.2-.09.36-.15.55h-4.38c-.17,1.11.48,1.72,1.41,1.72.82,0,1.43-.42,1.75-1.01h.98c-.49,1-1.54,1.78-2.9,1.78ZM420.58,81.64h3.46c.24-1.07-.44-1.66-1.38-1.66-.89,0-1.76.59-2.08,1.66Z"/>
      <path class="cls-14" d="M430.18,81.68c.24-1.12-.25-1.69-1.17-1.69s-1.69.58-1.94,1.76l-.64,3.03h-.91l1.17-5.48h.91l-.17.78c.48-.57,1.21-.88,1.95-.88,1.27,0,2.07.78,1.74,2.35l-.69,3.23h-.9l.66-3.1Z"/>
      <path class="cls-14" d="M433.12,80.05h-.71l.16-.75h.71l.29-1.38h.91l-.29,1.38h1.43l-.16.75h-1.43l-.69,3.23c-.12.54.04.73.6.73h.67l-.16.77h-.82c-.97,0-1.43-.4-1.2-1.5l.69-3.23Z"/>
      <path class="cls-14" d="M437.47,84.87c-1.28,0-2.03-.7-1.88-1.7h.94c-.06.53.32.93,1.09.93.72,0,1.2-.36,1.29-.81.26-1.22-3.13-.51-2.7-2.55.18-.84,1.11-1.53,2.33-1.53s1.87.65,1.7,1.72h-.91c.08-.55-.26-.95-.99-.95-.67,0-1.14.32-1.23.76-.28,1.3,3.05.59,2.68,2.55-.19.9-1.12,1.58-2.33,1.58Z"/>
    </g>
    <g class="cls-12">
      <g>
        <path class="cls-14" d="M394.9,178.98c-1.28,0-2.03-.7-1.88-1.7h.94c-.06.53.32.93,1.09.93.72,0,1.2-.36,1.29-.81.26-1.22-3.13-.51-2.7-2.55.18-.84,1.11-1.53,2.33-1.53s1.87.65,1.7,1.72h-.91c.08-.55-.26-.95-.99-.95-.67,0-1.14.32-1.23.76-.28,1.3,3.05.59,2.68,2.55-.19.9-1.12,1.58-2.33,1.58Z"/>
        <path class="cls-14" d="M400.57,178.98c-1.55,0-2.5-1.1-2.12-2.84.37-1.73,1.82-2.82,3.37-2.82s2.54,1.09,2.17,2.82c-.37,1.74-1.85,2.84-3.41,2.84ZM400.74,178.18c.95,0,2.02-.65,2.31-2.04.29-1.38-.48-2.03-1.42-2.03s-1.97.65-2.26,2.03c-.3,1.39.42,2.04,1.37,2.04Z"/>
        <path class="cls-14" d="M409.46,178.89h-.91l.17-.81c-.47.57-1.21.89-1.94.89-1.26,0-2.08-.78-1.75-2.35l.68-3.21h.9l-.66,3.09c-.24,1.11.25,1.68,1.17,1.68s1.69-.58,1.94-1.76l.64-3.01h.91l-1.16,5.48Z"/>
        <path class="cls-14" d="M415.66,175.79c.24-1.12-.25-1.69-1.17-1.69s-1.69.58-1.94,1.76l-.64,3.03h-.91l1.16-5.48h.91l-.17.78c.48-.57,1.21-.88,1.95-.88,1.27,0,2.07.78,1.74,2.35l-.69,3.23h-.9l.66-3.1Z"/>
        <path class="cls-14" d="M420.85,173.32c.86,0,1.56.44,1.8,1.07l.62-2.9h.92l-1.57,7.4h-.92l.22-1.03c-.46.61-1.28,1.12-2.28,1.12-1.47,0-2.35-1.15-1.99-2.85.36-1.71,1.73-2.81,3.21-2.81ZM420.85,174.11c-1,0-2,.73-2.28,2.02-.27,1.29.41,2.05,1.41,2.05s2.02-.75,2.29-2.04c.27-1.27-.43-2.03-1.43-2.03Z"/>
      </g>
      <g>
        <path class="cls-14" d="M480.55,173.32c1.36,0,2.1.7,2.13,1.85h-.98c-.05-.66-.51-1.08-1.32-1.08-1,0-1.89.71-2.17,2.05-.29,1.36.3,2.07,1.3,2.07.81,0,1.43-.39,1.78-1.08h.98c-.51,1.09-1.56,1.85-2.92,1.85-1.56,0-2.44-1.1-2.07-2.84.37-1.72,1.71-2.82,3.27-2.82Z"/>
        <path class="cls-14" d="M484.68,171.49h.91l-1.57,7.4h-.91l1.57-7.4Z"/>
        <path class="cls-14" d="M487.92,178.98c-1.56,0-2.48-1.1-2.11-2.84.37-1.73,1.71-2.82,3.31-2.82s2.39,1.12,2.07,2.62c-.04.2-.09.36-.15.55h-4.38c-.17,1.11.48,1.72,1.41,1.72.82,0,1.43-.42,1.75-1.01h.98c-.49,1-1.54,1.78-2.9,1.78ZM486.84,175.75h3.46c.24-1.07-.44-1.66-1.38-1.66-.89,0-1.75.59-2.08,1.66Z"/>
        <path class="cls-14" d="M495.21,173.32c1.02,0,1.61.52,1.81,1.09l.21-1h.92l-1.16,5.48h-.92l.22-1.02c-.46.59-1.28,1.11-2.28,1.11-1.46,0-2.34-1.15-1.98-2.85.36-1.71,1.73-2.81,3.2-2.81ZM495.22,174.11c-1,0-2,.73-2.28,2.02-.27,1.29.41,2.05,1.41,2.05s2.02-.75,2.29-2.04c.27-1.27-.43-2.03-1.43-2.03Z"/>
        <path class="cls-14" d="M499.44,178.89h-.91l1.16-5.48h.91l-.19.89c.44-.61,1.11-.99,1.98-.99l-.2.94h-.24c-.87,0-1.61.39-1.88,1.66l-.63,2.98Z"/>
        <path class="cls-14" d="M503.4,178.95c-.35,0-.56-.27-.49-.62.07-.35.4-.62.75-.62.33,0,.54.27.47.62-.07.35-.4.62-.73.62ZM505.54,171.83c1.31,0,2.04.79,1.77,2.06-.31,1.46-1.45,2.06-2.85,2.06l-.23.95h-.79l.3-1.58h.29c1.14,0,2.16-.22,2.41-1.43.17-.8-.24-1.3-1.05-1.3s-1.43.47-1.59,1.25h-.86c.25-1.21,1.3-2.01,2.61-2.01Z"/>
      </g>
    </g>
    <g>
      <path class="cls-14" d="M475.07,77.38h.91l-.58,2.71c.48-.58,1.23-.89,2-.89,1.22,0,2.02.78,1.69,2.35l-.69,3.23h-.9l.66-3.1c.24-1.12-.25-1.69-1.17-1.69s-1.69.58-1.94,1.76l-.64,3.03h-.91l1.57-7.4Z"/>
      <path class="cls-14" d="M483.34,79.21c1.02,0,1.61.52,1.81,1.09l.21-1h.92l-1.17,5.48h-.92l.22-1.02c-.46.59-1.28,1.11-2.28,1.11-1.46,0-2.34-1.15-1.98-2.85.36-1.71,1.73-2.81,3.2-2.81ZM483.35,80c-1,0-2,.73-2.28,2.02-.27,1.29.41,2.05,1.41,2.05s2.02-.75,2.29-2.04c.27-1.27-.43-2.03-1.43-2.03Z"/>
      <path class="cls-14" d="M490.8,79.21c1.47,0,2.36,1.1,2,2.81-.36,1.7-1.73,2.85-3.2,2.85-1,0-1.59-.54-1.81-1.1l-.77,3.61h-.91l1.72-8.08h.91l-.21,1.01c.45-.58,1.28-1.1,2.28-1.1ZM490.44,80c-.99,0-2.02.76-2.29,2.03-.27,1.29.44,2.04,1.43,2.04s2.02-.76,2.3-2.05c.27-1.29-.42-2.02-1.43-2.02Z"/>
      <path class="cls-14" d="M497.56,79.21c1.47,0,2.36,1.1,2,2.81-.36,1.7-1.73,2.85-3.2,2.85-1,0-1.59-.54-1.81-1.1l-.77,3.61h-.91l1.72-8.08h.91l-.21,1.01c.45-.58,1.28-1.1,2.28-1.1ZM497.2,80c-.99,0-2.02.76-2.29,2.03-.27,1.29.44,2.04,1.43,2.04s2.02-.76,2.3-2.05c.27-1.29-.42-2.02-1.43-2.02Z"/>
      <path class="cls-14" d="M505.12,79.3h.94l-5.01,8.06h-.94l1.64-2.64-1.06-5.42h1.01l.78,4.44,2.64-4.44Z"/>
      <path class="cls-14" d="M506.94,84.84c-.35,0-.56-.27-.49-.62.07-.35.4-.62.75-.62.33,0,.54.27.47.62-.07.35-.4.62-.73.62ZM509.08,77.72c1.31,0,2.04.79,1.77,2.06-.31,1.46-1.45,2.06-2.85,2.06l-.23.95h-.79l.3-1.58h.29c1.14,0,2.16-.22,2.41-1.43.17-.8-.24-1.3-1.05-1.3s-1.43.47-1.59,1.25h-.86c.25-1.21,1.3-2.01,2.61-2.01Z"/>
    </g>
    <g>
      <path class="cls-14" d="M305.88,29.8h.96l-2.63,6.97h-1.05l-2.63-6.97h.97l2.19,6.01,2.19-6.01Z"/>
      <path class="cls-14" d="M310.21,36.85c-1.56,0-2.71-1.1-2.71-2.84s1.11-2.82,2.71-2.82,2.63,1.12,2.63,2.62c0,.2,0,.36-.03.55h-4.38c.07,1.11.85,1.72,1.78,1.72.82,0,1.34-.42,1.54-1.01h.98c-.28,1-1.16,1.78-2.52,1.78ZM308.44,33.63h3.46c.01-1.07-.79-1.66-1.73-1.66-.89,0-1.63.59-1.73,1.66Z"/>
      <path class="cls-14" d="M314.95,36.76h-.91v-5.48h.91v.89c.31-.61.9-.99,1.77-.99v.94h-.24c-.87,0-1.53.39-1.53,1.66v2.98Z"/>
      <path class="cls-14" d="M320.73,31.2c1.48,0,2.6,1.1,2.6,2.81s-1.13,2.85-2.6,2.85c-1,0-1.71-.5-2.05-1.1v1.01h-.91v-7.4h.91v2.94c.35-.61,1.08-1.11,2.05-1.11ZM320.54,31.99c-.99,0-1.86.76-1.86,2.03s.87,2.04,1.86,2.04,1.86-.76,1.86-2.05-.85-2.02-1.86-2.02Z"/>
      <path class="cls-14" d="M330.97,29.79l-.59,2.27h-1.01l.96-2.27h.64ZM332.6,29.79l-.59,2.27h-1.01l.96-2.27h.64Z"/>
      <path class="cls-14" d="M333.93,32.04h-.71v-.75h.71v-1.38h.91v1.38h1.43v.75h-1.43v3.23c0,.54.2.73.76.73h.67v.77h-.82c-.97,0-1.52-.4-1.52-1.5v-3.23Z"/>
      <path class="cls-14" d="M339.76,36.85c-1.55,0-2.73-1.1-2.73-2.84s1.22-2.82,2.77-2.82,2.77,1.09,2.77,2.82-1.25,2.84-2.81,2.84ZM339.76,36.05c.95,0,1.88-.65,1.88-2.04s-.91-2.03-1.85-2.03-1.83.65-1.83,2.03.85,2.04,1.8,2.04Z"/>
      <path class="cls-14" d="M349.4,31.2c1.48,0,2.6,1.1,2.6,2.81s-1.13,2.85-2.6,2.85c-1,0-1.71-.5-2.05-1.1v1.01h-.91v-7.4h.91v2.94c.35-.61,1.08-1.11,2.05-1.11ZM349.21,31.99c-.99,0-1.86.76-1.86,2.03s.87,2.04,1.86,2.04,1.86-.76,1.86-2.05-.85-2.02-1.86-2.02Z"/>
      <path class="cls-14" d="M355.57,36.85c-1.56,0-2.71-1.1-2.71-2.84s1.11-2.82,2.71-2.82,2.63,1.12,2.63,2.62c0,.2,0,.36-.03.55h-4.38c.07,1.11.85,1.72,1.78,1.72.82,0,1.34-.42,1.54-1.01h.98c-.28,1-1.16,1.78-2.52,1.78ZM353.8,33.63h3.46c.01-1.07-.79-1.66-1.73-1.66-.89,0-1.63.59-1.73,1.66Z"/>
      <path class="cls-14" d="M359.04,32.07l.59-2.27h1.01l-.96,2.27h-.64ZM360.67,32.07l.59-2.27h1.01l-.96,2.27h-.64Z"/>
    </g>
    <g>
      <path class="cls-14" d="M319.42,132.82c-1.28,0-2.18-.7-2.24-1.7h.94c.05.53.52.93,1.29.93.72,0,1.12-.36,1.12-.81,0-1.22-3.24-.51-3.24-2.55,0-.84.79-1.53,2.01-1.53s2.01.65,2.07,1.72h-.91c-.04-.55-.46-.95-1.19-.95-.67,0-1.07.32-1.07.76,0,1.3,3.18.59,3.22,2.55,0,.9-.79,1.58-2,1.58Z"/>
      <path class="cls-14" d="M327.56,132.74h-.91v-.81c-.35.57-1.02.89-1.75.89-1.26,0-2.25-.78-2.25-2.35v-3.21h.9v3.09c0,1.11.61,1.68,1.53,1.68s1.57-.58,1.57-1.76v-3.01h.91v5.48Z"/>
      <path class="cls-14" d="M332.06,127.17c1.48,0,2.6,1.1,2.6,2.81s-1.13,2.85-2.6,2.85c-1,0-1.71-.5-2.05-1.1v1.01h-.91v-7.4h.91v2.94c.35-.61,1.08-1.11,2.05-1.11ZM331.87,127.96c-.99,0-1.86.76-1.86,2.03s.87,2.04,1.86,2.04,1.86-.76,1.86-2.05-.85-2.02-1.86-2.02Z"/>
      <path class="cls-14" d="M336.8,127.26v6.67c0,.99-.52,1.41-1.45,1.41h-.53v-.77h.38c.5,0,.69-.18.69-.66v-6.65h.91ZM335.74,125.75c0-.35.27-.62.61-.62s.61.27.61.62-.27.62-.61.62-.61-.27-.61-.62Z"/>
      <path class="cls-14" d="M340.71,132.82c-1.56,0-2.71-1.1-2.71-2.84s1.11-2.82,2.71-2.82,2.63,1.12,2.63,2.62c0,.2,0,.36-.03.55h-4.38c.07,1.11.85,1.72,1.78,1.72.82,0,1.34-.42,1.54-1.01h.98c-.28,1-1.16,1.78-2.52,1.78ZM338.94,129.6h3.46c.01-1.07-.79-1.66-1.73-1.66-.89,0-1.63.59-1.73,1.66Z"/>
      <path class="cls-14" d="M346.87,127.17c1.36,0,2.25.7,2.53,1.85h-.98c-.19-.66-.74-1.08-1.55-1.08-1,0-1.74.71-1.74,2.05s.74,2.07,1.74,2.07c.81,0,1.35-.39,1.55-1.08h.98c-.28,1.09-1.17,1.85-2.53,1.85-1.56,0-2.67-1.1-2.67-2.84s1.11-2.82,2.67-2.82Z"/>
      <path class="cls-14" d="M350.81,128.01h-.71v-.75h.71v-1.38h.91v1.38h1.43v.75h-1.43v3.23c0,.54.2.73.76.73h.67v.77h-.82c-.97,0-1.52-.4-1.52-1.5v-3.23Z"/>
    </g>
    <g>
      <path class="cls-14" d="M234.77,129.58h-3.55v3.16h-.91v-6.97h.91v3.06h3.55v-3.06h.91v6.97h-.91v-3.16Z"/>
      <path class="cls-14" d="M239.59,132.82c-1.56,0-2.71-1.1-2.71-2.84s1.11-2.82,2.71-2.82,2.63,1.12,2.63,2.62c0,.2,0,.36-.03.55h-4.38c.07,1.11.85,1.72,1.78,1.72.82,0,1.34-.42,1.54-1.01h.98c-.28,1-1.16,1.78-2.52,1.78ZM237.82,129.6h3.46c.01-1.07-.79-1.66-1.73-1.66-.89,0-1.63.59-1.73,1.66Z"/>
      <path class="cls-14" d="M243.42,125.34h.91v7.4h-.91v-7.4Z"/>
      <path class="cls-14" d="M248.84,127.17c1.47,0,2.6,1.1,2.6,2.81s-1.13,2.85-2.6,2.85c-1,0-1.71-.54-2.05-1.1v3.61h-.91v-8.08h.91v1.01c.33-.58,1.05-1.1,2.05-1.1ZM248.65,127.96c-.99,0-1.86.76-1.86,2.03s.87,2.04,1.86,2.04,1.86-.76,1.86-2.05-.85-2.02-1.86-2.02Z"/>
      <path class="cls-14" d="M252.49,125.75c0-.35.27-.62.62-.62.33,0,.6.27.6.62s-.27.62-.6.62c-.35,0-.62-.27-.62-.62ZM252.64,127.26h.91v5.48h-.91v-5.48Z"/>
      <path class="cls-14" d="M259.11,129.64c0-1.12-.61-1.69-1.53-1.69s-1.57.58-1.57,1.76v3.03h-.91v-5.48h.91v.78c.36-.57,1.02-.88,1.76-.88,1.27,0,2.24.78,2.24,2.35v3.23h-.9v-3.1Z"/>
      <path class="cls-14" d="M263.76,127.17c1,0,1.72.5,2.04,1.09v-1h.92v5.6c0,1.51-1.01,2.58-2.62,2.58-1.44,0-2.47-.73-2.65-1.9h.9c.2.66.85,1.11,1.75,1.11.97,0,1.7-.62,1.7-1.79v-1.15c-.33.59-1.04,1.12-2.04,1.12-1.47,0-2.6-1.15-2.6-2.85s1.13-2.81,2.6-2.81ZM263.94,127.96c-1,0-1.85.73-1.85,2.02s.85,2.05,1.85,2.05,1.86-.75,1.86-2.04-.86-2.03-1.86-2.03Z"/>
      <path class="cls-14" d="M271.26,127.26l1.71,4.64,1.7-4.64h.97l-2.15,5.48h-1.06l-2.15-5.48h.98Z"/>
      <path class="cls-14" d="M278.91,132.82c-1.56,0-2.71-1.1-2.71-2.84s1.11-2.82,2.71-2.82,2.63,1.12,2.63,2.62c0,.2,0,.36-.03.55h-4.38c.07,1.11.85,1.72,1.78,1.72.82,0,1.34-.42,1.54-1.01h.98c-.28,1-1.16,1.78-2.52,1.78ZM277.14,129.6h3.46c.01-1.07-.79-1.66-1.73-1.66-.89,0-1.63.59-1.73,1.66Z"/>
      <path class="cls-14" d="M283.65,132.74h-.91v-5.48h.91v.89c.31-.61.9-.99,1.77-.99v.94h-.24c-.87,0-1.53.39-1.53,1.66v2.98Z"/>
      <path class="cls-14" d="M289.43,127.17c1.48,0,2.6,1.1,2.6,2.81s-1.13,2.85-2.6,2.85c-1,0-1.71-.5-2.05-1.1v1.01h-.91v-7.4h.91v2.94c.35-.61,1.08-1.11,2.05-1.11ZM289.24,127.96c-.99,0-1.86.76-1.86,2.03s.87,2.04,1.86,2.04,1.86-.76,1.86-2.05-.85-2.02-1.86-2.02Z"/>
    </g>
    <g>
      <path class="cls-14" d="M88.16,31.29l1.71,4.64,1.7-4.64h.97l-2.15,5.48h-1.06l-2.15-5.48h.98Z"/>
      <path class="cls-14" d="M95.81,36.85c-1.56,0-2.71-1.1-2.71-2.84s1.11-2.82,2.71-2.82,2.63,1.12,2.63,2.62c0,.2,0,.36-.03.55h-4.38c.07,1.11.85,1.72,1.78,1.72.82,0,1.34-.42,1.54-1.01h.98c-.28,1-1.16,1.78-2.52,1.78ZM94.04,33.63h3.46c.01-1.07-.79-1.66-1.73-1.66-.89,0-1.63.59-1.73,1.66Z"/>
      <path class="cls-14" d="M100.55,36.76h-.91v-5.48h.91v.89c.31-.61.9-.99,1.77-.99v.94h-.24c-.87,0-1.53.39-1.53,1.66v2.98Z"/>
      <path class="cls-14" d="M106.33,31.2c1.48,0,2.6,1.1,2.6,2.81s-1.13,2.85-2.6,2.85c-1,0-1.71-.5-2.05-1.1v1.01h-.91v-7.4h.91v2.94c.35-.61,1.08-1.11,2.05-1.11ZM106.14,31.99c-.99,0-1.86.76-1.86,2.03s.87,2.04,1.86,2.04,1.86-.76,1.86-2.05-.85-2.02-1.86-2.02Z"/>
      <path class="cls-14" d="M113.9,29.79l-.59,2.27h-1.01l.96-2.27h.64ZM115.53,29.79l-.59,2.27h-1.01l.96-2.27h.64Z"/>
      <path class="cls-14" d="M116.86,32.04h-.71v-.75h.71v-1.38h.91v1.38h1.43v.75h-1.43v3.23c0,.54.2.73.76.73h.67v.77h-.82c-.97,0-1.52-.4-1.52-1.5v-3.23Z"/>
      <path class="cls-14" d="M122.69,36.85c-1.55,0-2.73-1.1-2.73-2.84s1.22-2.82,2.77-2.82,2.77,1.09,2.77,2.82-1.25,2.84-2.81,2.84ZM122.69,36.05c.95,0,1.88-.65,1.88-2.04s-.91-2.03-1.85-2.03-1.83.65-1.83,2.03.85,2.04,1.8,2.04Z"/>
      <path class="cls-14" d="M132.33,31.2c1.48,0,2.6,1.1,2.6,2.81s-1.13,2.85-2.6,2.85c-1,0-1.71-.5-2.05-1.1v1.01h-.91v-7.4h.91v2.94c.35-.61,1.08-1.11,2.05-1.11ZM132.14,31.99c-.99,0-1.86.76-1.86,2.03s.87,2.04,1.86,2.04,1.86-.76,1.86-2.05-.85-2.02-1.86-2.02Z"/>
      <path class="cls-14" d="M138.5,36.85c-1.56,0-2.71-1.1-2.71-2.84s1.11-2.82,2.71-2.82,2.63,1.12,2.63,2.62c0,.2,0,.36-.03.55h-4.38c.07,1.11.85,1.72,1.78,1.72.82,0,1.34-.42,1.54-1.01h.98c-.28,1-1.16,1.78-2.52,1.78ZM136.73,33.63h3.46c.01-1.07-.79-1.66-1.73-1.66-.89,0-1.63.59-1.73,1.66Z"/>
      <path class="cls-14" d="M141.97,32.07l.59-2.27h1.01l-.96,2.27h-.64ZM143.6,32.07l.59-2.27h1.01l-.96,2.27h-.64Z"/>
    </g>
    <g>
      <path class="cls-14" d="M88.32,125.34h.91v7.4h-.91v-7.4Z"/>
      <path class="cls-14" d="M90.63,125.75c0-.35.27-.62.62-.62.33,0,.6.27.6.62s-.27.62-.6.62c-.35,0-.62-.27-.62-.62ZM90.78,127.26h.91v5.48h-.91v-5.48Z"/>
      <path class="cls-14" d="M97.25,129.64c0-1.12-.61-1.69-1.53-1.69s-1.57.58-1.57,1.76v3.03h-.91v-5.48h.91v.78c.36-.57,1.02-.88,1.76-.88,1.27,0,2.24.78,2.24,2.35v3.23h-.9v-3.1Z"/>
      <path class="cls-14" d="M99.64,125.34h.91v4.35l2.11-2.43h1.27l-2.58,2.73,2.59,2.75h-1.24l-2.15-2.42v2.42h-.91v-7.4Z"/>
      <path class="cls-14" d="M104.64,125.75c0-.35.27-.62.62-.62.33,0,.6.27.6.62s-.27.62-.6.62c-.35,0-.62-.27-.62-.62ZM104.79,127.26h.91v5.48h-.91v-5.48Z"/>
      <path class="cls-14" d="M111.26,129.64c0-1.12-.61-1.69-1.53-1.69s-1.57.58-1.57,1.76v3.03h-.91v-5.48h.91v.78c.36-.57,1.02-.88,1.76-.88,1.27,0,2.24.78,2.24,2.35v3.23h-.9v-3.1Z"/>
      <path class="cls-14" d="M115.91,127.17c1,0,1.72.5,2.04,1.09v-1h.92v5.6c0,1.51-1.01,2.58-2.62,2.58-1.44,0-2.47-.73-2.65-1.9h.9c.2.66.85,1.11,1.75,1.11.97,0,1.7-.62,1.7-1.79v-1.15c-.33.59-1.04,1.12-2.04,1.12-1.47,0-2.6-1.15-2.6-2.85s1.13-2.81,2.6-2.81ZM116.09,127.96c-1,0-1.85.73-1.85,2.02s.85,2.05,1.85,2.05,1.86-.75,1.86-2.04-.86-2.03-1.86-2.03Z"/>
      <path class="cls-14" d="M123.41,127.26l1.71,4.64,1.7-4.64h.97l-2.15,5.48h-1.06l-2.15-5.48h.98Z"/>
      <path class="cls-14" d="M131.06,132.82c-1.56,0-2.71-1.1-2.71-2.84s1.11-2.82,2.71-2.82,2.63,1.12,2.63,2.62c0,.2,0,.36-.03.55h-4.38c.07,1.11.85,1.72,1.78,1.72.82,0,1.34-.42,1.54-1.01h.98c-.28,1-1.16,1.78-2.52,1.78ZM129.29,129.6h3.46c.01-1.07-.79-1.66-1.73-1.66-.89,0-1.63.59-1.73,1.66Z"/>
      <path class="cls-14" d="M135.8,132.74h-.91v-5.48h.91v.89c.31-.61.9-.99,1.77-.99v.94h-.24c-.87,0-1.53.39-1.53,1.66v2.98Z"/>
      <path class="cls-14" d="M141.58,127.17c1.48,0,2.6,1.1,2.6,2.81s-1.13,2.85-2.6,2.85c-1,0-1.71-.5-2.05-1.1v1.01h-.91v-7.4h.91v2.94c.35-.61,1.08-1.11,2.05-1.11ZM141.39,127.96c-.99,0-1.86.76-1.86,2.03s.87,2.04,1.86,2.04,1.86-.76,1.86-2.05-.85-2.02-1.86-2.02Z"/>
    </g>
    <g>
      <path class="cls-14" d="M393.13,36.85c-1.28,0-2.18-.7-2.24-1.7h.94c.05.53.52.93,1.29.93.72,0,1.12-.36,1.12-.81,0-1.22-3.24-.51-3.24-2.55,0-.84.79-1.53,2.01-1.53s2.01.65,2.07,1.72h-.91c-.04-.55-.46-.95-1.19-.95-.67,0-1.07.32-1.07.76,0,1.3,3.18.59,3.22,2.55,0,.9-.79,1.58-2,1.58Z"/>
      <path class="cls-14" d="M401.27,36.76h-.91v-.81c-.35.57-1.02.89-1.75.89-1.26,0-2.25-.78-2.25-2.35v-3.21h.9v3.09c0,1.11.61,1.68,1.53,1.68s1.57-.58,1.57-1.76v-3.01h.91v5.48Z"/>
      <path class="cls-14" d="M405.77,31.2c1.48,0,2.6,1.1,2.6,2.81s-1.13,2.85-2.6,2.85c-1,0-1.71-.5-2.05-1.1v1.01h-.91v-7.4h.91v2.94c.35-.61,1.08-1.11,2.05-1.11ZM405.58,31.99c-.99,0-1.86.76-1.86,2.03s.87,2.04,1.86,2.04,1.86-.76,1.86-2.05-.85-2.02-1.86-2.02Z"/>
      <path class="cls-14" d="M410.51,31.29v6.67c0,.99-.52,1.41-1.45,1.41h-.53v-.77h.38c.5,0,.69-.18.69-.66v-6.65h.91ZM409.45,29.78c0-.35.27-.62.61-.62s.61.27.61.62-.27.62-.61.62-.61-.27-.61-.62Z"/>
      <path class="cls-14" d="M414.42,36.85c-1.56,0-2.71-1.1-2.71-2.84s1.11-2.82,2.71-2.82,2.63,1.12,2.63,2.62c0,.2,0,.36-.03.55h-4.38c.07,1.11.85,1.72,1.78,1.72.82,0,1.34-.42,1.54-1.01h.98c-.28,1-1.16,1.78-2.52,1.78ZM412.65,33.63h3.46c.01-1.07-.79-1.66-1.73-1.66-.89,0-1.63.59-1.73,1.66Z"/>
      <path class="cls-14" d="M420.58,31.2c1.36,0,2.25.7,2.53,1.85h-.98c-.19-.66-.74-1.08-1.55-1.08-1,0-1.74.71-1.74,2.05s.74,2.07,1.74,2.07c.81,0,1.35-.39,1.55-1.08h.98c-.28,1.09-1.17,1.85-2.53,1.85-1.56,0-2.67-1.1-2.67-2.84s1.11-2.82,2.67-2.82Z"/>
      <path class="cls-14" d="M424.52,32.04h-.71v-.75h.71v-1.38h.91v1.38h1.43v.75h-1.43v3.23c0,.54.2.73.76.73h.67v.77h-.82c-.97,0-1.52-.4-1.52-1.5v-3.23Z"/>
    </g>
    <g>
      <path class="cls-14" d="M380.17,125.34h.91v7.4h-.91v-7.4Z"/>
      <path class="cls-14" d="M382.48,125.75c0-.35.27-.62.62-.62.33,0,.6.27.6.62s-.27.62-.6.62c-.35,0-.62-.27-.62-.62ZM382.63,127.26h.91v5.48h-.91v-5.48Z"/>
      <path class="cls-14" d="M389.1,129.64c0-1.12-.61-1.69-1.53-1.69s-1.57.58-1.57,1.76v3.03h-.91v-5.48h.91v.78c.36-.57,1.02-.88,1.76-.88,1.27,0,2.24.78,2.24,2.35v3.23h-.9v-3.1Z"/>
      <path class="cls-14" d="M391.49,125.34h.91v4.35l2.11-2.43h1.27l-2.58,2.73,2.59,2.75h-1.24l-2.15-2.42v2.42h-.91v-7.4Z"/>
      <path class="cls-14" d="M396.49,125.75c0-.35.27-.62.62-.62.33,0,.6.27.6.62s-.27.62-.6.62c-.35,0-.62-.27-.62-.62ZM396.64,127.26h.91v5.48h-.91v-5.48Z"/>
      <path class="cls-14" d="M403.11,129.64c0-1.12-.61-1.69-1.53-1.69s-1.57.58-1.57,1.76v3.03h-.91v-5.48h.91v.78c.36-.57,1.02-.88,1.76-.88,1.27,0,2.24.78,2.24,2.35v3.23h-.9v-3.1Z"/>
      <path class="cls-14" d="M407.76,127.17c1,0,1.72.5,2.04,1.09v-1h.92v5.6c0,1.51-1.01,2.58-2.62,2.58-1.44,0-2.47-.73-2.65-1.9h.9c.2.66.85,1.11,1.75,1.11.97,0,1.7-.62,1.7-1.79v-1.15c-.33.59-1.04,1.12-2.04,1.12-1.47,0-2.6-1.15-2.6-2.85s1.13-2.81,2.6-2.81ZM407.94,127.96c-1,0-1.85.73-1.85,2.02s.85,2.05,1.85,2.05,1.86-.75,1.86-2.04-.86-2.03-1.86-2.03Z"/>
      <path class="cls-14" d="M415.26,127.26l1.71,4.64,1.7-4.64h.97l-2.15,5.48h-1.06l-2.15-5.48h.98Z"/>
      <path class="cls-14" d="M422.91,132.82c-1.56,0-2.71-1.1-2.71-2.84s1.11-2.82,2.71-2.82,2.63,1.12,2.63,2.62c0,.2,0,.36-.03.55h-4.38c.07,1.11.85,1.72,1.78,1.72.82,0,1.34-.42,1.54-1.01h.98c-.28,1-1.16,1.78-2.52,1.78ZM421.14,129.6h3.46c.01-1.07-.79-1.66-1.73-1.66-.89,0-1.63.59-1.73,1.66Z"/>
      <path class="cls-14" d="M427.65,132.74h-.91v-5.48h.91v.89c.31-.61.9-.99,1.77-.99v.94h-.24c-.87,0-1.53.39-1.53,1.66v2.98Z"/>
      <path class="cls-14" d="M433.43,127.17c1.48,0,2.6,1.1,2.6,2.81s-1.13,2.85-2.6,2.85c-1,0-1.71-.5-2.05-1.1v1.01h-.91v-7.4h.91v2.94c.35-.61,1.08-1.11,2.05-1.11ZM433.24,127.96c-.99,0-1.86.76-1.86,2.03s.87,2.04,1.86,2.04,1.86-.76,1.86-2.05-.85-2.02-1.86-2.02Z"/>
    </g>
    <g>
      <path class="cls-14" d="M168.7,33.67c0-1.12-.61-1.69-1.53-1.69s-1.57.58-1.57,1.76v3.03h-.91v-5.48h.91v.78c.36-.57,1.02-.88,1.76-.88,1.27,0,2.24.78,2.24,2.35v3.23h-.9v-3.1Z"/>
      <path class="cls-14" d="M173.48,36.85c-1.55,0-2.73-1.1-2.73-2.84s1.22-2.82,2.77-2.82,2.77,1.09,2.77,2.82-1.25,2.84-2.81,2.84ZM173.48,36.05c.95,0,1.88-.65,1.88-2.04s-.91-2.03-1.85-2.03-1.83.65-1.83,2.03.85,2.04,1.8,2.04Z"/>
      <path class="cls-14" d="M182.35,36.76h-.91v-.81c-.35.57-1.02.89-1.75.89-1.26,0-2.25-.78-2.25-2.35v-3.21h.9v3.09c0,1.11.61,1.68,1.53,1.68s1.57-.58,1.57-1.76v-3.01h.91v5.48Z"/>
      <path class="cls-14" d="M187.9,33.67c0-1.12-.61-1.69-1.53-1.69s-1.57.58-1.57,1.76v3.03h-.91v-5.48h.91v.78c.36-.57,1.02-.88,1.76-.88,1.27,0,2.24.78,2.24,2.35v3.23h-.9v-3.1Z"/>
      <path class="cls-14" d="M192.63,38.62c-1.27-1.25-2.03-3.27-2.03-5.52s.76-4.37,2.18-5.68h.95v.09c-1.54,1.45-2.25,3.55-2.25,5.59s.71,4,2.1,5.43v.09h-.95Z"/>
      <path class="cls-14" d="M196.77,36.85c-1.28,0-2.18-.7-2.24-1.7h.94c.05.53.52.93,1.29.93.72,0,1.12-.36,1.12-.81,0-1.22-3.24-.51-3.24-2.55,0-.84.79-1.53,2.01-1.53s2.01.65,2.07,1.72h-.91c-.04-.55-.46-.95-1.19-.95-.67,0-1.07.32-1.07.76,0,1.3,3.18.59,3.22,2.55,0,.9-.79,1.58-2,1.58Z"/>
      <path class="cls-14" d="M199.76,38.62v-.09c1.39-1.43,2.1-3.4,2.1-5.43s-.71-4.14-2.25-5.59v-.09h.95c1.42,1.31,2.18,3.42,2.18,5.68s-.76,4.27-2.03,5.52h-.95Z"/>
      <path class="cls-14" d="M209.65,36.85c-1.55,0-2.73-1.1-2.73-2.84s1.22-2.82,2.77-2.82,2.77,1.09,2.77,2.82-1.25,2.84-2.81,2.84ZM209.65,36.05c.95,0,1.88-.65,1.88-2.04s-.91-2.03-1.85-2.03-1.83.65-1.83,2.03.85,2.04,1.8,2.04Z"/>
      <path class="cls-14" d="M214.57,36.76h-.91v-5.48h.91v.89c.31-.61.9-.99,1.77-.99v.94h-.24c-.87,0-1.53.39-1.53,1.66v2.98Z"/>
      <path class="cls-14" d="M222.32,31.2c1.02,0,1.72.52,2.04,1.09v-1h.92v5.48h-.92v-1.02c-.33.59-1.04,1.11-2.05,1.11-1.46,0-2.59-1.15-2.59-2.85s1.13-2.81,2.6-2.81ZM222.5,31.99c-1,0-1.85.73-1.85,2.02s.85,2.05,1.85,2.05,1.86-.75,1.86-2.04-.86-2.03-1.86-2.03Z"/>
      <path class="cls-14" d="M229.09,31.2c.86,0,1.65.44,2.03,1.07v-2.9h.92v7.4h-.92v-1.03c-.33.61-1.04,1.12-2.04,1.12-1.47,0-2.6-1.15-2.6-2.85s1.13-2.81,2.61-2.81ZM229.26,31.99c-1,0-1.85.73-1.85,2.02s.85,2.05,1.85,2.05,1.86-.75,1.86-2.04-.86-2.03-1.86-2.03Z"/>
      <path class="cls-14" d="M234.52,31.29v6.67c0,.99-.52,1.41-1.45,1.41h-.53v-.77h.38c.5,0,.69-.18.69-.66v-6.65h.91ZM233.46,29.78c0-.35.27-.62.61-.62s.61.27.61.62-.27.62-.61.62-.61-.27-.61-.62Z"/>
      <path class="cls-14" d="M238.43,36.85c-1.56,0-2.71-1.1-2.71-2.84s1.11-2.82,2.71-2.82,2.63,1.12,2.63,2.62c0,.2,0,.36-.03.55h-4.38c.07,1.11.85,1.72,1.78,1.72.82,0,1.34-.42,1.54-1.01h.98c-.28,1-1.16,1.78-2.52,1.78ZM236.66,33.63h3.46c.01-1.07-.79-1.66-1.73-1.66-.89,0-1.63.59-1.73,1.66Z"/>
      <path class="cls-14" d="M244.59,31.2c1.36,0,2.25.7,2.53,1.85h-.98c-.19-.66-.74-1.08-1.55-1.08-1,0-1.74.71-1.74,2.05s.74,2.07,1.74,2.07c.81,0,1.35-.39,1.55-1.08h.98c-.28,1.09-1.17,1.85-2.53,1.85-1.56,0-2.67-1.1-2.67-2.84s1.11-2.82,2.67-2.82Z"/>
      <path class="cls-14" d="M248.53,32.04h-.71v-.75h.71v-1.38h.91v1.38h1.43v.75h-1.43v3.23c0,.54.2.73.76.73h.67v.77h-.82c-.97,0-1.52-.4-1.52-1.5v-3.23Z"/>
      <path class="cls-14" d="M251.82,29.78c0-.35.27-.62.62-.62.33,0,.6.27.6.62s-.27.62-.6.62c-.35,0-.62-.27-.62-.62ZM251.97,31.29h.91v5.48h-.91v-5.48Z"/>
      <path class="cls-14" d="M254.76,31.29l1.71,4.64,1.7-4.64h.97l-2.15,5.48h-1.06l-2.15-5.48h.98Z"/>
      <path class="cls-14" d="M262.41,36.85c-1.56,0-2.71-1.1-2.71-2.84s1.11-2.82,2.71-2.82,2.63,1.12,2.63,2.62c0,.2,0,.36-.03.55h-4.38c.07,1.11.85,1.72,1.78,1.72.82,0,1.34-.42,1.54-1.01h.98c-.28,1-1.16,1.78-2.52,1.78ZM260.64,33.63h3.46c.01-1.07-.79-1.66-1.73-1.66-.89,0-1.63.59-1.73,1.66Z"/>
      <path class="cls-14" d="M268.58,38.62c-1.27-1.25-2.03-3.27-2.03-5.52s.76-4.37,2.18-5.68h.95v.09c-1.54,1.45-2.25,3.55-2.25,5.59s.71,4,2.1,5.43v.09h-.95Z"/>
      <path class="cls-14" d="M272.72,36.85c-1.28,0-2.18-.7-2.24-1.7h.94c.05.53.52.93,1.29.93.72,0,1.12-.36,1.12-.81,0-1.22-3.24-.51-3.24-2.55,0-.84.79-1.53,2.01-1.53s2.01.65,2.07,1.72h-.91c-.04-.55-.46-.95-1.19-.95-.67,0-1.07.32-1.07.76,0,1.3,3.18.59,3.22,2.55,0,.9-.79,1.58-2,1.58Z"/>
      <path class="cls-14" d="M275.71,38.62v-.09c1.39-1.43,2.1-3.4,2.1-5.43s-.71-4.14-2.25-5.59v-.09h.95c1.42,1.31,2.18,3.42,2.18,5.68s-.76,4.27-2.03,5.52h-.95Z"/>
      <path class="cls-14" d="M280.83,36.82c-.35,0-.62-.27-.62-.62s.27-.62.62-.62c.33,0,.6.27.6.62s-.27.62-.6.62Z"/>
    </g>
    <g>
      <path class="cls-14" d="M165.8,127.17c1.02,0,1.72.52,2.04,1.09v-1h.92v5.48h-.92v-1.02c-.33.59-1.04,1.11-2.05,1.11-1.46,0-2.59-1.15-2.59-2.85s1.13-2.81,2.6-2.81ZM165.98,127.96c-1,0-1.85.73-1.85,2.02s.85,2.05,1.85,2.05,1.86-.75,1.86-2.04-.86-2.03-1.86-2.03Z"/>
      <path class="cls-14" d="M172.57,127.17c.86,0,1.65.44,2.03,1.07v-2.9h.92v7.4h-.92v-1.03c-.33.61-1.04,1.12-2.04,1.12-1.47,0-2.6-1.15-2.6-2.85s1.13-2.81,2.61-2.81ZM172.74,127.96c-1,0-1.85.73-1.85,2.02s.85,2.05,1.85,2.05,1.86-.75,1.86-2.04-.86-2.03-1.86-2.03Z"/>
      <path class="cls-14" d="M178,127.26v6.67c0,.99-.52,1.41-1.45,1.41h-.53v-.77h.38c.5,0,.69-.18.69-.66v-6.65h.91ZM176.94,125.75c0-.35.27-.62.61-.62s.61.27.61.62-.27.62-.61.62-.61-.27-.61-.62Z"/>
      <path class="cls-14" d="M181.91,132.82c-1.56,0-2.71-1.1-2.71-2.84s1.11-2.82,2.71-2.82,2.63,1.12,2.63,2.62c0,.2,0,.36-.03.55h-4.38c.07,1.11.85,1.72,1.78,1.72.82,0,1.34-.42,1.54-1.01h.98c-.28,1-1.16,1.78-2.52,1.78ZM180.14,129.6h3.46c.01-1.07-.79-1.66-1.73-1.66-.89,0-1.63.59-1.73,1.66Z"/>
      <path class="cls-14" d="M188.07,127.17c1.36,0,2.25.7,2.53,1.85h-.98c-.19-.66-.74-1.08-1.55-1.08-1,0-1.74.71-1.74,2.05s.74,2.07,1.74,2.07c.81,0,1.35-.39,1.55-1.08h.98c-.28,1.09-1.17,1.85-2.53,1.85-1.56,0-2.67-1.1-2.67-2.84s1.11-2.82,2.67-2.82Z"/>
      <path class="cls-14" d="M192.01,128.01h-.71v-.75h.71v-1.38h.91v1.38h1.43v.75h-1.43v3.23c0,.54.2.73.76.73h.67v.77h-.82c-.97,0-1.52-.4-1.52-1.5v-3.23Z"/>
      <path class="cls-14" d="M195.3,125.75c0-.35.27-.62.62-.62.33,0,.6.27.6.62s-.27.62-.6.62c-.35,0-.62-.27-.62-.62ZM195.45,127.26h.91v5.48h-.91v-5.48Z"/>
      <path class="cls-14" d="M198.24,127.26l1.71,4.64,1.7-4.64h.97l-2.15,5.48h-1.06l-2.15-5.48h.98Z"/>
      <path class="cls-14" d="M205.89,132.82c-1.56,0-2.71-1.1-2.71-2.84s1.11-2.82,2.71-2.82,2.63,1.12,2.63,2.62c0,.2,0,.36-.03.55h-4.38c.07,1.11.85,1.72,1.78,1.72.82,0,1.34-.42,1.54-1.01h.98c-.28,1-1.16,1.78-2.52,1.78ZM204.12,129.6h3.46c.01-1.07-.79-1.66-1.73-1.66-.89,0-1.63.59-1.73,1.66Z"/>
      <path class="cls-14" d="M210.01,132.79c-.35,0-.62-.27-.62-.62s.27-.62.62-.62c.33,0,.6.27.6.62s-.27.62-.6.62Z"/>
    </g>
    <g>
      <path class="cls-14" d="M461.53,31.2c1.02,0,1.72.52,2.04,1.09v-1h.92v5.48h-.92v-1.02c-.33.59-1.04,1.11-2.05,1.11-1.46,0-2.59-1.15-2.59-2.85s1.13-2.81,2.6-2.81ZM461.71,31.99c-1,0-1.85.73-1.85,2.02s.85,2.05,1.85,2.05,1.86-.75,1.86-2.04-.86-2.03-1.86-2.03Z"/>
      <path class="cls-14" d="M468.3,31.2c.86,0,1.65.44,2.03,1.07v-2.9h.92v7.4h-.92v-1.03c-.33.61-1.04,1.12-2.04,1.12-1.47,0-2.6-1.15-2.6-2.85s1.13-2.81,2.61-2.81ZM468.47,31.99c-1,0-1.85.73-1.85,2.02s.85,2.05,1.85,2.05,1.86-.75,1.86-2.04-.86-2.03-1.86-2.03Z"/>
      <path class="cls-14" d="M473.73,31.29v6.67c0,.99-.52,1.41-1.45,1.41h-.53v-.77h.38c.5,0,.69-.18.69-.66v-6.65h.91ZM472.67,29.78c0-.35.27-.62.61-.62s.61.27.61.62-.27.62-.61.62-.61-.27-.61-.62Z"/>
      <path class="cls-14" d="M477.64,36.85c-1.56,0-2.71-1.1-2.71-2.84s1.11-2.82,2.71-2.82,2.63,1.12,2.63,2.62c0,.2,0,.36-.03.55h-4.38c.07,1.11.85,1.72,1.78,1.72.82,0,1.34-.42,1.54-1.01h.98c-.28,1-1.16,1.78-2.52,1.78ZM475.87,33.63h3.46c.01-1.07-.79-1.66-1.73-1.66-.89,0-1.63.59-1.73,1.66Z"/>
      <path class="cls-14" d="M483.8,31.2c1.36,0,2.25.7,2.53,1.85h-.98c-.19-.66-.74-1.08-1.55-1.08-1,0-1.74.71-1.74,2.05s.74,2.07,1.74,2.07c.81,0,1.35-.39,1.55-1.08h.98c-.28,1.09-1.17,1.85-2.53,1.85-1.56,0-2.67-1.1-2.67-2.84s1.11-2.82,2.67-2.82Z"/>
      <path class="cls-14" d="M487.74,32.04h-.71v-.75h.71v-1.38h.91v1.38h1.43v.75h-1.43v3.23c0,.54.2.73.76.73h.67v.77h-.82c-.97,0-1.52-.4-1.52-1.5v-3.23Z"/>
      <path class="cls-14" d="M491.03,29.78c0-.35.27-.62.62-.62.33,0,.6.27.6.62s-.27.62-.6.62c-.35,0-.62-.27-.62-.62ZM491.18,31.29h.91v5.48h-.91v-5.48Z"/>
      <path class="cls-14" d="M493.97,31.29l1.71,4.64,1.7-4.64h.97l-2.15,5.48h-1.06l-2.15-5.48h.98Z"/>
      <path class="cls-14" d="M501.62,36.85c-1.56,0-2.71-1.1-2.71-2.84s1.11-2.82,2.71-2.82,2.63,1.12,2.63,2.62c0,.2,0,.36-.03.55h-4.38c.07,1.11.85,1.72,1.78,1.72.82,0,1.34-.42,1.54-1.01h.98c-.28,1-1.16,1.78-2.52,1.78ZM499.85,33.63h3.46c.01-1.07-.79-1.66-1.73-1.66-.89,0-1.63.59-1.73,1.66Z"/>
      <path class="cls-14" d="M507.79,38.62c-1.27-1.25-2.03-3.27-2.03-5.52s.76-4.37,2.18-5.68h.95v.09c-1.54,1.45-2.25,3.55-2.25,5.59s.71,4,2.1,5.43v.09h-.95Z"/>
      <path class="cls-14" d="M511.93,36.85c-1.28,0-2.18-.7-2.24-1.7h.94c.05.53.52.93,1.29.93.72,0,1.12-.36,1.12-.81,0-1.22-3.24-.51-3.24-2.55,0-.84.79-1.53,2.01-1.53s2.01.65,2.07,1.72h-.91c-.04-.55-.46-.95-1.19-.95-.67,0-1.07.32-1.07.76,0,1.3,3.18.59,3.22,2.55,0,.9-.79,1.58-2,1.58Z"/>
      <path class="cls-14" d="M514.92,38.62v-.09c1.39-1.43,2.1-3.4,2.1-5.43s-.71-4.14-2.25-5.59v-.09h.95c1.42,1.31,2.18,3.42,2.18,5.68s-.76,4.27-2.03,5.52h-.95Z"/>
      <path class="cls-14" d="M521.53,29.71c1.31,0,2.21.79,2.21,2.06,0,1.46-1.01,2.06-2.41,2.06l-.03.95h-.79l-.04-1.58h.29c1.14,0,2.11-.22,2.11-1.43,0-.8-.52-1.3-1.33-1.3s-1.33.47-1.33,1.25h-.86c0-1.21.87-2.01,2.18-2.01ZM520.9,36.82c-.35,0-.62-.27-.62-.62s.27-.62.62-.62c.33,0,.6.27.6.62s-.27.62-.6.62Z"/>
    </g>
    <g>
      <path class="cls-14" d="M468.88,127.17c1.02,0,1.72.52,2.04,1.09v-1h.92v5.48h-.92v-1.02c-.33.59-1.04,1.11-2.05,1.11-1.46,0-2.59-1.15-2.59-2.85s1.13-2.81,2.6-2.81ZM469.06,127.96c-1,0-1.85.73-1.85,2.02s.85,2.05,1.85,2.05,1.86-.75,1.86-2.04-.86-2.03-1.86-2.03Z"/>
      <path class="cls-14" d="M475.65,127.17c.86,0,1.65.44,2.03,1.07v-2.9h.92v7.4h-.92v-1.03c-.33.61-1.04,1.12-2.04,1.12-1.47,0-2.6-1.15-2.6-2.85s1.13-2.81,2.61-2.81ZM475.82,127.96c-1,0-1.85.73-1.85,2.02s.85,2.05,1.85,2.05,1.86-.75,1.86-2.04-.86-2.03-1.86-2.03Z"/>
      <path class="cls-14" d="M481.08,127.26v6.67c0,.99-.52,1.41-1.45,1.41h-.53v-.77h.38c.5,0,.69-.18.69-.66v-6.65h.91ZM480.02,125.75c0-.35.27-.62.61-.62s.61.27.61.62-.27.62-.61.62-.61-.27-.61-.62Z"/>
      <path class="cls-14" d="M484.99,132.82c-1.56,0-2.71-1.1-2.71-2.84s1.11-2.82,2.71-2.82,2.63,1.12,2.63,2.62c0,.2,0,.36-.03.55h-4.38c.07,1.11.85,1.72,1.78,1.72.82,0,1.34-.42,1.54-1.01h.98c-.28,1-1.16,1.78-2.52,1.78ZM483.22,129.6h3.46c.01-1.07-.79-1.66-1.73-1.66-.89,0-1.63.59-1.73,1.66Z"/>
      <path class="cls-14" d="M491.15,127.17c1.36,0,2.25.7,2.53,1.85h-.98c-.19-.66-.74-1.08-1.55-1.08-1,0-1.74.71-1.74,2.05s.74,2.07,1.74,2.07c.81,0,1.35-.39,1.55-1.08h.98c-.28,1.09-1.17,1.85-2.53,1.85-1.56,0-2.67-1.1-2.67-2.84s1.11-2.82,2.67-2.82Z"/>
      <path class="cls-14" d="M495.09,128.01h-.71v-.75h.71v-1.38h.91v1.38h1.43v.75h-1.43v3.23c0,.54.2.73.76.73h.67v.77h-.82c-.97,0-1.52-.4-1.52-1.5v-3.23Z"/>
      <path class="cls-14" d="M498.38,125.75c0-.35.27-.62.62-.62.33,0,.6.27.6.62s-.27.62-.6.62c-.35,0-.62-.27-.62-.62ZM498.53,127.26h.91v5.48h-.91v-5.48Z"/>
      <path class="cls-14" d="M501.32,127.26l1.71,4.64,1.7-4.64h.97l-2.15,5.48h-1.06l-2.15-5.48h.98Z"/>
      <path class="cls-14" d="M508.97,132.82c-1.56,0-2.71-1.1-2.71-2.84s1.11-2.82,2.71-2.82,2.63,1.12,2.63,2.62c0,.2,0,.36-.03.55h-4.38c.07,1.11.85,1.72,1.78,1.72.82,0,1.34-.42,1.54-1.01h.98c-.28,1-1.16,1.78-2.52,1.78ZM507.2,129.6h3.46c.01-1.07-.79-1.66-1.73-1.66-.89,0-1.63.59-1.73,1.66Z"/>
      <path class="cls-14" d="M514.58,125.68c1.31,0,2.21.79,2.21,2.06,0,1.46-1.01,2.06-2.41,2.06l-.03.95h-.79l-.04-1.58h.29c1.14,0,2.11-.22,2.11-1.43,0-.8-.52-1.3-1.33-1.3s-1.33.47-1.33,1.25h-.86c0-1.21.87-2.01,2.18-2.01ZM513.95,132.79c-.35,0-.62-.27-.62-.62s.27-.62.62-.62c.33,0,.6.27.6.62s-.27.62-.6.62Z"/>
    </g>
    <line class="cls-8" x1="78.81" y1="23.73" x2="78.81" y2="93.33"/>
    <line class="cls-11" x1="78.81" y1="117.93" x2="78.81" y2="185.67"/>
    <line class="cls-5" x1="447.21" y1="23.67" x2="447.21" y2="93.13"/>
    <line class="cls-11" x1="447.21" y1="117.93" x2="447.21" y2="185.67"/>
    <line class="cls-10" x1="292.41" y1="23.73" x2="292.41" y2="93.13"/>
    <line class="cls-10" x1="220.61" y1="117.93" x2="220.61" y2="185.73"/>
    <g class="cls-17">
      <line class="cls-10" x1=".16" y1="69.99" x2="535.44" y2="69.99"/>
      <line class="cls-10" x1=".16" y1="163.35" x2="535.44" y2="163.35"/>
    </g>
    <g>
      <path class="cls-15" d="M187.71,107.87h-3.14l-.82,1.49h-2.15l4.84-8.42h2.38l1.26,8.42h-2.17l-.19-1.49ZM187.13,103.2l-1.69,3.08h2.08l-.39-3.08Z"/>
      <path class="cls-15" d="M194.87,102.56c.89,0,1.57.41,1.85,1.02l.66-3.11h2.05l-1.89,8.88h-2.05l.2-.96c-.5.61-1.3,1.05-2.29,1.05-1.64,0-2.67-1.34-2.22-3.46.45-2.11,2.04-3.43,3.68-3.43ZM195.09,104.35c-.77,0-1.59.58-1.81,1.64-.23,1.07.34,1.67,1.11,1.67s1.59-.59,1.81-1.66c.23-1.07-.33-1.66-1.11-1.66Z"/>
      <path class="cls-15" d="M202.4,102.66l-1.61,7.56c-.37,1.74-1.47,2.33-2.86,2.33h-.8l.37-1.74h.49c.46,0,.66-.17.74-.56l1.61-7.58h2.05ZM200.53,100.86c.13-.62.73-1.12,1.46-1.12s1.11.49.97,1.12c-.13.61-.73,1.1-1.45,1.1s-1.12-.49-.99-1.1Z"/>
      <path class="cls-15" d="M205.3,109.45c-1.97,0-3.1-1.32-2.65-3.44.45-2.12,2.12-3.44,4.11-3.44s3.06,1.29,2.62,3.34c-.04.19-.1.4-.16.6h-4.64c-.11.88.34,1.28,1,1.28.58,0,.96-.29,1.21-.65h2.18c-.6,1.31-2,2.32-3.67,2.32ZM204.84,105.36h2.57c.16-.73-.33-1.15-1.01-1.15s-1.27.41-1.55,1.15Z"/>
      <path class="cls-15" d="M214.02,102.56c1.68,0,2.67.92,2.68,2.52h-2.18c-.07-.47-.34-.77-.9-.77-.73,0-1.36.58-1.59,1.69-.24,1.12.14,1.69.88,1.69.56,0,.95-.28,1.23-.77h2.18c-.68,1.55-2.07,2.52-3.75,2.52-1.97,0-3.08-1.32-2.63-3.44.45-2.11,2.12-3.44,4.09-3.44Z"/>
      <path class="cls-15" d="M218.15,104.36h-.82l.36-1.7h.82l.35-1.63h2.05l-.35,1.63h1.34l-.36,1.7h-1.34l-.57,2.69c-.08.4.05.56.5.56h.73l-.37,1.74h-1.04c-1.39,0-2.24-.59-1.87-2.33l.57-2.66Z"/>
      <path class="cls-15" d="M222.96,102.66h2.05l-1.42,6.7h-2.05l1.42-6.7ZM223.15,100.86c.13-.62.73-1.12,1.46-1.12s1.11.49.97,1.12c-.13.61-.73,1.1-1.45,1.1s-1.12-.49-.99-1.1Z"/>
      <path class="cls-15" d="M227.95,102.66l.44,4.78,2.47-4.78h2.18l-3.8,6.7h-2.53l-.95-6.7h2.19Z"/>
      <path class="cls-15" d="M235.32,109.45c-1.97,0-3.1-1.32-2.65-3.44.45-2.12,2.12-3.44,4.11-3.44s3.06,1.29,2.62,3.34c-.04.19-.1.4-.16.6h-4.64c-.11.88.34,1.28,1,1.28.58,0,.96-.29,1.21-.65h2.18c-.6,1.31-2,2.32-3.67,2.32ZM234.86,105.36h2.57c.16-.73-.33-1.15-1.01-1.15s-1.27.41-1.55,1.15Z"/>
      <path class="cls-15" d="M242.34,109.45c-1.79,0-2.77-1-2.6-2.29h2.03c-.05.47.3.78.87.78.53,0,.85-.24.92-.54.23-1.08-3.58-.3-3.06-2.76.24-1.14,1.41-2.08,3.16-2.08s2.48.96,2.33,2.28h-1.89c.04-.46-.25-.76-.82-.76-.48,0-.78.19-.85.52-.23,1.07,3.56.31,3.06,2.81-.25,1.16-1.46,2.04-3.14,2.04Z"/>
      <path class="cls-15" d="M252.64,102.56c1,0,1.61.46,1.84,1.04l.2-.95h2.05l-1.42,6.7h-2.05l.2-.95c-.5.59-1.3,1.04-2.3,1.04-1.63,0-2.65-1.34-2.2-3.46.45-2.11,2.04-3.43,3.68-3.43ZM252.86,104.35c-.77,0-1.59.58-1.81,1.64-.23,1.07.34,1.67,1.11,1.67s1.59-.59,1.81-1.66c.23-1.07-.33-1.66-1.11-1.66Z"/>
      <path class="cls-15" d="M262.08,105.72c.19-.91-.2-1.42-.98-1.42s-1.39.5-1.58,1.42l-.77,3.64h-2.05l1.42-6.7h2.05l-.19.89c.53-.56,1.33-.96,2.23-.96,1.55,0,2.35,1.06,1.97,2.86l-.83,3.91h-2.04l.77-3.64Z"/>
      <path class="cls-15" d="M268.65,102.56c.89,0,1.57.41,1.85,1.02l.66-3.11h2.05l-1.89,8.88h-2.05l.2-.96c-.5.61-1.3,1.05-2.29,1.05-1.64,0-2.67-1.34-2.22-3.46.45-2.11,2.04-3.43,3.68-3.43ZM268.87,104.35c-.77,0-1.59.58-1.81,1.64-.23,1.07.34,1.67,1.11,1.67s1.59-.59,1.81-1.66c.23-1.07-.33-1.66-1.11-1.66Z"/>
      <path class="cls-15" d="M278.98,100.93l-1.45,6.84h2.69l-.34,1.58h-4.74l1.79-8.42h2.05Z"/>
      <path class="cls-15" d="M282.18,102.66h2.05l-1.42,6.7h-2.05l1.42-6.7ZM282.37,100.86c.13-.62.73-1.12,1.46-1.12s1.11.49.97,1.12c-.13.61-.73,1.1-1.45,1.1s-1.12-.49-.99-1.1Z"/>
      <path class="cls-15" d="M289.57,105.72c.19-.91-.2-1.42-.98-1.42s-1.39.5-1.58,1.42l-.77,3.64h-2.05l1.42-6.7h2.05l-.19.89c.53-.56,1.33-.96,2.23-.96,1.55,0,2.35,1.06,1.97,2.86l-.83,3.91h-2.04l.77-3.64Z"/>
      <path class="cls-15" d="M294.04,100.48h2.05l-1.04,4.91,2.61-2.72h2.53l-3.5,3.36,2.1,3.34h-2.54l-1.44-2.81-.6,2.81h-2.05l1.89-8.88Z"/>
      <path class="cls-15" d="M300.88,102.66h2.05l-1.42,6.7h-2.05l1.42-6.7ZM301.07,100.86c.13-.62.73-1.12,1.46-1.12s1.11.49.97,1.12c-.13.61-.73,1.1-1.45,1.1s-1.12-.49-.99-1.1Z"/>
      <path class="cls-15" d="M308.28,105.72c.19-.91-.2-1.42-.98-1.42s-1.39.5-1.58,1.42l-.77,3.64h-2.05l1.42-6.7h2.05l-.19.89c.53-.56,1.33-.96,2.23-.96,1.55,0,2.35,1.06,1.97,2.86l-.83,3.91h-2.04l.77-3.64Z"/>
      <path class="cls-15" d="M314.85,102.56c.98,0,1.61.44,1.84,1.04l.2-.95h2.05l-1.42,6.68c-.38,1.79-1.74,3.31-4.05,3.31-1.99,0-3.07-1.01-2.91-2.6h2.03c.02.5.46.83,1.17.83.78,0,1.48-.41,1.72-1.54l.2-.95c-.5.59-1.3,1.05-2.29,1.05-1.64,0-2.67-1.34-2.22-3.46.45-2.11,2.04-3.43,3.68-3.43ZM315.07,104.35c-.77,0-1.59.58-1.81,1.64-.23,1.07.34,1.67,1.11,1.67s1.59-.59,1.81-1.66c.23-1.07-.33-1.66-1.11-1.66Z"/>
      <path class="cls-15" d="M328.86,100.93h2.17l-4.78,8.42h-2.57l-1.2-8.42h2.18l.74,6.36,3.45-6.36Z"/>
      <path class="cls-15" d="M332.94,109.45c-1.97,0-3.1-1.32-2.65-3.44.45-2.12,2.12-3.44,4.11-3.44s3.06,1.29,2.62,3.34c-.04.19-.1.4-.16.6h-4.64c-.11.88.34,1.28,1,1.28.58,0,.96-.29,1.21-.65h2.18c-.6,1.31-2,2.32-3.67,2.32ZM332.48,105.36h2.57c.16-.73-.33-1.15-1.01-1.15s-1.27.41-1.55,1.15Z"/>
      <path class="cls-15" d="M339.32,109.36h-2.05l1.42-6.7h2.05l-.24,1.12c.62-.71,1.45-1.19,2.35-1.19l-.46,2.17h-.56c-.97,0-1.61.33-1.85,1.49l-.66,3.11Z"/>
      <path class="cls-15" d="M347.84,102.56c1.66,0,2.67,1.32,2.22,3.43-.45,2.11-2.04,3.46-3.68,3.46-.98,0-1.6-.44-1.84-1.03l-.2.94h-2.05l1.89-8.88h2.05l-.67,3.13c.5-.6,1.32-1.04,2.28-1.04ZM346.85,104.35c-.77,0-1.59.59-1.82,1.66-.23,1.07.34,1.66,1.11,1.66s1.6-.6,1.83-1.67c.23-1.07-.35-1.64-1.12-1.64Z"/>
      <path class="cls-15" d="M353.03,109.45c-1.79,0-2.77-1-2.6-2.29h2.03c-.05.47.3.78.87.78.53,0,.85-.24.92-.54.23-1.08-3.58-.3-3.06-2.76.24-1.14,1.41-2.08,3.16-2.08s2.48.96,2.33,2.28h-1.89c.04-.46-.25-.76-.82-.76-.48,0-.78.19-.85.52-.23,1.07,3.56.31,3.06,2.81-.25,1.16-1.46,2.04-3.14,2.04Z"/>
    </g>
    <line class="cls-3" x1="153.36" y1="117.71" x2="153.36" y2="185.73"/>
    <line class="cls-7" x1="301.41" y1="117.71" x2="301.41" y2="185.67"/>
    <line class="cls-9" x1="368.61" y1="117.37" x2="368.61" y2="185.82"/>
  </g>
</svg>