<?xml version="1.0" encoding="UTF-8"?>
<svg id="Layer_2" data-name="Layer 2" xmlns="http://www.w3.org/2000/svg" xmlns:xlink="http://www.w3.org/1999/xlink" viewBox="0 0 538.37 123.22">
  <defs>
    <style>
      .cls-1 {
        fill: #6d2a7f;
      }

      .cls-2 {
        fill: #8d619a;
      }

      .cls-3 {
        stroke-dasharray: 3.89 3.89;
      }

      .cls-3, .cls-4, .cls-5, .cls-6, .cls-7, .cls-8, .cls-9, .cls-10 {
        fill: none;
      }

      .cls-3, .cls-6, .cls-8, .cls-9, .cls-10 {
        stroke: #2a5caa;
        stroke-miterlimit: 10;
        stroke-width: .75px;
      }

      .cls-11 {
        fill: #231f20;
      }

      .cls-12 {
        fill: #fff;
      }

      .cls-4 {
        stroke: #1f96a2;
      }

      .cls-13 {
        clip-path: url(#clippath-1);
      }

      .cls-6 {
        stroke-dasharray: 3.91 3.91;
      }

      .cls-14 {
        clip-path: url(#clippath-3);
      }

      .cls-15 {
        fill: #1f96a2;
      }

      .cls-16 {
        fill: #dde7ea;
      }

      .cls-7 {
        stroke: #f79433;
        stroke-width: .2px;
      }

      .cls-8 {
        stroke-dasharray: 3.88 3.88;
      }

      .cls-9 {
        stroke-dasharray: 3.9 3.9;
      }

      .cls-17 {
        clip-path: url(#clippath-2);
      }

      .cls-18 {
        fill: #b499bd;
      }

      .cls-19 {
        clip-path: url(#clippath);
      }
    </style>
    <clipPath id="clippath">
      <rect class="cls-5" width="538.37" height="123.22"/>
    </clipPath>
    <clipPath id="clippath-1">
      <rect class="cls-5" width="538.37" height="123.22"/>
    </clipPath>
    <clipPath id="clippath-2">
      <rect class="cls-5" width="538.37" height="123.22"/>
    </clipPath>
    <clipPath id="clippath-3">
      <rect class="cls-5" width="538.37" height="123.22"/>
    </clipPath>
  </defs>
  <g id="Layer_1-2" data-name="Layer 1">
    <g class="cls-19">
      <rect class="cls-16" x="257.56" y="88.57" width="19.61" height="19.4" rx="4.25" ry="4.25"/>
      <rect class="cls-4" x="257.56" y="88.57" width="19.61" height="19.4" rx="4.25" ry="4.25"/>
      <path class="cls-11" d="M267.33,109.97h-4.16v-11.16h4c2.35,0,3.54,1.28,3.54,2.83,0,1.41-.88,2.22-1.95,2.58,1.22.21,2.21,1.38,2.21,2.75,0,1.68-1.33,2.99-3.63,2.99ZM267.04,100.01h-2.42v3.62h2.45c1.36,0,2.14-.67,2.14-1.81s-.75-1.81-2.18-1.81ZM267.16,104.83h-2.53v3.94h2.58c1.44,0,2.31-.72,2.31-1.94s-.93-2-2.35-2Z"/>
    </g>
    <g>
      <path class="cls-11" d="M302.88,35.66v8.43h.62v.66h-2.51v-.66h.62v-8.43h-.62v-.67h2.51v.67h-.62Z"/>
      <path class="cls-11" d="M307.8,37.13h1.3l1.77,6.44,1.9-6.44h1.3l1.86,6.46,1.74-6.46h1.26l-2.4,7.68h-1.32l-1.85-6.09-1.85,6.09h-1.32l-2.41-7.68Z"/>
      <path class="cls-11" d="M323.54,44.93c-2.17,0-3.82-1.54-3.82-3.98s1.71-3.95,3.88-3.95,3.88,1.53,3.88,3.95-1.75,3.98-3.94,3.98ZM323.54,43.82c1.33,0,2.63-.91,2.63-2.86s-1.27-2.84-2.59-2.84-2.56.91-2.56,2.84,1.19,2.86,2.52,2.86Z"/>
      <path class="cls-11" d="M335.96,44.81h-1.27v-1.13c-.49.8-1.43,1.25-2.45,1.25-1.76,0-3.15-1.09-3.15-3.29v-4.5h1.26v4.33c0,1.55.85,2.35,2.14,2.35s2.2-.81,2.2-2.47v-4.21h1.27v7.68Z"/>
      <path class="cls-11" d="M338.11,34.44h1.27v10.37h-1.27v-10.37Z"/>
      <path class="cls-11" d="M344.74,37.01c1.2,0,2.31.62,2.84,1.5v-4.06h1.29v10.37h-1.29v-1.44c-.46.86-1.46,1.57-2.86,1.57-2.06,0-3.64-1.61-3.64-3.99s1.58-3.94,3.66-3.94ZM344.98,38.11c-1.4,0-2.59,1.02-2.59,2.83s1.19,2.87,2.59,2.87,2.61-1.05,2.61-2.86-1.21-2.84-2.61-2.84Z"/>
      <path class="cls-11" d="M358.91,37.01c2.06,0,3.64,1.54,3.64,3.94s-1.58,3.99-3.64,3.99c-1.4,0-2.4-.76-2.87-1.54v5.06h-1.27v-11.32h1.27v1.41c.46-.81,1.47-1.54,2.87-1.54ZM358.64,38.11c-1.39,0-2.6,1.06-2.6,2.84s1.22,2.86,2.6,2.86,2.61-1.07,2.61-2.87-1.19-2.83-2.61-2.83Z"/>
      <path class="cls-11" d="M365.5,44.81h-1.27v-7.68h1.27v1.25c.43-.86,1.26-1.39,2.48-1.39v1.32h-.34c-1.22,0-2.14.55-2.14,2.33v4.17Z"/>
      <path class="cls-11" d="M372.77,44.93c-2.19,0-3.8-1.54-3.8-3.98s1.55-3.95,3.8-3.95,3.68,1.57,3.68,3.67c0,.28-.01.5-.04.77h-6.14c.1,1.56,1.19,2.41,2.49,2.41,1.15,0,1.88-.59,2.16-1.41h1.37c-.39,1.4-1.62,2.49-3.53,2.49ZM370.29,40.41h4.85c.01-1.5-1.11-2.33-2.42-2.33-1.25,0-2.28.83-2.42,2.33Z"/>
      <path class="cls-11" d="M378.36,38.18h-.99v-1.05h.99v-.55c0-1.71.84-2.48,2.8-2.48v1.06c-1.15,0-1.53.42-1.53,1.42v.55h1.61v1.05h-1.61v6.63h-1.27v-6.63Z"/>
      <path class="cls-11" d="M386.05,44.93c-2.19,0-3.8-1.54-3.8-3.98s1.55-3.95,3.8-3.95,3.68,1.57,3.68,3.67c0,.28-.01.5-.04.77h-6.14c.1,1.56,1.19,2.41,2.49,2.41,1.15,0,1.88-.59,2.16-1.41h1.37c-.39,1.4-1.62,2.49-3.53,2.49ZM383.57,40.41h4.85c.01-1.5-1.11-2.33-2.42-2.33-1.25,0-2.28.83-2.42,2.33Z"/>
      <path class="cls-11" d="M392.69,44.81h-1.27v-7.68h1.27v1.25c.43-.86,1.26-1.39,2.48-1.39v1.32h-.34c-1.22,0-2.14.55-2.14,2.33v4.17Z"/>
    </g>
    <g>
      <path class="cls-15" d="M404.52,37.01c2.07,0,3.64,1.54,3.64,3.94s-1.58,3.99-3.64,3.99c-1.4,0-2.4-.7-2.87-1.54v1.42h-1.27v-10.37h1.27v4.12c.49-.85,1.51-1.55,2.87-1.55ZM404.25,38.11c-1.39,0-2.6,1.06-2.6,2.84s1.22,2.86,2.6,2.86,2.61-1.07,2.61-2.87-1.19-2.83-2.61-2.83Z"/>
      <path class="cls-15" d="M409.84,34.44h1.27v10.37h-1.27v-10.37Z"/>
      <path class="cls-15" d="M416.45,37.01c1.43,0,2.41.73,2.86,1.53v-1.4h1.29v7.68h-1.29v-1.43c-.46.83-1.46,1.55-2.87,1.55-2.05,0-3.63-1.61-3.63-3.99s1.58-3.94,3.64-3.94ZM416.7,38.11c-1.4,0-2.59,1.02-2.59,2.83s1.19,2.87,2.59,2.87,2.61-1.05,2.61-2.86-1.21-2.84-2.61-2.84Z"/>
      <path class="cls-15" d="M426.01,37.01c1.91,0,3.15.98,3.54,2.59h-1.37c-.27-.93-1.04-1.51-2.17-1.51-1.4,0-2.44.99-2.44,2.87s1.04,2.9,2.44,2.9c1.13,0,1.89-.55,2.17-1.51h1.37c-.39,1.53-1.64,2.59-3.54,2.59-2.19,0-3.74-1.54-3.74-3.98s1.55-3.95,3.74-3.95Z"/>
      <path class="cls-15" d="M431.24,34.44h1.27v6.09l2.96-3.4h1.78l-3.61,3.82,3.63,3.85h-1.74l-3.01-3.39v3.39h-1.27v-10.37Z"/>
      <path class="cls-15" d="M442.47,38.18h-.99v-1.05h.99v-1.93h1.27v1.93h2v1.05h-2v4.53c0,.76.28,1.02,1.06,1.02h.94v1.08h-1.15c-1.36,0-2.13-.56-2.13-2.1v-4.53Z"/>
      <path class="cls-15" d="M450.61,44.93c-2.19,0-3.8-1.54-3.8-3.98s1.55-3.95,3.8-3.95,3.68,1.57,3.68,3.67c0,.28-.01.5-.04.77h-6.14c.1,1.56,1.19,2.41,2.49,2.41,1.15,0,1.88-.59,2.16-1.41h1.37c-.39,1.4-1.62,2.49-3.53,2.49ZM448.13,40.41h4.85c.01-1.5-1.11-2.33-2.42-2.33-1.25,0-2.28.83-2.42,2.33Z"/>
      <path class="cls-15" d="M459.13,37.01c1.43,0,2.41.73,2.86,1.53v-1.4h1.29v7.68h-1.29v-1.43c-.46.83-1.46,1.55-2.87,1.55-2.05,0-3.63-1.61-3.63-3.99s1.58-3.94,3.64-3.94ZM459.38,38.11c-1.4,0-2.59,1.02-2.59,2.83s1.19,2.87,2.59,2.87,2.61-1.05,2.61-2.86-1.21-2.84-2.61-2.84Z"/>
    </g>
    <path class="cls-11" d="M465.35,43.04h1.4l-1.57,3.77h-.85l1.02-3.77Z"/>
    <g>
      <path class="cls-11" d="M305.68,53.81c2.06,0,3.64,1.54,3.64,3.94s-1.58,3.99-3.64,3.99c-1.4,0-2.4-.76-2.87-1.54v5.06h-1.27v-11.32h1.27v1.41c.46-.81,1.47-1.54,2.87-1.54ZM305.41,54.91c-1.39,0-2.6,1.06-2.6,2.84s1.22,2.86,2.6,2.86,2.61-1.07,2.61-2.87-1.19-2.83-2.61-2.83Z"/>
      <path class="cls-11" d="M311,51.24h1.27v10.37h-1.27v-10.37Z"/>
      <path class="cls-11" d="M317.76,61.74c-2.19,0-3.8-1.54-3.8-3.98s1.55-3.95,3.8-3.95,3.68,1.57,3.68,3.67c0,.28-.01.5-.04.77h-6.14c.1,1.56,1.19,2.41,2.49,2.41,1.15,0,1.88-.59,2.16-1.41h1.37c-.39,1.4-1.62,2.49-3.53,2.49ZM315.28,57.21h4.85c.01-1.5-1.11-2.33-2.42-2.33-1.25,0-2.28.83-2.42,2.33Z"/>
      <path class="cls-11" d="M326.29,53.81c1.43,0,2.41.73,2.86,1.53v-1.4h1.29v7.68h-1.29v-1.43c-.46.83-1.46,1.55-2.87,1.55-2.05,0-3.63-1.61-3.63-3.99s1.58-3.94,3.64-3.94ZM326.54,54.91c-1.4,0-2.59,1.02-2.59,2.83s1.19,2.87,2.59,2.87,2.61-1.05,2.61-2.86-1.21-2.84-2.61-2.84Z"/>
      <path class="cls-11" d="M335.3,61.74c-1.79,0-3.05-.98-3.14-2.38h1.32c.07.74.73,1.3,1.81,1.3,1.01,0,1.57-.5,1.57-1.13,0-1.71-4.54-.71-4.54-3.57,0-1.18,1.11-2.14,2.82-2.14s2.82.91,2.9,2.41h-1.27c-.06-.77-.64-1.33-1.67-1.33-.94,0-1.5.45-1.5,1.06,0,1.82,4.45.83,4.51,3.57,0,1.26-1.11,2.21-2.8,2.21Z"/>
      <path class="cls-11" d="M343.21,61.74c-2.19,0-3.8-1.54-3.8-3.98s1.55-3.95,3.8-3.95,3.68,1.57,3.68,3.67c0,.28-.01.5-.04.77h-6.14c.1,1.56,1.19,2.41,2.49,2.41,1.15,0,1.88-.59,2.16-1.41h1.37c-.39,1.4-1.62,2.49-3.53,2.49ZM340.73,57.21h4.85c.01-1.5-1.11-2.33-2.42-2.33-1.25,0-2.28.83-2.42,2.33Z"/>
      <path class="cls-11" d="M348.98,61.69c-.49,0-.87-.38-.87-.87s.38-.87.87-.87c.46,0,.84.38.84.87s-.38.87-.84.87Z"/>
    </g>
    <g class="cls-13">
      <path class="cls-12" d="M290.52,42.51c3.91,0,7.09-3.17,7.09-7.09s-3.17-7.09-7.09-7.09-7.09,3.17-7.09,7.09,3.17,7.09,7.09,7.09"/>
      <circle class="cls-7" cx="290.52" cy="35.42" r="7.09" transform="translate(8.56 113.87) rotate(-22.5)"/>
      <path class="cls-1" d="M538.37,114.63c0,4.62-1.88,8.37-4.2,8.37H6.42c-2.32,0-4.2-3.75-4.2-8.37V9.2C2.22,4.58,4.1.83,6.42.83h527.76c2.32,0,4.2,3.75,4.2,8.37v105.42Z"/>
      <path class="cls-12" d="M535.49,110.39c0,4.36-1.91,9.89-4.27,9.89H4.43c-2.36,0-4.27-5.53-4.27-9.89V14.44c0-4.36,1.91-7.89,4.27-7.89h526.79c2.36,0,4.27,3.53,4.27,7.89v95.95Z"/>
      <path class="cls-18" d="M536.03,51.04c0,.86-1.88,1.56-4.2,1.56H4.2C1.88,52.6,0,51.9,0,51.04v-30.54c0-.86,1.88-1.56,4.2-1.56h527.64c2.32,0,4.2.7,4.2,1.56v30.54Z"/>
      <path class="cls-2" d="M536.17,21.5c0,.62-1.88,1.12-4.2,1.12H4.2C1.88,22.61,0,22.11,0,21.5V1.12C0,.5,1.88,0,4.2,0h527.78c2.32,0,4.2.5,4.2,1.11v20.38Z"/>
    </g>
    <g>
      <path class="cls-12" d="M185.44,11.6h-1.27l-.64,3.03h-2.05l1.79-8.42h3.32c2.06,0,2.85,1.16,2.52,2.71-.3,1.39-1.52,2.69-3.67,2.69ZM185.63,9.97c.82,0,1.25-.41,1.39-1.06.14-.65-.12-1.05-.94-1.05h-1.12l-.45,2.11h1.12Z"/>
      <path class="cls-12" d="M191.88,14.72c-1.97,0-3.17-1.32-2.72-3.44.45-2.12,2.26-3.44,4.21-3.44s3.2,1.32,2.75,3.44c-.45,2.12-2.27,3.44-4.23,3.44ZM192.26,12.95c.73,0,1.53-.54,1.77-1.67.24-1.14-.32-1.67-1.04-1.67s-1.5.53-1.75,1.67c-.24,1.13.27,1.67,1.01,1.67Z"/>
      <path class="cls-12" d="M198.26,5.74h2.05l-1.89,8.88h-2.05l1.89-8.88Z"/>
      <path class="cls-12" d="M201.23,7.93h2.05l-1.42,6.7h-2.05l1.42-6.7ZM201.42,6.13c.13-.62.73-1.12,1.46-1.12s1.11.49.97,1.12c-.13.61-.73,1.1-1.45,1.1s-1.12-.49-.99-1.1Z"/>
      <path class="cls-12" d="M204.63,9.63h-.82l.36-1.71h.82l.35-1.63h2.05l-.35,1.63h1.34l-.36,1.71h-1.34l-.57,2.69c-.08.4.05.56.5.56h.73l-.37,1.74h-1.04c-1.39,0-2.24-.59-1.87-2.33l.57-2.66Z"/>
      <path class="cls-12" d="M210.96,14.72c-1.97,0-3.1-1.32-2.65-3.44.45-2.12,2.12-3.44,4.11-3.44s3.06,1.29,2.62,3.33c-.04.19-.1.4-.16.6h-4.64c-.12.88.34,1.28,1,1.28.58,0,.96-.29,1.21-.65h2.18c-.6,1.31-2,2.32-3.67,2.32ZM210.5,10.63h2.57c.16-.73-.33-1.15-1.01-1.15s-1.27.41-1.55,1.15Z"/>
      <path class="cls-12" d="M222.95,6.2c2.06,0,2.84,1.19,2.53,2.65-.22,1.06-1.01,2.05-2.39,2.44l1.23,3.34h-2.31l-1.08-3.18h-.49l-.68,3.18h-2.05l1.79-8.42h3.44ZM222.46,7.91h-1.27l-.44,2.09h1.27c.77,0,1.21-.4,1.35-1.06.13-.62-.14-1.03-.91-1.03Z"/>
      <path class="cls-12" d="M228.37,14.72c-1.97,0-3.1-1.32-2.65-3.44.45-2.12,2.12-3.44,4.11-3.44s3.06,1.29,2.62,3.33c-.04.19-.1.4-.16.6h-4.64c-.12.88.34,1.28,1,1.28.58,0,.96-.29,1.21-.65h2.18c-.6,1.31-2,2.32-3.67,2.32ZM227.91,10.63h2.57c.16-.73-.33-1.15-1.01-1.15s-1.27.41-1.55,1.15Z"/>
      <path class="cls-12" d="M241.45,15.12l-2.51,2.73h-2.48l.86-4.03c-.54.53-1.29.92-2.17.92-1.64,0-2.74-1.38-2.31-3.42.43-2.04,2.12-3.43,3.79-3.43.88,0,1.48.34,1.78.84l.16-.77h2.05l-1.69,7.93.72-.78h1.81ZM237.84,11.31c.24-1.13-.42-1.64-1.11-1.64s-1.58.53-1.81,1.65.43,1.64,1.11,1.64,1.58-.53,1.81-1.66Z"/>
      <path class="cls-12" d="M247.35,14.63h-2.05l.19-.91c-.53.58-1.34.98-2.24.98-1.55,0-2.36-1.07-1.98-2.86l.83-3.91h2.04l-.77,3.64c-.19.91.21,1.42.98,1.42s1.4-.5,1.6-1.42l.77-3.64h2.05l-1.42,6.7Z"/>
      <path class="cls-12" d="M251.66,14.72c-1.97,0-3.1-1.32-2.65-3.44.45-2.12,2.12-3.44,4.11-3.44s3.06,1.29,2.62,3.33c-.04.19-.1.4-.16.6h-4.64c-.12.88.34,1.28,1,1.28.58,0,.96-.29,1.21-.65h2.18c-.6,1.31-2,2.32-3.67,2.32ZM251.2,10.63h2.57c.16-.73-.33-1.15-1.01-1.15s-1.27.41-1.55,1.15Z"/>
      <path class="cls-12" d="M258.68,14.72c-1.79,0-2.77-1-2.6-2.29h2.03c-.05.47.3.78.87.78.53,0,.85-.24.92-.54.23-1.08-3.58-.3-3.06-2.76.24-1.14,1.41-2.07,3.16-2.07s2.48.96,2.33,2.28h-1.89c.04-.46-.25-.75-.82-.75-.48,0-.79.19-.85.52-.23,1.07,3.56.31,3.06,2.81-.25,1.16-1.46,2.04-3.14,2.04Z"/>
      <path class="cls-12" d="M263.95,9.63h-.82l.36-1.71h.82l.35-1.63h2.05l-.35,1.63h1.34l-.36,1.71h-1.34l-.57,2.69c-.08.4.05.56.5.56h.73l-.37,1.74h-1.04c-1.39,0-2.24-.59-1.87-2.33l.57-2.66Z"/>
      <path class="cls-12" d="M270.03,14.72c-1.79,0-2.77-1-2.6-2.29h2.03c-.05.47.3.78.87.78.53,0,.85-.24.92-.54.23-1.08-3.58-.3-3.06-2.76.24-1.14,1.41-2.07,3.16-2.07s2.48.96,2.33,2.28h-1.89c.04-.46-.25-.75-.82-.75-.48,0-.78.19-.85.52-.23,1.07,3.56.31,3.06,2.81-.25,1.16-1.46,2.04-3.14,2.04Z"/>
      <path class="cls-12" d="M280.34,7.83c1,0,1.61.46,1.84,1.04l.2-.95h2.05l-1.42,6.7h-2.05l.2-.95c-.5.59-1.3,1.04-2.3,1.04-1.63,0-2.65-1.34-2.2-3.46.45-2.11,2.04-3.43,3.68-3.43ZM280.56,9.62c-.77,0-1.59.57-1.81,1.64-.23,1.07.34,1.67,1.11,1.67s1.59-.59,1.81-1.66c.23-1.07-.33-1.66-1.11-1.66Z"/>
      <path class="cls-12" d="M289.79,10.99c.19-.91-.2-1.42-.98-1.42s-1.39.5-1.58,1.42l-.77,3.64h-2.05l1.42-6.7h2.05l-.19.89c.53-.56,1.33-.96,2.23-.96,1.55,0,2.35,1.05,1.97,2.86l-.83,3.91h-2.04l.77-3.64Z"/>
      <path class="cls-12" d="M296.36,7.83c.89,0,1.57.41,1.85,1.02l.66-3.11h2.05l-1.89,8.88h-2.05l.2-.96c-.5.61-1.3,1.06-2.29,1.06-1.64,0-2.67-1.34-2.22-3.46.45-2.11,2.04-3.43,3.68-3.43ZM296.58,9.62c-.77,0-1.59.57-1.81,1.64-.23,1.07.34,1.67,1.11,1.67s1.59-.59,1.81-1.66c.23-1.07-.33-1.66-1.11-1.66Z"/>
      <path class="cls-12" d="M308.41,13.14h-3.14l-.82,1.49h-2.15l4.84-8.42h2.38l1.25,8.42h-2.17l-.19-1.49ZM307.83,8.47l-1.69,3.08h2.08l-.39-3.08Z"/>
      <path class="cls-12" d="M316.98,10.99c.19-.91-.2-1.42-.98-1.42s-1.39.5-1.58,1.42l-.77,3.64h-2.05l1.42-6.7h2.05l-.19.89c.53-.56,1.33-.96,2.23-.96,1.55,0,2.35,1.05,1.97,2.86l-.83,3.91h-2.04l.77-3.64Z"/>
      <path class="cls-12" d="M322.27,14.72c-1.79,0-2.77-1-2.6-2.29h2.03c-.05.47.3.78.87.78.53,0,.85-.24.92-.54.23-1.08-3.58-.3-3.06-2.76.24-1.14,1.41-2.07,3.16-2.07s2.48.96,2.33,2.28h-1.89c.04-.46-.25-.75-.82-.75-.48,0-.79.19-.85.52-.23,1.07,3.56.31,3.06,2.81-.25,1.16-1.46,2.04-3.14,2.04Z"/>
      <path class="cls-12" d="M326.88,7.93h2.05l-.07,4.79,2.15-4.79h2.17l.13,4.76,1.95-4.76h1.93l-3.23,6.7h-2.27l-.13-4.34-2.01,4.34h-2.25l-.4-6.7Z"/>
      <path class="cls-12" d="M339.39,14.72c-1.97,0-3.1-1.32-2.65-3.44.45-2.12,2.12-3.44,4.11-3.44s3.06,1.29,2.62,3.33c-.04.19-.1.4-.16.6h-4.64c-.12.88.34,1.28,1,1.28.58,0,.96-.29,1.21-.65h2.18c-.6,1.31-2,2.32-3.67,2.32ZM338.93,10.63h2.57c.16-.73-.33-1.15-1.01-1.15s-1.27.41-1.55,1.15Z"/>
      <path class="cls-12" d="M345.76,14.63h-2.05l1.42-6.7h2.05l-.24,1.12c.62-.71,1.45-1.19,2.35-1.19l-.46,2.17h-.56c-.97,0-1.61.34-1.85,1.49l-.66,3.11Z"/>
      <path class="cls-12" d="M351.43,14.72c-1.79,0-2.77-1-2.6-2.29h2.03c-.05.47.3.78.87.78.53,0,.85-.24.92-.54.23-1.08-3.58-.3-3.06-2.76.24-1.14,1.41-2.07,3.16-2.07s2.48.96,2.33,2.28h-1.89c.04-.46-.25-.75-.82-.75-.48,0-.78.19-.85.52-.23,1.07,3.56.31,3.06,2.81-.25,1.16-1.46,2.04-3.14,2.04Z"/>
    </g>
    <g>
      <path class="cls-11" d="M8.06,32.87h.98l2.56,5.72,2.56-5.72h.97v6.92h-.91v-5.16l-2.3,5.16h-.64l-2.31-5.17v5.17h-.91v-6.92Z"/>
      <path class="cls-11" d="M19.06,39.88c-1.55,0-2.73-1.1-2.73-2.84s1.22-2.82,2.77-2.82,2.77,1.09,2.77,2.82-1.25,2.84-2.81,2.84ZM19.06,39.08c.95,0,1.88-.65,1.88-2.04s-.91-2.03-1.85-2.03-1.83.65-1.83,2.03.85,2.04,1.8,2.04Z"/>
      <path class="cls-11" d="M25.34,34.22c.86,0,1.65.44,2.03,1.07v-2.9h.92v7.39h-.92v-1.03c-.33.61-1.04,1.12-2.04,1.12-1.47,0-2.6-1.15-2.6-2.85s1.13-2.81,2.61-2.81ZM25.51,35.01c-1,0-1.85.73-1.85,2.02s.85,2.05,1.85,2.05,1.86-.75,1.86-2.04-.86-2.03-1.86-2.03Z"/>
      <path class="cls-11" d="M32.09,34.22c1.02,0,1.72.52,2.04,1.09v-1h.92v5.48h-.92v-1.02c-.33.59-1.04,1.11-2.05,1.11-1.46,0-2.59-1.15-2.59-2.85s1.13-2.81,2.6-2.81ZM32.27,35.01c-1,0-1.85.73-1.85,2.02s.85,2.05,1.85,2.05,1.86-.75,1.86-2.04-.86-2.03-1.86-2.03Z"/>
      <path class="cls-11" d="M36.59,32.4h.91v7.39h-.91v-7.39Z"/>
      <path class="cls-11" d="M42.05,34.31l1.71,4.64,1.7-4.64h.97l-2.15,5.48h-1.06l-2.15-5.48h.98Z"/>
      <path class="cls-11" d="M49.7,39.88c-1.56,0-2.71-1.1-2.71-2.84s1.11-2.82,2.71-2.82,2.63,1.12,2.63,2.62c0,.2,0,.36-.03.55h-4.38c.07,1.11.85,1.72,1.78,1.72.82,0,1.34-.42,1.54-1.01h.98c-.28,1-1.16,1.78-2.52,1.78ZM47.93,36.65h3.46c.01-1.07-.79-1.66-1.73-1.66-.89,0-1.63.59-1.73,1.66Z"/>
      <path class="cls-11" d="M54.44,39.79h-.91v-5.48h.91v.89c.31-.61.9-.99,1.77-.99v.94h-.24c-.87,0-1.53.39-1.53,1.66v2.98Z"/>
      <path class="cls-11" d="M60.22,34.22c1.48,0,2.6,1.1,2.6,2.81s-1.13,2.85-2.6,2.85c-1,0-1.71-.5-2.05-1.1v1.01h-.91v-7.39h.91v2.94c.35-.61,1.08-1.11,2.05-1.11ZM60.03,35.01c-.99,0-1.86.76-1.86,2.03s.87,2.04,1.86,2.04,1.86-.76,1.86-2.05-.85-2.02-1.86-2.02Z"/>
    </g>
    <g>
      <path class="cls-11" d="M21.27,63.16h.97l.26,5.91,2.94-5.91h1.02l.35,5.89,2.78-5.89h.98l-3.5,6.97h-1.02l-.43-5.61-2.87,5.61h-1.01s-.47-6.97-.47-6.97Z"/>
      <path class="cls-11" d="M32.46,70.22c-1.55,0-2.5-1.1-2.12-2.84.37-1.73,1.82-2.82,3.37-2.82s2.54,1.09,2.17,2.82c-.37,1.74-1.85,2.84-3.41,2.84ZM32.63,69.42c.95,0,2.02-.65,2.31-2.04.29-1.38-.48-2.03-1.42-2.03s-1.97.65-2.26,2.03c-.3,1.39.42,2.04,1.37,2.04Z"/>
      <path class="cls-11" d="M41.35,70.13h-.91l.17-.81c-.47.57-1.21.89-1.94.89-1.26,0-2.08-.78-1.75-2.35l.68-3.21h.9l-.66,3.09c-.24,1.11.25,1.68,1.17,1.68s1.69-.58,1.94-1.76l.64-3.01h.91l-1.17,5.48Z"/>
      <path class="cls-11" d="M44.46,62.73h.91l-1.57,7.4h-.91l1.57-7.4Z"/>
      <path class="cls-11" d="M48.8,64.56c.86,0,1.56.44,1.8,1.07l.62-2.9h.92l-1.57,7.4h-.92l.22-1.03c-.46.61-1.28,1.12-2.28,1.12-1.47,0-2.35-1.15-1.99-2.85.36-1.71,1.73-2.81,3.21-2.81ZM48.8,65.35c-1,0-2,.73-2.28,2.02-.27,1.29.41,2.05,1.41,2.05s2.02-.75,2.29-2.04c.27-1.27-.43-2.03-1.43-2.03Z"/>
    </g>
    <g>
      <path class="cls-11" d="M94.53,65.27h.94l-5.01,8.06h-.94l1.64-2.64-1.06-5.42h1.01l.78,4.44,2.64-4.44Z"/>
      <path class="cls-11" d="M97.59,70.84c-1.55,0-2.5-1.1-2.12-2.84.37-1.73,1.82-2.82,3.37-2.82s2.54,1.09,2.17,2.82c-.37,1.74-1.85,2.84-3.41,2.84ZM97.76,70.04c.95,0,2.02-.65,2.31-2.04.29-1.38-.48-2.03-1.42-2.03s-1.97.65-2.26,2.03c-.3,1.39.42,2.04,1.37,2.04Z"/>
      <path class="cls-11" d="M106.47,70.75h-.91l.17-.81c-.47.57-1.21.89-1.94.89-1.26,0-2.08-.78-1.75-2.35l.68-3.21h.9l-.66,3.09c-.24,1.11.25,1.68,1.17,1.68s1.69-.58,1.94-1.76l.64-3.01h.91l-1.16,5.48Z"/>
    </g>
    <g>
      <path class="cls-11" d="M143.57,65.32c1.47,0,2.36,1.1,2,2.81-.36,1.7-1.73,2.85-3.2,2.85-1,0-1.59-.54-1.81-1.1l-.77,3.61h-.91l1.72-8.08h.91l-.21,1.01c.45-.58,1.28-1.1,2.28-1.1ZM143.21,66.11c-.99,0-2.02.76-2.29,2.03-.27,1.29.44,2.04,1.43,2.04s2.02-.76,2.3-2.05c.27-1.29-.42-2.02-1.43-2.02Z"/>
      <path class="cls-11" d="M147.76,63.49h.91l-1.57,7.4h-.91l1.57-7.4Z"/>
      <path class="cls-11" d="M151,70.98c-1.56,0-2.48-1.1-2.11-2.84.37-1.73,1.71-2.82,3.31-2.82s2.39,1.12,2.07,2.62c-.04.2-.09.36-.15.55h-4.38c-.17,1.11.48,1.72,1.41,1.72.82,0,1.43-.42,1.75-1.01h.98c-.49,1-1.54,1.78-2.9,1.78ZM149.91,67.75h3.46c.24-1.07-.44-1.66-1.38-1.66-.89,0-1.76.59-2.08,1.66Z"/>
      <path class="cls-11" d="M158.29,65.32c1.02,0,1.61.52,1.81,1.09l.21-1h.92l-1.17,5.48h-.92l.22-1.02c-.46.59-1.28,1.11-2.28,1.11-1.46,0-2.34-1.15-1.98-2.85.36-1.71,1.73-2.81,3.2-2.81ZM158.3,66.11c-1,0-2,.73-2.28,2.02-.27,1.29.41,2.05,1.41,2.05s2.02-.75,2.29-2.04c.27-1.27-.43-2.03-1.43-2.03Z"/>
      <path class="cls-11" d="M163.53,70.98c-1.28,0-2.03-.7-1.88-1.7h.94c-.06.53.32.93,1.09.93.72,0,1.2-.36,1.29-.81.26-1.22-3.13-.51-2.7-2.55.18-.84,1.11-1.53,2.33-1.53s1.87.65,1.7,1.72h-.91c.08-.55-.26-.95-.99-.95-.67,0-1.14.32-1.23.76-.28,1.3,3.05.59,2.68,2.55-.19.9-1.12,1.58-2.33,1.58Z"/>
      <path class="cls-11" d="M169.18,70.98c-1.56,0-2.48-1.1-2.11-2.84.37-1.73,1.71-2.82,3.31-2.82s2.39,1.12,2.07,2.62c-.04.2-.09.36-.15.55h-4.38c-.17,1.11.48,1.72,1.41,1.72.82,0,1.43-.42,1.75-1.01h.98c-.49,1-1.54,1.78-2.9,1.78ZM168.09,67.75h3.46c.24-1.07-.44-1.66-1.38-1.66-.89,0-1.76.59-2.08,1.66Z"/>
      <path class="cls-11" d="M179.84,65.32c1.48,0,2.36,1.1,2,2.81-.36,1.7-1.73,2.85-3.2,2.85-1,0-1.6-.5-1.81-1.1l-.21,1.01h-.91l1.57-7.4h.91l-.62,2.94c.48-.61,1.32-1.11,2.28-1.11ZM179.48,66.11c-.99,0-2.02.76-2.29,2.03-.27,1.29.44,2.04,1.43,2.04s2.02-.76,2.3-2.05c.27-1.29-.42-2.02-1.43-2.02Z"/>
      <path class="cls-11" d="M183.37,70.89h-.91l1.17-5.48h.91l-.19.89c.44-.61,1.11-.99,1.98-.99l-.2.94h-.24c-.87,0-1.61.39-1.88,1.66l-.63,2.98Z"/>
      <path class="cls-11" d="M187.35,65.41h.91l-1.17,5.48h-.91l1.17-5.48ZM187.52,63.9c.07-.35.4-.62.75-.62.33,0,.54.27.47.62-.07.35-.4.62-.73.62-.35,0-.56-.27-.49-.62Z"/>
      <path class="cls-11" d="M193.31,67.79c.24-1.12-.25-1.69-1.17-1.69s-1.69.58-1.94,1.76l-.64,3.03h-.91l1.17-5.48h.91l-.17.78c.48-.57,1.21-.88,1.95-.88,1.27,0,2.07.78,1.74,2.35l-.69,3.23h-.9l.66-3.1Z"/>
      <path class="cls-11" d="M198.49,65.32c1,0,1.61.5,1.81,1.09l.21-1h.92l-1.19,5.6c-.32,1.51-1.56,2.58-3.17,2.58-1.44,0-2.31-.73-2.24-1.9h.9c.06.66.61,1.11,1.51,1.11.97,0,1.83-.62,2.08-1.79l.24-1.15c-.46.59-1.28,1.12-2.28,1.12-1.47,0-2.35-1.15-1.99-2.85.36-1.71,1.73-2.81,3.2-2.81ZM198.5,66.11c-1,0-2,.73-2.28,2.02-.27,1.29.41,2.05,1.41,2.05s2.02-.75,2.29-2.04c.27-1.27-.43-2.03-1.43-2.03Z"/>
    </g>
    <g>
      <path class="cls-11" d="M238.62,67.9c.24-1.12-.24-1.69-1.14-1.69s-1.67.59-1.93,1.77l-.64,3.02h-.9l.66-3.1c.24-1.12-.24-1.69-1.14-1.69s-1.68.59-1.93,1.77l-.64,3.02h-.91l1.17-5.48h.91l-.17.79c.48-.58,1.2-.89,1.92-.89.9,0,1.56.4,1.75,1.22.49-.79,1.36-1.22,2.2-1.22,1.25,0,2.05.78,1.72,2.35l-.69,3.23h-.9l.66-3.1Z"/>
      <path class="cls-11" d="M242.72,71.09c-1.55,0-2.49-1.1-2.12-2.84.37-1.73,1.82-2.82,3.37-2.82s2.54,1.09,2.17,2.82c-.37,1.74-1.85,2.84-3.41,2.84ZM242.89,70.29c.95,0,2.02-.65,2.31-2.04.29-1.38-.48-2.03-1.42-2.03s-1.97.65-2.26,2.03c-.3,1.39.42,2.04,1.36,2.04Z"/>
      <path class="cls-11" d="M247.66,71h-.91l1.17-5.48h.91l-.19.89c.44-.61,1.11-.99,1.98-.99l-.2.94h-.24c-.87,0-1.61.39-1.88,1.66l-.63,2.98Z"/>
      <path class="cls-11" d="M252.83,71.09c-1.56,0-2.48-1.1-2.1-2.84.37-1.73,1.71-2.82,3.31-2.82s2.39,1.12,2.07,2.62c-.04.2-.09.36-.15.55h-4.38c-.17,1.11.48,1.72,1.41,1.72.82,0,1.43-.42,1.75-1.01h.98c-.49,1-1.54,1.78-2.9,1.78ZM251.75,67.86h3.46c.24-1.07-.44-1.66-1.38-1.66-.89,0-1.76.59-2.08,1.66Z"/>
      <path class="cls-11" d="M259.87,65.52h.93l.28,4.6,2.34-4.6h.93l.35,4.61,2.22-4.61h.9l-2.87,5.48h-.94l-.39-4.35-2.24,4.35h-.94l-.55-5.48Z"/>
      <path class="cls-11" d="M271,65.43c1.02,0,1.61.52,1.81,1.09l.21-1h.92l-1.17,5.48h-.92l.22-1.02c-.46.59-1.28,1.11-2.28,1.11-1.46,0-2.34-1.15-1.98-2.85.36-1.71,1.73-2.81,3.2-2.81ZM271.01,66.22c-1,0-2,.73-2.28,2.02-.27,1.29.41,2.05,1.41,2.05s2.02-.75,2.29-2.04c.27-1.27-.43-2.03-1.43-2.03Z"/>
      <path class="cls-11" d="M275.52,66.27h-.71l.16-.75h.71l.29-1.38h.91l-.29,1.38h1.43l-.16.75h-1.43l-.69,3.23c-.11.54.05.73.6.73h.67l-.16.77h-.82c-.97,0-1.43-.4-1.2-1.5l.69-3.23Z"/>
      <path class="cls-11" d="M280.3,71.09c-1.56,0-2.48-1.1-2.1-2.84.37-1.73,1.71-2.82,3.31-2.82s2.39,1.12,2.07,2.62c-.04.2-.09.36-.15.55h-4.38c-.17,1.11.48,1.72,1.41,1.72.82,0,1.43-.42,1.75-1.01h.98c-.49,1-1.54,1.78-2.9,1.78ZM279.22,67.86h3.46c.24-1.07-.44-1.66-1.38-1.66-.89,0-1.76.59-2.08,1.66Z"/>
      <path class="cls-11" d="M285.06,71h-.91l1.17-5.48h.91l-.19.89c.44-.61,1.11-.99,1.98-.99l-.2.94h-.24c-.87,0-1.61.39-1.88,1.66l-.63,2.98Z"/>
      <path class="cls-11" d="M289.02,71.06c-.35,0-.56-.27-.49-.62s.4-.62.75-.62c.33,0,.54.27.47.62s-.4.62-.73.62ZM291.16,63.94c1.31,0,2.04.79,1.77,2.06-.31,1.46-1.45,2.06-2.85,2.06l-.23.95h-.79l.3-1.58h.29c1.14,0,2.16-.22,2.41-1.43.17-.8-.24-1.3-1.05-1.3s-1.43.47-1.59,1.25h-.86c.25-1.21,1.3-2.01,2.61-2.01Z"/>
    </g>
    <g>
      <path class="cls-11" d="M477.44,63.34c.24-1.12-.24-1.69-1.14-1.69s-1.67.59-1.93,1.77l-.64,3.02h-.9l.66-3.1c.24-1.12-.24-1.69-1.14-1.69s-1.68.59-1.93,1.77l-.64,3.02h-.91l1.16-5.48h.91l-.17.79c.48-.58,1.2-.89,1.92-.89.9,0,1.56.4,1.75,1.22.49-.79,1.36-1.22,2.2-1.22,1.25,0,2.05.78,1.72,2.35l-.69,3.23h-.9l.66-3.1Z"/>
      <path class="cls-11" d="M481.54,66.53c-1.55,0-2.49-1.1-2.12-2.84.37-1.73,1.82-2.82,3.37-2.82s2.54,1.09,2.17,2.82c-.37,1.74-1.85,2.84-3.41,2.84ZM481.71,65.73c.95,0,2.02-.65,2.31-2.04.29-1.38-.48-2.03-1.42-2.03s-1.97.65-2.26,2.03c-.29,1.39.42,2.04,1.37,2.04Z"/>
      <path class="cls-11" d="M486.48,66.44h-.91l1.16-5.48h.91l-.19.89c.44-.61,1.11-.99,1.98-.99l-.2.94h-.24c-.87,0-1.61.39-1.88,1.66l-.63,2.98Z"/>
      <path class="cls-11" d="M491.65,66.53c-1.56,0-2.48-1.1-2.11-2.84.37-1.73,1.71-2.82,3.31-2.82s2.39,1.12,2.07,2.62c-.04.2-.09.36-.15.55h-4.38c-.17,1.11.48,1.72,1.41,1.72.82,0,1.43-.42,1.75-1.01h.98c-.49,1-1.54,1.78-2.9,1.78ZM490.57,63.3h3.46c.24-1.07-.44-1.66-1.38-1.66-.89,0-1.76.59-2.08,1.66Z"/>
      <path class="cls-11" d="M498.69,60.96h.93l.28,4.6,2.34-4.6h.93l.35,4.61,2.22-4.61h.9l-2.87,5.48h-.94l-.4-4.35-2.24,4.35h-.94l-.55-5.48Z"/>
      <path class="cls-11" d="M509.82,60.87c1.02,0,1.61.52,1.81,1.09l.21-1h.92l-1.16,5.48h-.92l.22-1.02c-.46.59-1.28,1.11-2.29,1.11-1.46,0-2.34-1.15-1.98-2.85.36-1.71,1.73-2.81,3.2-2.81ZM509.83,61.66c-1,0-2,.73-2.28,2.02-.27,1.29.41,2.05,1.41,2.05s2.02-.75,2.29-2.04c.27-1.27-.43-2.03-1.43-2.03Z"/>
      <path class="cls-11" d="M514.34,61.71h-.71l.16-.75h.71l.29-1.38h.91l-.29,1.38h1.43l-.16.75h-1.43l-.69,3.23c-.11.54.04.73.6.73h.67l-.16.77h-.82c-.97,0-1.43-.4-1.2-1.5l.69-3.23Z"/>
      <path class="cls-11" d="M519.12,66.53c-1.56,0-2.48-1.1-2.11-2.84.37-1.73,1.71-2.82,3.31-2.82s2.39,1.12,2.07,2.62c-.04.2-.09.36-.15.55h-4.38c-.17,1.11.48,1.72,1.41,1.72.82,0,1.43-.42,1.75-1.01h.98c-.49,1-1.54,1.78-2.9,1.78ZM518.04,63.3h3.46c.24-1.07-.44-1.66-1.38-1.66-.89,0-1.76.59-2.08,1.66Z"/>
      <path class="cls-11" d="M523.88,66.44h-.91l1.16-5.48h.91l-.19.89c.44-.61,1.11-.99,1.98-.99l-.2.94h-.24c-.87,0-1.61.39-1.88,1.66l-.63,2.98Z"/>
      <path class="cls-11" d="M526.91,65.18h1l-1.69,2.69h-.61l1.3-2.69Z"/>
    </g>
    <g>
      <path class="cls-11" d="M485.07,72.87c1.47,0,2.37,1.1,2,2.81-.36,1.7-1.73,2.85-3.2,2.85-1,0-1.59-.54-1.81-1.1l-.77,3.61h-.91l1.72-8.08h.91l-.21,1.01c.45-.58,1.28-1.1,2.28-1.1ZM484.72,73.66c-.99,0-2.02.76-2.29,2.03-.27,1.29.44,2.04,1.43,2.04s2.02-.76,2.3-2.05c.27-1.29-.42-2.02-1.43-2.02Z"/>
      <path class="cls-11" d="M489.27,71.04h.91l-1.57,7.4h-.91l1.57-7.4Z"/>
      <path class="cls-11" d="M492.5,78.53c-1.56,0-2.48-1.1-2.11-2.84.37-1.73,1.71-2.82,3.31-2.82s2.39,1.12,2.07,2.62c-.04.2-.09.36-.15.55h-4.38c-.17,1.11.48,1.72,1.41,1.72.82,0,1.43-.42,1.75-1.01h.98c-.49,1-1.54,1.78-2.9,1.78ZM491.42,75.3h3.46c.24-1.07-.44-1.66-1.38-1.66-.89,0-1.76.59-2.08,1.66Z"/>
      <path class="cls-11" d="M499.8,72.87c1.02,0,1.61.52,1.81,1.09l.21-1h.92l-1.17,5.48h-.92l.22-1.02c-.46.59-1.28,1.11-2.29,1.11-1.46,0-2.34-1.15-1.98-2.85.36-1.71,1.73-2.81,3.2-2.81ZM499.81,73.66c-1,0-2,.73-2.28,2.02-.27,1.29.41,2.05,1.41,2.05s2.02-.75,2.29-2.04c.27-1.27-.43-2.03-1.43-2.03Z"/>
      <path class="cls-11" d="M505.03,78.53c-1.28,0-2.03-.7-1.88-1.7h.94c-.06.53.32.93,1.09.93.72,0,1.2-.36,1.29-.81.26-1.22-3.13-.51-2.7-2.55.18-.84,1.11-1.53,2.33-1.53s1.87.65,1.7,1.72h-.91c.08-.55-.26-.95-.99-.95-.67,0-1.14.32-1.23.76-.28,1.3,3.05.59,2.68,2.55-.19.9-1.12,1.58-2.33,1.58Z"/>
      <path class="cls-11" d="M510.68,78.53c-1.56,0-2.48-1.1-2.11-2.84.37-1.73,1.71-2.82,3.31-2.82s2.39,1.12,2.07,2.62c-.04.2-.09.36-.15.55h-4.38c-.17,1.11.48,1.72,1.41,1.72.82,0,1.43-.42,1.75-1.01h.98c-.49,1-1.54,1.78-2.9,1.78ZM509.6,75.3h3.46c.24-1.07-.44-1.66-1.38-1.66-.89,0-1.76.59-2.08,1.66Z"/>
      <path class="cls-11" d="M514.81,78.5c-.35,0-.56-.27-.49-.62.07-.35.4-.62.75-.62.33,0,.54.27.47.62-.07.35-.4.62-.73.62Z"/>
    </g>
    <path class="cls-11" d="M334.6,64.08l-1.28,6.02h.44l-.1.47h-1.79l.1-.47h.44l1.28-6.02h-.44l.1-.48h1.79l-.1.48h-.44Z"/>
    <g>
      <path class="cls-11" d="M370.25,65.41h.93l.28,4.6,2.34-4.6h.93l.35,4.61,2.22-4.61h.9l-2.87,5.48h-.94l-.39-4.35-2.24,4.35h-.94l-.55-5.48Z"/>
      <path class="cls-11" d="M380.31,70.98c-1.55,0-2.49-1.1-2.12-2.84.37-1.73,1.82-2.82,3.37-2.82s2.54,1.09,2.17,2.82c-.37,1.74-1.85,2.84-3.41,2.84ZM380.48,70.18c.95,0,2.02-.65,2.31-2.04.29-1.38-.48-2.03-1.42-2.03s-1.97.65-2.26,2.03c-.3,1.39.42,2.04,1.37,2.04Z"/>
      <path class="cls-11" d="M389.19,70.89h-.91l.17-.81c-.47.57-1.21.89-1.94.89-1.26,0-2.08-.78-1.75-2.35l.68-3.21h.9l-.66,3.09c-.24,1.11.25,1.68,1.17,1.68s1.69-.58,1.94-1.76l.64-3.01h.91l-1.17,5.48Z"/>
      <path class="cls-11" d="M392.31,63.49h.91l-1.57,7.4h-.91l1.57-7.4Z"/>
      <path class="cls-11" d="M396.65,65.32c.86,0,1.56.44,1.8,1.07l.62-2.9h.92l-1.57,7.4h-.92l.22-1.03c-.46.61-1.28,1.12-2.28,1.12-1.47,0-2.35-1.15-1.99-2.85.36-1.71,1.73-2.81,3.21-2.81ZM396.65,66.11c-1,0-2,.73-2.28,2.02-.27,1.29.41,2.05,1.41,2.05s2.02-.75,2.29-2.04c.27-1.27-.43-2.03-1.43-2.03Z"/>
    </g>
    <g>
      <path class="cls-11" d="M428.41,63.3h.91l-1.57,7.4h-.91l1.57-7.4Z"/>
      <path class="cls-11" d="M430.46,65.22h.91l-1.16,5.48h-.91l1.16-5.48ZM430.63,63.71c.07-.35.4-.62.75-.62.33,0,.54.27.47.62-.07.35-.4.62-.73.62-.35,0-.56-.27-.49-.62Z"/>
      <path class="cls-11" d="M433.33,63.3h.91l-.92,4.35,2.63-2.43h1.27l-3.16,2.73,2,2.75h-1.24l-1.64-2.42-.51,2.42h-.91l1.57-7.4Z"/>
      <path class="cls-11" d="M439.26,70.79c-1.56,0-2.48-1.1-2.11-2.84.37-1.73,1.71-2.82,3.31-2.82s2.39,1.12,2.07,2.62c-.04.2-.09.36-.15.55h-4.38c-.17,1.11.48,1.72,1.41,1.72.82,0,1.43-.42,1.75-1.01h.98c-.49,1-1.54,1.78-2.9,1.78ZM438.17,67.56h3.46c.24-1.07-.44-1.66-1.38-1.66-.89,0-1.75.59-2.08,1.66Z"/>
    </g>
    <g class="cls-17">
      <g>
        <path class="cls-11" d="M25.93,97.22c1.51,0,2.55.76,2.78,2.11h-1.09c-.2-.84-.84-1.31-1.86-1.31-1.46,0-2.77,1.06-3.14,2.77-.36,1.7.5,2.76,1.96,2.76,1.02,0,1.86-.47,2.42-1.3h1.09c-.8,1.34-2.16,2.09-3.67,2.09-1.95,0-3.17-1.46-2.72-3.55s2.29-3.57,4.24-3.57Z"/>
        <path class="cls-11" d="M31.38,104.37c-1.55,0-2.5-1.1-2.12-2.84.37-1.73,1.82-2.82,3.37-2.82s2.54,1.09,2.17,2.82c-.37,1.74-1.85,2.84-3.41,2.84ZM31.55,103.57c.95,0,2.02-.65,2.31-2.04.29-1.38-.48-2.03-1.42-2.03s-1.97.65-2.26,2.03c-.3,1.39.42,2.04,1.37,2.04Z"/>
        <path class="cls-11" d="M40.26,104.28h-.91l.17-.81c-.47.57-1.21.89-1.94.89-1.26,0-2.08-.78-1.75-2.35l.68-3.21h.9l-.66,3.09c-.24,1.11.25,1.68,1.17,1.68s1.69-.58,1.94-1.76l.64-3.01h.91l-1.16,5.48Z"/>
        <path class="cls-11" d="M43.38,96.88h.91l-1.57,7.4h-.91l1.57-7.4Z"/>
        <path class="cls-11" d="M47.72,98.71c.86,0,1.56.44,1.8,1.07l.62-2.9h.92l-1.57,7.4h-.92l.22-1.03c-.46.61-1.28,1.12-2.28,1.12-1.47,0-2.35-1.15-1.99-2.85.36-1.71,1.73-2.81,3.21-2.81ZM47.72,99.5c-1,0-2,.73-2.28,2.02-.27,1.29.41,2.05,1.41,2.05s2.02-.75,2.29-2.04c.27-1.27-.43-2.03-1.43-2.03Z"/>
      </g>
      <g>
        <path class="cls-11" d="M91.14,100.53c-.46,2.16-2.15,3.47-4.44,3.47h-2.17l1.48-6.97h2.17c2.29,0,3.41,1.34,2.95,3.5ZM86.86,103.25c1.82,0,2.99-1.02,3.35-2.72.36-1.7-.36-2.76-2.18-2.76h-1.26l-1.16,5.48h1.26Z"/>
        <path class="cls-11" d="M95.05,98.43c1.02,0,1.61.52,1.81,1.09l.21-1h.92l-1.16,5.48h-.92l.22-1.02c-.46.59-1.28,1.11-2.28,1.11-1.46,0-2.34-1.15-1.98-2.85.36-1.71,1.73-2.81,3.2-2.81ZM95.06,99.22c-1,0-2,.73-2.28,2.02-.27,1.29.41,2.05,1.41,2.05s2.02-.75,2.29-2.04c.27-1.27-.43-2.03-1.43-2.03Z"/>
        <path class="cls-11" d="M103.03,100.9c.24-1.12-.25-1.69-1.17-1.69s-1.69.58-1.94,1.76l-.64,3.03h-.91l1.16-5.48h.91l-.17.78c.48-.57,1.21-.88,1.95-.88,1.27,0,2.07.78,1.74,2.35l-.69,3.23h-.9l.66-3.1Z"/>
        <path class="cls-11" d="M108.21,98.43c1.02,0,1.61.52,1.81,1.09l.21-1h.92l-1.16,5.48h-.92l.22-1.02c-.46.59-1.28,1.11-2.28,1.11-1.46,0-2.34-1.15-1.98-2.85.36-1.71,1.73-2.81,3.2-2.81ZM108.22,99.22c-1,0-2,.73-2.28,2.02-.27,1.29.41,2.05,1.41,2.05s2.02-.75,2.29-2.04c.27-1.27-.43-2.03-1.43-2.03Z"/>
      </g>
      <g>
        <path class="cls-11" d="M142.42,98.01c1.47,0,2.37,1.1,2,2.81-.36,1.7-1.73,2.85-3.2,2.85-1,0-1.59-.54-1.81-1.1l-.77,3.61h-.91l1.72-8.08h.91l-.21,1.01c.45-.58,1.28-1.1,2.28-1.1ZM142.06,98.8c-.99,0-2.02.76-2.29,2.03-.27,1.29.44,2.04,1.43,2.04s2.02-.76,2.3-2.05c.27-1.29-.42-2.02-1.43-2.02Z"/>
        <path class="cls-11" d="M146.61,96.18h.91l-1.57,7.4h-.91l1.57-7.4Z"/>
        <path class="cls-11" d="M149.84,103.67c-1.56,0-2.48-1.1-2.1-2.84.37-1.73,1.71-2.82,3.31-2.82s2.39,1.12,2.07,2.62c-.04.2-.09.36-.15.55h-4.38c-.17,1.11.48,1.72,1.41,1.72.82,0,1.43-.42,1.75-1.01h.98c-.49,1-1.54,1.78-2.9,1.78ZM148.76,100.44h3.46c.24-1.07-.44-1.66-1.38-1.66-.89,0-1.76.59-2.08,1.66Z"/>
        <path class="cls-11" d="M157.14,98.01c1.02,0,1.61.52,1.81,1.09l.21-1h.92l-1.16,5.48h-.92l.22-1.02c-.46.59-1.28,1.11-2.29,1.11-1.46,0-2.34-1.15-1.98-2.85.36-1.71,1.73-2.81,3.2-2.81ZM157.15,98.8c-1,0-2,.73-2.28,2.02-.27,1.29.41,2.05,1.41,2.05s2.02-.75,2.29-2.04c.27-1.27-.43-2.03-1.43-2.03Z"/>
        <path class="cls-11" d="M162.38,103.67c-1.28,0-2.03-.7-1.88-1.7h.94c-.06.53.32.93,1.09.93.72,0,1.2-.36,1.29-.81.26-1.22-3.13-.51-2.7-2.55.18-.84,1.11-1.53,2.33-1.53s1.87.65,1.7,1.72h-.91c.08-.55-.26-.95-.99-.95-.67,0-1.14.32-1.23.76-.28,1.3,3.05.59,2.68,2.55-.19.9-1.12,1.58-2.33,1.58Z"/>
        <path class="cls-11" d="M168.02,103.67c-1.56,0-2.48-1.1-2.1-2.84.37-1.73,1.71-2.82,3.31-2.82s2.39,1.12,2.07,2.62c-.04.2-.09.36-.15.55h-4.38c-.17,1.11.48,1.72,1.41,1.72.82,0,1.43-.42,1.75-1.01h.98c-.49,1-1.54,1.78-2.9,1.78ZM166.94,100.44h3.46c.24-1.07-.44-1.66-1.38-1.66-.89,0-1.76.59-2.08,1.66Z"/>
        <path class="cls-11" d="M183.11,100.48c.24-1.12-.24-1.69-1.14-1.69s-1.67.59-1.93,1.77l-.64,3.02h-.9l.66-3.1c.24-1.12-.24-1.69-1.14-1.69s-1.68.59-1.93,1.77l-.64,3.02h-.91l1.16-5.48h.91l-.17.79c.48-.58,1.2-.89,1.92-.89.9,0,1.56.4,1.75,1.22.49-.79,1.36-1.22,2.2-1.22,1.25,0,2.05.78,1.72,2.35l-.69,3.23h-.9l.66-3.1Z"/>
        <path class="cls-11" d="M188.29,98.01c1.02,0,1.61.52,1.81,1.09l.21-1h.92l-1.16,5.48h-.92l.22-1.02c-.46.59-1.28,1.11-2.29,1.11-1.46,0-2.34-1.15-1.98-2.85.36-1.71,1.73-2.81,3.2-2.81ZM188.3,98.8c-1,0-2,.73-2.28,2.02-.27,1.29.41,2.05,1.41,2.05s2.02-.75,2.29-2.04c.27-1.27-.43-2.03-1.43-2.03Z"/>
        <path class="cls-11" d="M193.18,96.18h.91l-.92,4.35,2.63-2.43h1.27l-3.16,2.73,2,2.75h-1.24l-1.64-2.42-.51,2.42h-.91l1.57-7.4Z"/>
        <path class="cls-11" d="M199.1,103.67c-1.56,0-2.48-1.1-2.1-2.84.37-1.73,1.71-2.82,3.31-2.82s2.39,1.12,2.07,2.62c-.04.2-.09.36-.15.55h-4.38c-.17,1.11.48,1.72,1.41,1.72.82,0,1.43-.42,1.75-1.01h.98c-.49,1-1.54,1.78-2.9,1.78ZM198.02,100.44h3.46c.24-1.07-.44-1.66-1.38-1.66-.89,0-1.76.59-2.08,1.66Z"/>
      </g>
      <g>
        <path class="cls-11" d="M238.44,104.24c-1.28,0-2.03-.7-1.88-1.7h.94c-.06.53.32.93,1.09.93.72,0,1.2-.36,1.29-.81.26-1.22-3.13-.51-2.7-2.55.18-.84,1.11-1.53,2.33-1.53s1.87.65,1.7,1.72h-.91c.08-.55-.26-.95-.99-.95-.67,0-1.14.32-1.23.76-.28,1.3,3.05.59,2.68,2.55-.19.9-1.12,1.58-2.33,1.58Z"/>
        <path class="cls-11" d="M244.11,104.24c-1.55,0-2.49-1.1-2.12-2.84.37-1.73,1.82-2.82,3.37-2.82s2.54,1.09,2.17,2.82c-.37,1.74-1.85,2.84-3.41,2.84ZM244.28,103.44c.95,0,2.02-.65,2.31-2.04.29-1.38-.48-2.03-1.42-2.03s-1.97.65-2.26,2.03c-.29,1.39.42,2.04,1.37,2.04Z"/>
        <path class="cls-11" d="M256.71,101.05c.24-1.12-.24-1.69-1.14-1.69s-1.67.59-1.93,1.77l-.64,3.02h-.9l.66-3.1c.24-1.12-.24-1.69-1.14-1.69s-1.68.59-1.93,1.77l-.64,3.02h-.91l1.17-5.48h.91l-.17.79c.48-.58,1.2-.89,1.92-.89.9,0,1.56.4,1.75,1.22.49-.79,1.36-1.22,2.2-1.22,1.25,0,2.05.78,1.72,2.35l-.69,3.23h-.9l.66-3.1Z"/>
        <path class="cls-11" d="M260.79,104.24c-1.56,0-2.48-1.1-2.11-2.84.37-1.73,1.71-2.82,3.31-2.82s2.39,1.12,2.07,2.62c-.04.2-.09.36-.15.55h-4.38c-.17,1.11.48,1.72,1.41,1.72.82,0,1.43-.42,1.75-1.01h.98c-.49,1-1.54,1.78-2.9,1.78ZM259.71,101.01h3.46c.24-1.07-.44-1.66-1.38-1.66-.89,0-1.76.59-2.08,1.66Z"/>
        <path class="cls-11" d="M268.52,99.42h-.71l.16-.75h.71l.29-1.38h.91l-.29,1.38h1.43l-.16.75h-1.43l-.69,3.23c-.11.54.04.73.6.73h.67l-.16.77h-.82c-.97,0-1.43-.4-1.2-1.5l.69-3.23Z"/>
        <path class="cls-11" d="M273.3,104.24c-1.56,0-2.48-1.1-2.11-2.84.37-1.73,1.71-2.82,3.31-2.82s2.39,1.12,2.07,2.62c-.04.2-.09.36-.15.55h-4.38c-.17,1.11.48,1.72,1.41,1.72.82,0,1.43-.42,1.75-1.01h.98c-.49,1-1.54,1.78-2.9,1.78ZM272.22,101.01h3.46c.24-1.07-.44-1.66-1.38-1.66-.89,0-1.76.59-2.08,1.66Z"/>
        <path class="cls-11" d="M280.6,98.58c1.02,0,1.61.52,1.81,1.09l.21-1h.92l-1.17,5.48h-.92l.22-1.02c-.46.59-1.28,1.11-2.29,1.11-1.46,0-2.34-1.15-1.98-2.85.36-1.71,1.73-2.81,3.2-2.81ZM280.61,99.37c-1,0-2,.73-2.28,2.02-.27,1.29.41,2.05,1.41,2.05s2.02-.75,2.29-2.04c.27-1.27-.43-2.03-1.43-2.03Z"/>
        <path class="cls-11" d="M285.05,104.21c-.35,0-.56-.27-.49-.62.07-.35.4-.62.75-.62.33,0,.54.27.47.62-.07.35-.4.62-.73.62ZM287.19,97.09c1.31,0,2.04.79,1.77,2.06-.31,1.46-1.45,2.06-2.85,2.06l-.23.95h-.79l.3-1.58h.29c1.14,0,2.16-.22,2.41-1.43.17-.8-.24-1.3-1.05-1.3s-1.43.47-1.59,1.25h-.86c.25-1.21,1.3-2.01,2.61-2.01Z"/>
      </g>
      <g>
        <path class="cls-11" d="M478.63,96.68c1.48,0,2.36,1.1,2,2.81-.36,1.7-1.73,2.85-3.2,2.85-1,0-1.6-.5-1.82-1.1l-.21,1.01h-.91l1.57-7.4h.91l-.62,2.94c.48-.61,1.32-1.11,2.29-1.11ZM478.27,97.47c-.99,0-2.02.76-2.29,2.03-.27,1.29.44,2.04,1.43,2.04s2.02-.76,2.29-2.05c.27-1.29-.42-2.02-1.43-2.02Z"/>
        <path class="cls-11" d="M482.82,94.85h.91l-1.57,7.4h-.91l1.57-7.4Z"/>
        <path class="cls-11" d="M487.15,96.68c1.02,0,1.61.52,1.81,1.09l.21-1h.92l-1.16,5.48h-.92l.22-1.02c-.46.59-1.28,1.11-2.28,1.11-1.46,0-2.34-1.15-1.98-2.85.36-1.71,1.73-2.81,3.2-2.81ZM487.16,97.47c-1,0-2,.73-2.28,2.02-.27,1.29.41,2.05,1.41,2.05s2.02-.75,2.29-2.04c.27-1.27-.43-2.03-1.43-2.03Z"/>
        <path class="cls-11" d="M493.98,96.68c1.36,0,2.1.7,2.13,1.85h-.98c-.05-.66-.51-1.08-1.32-1.08-1,0-1.89.71-2.17,2.05-.29,1.36.3,2.07,1.3,2.07.81,0,1.43-.39,1.78-1.08h.98c-.51,1.09-1.56,1.85-2.92,1.85-1.56,0-2.44-1.1-2.07-2.84.37-1.72,1.71-2.82,3.27-2.82Z"/>
        <path class="cls-11" d="M498.11,94.85h.91l-.92,4.35,2.63-2.43h1.27l-3.16,2.73,2,2.75h-1.24l-1.64-2.42-.51,2.42h-.91l1.57-7.4Z"/>
        <path class="cls-11" d="M505.56,97.52h-.71l.16-.75h.71l.29-1.38h.91l-.29,1.38h1.43l-.16.75h-1.43l-.69,3.23c-.11.54.04.73.6.73h.67l-.16.77h-.82c-.97,0-1.43-.4-1.2-1.5l.69-3.23Z"/>
        <path class="cls-11" d="M510.35,102.34c-1.56,0-2.48-1.1-2.11-2.84.37-1.73,1.71-2.82,3.31-2.82s2.39,1.12,2.07,2.62c-.04.2-.09.36-.15.55h-4.38c-.17,1.11.48,1.72,1.41,1.72.82,0,1.43-.42,1.75-1.01h.98c-.49,1-1.54,1.78-2.9,1.78ZM509.26,99.11h3.46c.24-1.07-.44-1.66-1.38-1.66-.89,0-1.76.59-2.08,1.66Z"/>
        <path class="cls-11" d="M517.64,96.68c1.02,0,1.61.52,1.81,1.09l.21-1h.92l-1.16,5.48h-.92l.22-1.02c-.46.59-1.28,1.11-2.28,1.11-1.46,0-2.34-1.15-1.98-2.85.36-1.71,1.73-2.81,3.2-2.81ZM517.65,97.47c-1,0-2,.73-2.28,2.02-.27,1.29.41,2.05,1.41,2.05s2.02-.75,2.29-2.04c.27-1.27-.43-2.03-1.43-2.03Z"/>
        <path class="cls-11" d="M521.17,100.99h1l-1.69,2.69h-.61l1.3-2.69Z"/>
      </g>
      <g>
        <path class="cls-11" d="M485.01,108.68c1.47,0,2.36,1.1,2,2.81-.36,1.7-1.73,2.85-3.2,2.85-1,0-1.59-.54-1.82-1.1l-.77,3.61h-.91l1.72-8.08h.91l-.21,1.01c.45-.58,1.28-1.1,2.28-1.1ZM484.65,109.47c-.99,0-2.02.76-2.29,2.03-.27,1.29.44,2.04,1.43,2.04s2.02-.76,2.29-2.05c.27-1.29-.42-2.02-1.43-2.02Z"/>
        <path class="cls-11" d="M489.2,106.85h.91l-1.57,7.4h-.91l1.57-7.4Z"/>
        <path class="cls-11" d="M492.44,114.34c-1.56,0-2.48-1.1-2.11-2.84.37-1.73,1.71-2.82,3.31-2.82s2.39,1.12,2.07,2.62c-.04.2-.09.36-.15.55h-4.38c-.17,1.11.48,1.72,1.41,1.72.82,0,1.43-.42,1.75-1.01h.98c-.49,1-1.54,1.78-2.9,1.78ZM491.35,111.11h3.46c.24-1.07-.44-1.66-1.38-1.66-.89,0-1.76.59-2.08,1.66Z"/>
        <path class="cls-11" d="M499.73,108.68c1.02,0,1.61.52,1.81,1.09l.21-1h.92l-1.16,5.48h-.92l.22-1.02c-.46.59-1.28,1.11-2.28,1.11-1.46,0-2.34-1.15-1.98-2.85.36-1.71,1.73-2.81,3.2-2.81ZM499.74,109.47c-1,0-2,.73-2.28,2.02-.27,1.29.41,2.05,1.41,2.05s2.02-.75,2.29-2.04c.27-1.27-.43-2.03-1.43-2.03Z"/>
        <path class="cls-11" d="M504.97,114.34c-1.28,0-2.03-.7-1.88-1.7h.94c-.06.53.32.93,1.09.93.72,0,1.2-.36,1.29-.81.26-1.22-3.13-.51-2.7-2.55.18-.84,1.11-1.53,2.33-1.53s1.87.65,1.7,1.72h-.91c.08-.55-.26-.95-.99-.95-.67,0-1.14.32-1.23.76-.28,1.3,3.05.59,2.68,2.55-.19.9-1.12,1.58-2.33,1.58Z"/>
        <path class="cls-11" d="M510.62,114.34c-1.56,0-2.48-1.1-2.11-2.84.37-1.73,1.71-2.82,3.31-2.82s2.39,1.12,2.07,2.62c-.04.2-.09.36-.15.55h-4.38c-.17,1.11.48,1.72,1.41,1.72.82,0,1.43-.42,1.75-1.01h.98c-.49,1-1.54,1.78-2.9,1.78ZM509.53,111.11h3.46c.24-1.07-.44-1.66-1.38-1.66-.89,0-1.76.59-2.08,1.66Z"/>
        <path class="cls-11" d="M514.74,114.31c-.35,0-.56-.27-.49-.62.07-.35.4-.62.75-.62.33,0,.54.27.47.62-.07.35-.4.62-.73.62Z"/>
      </g>
      <path class="cls-11" d="M334.93,97.91l-1.28,6.02h.44l-.1.47h-1.79l.1-.47h.44l1.28-6.02h-.44l.1-.48h1.79l-.1.48h-.44Z"/>
      <g>
        <path class="cls-11" d="M370.22,98.96h.93l.28,4.6,2.34-4.6h.93l.35,4.61,2.22-4.61h.9l-2.87,5.48h-.94l-.39-4.35-2.24,4.35h-.94l-.55-5.48Z"/>
        <path class="cls-11" d="M380.27,104.53c-1.55,0-2.49-1.1-2.12-2.84.37-1.73,1.82-2.82,3.37-2.82s2.54,1.09,2.17,2.82c-.37,1.74-1.85,2.84-3.41,2.84ZM380.44,103.73c.95,0,2.02-.65,2.31-2.04.29-1.38-.48-2.03-1.42-2.03s-1.97.65-2.26,2.03c-.29,1.39.42,2.04,1.37,2.04Z"/>
        <path class="cls-11" d="M389.16,104.44h-.91l.17-.81c-.47.57-1.21.89-1.94.89-1.26,0-2.08-.78-1.75-2.35l.68-3.21h.9l-.66,3.09c-.24,1.11.25,1.68,1.17,1.68s1.69-.58,1.94-1.76l.64-3.01h.91l-1.17,5.48Z"/>
        <path class="cls-11" d="M392.28,97.04h.91l-1.57,7.4h-.91l1.57-7.4Z"/>
        <path class="cls-11" d="M396.61,98.87c.86,0,1.56.44,1.8,1.07l.62-2.9h.92l-1.57,7.4h-.92l.22-1.03c-.46.61-1.28,1.12-2.28,1.12-1.47,0-2.35-1.15-1.99-2.85.36-1.71,1.73-2.81,3.21-2.81ZM396.62,99.66c-1,0-2,.73-2.28,2.02-.27,1.29.41,2.05,1.41,2.05s2.02-.75,2.29-2.04c.27-1.27-.43-2.03-1.43-2.03Z"/>
      </g>
      <g>
        <path class="cls-11" d="M424.15,98.3c1.47,0,2.37,1.1,2,2.81-.36,1.7-1.73,2.85-3.2,2.85-1,0-1.59-.54-1.81-1.1l-.77,3.61h-.91l1.72-8.08h.91l-.21,1.01c.45-.58,1.28-1.1,2.28-1.1ZM423.79,99.09c-.99,0-2.02.76-2.29,2.03-.27,1.29.44,2.04,1.43,2.04s2.02-.76,2.3-2.05c.27-1.29-.42-2.02-1.43-2.02Z"/>
        <path class="cls-11" d="M427.67,103.87h-.91l1.16-5.48h.91l-.19.89c.44-.61,1.11-.99,1.98-.99l-.2.94h-.24c-.87,0-1.61.39-1.88,1.66l-.63,2.98Z"/>
        <path class="cls-11" d="M432.84,103.96c-1.56,0-2.48-1.1-2.1-2.84.37-1.73,1.71-2.82,3.31-2.82s2.39,1.12,2.07,2.62c-.04.2-.09.36-.15.55h-4.38c-.17,1.11.48,1.72,1.41,1.72.82,0,1.43-.42,1.75-1.01h.98c-.49,1-1.54,1.78-2.9,1.78ZM431.76,100.73h3.46c.24-1.07-.44-1.66-1.38-1.66-.89,0-1.76.59-2.08,1.66Z"/>
        <path class="cls-11" d="M437.87,99.14h-.71l.16-.75h.71l.08-.39c.26-1.22.98-1.77,2.38-1.77l-.16.76c-.82,0-1.15.3-1.3,1.01l-.08.39h1.15l-.16.75h-1.15l-1.01,4.73h-.91l1.01-4.73Z"/>
        <path class="cls-11" d="M442.33,103.96c-1.56,0-2.48-1.1-2.1-2.84.37-1.73,1.71-2.82,3.31-2.82s2.39,1.12,2.07,2.62c-.04.2-.09.36-.15.55h-4.38c-.17,1.11.48,1.72,1.41,1.72.82,0,1.43-.42,1.75-1.01h.98c-.49,1-1.54,1.78-2.9,1.78ZM441.25,100.73h3.46c.24-1.07-.44-1.66-1.38-1.66-.89,0-1.76.59-2.08,1.66Z"/>
        <path class="cls-11" d="M447.09,103.87h-.91l1.16-5.48h.91l-.19.89c.44-.61,1.11-.99,1.98-.99l-.2.94h-.24c-.87,0-1.61.39-1.88,1.66l-.63,2.98Z"/>
      </g>
    </g>
    <g>
      <path class="cls-11" d="M230.31,35.22c1.36,0,2.25.7,2.53,1.85h-.98c-.19-.66-.74-1.08-1.55-1.08-1,0-1.74.71-1.74,2.05s.74,2.07,1.74,2.07c.81,0,1.35-.39,1.55-1.08h.98c-.28,1.09-1.17,1.85-2.53,1.85-1.56,0-2.67-1.1-2.67-2.84s1.11-2.82,2.67-2.82Z"/>
      <path class="cls-11" d="M236.44,40.88c-1.55,0-2.73-1.1-2.73-2.84s1.22-2.82,2.77-2.82,2.77,1.09,2.77,2.82-1.25,2.84-2.81,2.84ZM236.44,40.08c.95,0,1.88-.65,1.88-2.04s-.91-2.03-1.85-2.03-1.83.65-1.83,2.03.85,2.04,1.8,2.04Z"/>
      <path class="cls-11" d="M248.36,37.69c0-1.12-.6-1.69-1.5-1.69s-1.55.59-1.55,1.77v3.02h-.9v-3.1c0-1.12-.6-1.69-1.5-1.69s-1.55.59-1.55,1.77v3.02h-.91v-5.48h.91v.79c.36-.58,1.01-.89,1.73-.89.9,0,1.65.4,2.01,1.22.32-.79,1.1-1.22,1.94-1.22,1.25,0,2.22.78,2.22,2.35v3.23h-.9v-3.1Z"/>
      <path class="cls-11" d="M253.71,35.22c1.47,0,2.6,1.1,2.6,2.81s-1.13,2.85-2.6,2.85c-1,0-1.71-.54-2.05-1.1v3.61h-.91v-8.08h.91v1.01c.33-.58,1.05-1.1,2.05-1.1ZM253.52,36.01c-.99,0-1.86.76-1.86,2.03s.87,2.04,1.86,2.04,1.86-.76,1.86-2.05-.85-2.02-1.86-2.02Z"/>
      <path class="cls-11" d="M257.51,33.4h.91v7.39h-.91v-7.39Z"/>
      <path class="cls-11" d="M262.34,40.88c-1.56,0-2.71-1.1-2.71-2.84s1.11-2.82,2.71-2.82,2.63,1.12,2.63,2.62c0,.2,0,.36-.03.55h-4.38c.07,1.11.85,1.72,1.78,1.72.82,0,1.34-.42,1.54-1.01h.98c-.28,1-1.16,1.78-2.52,1.78ZM260.57,37.65h3.46c.01-1.07-.79-1.66-1.73-1.66-.89,0-1.63.59-1.73,1.66Z"/>
      <path class="cls-11" d="M274.08,37.69c0-1.12-.6-1.69-1.5-1.69s-1.55.59-1.55,1.77v3.02h-.9v-3.1c0-1.12-.6-1.69-1.5-1.69s-1.55.59-1.55,1.77v3.02h-.91v-5.48h.91v.79c.36-.58,1.01-.89,1.73-.89.9,0,1.65.4,2.01,1.22.32-.79,1.1-1.22,1.94-1.22,1.25,0,2.22.78,2.22,2.35v3.23h-.9v-3.1Z"/>
      <path class="cls-11" d="M278.84,40.88c-1.56,0-2.71-1.1-2.71-2.84s1.11-2.82,2.71-2.82,2.63,1.12,2.63,2.62c0,.2,0,.36-.03.55h-4.38c.07,1.11.85,1.72,1.78,1.72.82,0,1.34-.42,1.54-1.01h.98c-.28,1-1.16,1.78-2.52,1.78ZM277.07,37.65h3.46c.01-1.07-.79-1.66-1.73-1.66-.89,0-1.63.59-1.73,1.66Z"/>
      <path class="cls-11" d="M286.68,37.69c0-1.12-.61-1.69-1.53-1.69s-1.57.58-1.57,1.76v3.03h-.91v-5.48h.91v.78c.36-.57,1.02-.88,1.76-.88,1.27,0,2.24.78,2.24,2.35v3.23h-.9v-3.1Z"/>
      <path class="cls-11" d="M289.27,36.06h-.71v-.75h.71v-1.38h.91v1.38h1.43v.75h-1.43v3.23c0,.54.2.73.76.73h.67v.77h-.82c-.97,0-1.52-.4-1.52-1.5v-3.23Z"/>
      <path class="cls-11" d="M294.49,33.74c1.31,0,2.21.79,2.21,2.06,0,1.46-1.01,2.06-2.41,2.06l-.03.95h-.79l-.04-1.58h.29c1.14,0,2.11-.22,2.11-1.43,0-.8-.52-1.3-1.33-1.3s-1.33.47-1.33,1.25h-.86c0-1.21.87-2.01,2.18-2.01ZM293.86,40.85c-.35,0-.62-.27-.62-.62s.27-.62.62-.62c.33,0,.6.27.6.62s-.27.62-.6.62Z"/>
    </g>
    <g>
      <path class="cls-11" d="M468.84,28.57c1.36,0,2.1.7,2.14,1.85h-.98c-.05-.66-.51-1.08-1.32-1.08-1,0-1.89.71-2.17,2.05-.29,1.36.3,2.07,1.3,2.07.81,0,1.43-.39,1.78-1.08h.98c-.51,1.09-1.56,1.85-2.92,1.85-1.56,0-2.44-1.1-2.06-2.84.37-1.72,1.71-2.82,3.27-2.82Z"/>
      <path class="cls-11" d="M473.77,34.23c-1.55,0-2.49-1.1-2.12-2.84.37-1.73,1.82-2.82,3.37-2.82s2.54,1.09,2.17,2.82c-.37,1.74-1.85,2.84-3.41,2.84ZM473.94,33.43c.95,0,2.02-.65,2.31-2.04.29-1.38-.48-2.03-1.42-2.03s-1.97.65-2.26,2.03c-.3,1.39.42,2.04,1.36,2.04Z"/>
      <path class="cls-11" d="M486.36,31.04c.24-1.12-.24-1.69-1.14-1.69s-1.67.59-1.93,1.77l-.64,3.02h-.9l.66-3.1c.24-1.12-.24-1.69-1.14-1.69s-1.68.59-1.93,1.77l-.64,3.02h-.91l1.16-5.48h.91l-.17.79c.48-.58,1.2-.89,1.92-.89.9,0,1.56.4,1.75,1.22.49-.79,1.36-1.22,2.2-1.22,1.25,0,2.05.78,1.72,2.35l-.69,3.23h-.9l.66-3.1Z"/>
      <path class="cls-11" d="M492.24,28.57c1.47,0,2.37,1.1,2,2.81-.36,1.7-1.73,2.85-3.2,2.85-1,0-1.59-.54-1.81-1.1l-.77,3.61h-.91l1.72-8.08h.91l-.21,1.01c.45-.58,1.28-1.1,2.28-1.1ZM491.88,29.36c-.99,0-2.02.76-2.29,2.03-.27,1.29.44,2.04,1.43,2.04s2.02-.76,2.3-2.05c.27-1.29-.42-2.02-1.43-2.02Z"/>
      <path class="cls-11" d="M496.43,26.74h.91l-1.57,7.4h-.91l1.57-7.4Z"/>
      <path class="cls-11" d="M499.67,34.23c-1.56,0-2.48-1.1-2.1-2.84.37-1.73,1.71-2.82,3.31-2.82s2.39,1.12,2.07,2.62c-.04.2-.09.36-.15.55h-4.38c-.17,1.11.48,1.72,1.41,1.72.82,0,1.43-.42,1.75-1.01h.98c-.49,1-1.54,1.78-2.9,1.78ZM498.58,31h3.46c.24-1.07-.44-1.66-1.38-1.66-.89,0-1.76.59-2.08,1.66Z"/>
      <path class="cls-11" d="M512.08,31.04c.24-1.12-.24-1.69-1.14-1.69s-1.67.59-1.93,1.77l-.64,3.02h-.9l.66-3.1c.24-1.12-.24-1.69-1.14-1.69s-1.68.59-1.93,1.77l-.64,3.02h-.91l1.16-5.48h.91l-.17.79c.48-.58,1.2-.89,1.92-.89.9,0,1.56.4,1.75,1.22.49-.79,1.36-1.22,2.2-1.22,1.25,0,2.05.78,1.72,2.35l-.69,3.23h-.9l.66-3.1Z"/>
      <path class="cls-11" d="M516.17,34.23c-1.56,0-2.48-1.1-2.1-2.84.37-1.73,1.71-2.82,3.31-2.82s2.39,1.12,2.07,2.62c-.04.2-.09.36-.15.55h-4.38c-.17,1.11.48,1.72,1.41,1.72.82,0,1.43-.42,1.75-1.01h.98c-.49,1-1.54,1.78-2.9,1.78ZM515.08,31h3.46c.24-1.07-.44-1.66-1.38-1.66-.89,0-1.76.59-2.08,1.66Z"/>
      <path class="cls-11" d="M524.68,31.04c.24-1.12-.25-1.69-1.17-1.69s-1.69.58-1.94,1.76l-.64,3.03h-.91l1.16-5.48h.91l-.17.78c.48-.57,1.21-.88,1.95-.88,1.27,0,2.07.78,1.74,2.35l-.69,3.23h-.9l.66-3.1Z"/>
      <path class="cls-11" d="M527.62,29.41h-.71l.16-.75h.71l.29-1.38h.91l-.29,1.38h1.43l-.16.75h-1.43l-.69,3.23c-.11.54.04.73.6.73h.67l-.16.77h-.82c-.97,0-1.43-.4-1.2-1.5l.69-3.23Z"/>
      <path class="cls-11" d="M530.26,32.88h1l-1.69,2.69h-.61l1.3-2.69Z"/>
    </g>
    <g>
      <path class="cls-11" d="M478.24,48c-1-1.25-1.33-3.27-.86-5.52.48-2.26,1.69-4.37,3.39-5.68h.95l-.02.09c-1.85,1.45-3,3.55-3.44,5.59-.43,2.03-.14,4,.94,5.43l-.02.09h-.95Z"/>
      <path class="cls-11" d="M484.98,40.57c1.47,0,2.37,1.1,2,2.81-.36,1.7-1.73,2.85-3.2,2.85-1,0-1.59-.54-1.81-1.1l-.77,3.61h-.91l1.72-8.08h.91l-.21,1.01c.45-.58,1.28-1.1,2.28-1.1ZM484.62,41.36c-.99,0-2.02.76-2.29,2.03-.27,1.29.44,2.04,1.43,2.04s2.02-.76,2.3-2.05c.27-1.29-.42-2.02-1.43-2.02Z"/>
      <path class="cls-11" d="M489.17,38.74h.91l-1.57,7.4h-.91l1.57-7.4Z"/>
      <path class="cls-11" d="M492.41,46.24c-1.56,0-2.48-1.1-2.11-2.84.37-1.73,1.71-2.82,3.31-2.82s2.39,1.12,2.07,2.62c-.04.2-.09.36-.15.55h-4.38c-.17,1.11.48,1.72,1.41,1.72.82,0,1.43-.42,1.75-1.01h.98c-.49,1-1.54,1.78-2.9,1.78ZM491.32,43h3.46c.24-1.07-.44-1.66-1.38-1.66-.89,0-1.76.59-2.08,1.66Z"/>
      <path class="cls-11" d="M499.7,40.57c1.02,0,1.61.52,1.81,1.09l.21-1h.92l-1.16,5.48h-.92l.22-1.02c-.46.59-1.28,1.11-2.29,1.11-1.46,0-2.34-1.15-1.98-2.85.36-1.71,1.73-2.81,3.2-2.81ZM499.71,41.36c-1,0-2,.73-2.28,2.02-.27,1.29.41,2.05,1.41,2.05s2.02-.75,2.29-2.04c.27-1.27-.43-2.03-1.43-2.03Z"/>
      <path class="cls-11" d="M504.94,46.24c-1.28,0-2.03-.7-1.88-1.7h.94c-.06.53.32.93,1.09.93.72,0,1.2-.36,1.29-.81.26-1.22-3.13-.51-2.7-2.55.18-.84,1.11-1.53,2.33-1.53s1.87.65,1.7,1.72h-.91c.08-.55-.26-.95-.99-.95-.67,0-1.14.32-1.23.76-.28,1.3,3.05.59,2.68,2.55-.19.9-1.12,1.58-2.33,1.58Z"/>
      <path class="cls-11" d="M510.59,46.24c-1.56,0-2.48-1.1-2.11-2.84.37-1.73,1.71-2.82,3.31-2.82s2.39,1.12,2.07,2.62c-.04.2-.09.36-.15.55h-4.38c-.17,1.11.48,1.72,1.41,1.72.82,0,1.43-.42,1.75-1.01h.98c-.49,1-1.54,1.78-2.9,1.78ZM509.5,43h3.46c.24-1.07-.44-1.66-1.38-1.66-.89,0-1.76.59-2.08,1.66Z"/>
      <path class="cls-11" d="M513.75,48l.02-.09c1.69-1.43,2.82-3.4,3.25-5.43.43-2.04.17-4.14-1.06-5.59l.02-.09h.95c1.14,1.31,1.45,3.42.97,5.68-.48,2.25-1.67,4.27-3.2,5.52h-.95Z"/>
      <path class="cls-11" d="M519.25,46.2c-.35,0-.56-.27-.49-.62.07-.35.4-.62.75-.62.33,0,.54.27.47.62-.07.35-.4.62-.73.62Z"/>
    </g>
    <g>
      <path class="cls-11" d="M81.67,39.88c-1.28,0-2.18-.7-2.24-1.7h.94c.05.53.52.93,1.29.93.72,0,1.12-.36,1.12-.81,0-1.22-3.24-.51-3.24-2.55,0-.84.79-1.53,2.01-1.53s2.01.65,2.07,1.72h-.91c-.04-.55-.46-.95-1.19-.95-.67,0-1.07.32-1.07.76,0,1.3,3.18.59,3.22,2.55,0,.9-.79,1.58-2,1.58Z"/>
      <path class="cls-11" d="M89.81,39.79h-.91v-.81c-.35.57-1.02.89-1.75.89-1.26,0-2.25-.78-2.25-2.35v-3.21h.9v3.09c0,1.11.61,1.68,1.53,1.68s1.57-.58,1.57-1.76v-3.01h.91v5.48Z"/>
      <path class="cls-11" d="M94.31,34.22c1.48,0,2.6,1.1,2.6,2.81s-1.13,2.85-2.6,2.85c-1,0-1.71-.5-2.05-1.1v1.01h-.91v-7.39h.91v2.94c.35-.61,1.08-1.11,2.05-1.11ZM94.12,35.01c-.99,0-1.86.76-1.86,2.03s.87,2.04,1.86,2.04,1.86-.76,1.86-2.05-.85-2.02-1.86-2.02Z"/>
      <path class="cls-11" d="M99.05,34.31v6.67c0,.99-.52,1.41-1.45,1.41h-.53v-.77h.38c.5,0,.69-.18.69-.66v-6.65h.91ZM97.99,32.8c0-.35.27-.62.61-.62s.61.27.61.62-.27.62-.61.62-.61-.27-.61-.62Z"/>
      <path class="cls-11" d="M102.96,39.88c-1.56,0-2.71-1.1-2.71-2.84s1.11-2.82,2.71-2.82,2.63,1.12,2.63,2.62c0,.2,0,.36-.03.55h-4.38c.07,1.11.85,1.72,1.78,1.72.82,0,1.34-.42,1.54-1.01h.98c-.28,1-1.16,1.78-2.52,1.78ZM101.19,36.65h3.46c.01-1.07-.79-1.66-1.73-1.66-.89,0-1.63.59-1.73,1.66Z"/>
      <path class="cls-11" d="M109.12,34.22c1.36,0,2.25.7,2.53,1.85h-.98c-.19-.66-.74-1.08-1.55-1.08-1,0-1.74.71-1.74,2.05s.74,2.07,1.74,2.07c.81,0,1.35-.39,1.55-1.08h.98c-.28,1.09-1.17,1.85-2.53,1.85-1.56,0-2.67-1.1-2.67-2.84s1.11-2.82,2.67-2.82Z"/>
      <path class="cls-11" d="M113.06,35.06h-.71v-.75h.71v-1.38h.91v1.38h1.43v.75h-1.43v3.23c0,.54.2.73.76.73h.67v.77h-.82c-.97,0-1.52-.4-1.52-1.5v-3.23Z"/>
    </g>
    <g>
      <path class="cls-11" d="M317.28,40.86c-1.4,0-2.39-.78-2.41-1.93h.97c.06.58.47,1.16,1.44,1.16.88,0,1.4-.5,1.4-1.16,0-1.88-3.77-.68-3.77-3.27,0-1.15.93-1.93,2.31-1.93s2.2.73,2.31,1.79h-1c-.06-.47-.5-1-1.35-1.01-.75-.02-1.34.37-1.34,1.12,0,1.8,3.76.68,3.76,3.26,0,.99-.81,1.97-2.32,1.97Z"/>
      <path class="cls-11" d="M325.8,40.79h-.91v-.81c-.35.57-1.02.89-1.75.89-1.26,0-2.25-.78-2.25-2.35v-3.21h.9v3.09c0,1.11.61,1.68,1.53,1.68s1.57-.58,1.57-1.76v-3.01h.91v5.48Z"/>
      <path class="cls-11" d="M330.3,35.22c1.48,0,2.6,1.1,2.6,2.81s-1.13,2.85-2.6,2.85c-1,0-1.71-.5-2.05-1.1v1.01h-.91v-7.39h.91v2.94c.35-.61,1.08-1.11,2.05-1.11ZM330.11,36.01c-.99,0-1.86.76-1.86,2.03s.87,2.04,1.86,2.04,1.86-.76,1.86-2.05-.85-2.02-1.86-2.02Z"/>
      <path class="cls-11" d="M335.04,35.31v6.67c0,.99-.52,1.41-1.45,1.41h-.53v-.77h.38c.5,0,.69-.18.69-.66v-6.65h.91ZM333.98,33.8c0-.35.27-.62.61-.62s.61.27.61.62-.27.62-.61.62-.61-.27-.61-.62Z"/>
      <path class="cls-11" d="M338.95,40.88c-1.56,0-2.71-1.1-2.71-2.84s1.11-2.82,2.71-2.82,2.63,1.12,2.63,2.62c0,.2,0,.36-.03.55h-4.38c.07,1.11.85,1.72,1.78,1.72.82,0,1.34-.42,1.54-1.01h.98c-.28,1-1.16,1.78-2.52,1.78ZM337.18,37.65h3.46c.01-1.07-.79-1.66-1.73-1.66-.89,0-1.63.59-1.73,1.66Z"/>
      <path class="cls-11" d="M345.11,35.22c1.36,0,2.25.7,2.53,1.85h-.98c-.19-.66-.74-1.08-1.55-1.08-1,0-1.74.71-1.74,2.05s.74,2.07,1.74,2.07c.81,0,1.35-.39,1.55-1.08h.98c-.28,1.09-1.17,1.85-2.53,1.85-1.56,0-2.67-1.1-2.67-2.84s1.11-2.82,2.67-2.82Z"/>
      <path class="cls-11" d="M349.05,36.06h-.71v-.75h.71v-1.38h.91v1.38h1.43v.75h-1.43v3.23c0,.54.2.73.76.73h.67v.77h-.82c-.97,0-1.52-.4-1.52-1.5v-3.23Z"/>
    </g>
    <g>
      <path class="cls-11" d="M138.94,42.65c-1-1.25-1.33-3.27-.86-5.52.48-2.26,1.69-4.37,3.39-5.68h.95l-.02.09c-1.85,1.45-3,3.55-3.44,5.59-.43,2.03-.14,4,.94,5.43l-.02.09h-.95Z"/>
      <path class="cls-11" d="M145.68,35.22c1.47,0,2.36,1.1,2,2.81-.36,1.7-1.73,2.85-3.2,2.85-1,0-1.59-.54-1.81-1.1l-.77,3.61h-.91l1.72-8.08h.91l-.21,1.01c.45-.58,1.28-1.1,2.28-1.1ZM145.32,36.01c-.99,0-2.02.76-2.29,2.03-.27,1.29.44,2.04,1.43,2.04s2.02-.76,2.3-2.05c.27-1.29-.42-2.02-1.43-2.02Z"/>
      <path class="cls-11" d="M149.87,33.39h.91l-1.57,7.4h-.91l1.57-7.4Z"/>
      <path class="cls-11" d="M153.1,40.88c-1.56,0-2.48-1.1-2.11-2.84.37-1.73,1.71-2.82,3.31-2.82s2.39,1.12,2.07,2.62c-.04.2-.09.36-.15.55h-4.38c-.17,1.11.48,1.72,1.41,1.72.82,0,1.43-.42,1.75-1.01h.98c-.49,1-1.54,1.78-2.9,1.78ZM152.02,37.65h3.46c.24-1.07-.44-1.66-1.38-1.66-.89,0-1.76.59-2.08,1.66Z"/>
      <path class="cls-11" d="M160.4,35.22c1.02,0,1.61.52,1.81,1.09l.21-1h.92l-1.17,5.48h-.92l.22-1.02c-.46.59-1.28,1.11-2.28,1.11-1.46,0-2.34-1.15-1.98-2.85.36-1.71,1.73-2.81,3.2-2.81ZM160.41,36.01c-1,0-2,.73-2.28,2.02-.27,1.29.41,2.05,1.41,2.05s2.02-.75,2.29-2.04c.27-1.27-.43-2.03-1.43-2.03Z"/>
      <path class="cls-11" d="M165.63,40.88c-1.28,0-2.03-.7-1.88-1.7h.94c-.06.53.32.93,1.09.93.72,0,1.2-.36,1.29-.81.26-1.22-3.13-.51-2.7-2.55.18-.84,1.11-1.53,2.33-1.53s1.87.65,1.7,1.72h-.91c.08-.55-.26-.95-.99-.95-.67,0-1.14.32-1.23.76-.28,1.3,3.05.59,2.68,2.55-.19.9-1.12,1.58-2.33,1.58Z"/>
      <path class="cls-11" d="M171.28,40.88c-1.56,0-2.48-1.1-2.11-2.84.37-1.73,1.71-2.82,3.31-2.82s2.39,1.12,2.07,2.62c-.04.2-.09.36-.15.55h-4.38c-.17,1.11.48,1.72,1.41,1.72.82,0,1.43-.42,1.75-1.01h.98c-.49,1-1.54,1.78-2.9,1.78ZM170.2,37.65h3.46c.24-1.07-.44-1.66-1.38-1.66-.89,0-1.76.59-2.08,1.66Z"/>
      <path class="cls-11" d="M174.45,42.65l.02-.09c1.69-1.43,2.82-3.4,3.25-5.43.43-2.04.17-4.14-1.06-5.59l.02-.09h.95c1.14,1.31,1.45,3.42.97,5.68-.48,2.25-1.67,4.27-3.2,5.52h-.95Z"/>
      <path class="cls-11" d="M183.84,35.31l.72,4.64,2.69-4.64h.97l-3.31,5.48h-1.06l-.98-5.48h.98Z"/>
      <path class="cls-11" d="M190.3,40.88c-1.56,0-2.48-1.1-2.11-2.84.37-1.73,1.71-2.82,3.31-2.82s2.39,1.12,2.07,2.62c-.04.2-.09.36-.15.55h-4.38c-.17,1.11.48,1.72,1.41,1.72.82,0,1.43-.42,1.75-1.01h.98c-.49,1-1.54,1.78-2.9,1.78ZM189.22,37.65h3.46c.24-1.07-.44-1.66-1.38-1.66-.89,0-1.76.59-2.08,1.66Z"/>
      <path class="cls-11" d="M195.06,40.79h-.91l1.17-5.48h.91l-.19.89c.44-.61,1.11-.99,1.98-.99l-.2.94h-.24c-.87,0-1.61.39-1.88,1.66l-.63,2.98Z"/>
      <path class="cls-11" d="M202.02,35.22c1.48,0,2.36,1.1,2,2.81-.36,1.7-1.73,2.85-3.2,2.85-1,0-1.6-.5-1.81-1.1l-.21,1.01h-.91l1.57-7.4h.91l-.62,2.94c.48-.61,1.32-1.11,2.28-1.11ZM201.67,36.01c-.99,0-2.02.76-2.29,2.03-.27,1.29.44,2.04,1.43,2.04s2.02-.76,2.3-2.05c.27-1.29-.42-2.02-1.43-2.02Z"/>
    </g>
    <g>
      <path class="cls-11" d="M376.47,36.69c0-1.12-.6-1.69-1.5-1.69s-1.55.59-1.55,1.77v3.02h-.9v-3.1c0-1.12-.6-1.69-1.5-1.69s-1.55.59-1.55,1.77v3.02h-.91v-5.48h.91v.79c.36-.58,1.01-.89,1.73-.89.9,0,1.65.4,2.01,1.22.32-.79,1.1-1.22,1.94-1.22,1.25,0,2.22.78,2.22,2.35v3.23h-.9v-3.1Z"/>
      <path class="cls-11" d="M381.25,39.88c-1.55,0-2.73-1.1-2.73-2.84s1.22-2.82,2.77-2.82,2.77,1.09,2.77,2.82-1.25,2.84-2.81,2.84ZM381.25,39.08c.95,0,1.88-.65,1.88-2.04s-.91-2.03-1.85-2.03-1.83.65-1.83,2.03.85,2.04,1.8,2.04Z"/>
      <path class="cls-11" d="M387.54,34.22c.86,0,1.65.44,2.03,1.07v-2.9h.92v7.39h-.92v-1.03c-.33.61-1.04,1.12-2.04,1.12-1.47,0-2.6-1.15-2.6-2.85s1.13-2.81,2.61-2.81ZM387.7,35.01c-1,0-1.85.73-1.85,2.02s.85,2.05,1.85,2.05,1.86-.75,1.86-2.04-.86-2.03-1.86-2.03Z"/>
      <path class="cls-11" d="M394.28,34.22c1.02,0,1.72.52,2.04,1.09v-1h.92v5.48h-.92v-1.02c-.33.59-1.04,1.11-2.05,1.11-1.46,0-2.59-1.15-2.59-2.85s1.13-2.81,2.6-2.81ZM394.46,35.01c-1,0-1.85.73-1.85,2.02s.85,2.05,1.85,2.05,1.86-.75,1.86-2.04-.86-2.03-1.86-2.03Z"/>
      <path class="cls-11" d="M398.79,32.4h.91v7.39h-.91v-7.39Z"/>
    </g>
    <g>
      <path class="cls-11" d="M424.13,34.44l1.71,4.64,1.7-4.64h.97l-2.15,5.48h-1.06l-2.15-5.48h.98Z"/>
      <path class="cls-11" d="M431.77,40.01c-1.56,0-2.71-1.1-2.71-2.84s1.11-2.82,2.71-2.82,2.63,1.12,2.63,2.62c0,.2,0,.36-.03.55h-4.38c.07,1.11.85,1.72,1.78,1.72.82,0,1.34-.42,1.54-1.01h.98c-.28,1-1.16,1.78-2.52,1.78ZM430.01,36.78h3.46c.01-1.07-.79-1.66-1.73-1.66-.89,0-1.63.59-1.73,1.66Z"/>
      <path class="cls-11" d="M436.52,39.92h-.91v-5.48h.91v.89c.31-.61.9-.99,1.77-.99v.94h-.24c-.87,0-1.53.39-1.53,1.66v2.98Z"/>
      <path class="cls-11" d="M442.29,34.35c1.48,0,2.6,1.1,2.6,2.81s-1.13,2.85-2.6,2.85c-1,0-1.71-.5-2.05-1.1v1.01h-.91v-7.4h.91v2.94c.35-.61,1.08-1.11,2.05-1.11ZM442.1,35.14c-.99,0-1.86.76-1.86,2.03s.87,2.04,1.86,2.04,1.86-.76,1.86-2.05-.85-2.02-1.86-2.02Z"/>
    </g>
    <g class="cls-14">
      <line class="cls-10" x1=".16" y1="82.01" x2="535.44" y2="82.01"/>
    </g>
    <line class="cls-8" x1="217" y1="22.61" x2="217" y2="119.73"/>
    <line class="cls-3" x1="71.02" y1="22.87" x2="71.02" y2="120.24"/>
    <line class="cls-6" x1="359.83" y1="22.61" x2="359.83" y2="120.28"/>
    <line class="cls-6" x1="408.13" y1="22.61" x2="408.13" y2="120.28"/>
    <line class="cls-6" x1="460.16" y1="22.61" x2="460.16" y2="120.28"/>
    <line class="cls-10" x1="306.33" y1="22.87" x2="306.33" y2="120.27"/>
    <line class="cls-9" x1="123.6" y1="22.89" x2="123.6" y2="120.32"/>
  </g>
</svg>