<?xml version="1.0" encoding="UTF-8"?>
<svg id="Layer_2" data-name="Layer 2" xmlns="http://www.w3.org/2000/svg" xmlns:xlink="http://www.w3.org/1999/xlink" viewBox="0 0 538.55 176.02">
  <defs>
    <style>
      .cls-1 {
        fill: #6d2a7f;
      }

      .cls-2 {
        clip-path: url(#clippath-4);
      }

      .cls-3 {
        fill: #8d619a;
      }

      .cls-4 {
        stroke-dasharray: 3.88 3.88;
      }

      .cls-4, .cls-5, .cls-6, .cls-7, .cls-8, .cls-9, .cls-10, .cls-11 {
        fill: none;
      }

      .cls-4, .cls-5, .cls-7, .cls-8, .cls-9, .cls-10, .cls-11 {
        stroke: #2a5caa;
        stroke-miterlimit: 10;
        stroke-width: .75px;
      }

      .cls-12 {
        fill: #231f20;
      }

      .cls-5 {
        stroke-dasharray: 3.96 3.96;
      }

      .cls-13 {
        fill: #fff;
      }

      .cls-14 {
        clip-path: url(#clippath-1);
      }

      .cls-7 {
        stroke-dasharray: 4.07 4.07;
      }

      .cls-15 {
        clip-path: url(#clippath-3);
      }

      .cls-8 {
        stroke-dasharray: 3.87 3.87;
      }

      .cls-16 {
        clip-path: url(#clippath-2);
      }

      .cls-9 {
        stroke-dasharray: 4.17 4.17;
      }

      .cls-17 {
        fill: #b499bd;
      }

      .cls-10 {
        stroke-dasharray: 3.95 3.95;
      }

      .cls-18 {
        clip-path: url(#clippath);
      }
    </style>
    <clipPath id="clippath">
      <rect class="cls-6" x=".18" width="538.37" height="176.02"/>
    </clipPath>
    <clipPath id="clippath-1">
      <rect class="cls-6" x=".18" width="538.37" height="176.02"/>
    </clipPath>
    <clipPath id="clippath-2">
      <rect class="cls-6" x=".18" width="538.37" height="176.02"/>
    </clipPath>
    <clipPath id="clippath-3">
      <rect class="cls-6" x=".18" width="538.37" height="176.02"/>
    </clipPath>
    <clipPath id="clippath-4">
      <rect class="cls-6" y="67.64" width="535.47" height=".75"/>
    </clipPath>
  </defs>
  <g id="Layer_1-2" data-name="Layer 1">
    <g class="cls-18">
      <path class="cls-1" d="M538.55,163.89c0,6.7-1.88,12.13-4.2,12.13H6.59c-2.32,0-4.2-5.43-4.2-12.13V17.74C2.39,11.03,4.27,0,6.59,0h527.76c2.32,0,4.2,11.03,4.2,17.74v146.15Z"/>
      <path class="cls-13" d="M535.78,128.5c0,5.13-1.91,11.65-4.26,11.65H5.71c-2.35,0-4.26-6.51-4.26-11.65V15.53c0-5.13,1.91-9.29,4.26-9.29h525.8c2.35,0,4.26,4.16,4.26,9.29v112.97Z"/>
      <path class="cls-17" d="M535.92,44.94c0,.66-1.88,1.19-4.2,1.19H4.37c-2.32,0-4.2-.53-4.2-1.19v-23.42c0-.66,1.88-1.19,4.2-1.19h527.36c2.32,0,4.2.53,4.2,1.19v23.42Z"/>
      <path class="cls-3" d="M536.07,21.24c0,.6-1.88,1.09-4.2,1.09H4.37c-2.32,0-4.2-.49-4.2-1.09V1.37C.18.77,2.05.28,4.37.28h527.5c2.32,0,4.2.49,4.2,1.09v19.87Z"/>
    </g>
    <g>
      <path class="cls-13" d="M200.14,12.86h-3.14l-.82,1.49h-2.15l4.84-8.42h2.38l1.26,8.42h-2.17l-.19-1.49ZM199.56,8.19l-1.69,3.08h2.08l-.39-3.08Z"/>
      <path class="cls-13" d="M207.3,7.55c.89,0,1.57.41,1.85,1.02l.66-3.11h2.05l-1.89,8.88h-2.05l.2-.96c-.5.61-1.3,1.06-2.29,1.06-1.64,0-2.66-1.34-2.22-3.46.45-2.11,2.04-3.43,3.68-3.43ZM207.52,9.34c-.77,0-1.58.58-1.81,1.64s.34,1.67,1.11,1.67,1.59-.59,1.82-1.66c.23-1.07-.33-1.66-1.11-1.66Z"/>
      <path class="cls-13" d="M214.34,7.65l.44,4.78,2.47-4.78h2.18l-3.8,6.7h-2.53l-.95-6.7h2.19Z"/>
      <path class="cls-13" d="M221.72,14.44c-1.97,0-3.1-1.32-2.65-3.44.45-2.12,2.12-3.44,4.11-3.44s3.06,1.3,2.62,3.34c-.04.19-.1.4-.16.6h-4.64c-.11.88.34,1.28,1,1.28.58,0,.96-.29,1.21-.65h2.18c-.6,1.31-2,2.32-3.67,2.32ZM221.25,10.35h2.57c.16-.73-.33-1.15-1.01-1.15s-1.27.41-1.55,1.15Z"/>
      <path class="cls-13" d="M228.1,14.34h-2.05l1.42-6.7h2.05l-.24,1.12c.62-.71,1.45-1.19,2.35-1.19l-.46,2.17h-.56c-.97,0-1.61.33-1.85,1.49l-.66,3.11Z"/>
      <path class="cls-13" d="M236.63,7.55c1.66,0,2.67,1.32,2.22,3.43-.45,2.11-2.04,3.46-3.69,3.46-.98,0-1.6-.44-1.84-1.03l-.2.94h-2.05l1.89-8.88h2.05l-.67,3.13c.5-.6,1.32-1.04,2.28-1.04ZM235.64,9.34c-.77,0-1.59.59-1.82,1.66-.23,1.07.34,1.66,1.11,1.66s1.6-.6,1.83-1.67-.35-1.64-1.13-1.64Z"/>
      <path class="cls-13" d="M241.82,14.44c-1.79,0-2.77-1-2.59-2.29h2.03c-.05.47.3.78.87.78.53,0,.85-.24.92-.54.23-1.08-3.58-.3-3.06-2.76.24-1.14,1.41-2.08,3.16-2.08s2.48.96,2.33,2.28h-1.89c.04-.46-.25-.76-.82-.76-.48,0-.78.19-.85.52-.23,1.07,3.56.31,3.06,2.81-.25,1.16-1.46,2.04-3.14,2.04Z"/>
      <path class="cls-13" d="M251.16,14.44c-1.97,0-3.17-1.32-2.72-3.44.45-2.12,2.25-3.44,4.21-3.44s3.2,1.32,2.75,3.44c-.45,2.12-2.27,3.44-4.23,3.44ZM251.54,12.66c.73,0,1.53-.54,1.77-1.67.24-1.14-.32-1.67-1.04-1.67s-1.5.53-1.75,1.67c-.24,1.13.27,1.67,1.01,1.67Z"/>
      <path class="cls-13" d="M256.94,9.35h-.74l.36-1.7h.74l.04-.19c.37-1.75,1.64-2.62,3.65-2.51l-.37,1.74c-.78-.05-1.11.19-1.26.9v.06s1.09,0,1.09,0l-.36,1.7h-1.1l-1.06,4.99h-2.05l1.06-4.99Z"/>
      <path class="cls-13" d="M265.97,6.88l-1.39,6.53h.62l-.2.95h-3.31l.2-.95h.64l1.39-6.53h-.64l.2-.95h3.31l-.2.95h-.62Z"/>
      <path class="cls-13" d="M271.14,10.71c.19-.91-.2-1.42-.98-1.42s-1.39.5-1.58,1.42l-.77,3.64h-2.05l1.42-6.7h2.05l-.19.89c.53-.56,1.33-.96,2.23-.96,1.55,0,2.35,1.05,1.97,2.86l-.83,3.91h-2.04l.77-3.64Z"/>
      <path class="cls-13" d="M277.72,7.55c.89,0,1.57.41,1.85,1.02l.66-3.11h2.05l-1.89,8.88h-2.05l.2-.96c-.5.61-1.3,1.06-2.29,1.06-1.64,0-2.66-1.34-2.22-3.46.45-2.11,2.04-3.43,3.68-3.43ZM277.94,9.34c-.77,0-1.58.58-1.81,1.64s.34,1.67,1.11,1.67,1.59-.59,1.82-1.66c.23-1.07-.33-1.66-1.11-1.66Z"/>
      <path class="cls-13" d="M284.73,14.44c-1.97,0-3.1-1.32-2.65-3.44.45-2.12,2.12-3.44,4.11-3.44s3.06,1.3,2.62,3.34c-.04.19-.1.4-.16.6h-4.64c-.11.88.34,1.28,1,1.28.58,0,.96-.29,1.21-.65h2.18c-.6,1.31-2,2.32-3.67,2.32ZM284.27,10.35h2.57c.16-.73-.33-1.15-1.01-1.15s-1.27.41-1.55,1.15Z"/>
      <path class="cls-13" d="M290.32,9.35h-.74l.36-1.7h.74l.04-.19c.37-1.75,1.64-2.62,3.65-2.51l-.37,1.74c-.78-.05-1.11.19-1.26.9v.06s1.09,0,1.09,0l-.36,1.7h-1.1l-1.06,4.99h-2.05l1.06-4.99Z"/>
      <path class="cls-13" d="M294.69,7.65h2.05l-1.42,6.7h-2.05l1.42-6.7ZM294.88,5.85c.13-.62.73-1.12,1.46-1.12s1.11.49.97,1.12c-.13.61-.73,1.1-1.45,1.1s-1.12-.49-.99-1.1Z"/>
      <path class="cls-13" d="M302.09,10.71c.19-.91-.2-1.42-.98-1.42s-1.39.5-1.58,1.42l-.77,3.64h-2.05l1.42-6.7h2.05l-.19.89c.53-.56,1.33-.96,2.23-.96,1.55,0,2.35,1.05,1.97,2.86l-.83,3.91h-2.04l.77-3.64Z"/>
      <path class="cls-13" d="M306.1,7.65h2.05l-1.42,6.7h-2.05l1.42-6.7ZM306.29,5.85c.13-.62.73-1.12,1.46-1.12s1.11.49.97,1.12c-.13.61-.73,1.1-1.45,1.1s-1.12-.49-.99-1.1Z"/>
      <path class="cls-13" d="M309.49,9.35h-.82l.36-1.7h.82l.35-1.63h2.05l-.35,1.63h1.34l-.36,1.7h-1.34l-.57,2.69c-.08.4.05.56.5.56h.73l-.37,1.74h-1.04c-1.39,0-2.24-.59-1.87-2.33l.57-2.66Z"/>
      <path class="cls-13" d="M315.82,14.44c-1.97,0-3.1-1.32-2.65-3.44.45-2.12,2.12-3.44,4.11-3.44s3.06,1.3,2.62,3.34c-.04.19-.1.4-.16.6h-4.64c-.11.88.34,1.28,1,1.28.58,0,.96-.29,1.21-.65h2.18c-.6,1.31-2,2.32-3.67,2.32ZM315.36,10.35h2.57c.16-.73-.33-1.15-1.01-1.15s-1.27.41-1.55,1.15Z"/>
      <path class="cls-13" d="M324.37,5.92h5.48l-.35,1.64h-3.43l-.38,1.78h2.57l-.34,1.6h-2.57l-.72,3.41h-2.05l1.79-8.42Z"/>
      <path class="cls-13" d="M331.09,14.34h-2.05l1.42-6.7h2.05l-.24,1.12c.62-.71,1.45-1.19,2.35-1.19l-.46,2.17h-.56c-.97,0-1.61.33-1.85,1.49l-.66,3.11Z"/>
      <path class="cls-13" d="M337.02,14.44c-1.97,0-3.1-1.32-2.65-3.44.45-2.12,2.12-3.44,4.11-3.44s3.06,1.3,2.62,3.34c-.04.19-.1.4-.16.6h-4.64c-.11.88.34,1.28,1,1.28.58,0,.96-.29,1.21-.65h2.18c-.6,1.31-2,2.32-3.67,2.32ZM336.56,10.35h2.57c.16-.73-.33-1.15-1.01-1.15s-1.27.41-1.55,1.15Z"/>
      <path class="cls-13" d="M350.09,14.84l-2.51,2.74h-2.48l.86-4.03c-.54.53-1.29.92-2.18.92-1.64,0-2.74-1.38-2.31-3.42.43-2.04,2.12-3.43,3.79-3.43.88,0,1.48.34,1.78.84l.16-.77h2.05l-1.69,7.93.72-.78h1.81ZM346.48,11.03c.24-1.13-.42-1.64-1.11-1.64s-1.57.53-1.81,1.66c-.24,1.13.43,1.64,1.11,1.64s1.58-.53,1.82-1.66Z"/>
      <path class="cls-13" d="M355.99,14.34h-2.05l.19-.91c-.53.58-1.34.98-2.24.98-1.55,0-2.36-1.07-1.98-2.86l.83-3.91h2.04l-.77,3.64c-.19.91.21,1.42.98,1.42s1.4-.5,1.6-1.42l.77-3.64h2.05l-1.42,6.7Z"/>
      <path class="cls-13" d="M360.31,14.44c-1.97,0-3.1-1.32-2.65-3.44.45-2.12,2.12-3.44,4.11-3.44s3.06,1.3,2.62,3.34c-.04.19-.1.4-.16.6h-4.64c-.11.88.34,1.28,1,1.28.58,0,.96-.29,1.21-.65h2.18c-.6,1.31-2,2.32-3.67,2.32ZM359.85,10.35h2.57c.16-.73-.33-1.15-1.01-1.15s-1.27.41-1.55,1.15Z"/>
      <path class="cls-13" d="M370.03,10.71c.19-.91-.2-1.42-.98-1.42s-1.39.5-1.58,1.42l-.77,3.64h-2.05l1.42-6.7h2.05l-.19.89c.53-.56,1.33-.96,2.23-.96,1.55,0,2.35,1.05,1.97,2.86l-.83,3.91h-2.04l.77-3.64Z"/>
      <path class="cls-13" d="M377.02,7.55c1.68,0,2.67.92,2.68,2.52h-2.18c-.07-.47-.34-.77-.9-.77-.73,0-1.36.58-1.59,1.69-.24,1.12.14,1.69.88,1.69.56,0,.95-.28,1.23-.77h2.18c-.68,1.55-2.07,2.52-3.75,2.52-1.97,0-3.08-1.32-2.63-3.44.45-2.11,2.12-3.44,4.09-3.44Z"/>
      <path class="cls-13" d="M385.82,7.65h2.22l-6.3,9.88h-2.21l2.26-3.41-1.35-6.47h2.29l.66,4.19,2.43-4.19Z"/>
    </g>
    <g>
      <path class="cls-12" d="M8.67,37.81c-1.4,0-2.39-.78-2.41-1.93h.97c.06.58.47,1.16,1.44,1.16.88,0,1.4-.5,1.4-1.16,0-1.88-3.77-.68-3.77-3.27,0-1.15.93-1.93,2.31-1.93s2.2.73,2.31,1.79h-1c-.06-.47-.5-1-1.35-1.01-.75-.02-1.34.37-1.34,1.12,0,1.8,3.76.68,3.76,3.26,0,.99-.81,1.97-2.32,1.97Z"/>
      <path class="cls-12" d="M17.19,37.74h-.91v-.81c-.35.57-1.02.89-1.75.89-1.26,0-2.25-.78-2.25-2.35v-3.21h.9v3.09c0,1.11.61,1.68,1.53,1.68s1.57-.58,1.57-1.76v-3.01h.91v5.48Z"/>
      <path class="cls-12" d="M21.69,32.17c1.48,0,2.6,1.1,2.6,2.81s-1.13,2.85-2.6,2.85c-1,0-1.71-.5-2.05-1.1v1.01h-.91v-7.4h.91v2.94c.35-.61,1.08-1.11,2.05-1.11ZM21.5,32.96c-.99,0-1.86.76-1.86,2.03s.87,2.04,1.86,2.04,1.86-.76,1.86-2.05-.85-2.02-1.86-2.02Z"/>
      <path class="cls-12" d="M26.43,32.26v6.67c0,.99-.52,1.41-1.45,1.41h-.53v-.77h.38c.5,0,.69-.18.69-.66v-6.65h.91ZM25.37,30.75c0-.35.27-.62.61-.62s.61.27.61.62-.27.62-.61.62-.61-.27-.61-.62Z"/>
      <path class="cls-12" d="M30.34,37.83c-1.56,0-2.71-1.1-2.71-2.84s1.11-2.82,2.71-2.82,2.63,1.12,2.63,2.62c0,.2,0,.36-.03.55h-4.38c.07,1.11.85,1.72,1.78,1.72.82,0,1.34-.42,1.54-1.01h.98c-.28,1-1.16,1.78-2.52,1.78ZM28.57,34.6h3.46c.01-1.07-.79-1.66-1.73-1.66-.89,0-1.63.59-1.73,1.66Z"/>
      <path class="cls-12" d="M36.5,32.17c1.36,0,2.25.7,2.53,1.85h-.98c-.19-.66-.74-1.08-1.55-1.08-1,0-1.74.71-1.74,2.05s.74,2.07,1.74,2.07c.81,0,1.35-.39,1.55-1.08h.98c-.28,1.09-1.17,1.85-2.53,1.85-1.56,0-2.67-1.1-2.67-2.84s1.11-2.82,2.67-2.82Z"/>
      <path class="cls-12" d="M40.44,33.01h-.71v-.75h.71v-1.38h.91v1.38h1.43v.75h-1.43v3.23c0,.54.2.73.76.73h.67v.77h-.82c-.97,0-1.52-.4-1.52-1.5v-3.23Z"/>
    </g>
    <g>
      <path class="cls-12" d="M246.21,34.58h-3.55v3.16h-.91v-6.97h.91v3.06h3.55v-3.06h.91v6.97h-.91v-3.16Z"/>
      <path class="cls-12" d="M251.03,37.83c-1.56,0-2.71-1.1-2.71-2.84s1.11-2.82,2.71-2.82,2.63,1.12,2.63,2.62c0,.2,0,.36-.03.55h-4.38c.07,1.11.85,1.72,1.78,1.72.82,0,1.34-.42,1.54-1.01h.98c-.28,1-1.16,1.78-2.52,1.78ZM249.26,34.6h3.46c.01-1.07-.79-1.66-1.73-1.66-.89,0-1.63.59-1.73,1.66Z"/>
      <path class="cls-12" d="M254.86,30.35h.91v7.4h-.91v-7.4Z"/>
      <path class="cls-12" d="M260.28,32.17c1.47,0,2.6,1.1,2.6,2.81s-1.13,2.85-2.6,2.85c-1,0-1.71-.54-2.05-1.1v3.61h-.91v-8.08h.91v1.01c.33-.58,1.05-1.1,2.05-1.1ZM260.09,32.96c-.99,0-1.86.76-1.86,2.03s.87,2.04,1.86,2.04,1.86-.76,1.86-2.05-.85-2.02-1.86-2.02Z"/>
      <path class="cls-12" d="M263.93,30.75c0-.35.27-.62.62-.62.33,0,.6.27.6.62s-.27.62-.6.62c-.35,0-.62-.27-.62-.62ZM264.08,32.26h.91v5.48h-.91v-5.48Z"/>
      <path class="cls-12" d="M270.55,34.64c0-1.12-.61-1.69-1.53-1.69s-1.57.58-1.57,1.76v3.03h-.91v-5.48h.91v.78c.36-.57,1.02-.88,1.76-.88,1.27,0,2.24.78,2.24,2.35v3.23h-.9v-3.1Z"/>
      <path class="cls-12" d="M275.2,32.17c1,0,1.72.5,2.04,1.09v-1h.92v5.6c0,1.51-1.01,2.58-2.62,2.58-1.44,0-2.47-.73-2.65-1.9h.9c.2.66.85,1.11,1.75,1.11.97,0,1.7-.62,1.7-1.79v-1.15c-.33.59-1.04,1.12-2.04,1.12-1.47,0-2.6-1.15-2.6-2.85s1.13-2.81,2.6-2.81ZM275.38,32.96c-1,0-1.85.73-1.85,2.02s.85,2.05,1.85,2.05,1.86-.75,1.86-2.04-.86-2.03-1.86-2.03Z"/>
      <path class="cls-12" d="M282.7,32.26l1.71,4.64,1.7-4.64h.97l-2.15,5.48h-1.06l-2.15-5.48h.98Z"/>
      <path class="cls-12" d="M290.35,37.83c-1.56,0-2.71-1.1-2.71-2.84s1.11-2.82,2.71-2.82,2.63,1.12,2.63,2.62c0,.2,0,.36-.03.55h-4.38c.07,1.11.85,1.72,1.78,1.72.82,0,1.34-.42,1.54-1.01h.98c-.28,1-1.16,1.78-2.52,1.78ZM288.58,34.6h3.46c.01-1.07-.79-1.66-1.73-1.66-.89,0-1.63.59-1.73,1.66Z"/>
      <path class="cls-12" d="M295.09,37.74h-.91v-5.48h.91v.89c.31-.61.9-.99,1.77-.99v.94h-.24c-.87,0-1.53.39-1.53,1.66v2.98Z"/>
      <path class="cls-12" d="M300.87,32.17c1.48,0,2.6,1.1,2.6,2.81s-1.13,2.85-2.6,2.85c-1,0-1.71-.5-2.05-1.1v1.01h-.91v-7.4h.91v2.94c.35-.61,1.08-1.11,2.05-1.11ZM300.68,32.96c-.99,0-1.86.76-1.86,2.03s.87,2.04,1.86,2.04,1.86-.76,1.86-2.05-.85-2.02-1.86-2.02Z"/>
    </g>
    <g>
      <path class="cls-12" d="M321.39,37.83c-1.28,0-2.18-.7-2.24-1.7h.94c.05.53.52.93,1.29.93.72,0,1.12-.36,1.12-.81,0-1.22-3.24-.51-3.24-2.55,0-.84.79-1.53,2.01-1.53s2.01.65,2.07,1.72h-.91c-.04-.55-.46-.95-1.19-.95-.67,0-1.07.32-1.07.76,0,1.3,3.18.59,3.22,2.55,0,.9-.79,1.58-2,1.58Z"/>
      <path class="cls-12" d="M329.53,37.74h-.91v-.81c-.35.57-1.02.89-1.75.89-1.26,0-2.25-.78-2.25-2.35v-3.21h.9v3.09c0,1.11.61,1.68,1.53,1.68s1.57-.58,1.57-1.76v-3.01h.91v5.48Z"/>
      <path class="cls-12" d="M334.03,32.17c1.48,0,2.6,1.1,2.6,2.81s-1.13,2.85-2.6,2.85c-1,0-1.71-.5-2.05-1.1v1.01h-.91v-7.4h.91v2.94c.35-.61,1.08-1.11,2.05-1.11ZM333.84,32.96c-.99,0-1.86.76-1.86,2.03s.87,2.04,1.86,2.04,1.86-.76,1.86-2.05-.85-2.02-1.86-2.02Z"/>
      <path class="cls-12" d="M338.77,32.26v6.67c0,.99-.52,1.41-1.45,1.41h-.53v-.77h.38c.5,0,.69-.18.69-.66v-6.65h.91ZM337.71,30.75c0-.35.27-.62.61-.62s.61.27.61.62-.27.62-.61.62-.61-.27-.61-.62Z"/>
      <path class="cls-12" d="M342.68,37.83c-1.56,0-2.71-1.1-2.71-2.84s1.11-2.82,2.71-2.82,2.63,1.12,2.63,2.62c0,.2,0,.36-.03.55h-4.38c.07,1.11.85,1.72,1.78,1.72.82,0,1.34-.42,1.54-1.01h.98c-.28,1-1.16,1.78-2.52,1.78ZM340.91,34.6h3.46c.01-1.07-.79-1.66-1.73-1.66-.89,0-1.63.59-1.73,1.66Z"/>
      <path class="cls-12" d="M348.84,32.17c1.36,0,2.25.7,2.53,1.85h-.98c-.19-.66-.74-1.08-1.55-1.08-1,0-1.74.71-1.74,2.05s.74,2.07,1.74,2.07c.81,0,1.35-.39,1.55-1.08h.98c-.28,1.09-1.17,1.85-2.53,1.85-1.56,0-2.67-1.1-2.67-2.84s1.11-2.82,2.67-2.82Z"/>
      <path class="cls-12" d="M352.78,33.01h-.71v-.75h.71v-1.38h.91v1.38h1.43v.75h-1.43v3.23c0,.54.2.73.76.73h.67v.77h-.82c-.97,0-1.52-.4-1.52-1.5v-3.23Z"/>
    </g>
    <g>
      <path class="cls-12" d="M63.5,32.17c1.02,0,1.72.52,2.04,1.09v-1h.92v5.48h-.92v-1.02c-.33.59-1.04,1.11-2.05,1.11-1.46,0-2.59-1.15-2.59-2.85s1.13-2.81,2.6-2.81ZM63.68,32.96c-1,0-1.85.73-1.85,2.02s.85,2.05,1.85,2.05,1.86-.75,1.86-2.04-.86-2.03-1.86-2.03Z"/>
      <path class="cls-12" d="M70.27,32.17c.86,0,1.65.44,2.03,1.07v-2.9h.92v7.4h-.92v-1.03c-.33.61-1.04,1.12-2.04,1.12-1.47,0-2.6-1.15-2.6-2.85s1.13-2.81,2.61-2.81ZM70.44,32.96c-1,0-1.85.73-1.85,2.02s.85,2.05,1.85,2.05,1.86-.75,1.86-2.04-.86-2.03-1.86-2.03Z"/>
      <path class="cls-12" d="M75.09,32.26l1.71,4.64,1.7-4.64h.97l-2.15,5.48h-1.06l-2.15-5.48h.98Z"/>
      <path class="cls-12" d="M82.74,37.83c-1.56,0-2.71-1.1-2.71-2.84s1.11-2.82,2.71-2.82,2.63,1.12,2.63,2.62c0,.2,0,.36-.03.55h-4.38c.07,1.11.85,1.72,1.78,1.72.82,0,1.34-.42,1.54-1.01h.98c-.28,1-1.16,1.78-2.52,1.78ZM80.97,34.6h3.46c.01-1.07-.79-1.66-1.73-1.66-.89,0-1.63.59-1.73,1.66Z"/>
      <path class="cls-12" d="M87.48,37.74h-.91v-5.48h.91v.89c.31-.61.9-.99,1.77-.99v.94h-.24c-.87,0-1.53.39-1.53,1.66v2.98Z"/>
      <path class="cls-12" d="M93.26,32.17c1.48,0,2.6,1.1,2.6,2.81s-1.13,2.85-2.6,2.85c-1,0-1.71-.5-2.05-1.1v1.01h-.91v-7.4h.91v2.94c.35-.61,1.08-1.11,2.05-1.11ZM93.07,32.96c-.99,0-1.86.76-1.86,2.03s.87,2.04,1.86,2.04,1.86-.76,1.86-2.05-.85-2.02-1.86-2.02Z"/>
    </g>
    <g>
      <path class="cls-12" d="M162.37,32.17c1.36,0,2.25.7,2.53,1.85h-.98c-.19-.66-.74-1.08-1.55-1.08-1,0-1.74.71-1.74,2.05s.74,2.07,1.74,2.07c.81,0,1.35-.39,1.55-1.08h.98c-.28,1.09-1.17,1.85-2.53,1.85-1.56,0-2.67-1.1-2.67-2.84s1.11-2.82,2.67-2.82Z"/>
      <path class="cls-12" d="M168.5,37.83c-1.55,0-2.73-1.1-2.73-2.84s1.22-2.82,2.77-2.82,2.77,1.09,2.77,2.82-1.25,2.84-2.81,2.84ZM168.5,37.03c.95,0,1.88-.65,1.88-2.04s-.91-2.03-1.85-2.03-1.83.65-1.83,2.03.85,2.04,1.8,2.04Z"/>
      <path class="cls-12" d="M180.42,34.64c0-1.12-.6-1.69-1.5-1.69s-1.55.59-1.55,1.77v3.02h-.9v-3.1c0-1.12-.6-1.69-1.5-1.69s-1.55.59-1.55,1.77v3.02h-.91v-5.48h.91v.79c.36-.58,1.01-.89,1.73-.89.9,0,1.65.4,2.01,1.22.32-.79,1.1-1.22,1.94-1.22,1.25,0,2.22.78,2.22,2.35v3.23h-.9v-3.1Z"/>
      <path class="cls-12" d="M185.77,32.17c1.47,0,2.6,1.1,2.6,2.81s-1.13,2.85-2.6,2.85c-1,0-1.71-.54-2.05-1.1v3.61h-.91v-8.08h.91v1.01c.33-.58,1.05-1.1,2.05-1.1ZM185.58,32.96c-.99,0-1.86.76-1.86,2.03s.87,2.04,1.86,2.04,1.86-.76,1.86-2.05-.85-2.02-1.86-2.02Z"/>
      <path class="cls-12" d="M189.57,30.35h.91v7.4h-.91v-7.4Z"/>
      <path class="cls-12" d="M194.4,37.83c-1.56,0-2.71-1.1-2.71-2.84s1.11-2.82,2.71-2.82,2.63,1.12,2.63,2.62c0,.2,0,.36-.03.55h-4.38c.07,1.11.85,1.72,1.78,1.72.82,0,1.34-.42,1.54-1.01h.98c-.28,1-1.16,1.78-2.52,1.78ZM192.63,34.6h3.46c.01-1.07-.79-1.66-1.73-1.66-.89,0-1.63.59-1.73,1.66Z"/>
      <path class="cls-12" d="M206.14,34.64c0-1.12-.6-1.69-1.5-1.69s-1.55.59-1.55,1.77v3.02h-.9v-3.1c0-1.12-.6-1.69-1.5-1.69s-1.55.59-1.55,1.77v3.02h-.91v-5.48h.91v.79c.36-.58,1.01-.89,1.73-.89.9,0,1.65.4,2.01,1.22.32-.79,1.1-1.22,1.94-1.22,1.25,0,2.22.78,2.22,2.35v3.23h-.9v-3.1Z"/>
      <path class="cls-12" d="M210.9,37.83c-1.56,0-2.71-1.1-2.71-2.84s1.11-2.82,2.71-2.82,2.63,1.12,2.63,2.62c0,.2,0,.36-.03.55h-4.38c.07,1.11.85,1.72,1.78,1.72.82,0,1.34-.42,1.54-1.01h.98c-.28,1-1.16,1.78-2.52,1.78ZM209.13,34.6h3.46c.01-1.07-.79-1.66-1.73-1.66-.89,0-1.63.59-1.73,1.66Z"/>
      <path class="cls-12" d="M218.74,34.64c0-1.12-.61-1.69-1.53-1.69s-1.57.58-1.57,1.76v3.03h-.91v-5.48h.91v.78c.36-.57,1.02-.88,1.76-.88,1.27,0,2.24.78,2.24,2.35v3.23h-.9v-3.1Z"/>
      <path class="cls-12" d="M221.33,33.01h-.71v-.75h.71v-1.38h.91v1.38h1.43v.75h-1.43v3.23c0,.54.2.73.76.73h.67v.77h-.82c-.97,0-1.52-.4-1.52-1.5v-3.23Z"/>
      <path class="cls-12" d="M225.06,37.8c-.35,0-.62-.27-.62-.62s.27-.62.62-.62c.33,0,.6.27.6.62s-.27.62-.6.62Z"/>
    </g>
    <g>
      <path class="cls-12" d="M377.63,32.7c1.02,0,1.72.52,2.04,1.09v-1h.92v5.48h-.92v-1.02c-.33.59-1.04,1.11-2.05,1.11-1.46,0-2.59-1.15-2.59-2.85s1.13-2.81,2.6-2.81ZM377.81,33.49c-1,0-1.85.73-1.85,2.02s.85,2.05,1.85,2.05,1.86-.75,1.86-2.04-.86-2.03-1.86-2.03Z"/>
      <path class="cls-12" d="M384.4,32.7c.86,0,1.65.44,2.03,1.07v-2.9h.92v7.4h-.92v-1.03c-.33.61-1.04,1.12-2.04,1.12-1.47,0-2.6-1.15-2.6-2.85s1.13-2.81,2.61-2.81ZM384.57,33.49c-1,0-1.85.73-1.85,2.02s.85,2.05,1.85,2.05,1.86-.75,1.86-2.04-.86-2.03-1.86-2.03Z"/>
      <path class="cls-12" d="M389.22,32.79l1.71,4.64,1.7-4.64h.97l-2.15,5.48h-1.06l-2.15-5.48h.98Z"/>
      <path class="cls-12" d="M396.87,38.36c-1.56,0-2.71-1.1-2.71-2.84s1.11-2.82,2.71-2.82,2.63,1.12,2.63,2.62c0,.2,0,.36-.03.55h-4.38c.07,1.11.85,1.72,1.78,1.72.82,0,1.34-.42,1.54-1.01h.98c-.28,1-1.16,1.78-2.52,1.78ZM395.1,35.13h3.46c.01-1.07-.79-1.66-1.73-1.66-.89,0-1.63.59-1.73,1.66Z"/>
      <path class="cls-12" d="M401.61,38.27h-.91v-5.48h.91v.89c.31-.61.9-.99,1.77-.99v.94h-.24c-.87,0-1.53.39-1.53,1.66v2.98Z"/>
      <path class="cls-12" d="M407.39,32.7c1.48,0,2.6,1.1,2.6,2.81s-1.13,2.85-2.6,2.85c-1,0-1.71-.5-2.05-1.1v1.01h-.91v-7.4h.91v2.94c.35-.61,1.08-1.11,2.05-1.11ZM407.2,33.49c-.99,0-1.86.76-1.86,2.03s.87,2.04,1.86,2.04,1.86-.76,1.86-2.05-.85-2.02-1.86-2.02Z"/>
    </g>
    <g>
      <path class="cls-12" d="M465.69,32.7c1.36,0,2.25.7,2.53,1.85h-.98c-.19-.66-.74-1.08-1.55-1.08-1,0-1.74.71-1.74,2.05s.74,2.07,1.74,2.07c.81,0,1.35-.39,1.55-1.08h.98c-.28,1.09-1.17,1.85-2.53,1.85-1.56,0-2.67-1.1-2.67-2.84s1.11-2.82,2.67-2.82Z"/>
      <path class="cls-12" d="M471.82,38.36c-1.55,0-2.73-1.1-2.73-2.84s1.22-2.82,2.77-2.82,2.77,1.09,2.77,2.82-1.25,2.84-2.81,2.84ZM471.82,37.56c.95,0,1.88-.65,1.88-2.04s-.91-2.03-1.85-2.03-1.83.65-1.83,2.03.85,2.04,1.8,2.04Z"/>
      <path class="cls-12" d="M483.74,35.17c0-1.12-.6-1.69-1.5-1.69s-1.55.59-1.55,1.77v3.02h-.9v-3.1c0-1.12-.6-1.69-1.5-1.69s-1.55.59-1.55,1.77v3.02h-.91v-5.48h.91v.79c.36-.58,1.01-.89,1.73-.89.9,0,1.65.4,2.01,1.22.32-.79,1.1-1.22,1.94-1.22,1.25,0,2.22.78,2.22,2.35v3.23h-.9v-3.1Z"/>
      <path class="cls-12" d="M489.09,32.7c1.47,0,2.6,1.1,2.6,2.81s-1.13,2.85-2.6,2.85c-1,0-1.71-.54-2.05-1.1v3.61h-.91v-8.08h.91v1.01c.33-.58,1.05-1.1,2.05-1.1ZM488.9,33.49c-.99,0-1.86.76-1.86,2.03s.87,2.04,1.86,2.04,1.86-.76,1.86-2.05-.85-2.02-1.86-2.02Z"/>
      <path class="cls-12" d="M492.89,30.88h.91v7.4h-.91v-7.4Z"/>
      <path class="cls-12" d="M497.72,38.36c-1.56,0-2.71-1.1-2.71-2.84s1.11-2.82,2.71-2.82,2.63,1.12,2.63,2.62c0,.2,0,.36-.03.55h-4.38c.07,1.11.85,1.72,1.78,1.72.82,0,1.34-.42,1.54-1.01h.98c-.28,1-1.16,1.78-2.52,1.78ZM495.95,35.13h3.46c.01-1.07-.79-1.66-1.73-1.66-.89,0-1.63.59-1.73,1.66Z"/>
      <path class="cls-12" d="M509.46,35.17c0-1.12-.6-1.69-1.5-1.69s-1.55.59-1.55,1.77v3.02h-.9v-3.1c0-1.12-.6-1.69-1.5-1.69s-1.55.59-1.55,1.77v3.02h-.91v-5.48h.91v.79c.36-.58,1.01-.89,1.73-.89.9,0,1.65.4,2.01,1.22.32-.79,1.1-1.22,1.94-1.22,1.25,0,2.22.78,2.22,2.35v3.23h-.9v-3.1Z"/>
      <path class="cls-12" d="M514.22,38.36c-1.56,0-2.71-1.1-2.71-2.84s1.11-2.82,2.71-2.82,2.63,1.12,2.63,2.62c0,.2,0,.36-.03.55h-4.38c.07,1.11.85,1.72,1.78,1.72.82,0,1.34-.42,1.54-1.01h.98c-.28,1-1.16,1.78-2.52,1.78ZM512.45,35.13h3.46c.01-1.07-.79-1.66-1.73-1.66-.89,0-1.63.59-1.73,1.66Z"/>
      <path class="cls-12" d="M522.06,35.17c0-1.12-.61-1.69-1.53-1.69s-1.57.58-1.57,1.76v3.03h-.91v-5.48h.91v.78c.36-.57,1.02-.88,1.76-.88,1.27,0,2.24.78,2.24,2.35v3.23h-.9v-3.1Z"/>
      <path class="cls-12" d="M524.65,33.54h-.71v-.75h.71v-1.38h.91v1.38h1.43v.75h-1.43v3.23c0,.54.2.73.76.73h.67v.77h-.82c-.97,0-1.52-.4-1.52-1.5v-3.23Z"/>
      <path class="cls-12" d="M529.87,31.22c1.31,0,2.21.79,2.21,2.06,0,1.46-1.01,2.06-2.41,2.06l-.03.95h-.79l-.04-1.58h.29c1.14,0,2.11-.22,2.11-1.43,0-.8-.52-1.3-1.33-1.3s-1.33.47-1.33,1.25h-.86c0-1.21.87-2.01,2.18-2.01ZM529.24,38.33c-.35,0-.62-.27-.62-.62s.27-.62.62-.62c.33,0,.6.27.6.62s-.27.62-.6.62Z"/>
    </g>
    <g>
      <path class="cls-12" d="M429.99,32.79l1.71,4.64,1.7-4.64h.97l-2.15,5.48h-1.06l-2.15-5.48h.98Z"/>
      <path class="cls-12" d="M437.64,38.36c-1.56,0-2.71-1.1-2.71-2.84s1.11-2.82,2.71-2.82,2.63,1.12,2.63,2.62c0,.2,0,.36-.03.55h-4.38c.07,1.11.85,1.72,1.78,1.72.82,0,1.34-.42,1.54-1.01h.98c-.28,1-1.16,1.78-2.52,1.78ZM435.87,35.13h3.46c.01-1.07-.79-1.66-1.73-1.66-.89,0-1.63.59-1.73,1.66Z"/>
      <path class="cls-12" d="M442.38,38.27h-.91v-5.48h.91v.89c.31-.61.9-.99,1.77-.99v.94h-.24c-.87,0-1.53.39-1.53,1.66v2.98Z"/>
      <path class="cls-12" d="M448.16,32.7c1.48,0,2.6,1.1,2.6,2.81s-1.13,2.85-2.6,2.85c-1,0-1.71-.5-2.05-1.1v1.01h-.91v-7.4h.91v2.94c.35-.61,1.08-1.11,2.05-1.11ZM447.97,33.49c-.99,0-1.86.76-1.86,2.03s.87,2.04,1.86,2.04,1.86-.76,1.86-2.05-.85-2.02-1.86-2.02Z"/>
    </g>
    <line class="cls-10" x1="49.04" y1="22.33" x2="49.04" y2="105.24"/>
    <line class="cls-10" x1="108.04" y1="22.33" x2="108.04" y2="105.24"/>
    <line class="cls-8" x1="151.54" y1="22.33" x2="151.54" y2="103.5"/>
    <line class="cls-5" x1="311.04" y1="22.33" x2="311.04" y2="105.5"/>
    <line class="cls-4" x1="363.04" y1="22" x2="363.04" y2="103.5"/>
    <line class="cls-8" x1="422.04" y1="22.33" x2="422.04" y2="103.5"/>
    <line class="cls-8" x1="458.04" y1="22.33" x2="458.04" y2="103.5"/>
    <line class="cls-11" x1="233.71" y1="22.33" x2="233.71" y2="103.5"/>
    <g class="cls-14">
      <path class="cls-13" d="M535.66,169.05c0,2.39-1.91,4.33-4.27,4.33H4.6c-2.36,0-4.27-1.94-4.27-4.33v-54.17c0-2.39,1.91-4.33,4.27-4.33h526.79c2.36,0,4.27,1.94,4.27,4.33v54.17Z"/>
      <path class="cls-17" d="M535.92,148.26c0,.56-1.88,1.02-4.2,1.02H4.37c-2.32,0-4.2-.46-4.2-1.02v-20.63c0-.56,1.88-1.02,4.2-1.02h527.36c2.32,0,4.2.46,4.2,1.02v20.63Z"/>
      <path class="cls-3" d="M535.78,127.5c0,.62-1.88,1.12-4.2,1.12H4.37c-2.32,0-4.19-.5-4.19-1.12v-22.38c0-.62,1.88-1.11,4.19-1.11h527.22c2.32,0,4.2.5,4.2,1.11v22.38Z"/>
    </g>
    <g>
      <path class="cls-12" d="M16,61.55c-1.4,0-2.22-.78-2-1.93h.97c-.06.58.22,1.16,1.19,1.16.88,0,1.51-.5,1.65-1.16.4-1.88-3.62-.68-3.07-3.27.24-1.15,1.34-1.93,2.72-1.93s2.04.73,1.93,1.79h-1c.04-.47-.29-1-1.13-1.01-.74-.02-1.42.37-1.58,1.12-.38,1.8,3.61.68,3.07,3.26-.21.99-1.23,1.97-2.74,1.97Z"/>
      <path class="cls-12" d="M23.12,55.91c1.02,0,1.61.52,1.81,1.09l.21-1h.92l-1.17,5.48h-.92l.22-1.02c-.46.59-1.28,1.11-2.28,1.11-1.46,0-2.34-1.15-1.98-2.85.36-1.71,1.73-2.81,3.2-2.81ZM23.13,56.7c-1,0-2,.73-2.28,2.02s.41,2.05,1.41,2.05,2.02-.75,2.29-2.04c.27-1.27-.43-2.03-1.43-2.03Z"/>
      <path class="cls-12" d="M28.01,54.08h.91l-1.57,7.4h-.91l1.57-7.4Z"/>
      <path class="cls-12" d="M30.47,54.08h.91l-1.57,7.4h-.91l1.57-7.4Z"/>
      <path class="cls-12" d="M36.3,56h.94l-5.01,8.06h-.94l1.64-2.64-1.06-5.42h1.01l.78,4.44,2.64-4.44Z"/>
    </g>
    <g class="cls-16">
      <g>
        <path class="cls-12" d="M4.56,76.33h4.72l-.16.74h-1.9l-1.32,6.23h-.91l1.32-6.23h-1.91l.16-.74Z"/>
        <path class="cls-12" d="M10.5,75.9h.91l-.58,2.71c.48-.58,1.23-.89,2-.89,1.22,0,2.02.78,1.69,2.35l-.69,3.23h-.9l.66-3.1c.24-1.12-.25-1.69-1.17-1.69s-1.69.58-1.94,1.76l-.64,3.03h-.91l1.57-7.4Z"/>
        <path class="cls-12" d="M17.67,83.39c-1.56,0-2.48-1.1-2.11-2.84.37-1.73,1.71-2.82,3.31-2.82s2.39,1.12,2.07,2.62c-.04.2-.09.36-.15.55h-4.38c-.17,1.11.48,1.72,1.41,1.72.82,0,1.43-.42,1.75-1.01h.98c-.49,1-1.54,1.78-2.9,1.78ZM16.59,80.16h3.46c.24-1.07-.44-1.66-1.38-1.66-.89,0-1.76.59-2.08,1.66Z"/>
        <path class="cls-12" d="M28.33,77.73c1.48,0,2.36,1.1,2,2.81-.36,1.7-1.73,2.85-3.2,2.85-1,0-1.6-.5-1.81-1.1l-.21,1.01h-.91l1.57-7.4h.91l-.62,2.94c.48-.61,1.32-1.11,2.28-1.11ZM27.98,78.52c-.99,0-2.02.76-2.29,2.03-.27,1.29.44,2.04,1.43,2.04s2.02-.76,2.29-2.05c.27-1.29-.42-2.02-1.43-2.02Z"/>
        <path class="cls-12" d="M34.39,77.73c1.02,0,1.61.52,1.81,1.09l.21-1h.92l-1.17,5.48h-.92l.22-1.02c-.46.59-1.28,1.11-2.28,1.11-1.46,0-2.34-1.15-1.98-2.85.36-1.71,1.73-2.81,3.2-2.81ZM34.41,78.52c-1,0-2,.73-2.28,2.02-.27,1.29.41,2.05,1.41,2.05s2.02-.75,2.29-2.04c.27-1.27-.43-2.03-1.43-2.03Z"/>
        <path class="cls-12" d="M38.62,83.3h-.91l1.17-5.48h.91l-.19.89c.44-.61,1.11-.99,1.98-.99l-.2.94h-.24c-.87,0-1.61.39-1.88,1.66l-.63,2.98Z"/>
      </g>
    </g>
    <path class="cls-12" d="M42.11,79.25h3.99l-.16.77h-3.99l.16-.77Z"/>
    <g>
      <path class="cls-12" d="M21.03,89.73c1.48,0,2.37,1.1,2,2.81-.36,1.7-1.73,2.85-3.2,2.85-1,0-1.6-.5-1.81-1.1l-.21,1.01h-.91l1.57-7.4h.91l-.62,2.94c.48-.61,1.32-1.11,2.28-1.11ZM20.67,90.52c-.99,0-2.02.76-2.29,2.03-.27,1.29.44,2.04,1.43,2.04s2.02-.76,2.3-2.05c.27-1.29-.42-2.02-1.43-2.02Z"/>
      <path class="cls-12" d="M26,95.39c-1.56,0-2.48-1.1-2.1-2.84.37-1.73,1.71-2.82,3.31-2.82s2.39,1.12,2.07,2.62c-.04.2-.09.36-.15.55h-4.38c-.17,1.11.48,1.72,1.41,1.72.82,0,1.43-.42,1.75-1.01h.98c-.49,1-1.54,1.78-2.9,1.78ZM24.91,92.16h3.46c.24-1.07-.44-1.66-1.38-1.66-.89,0-1.76.59-2.08,1.66Z"/>
      <path class="cls-12" d="M30.76,95.3h-.91l1.16-5.48h.91l-.19.89c.44-.61,1.11-.99,1.98-.99l-.2.94h-.24c-.87,0-1.61.39-1.88,1.66l-.63,2.98Z"/>
    </g>
    <g>
      <path class="cls-12" d="M269.33,58.02c-.46,2.16-2.15,3.47-4.44,3.47h-2.17l1.48-6.97h2.17c2.29,0,3.41,1.34,2.95,3.5ZM265.05,60.74c1.82,0,2.99-1.02,3.35-2.72.36-1.7-.36-2.76-2.18-2.76h-1.26l-1.17,5.48h1.26Z"/>
      <path class="cls-12" d="M272.16,61.58c-1.55,0-2.5-1.1-2.12-2.84.37-1.73,1.82-2.82,3.37-2.82s2.54,1.09,2.17,2.82c-.37,1.74-1.85,2.84-3.41,2.84ZM272.33,60.78c.95,0,2.02-.65,2.31-2.04.29-1.38-.48-2.03-1.42-2.03s-1.97.65-2.26,2.03c-.3,1.39.42,2.04,1.37,2.04Z"/>
      <path class="cls-12" d="M278.54,61.58c-1.56,0-2.48-1.1-2.11-2.84.37-1.73,1.71-2.82,3.31-2.82s2.39,1.12,2.07,2.62c-.04.2-.09.36-.15.55h-4.38c-.17,1.11.48,1.72,1.41,1.72.82,0,1.43-.42,1.75-1.01h.98c-.49,1-1.54,1.78-2.9,1.78ZM277.46,58.35h3.46c.24-1.07-.44-1.66-1.38-1.66-.89,0-1.76.59-2.08,1.66Z"/>
      <path class="cls-12" d="M284.31,61.58c-1.28,0-2.03-.7-1.88-1.7h.94c-.06.53.32.93,1.09.93.72,0,1.2-.36,1.29-.81.26-1.22-3.13-.51-2.7-2.55.18-.84,1.11-1.53,2.33-1.53s1.87.65,1.7,1.72h-.91c.08-.55-.26-.95-.99-.95-.67,0-1.14.32-1.23.76-.28,1.3,3.05.59,2.68,2.55-.19.9-1.12,1.58-2.33,1.58Z"/>
    </g>
    <g>
      <path class="cls-12" d="M268.39,87.17c-.46,2.16-2.15,3.47-4.44,3.47h-2.17l1.48-6.97h2.17c2.29,0,3.41,1.34,2.95,3.5ZM264.12,89.89c1.82,0,2.99-1.02,3.35-2.72.36-1.7-.36-2.76-2.18-2.76h-1.26l-1.16,5.48h1.26Z"/>
      <path class="cls-12" d="M271.23,90.73c-1.55,0-2.49-1.1-2.12-2.84.37-1.73,1.82-2.82,3.37-2.82s2.54,1.09,2.17,2.82c-.37,1.74-1.85,2.84-3.41,2.84ZM271.4,89.93c.95,0,2.02-.65,2.31-2.04.29-1.38-.48-2.03-1.42-2.03s-1.97.65-2.26,2.03c-.3,1.39.42,2.04,1.36,2.04Z"/>
      <path class="cls-12" d="M277.61,90.73c-1.56,0-2.48-1.1-2.1-2.84.37-1.73,1.71-2.82,3.31-2.82s2.39,1.12,2.07,2.62c-.04.2-.09.36-.15.55h-4.38c-.17,1.11.48,1.72,1.41,1.72.82,0,1.43-.42,1.75-1.01h.98c-.49,1-1.54,1.78-2.9,1.78ZM276.52,87.5h3.46c.24-1.07-.44-1.66-1.38-1.66-.89,0-1.76.59-2.08,1.66Z"/>
      <path class="cls-12" d="M283.38,90.73c-1.28,0-2.03-.7-1.88-1.7h.94c-.06.53.32.93,1.09.93.72,0,1.2-.36,1.29-.81.26-1.22-3.13-.51-2.7-2.55.18-.84,1.11-1.53,2.33-1.53s1.87.65,1.7,1.72h-.91c.08-.55-.26-.95-.99-.95-.67,0-1.14.32-1.23.76-.28,1.3,3.05.59,2.68,2.55-.19.9-1.12,1.58-2.33,1.58Z"/>
    </g>
    <g>
      <path class="cls-12" d="M68.73,61.58c-1.55,0-2.5-1.1-2.12-2.84.37-1.73,1.82-2.82,3.37-2.82s2.54,1.09,2.17,2.82c-.37,1.74-1.85,2.84-3.41,2.84ZM68.9,60.78c.95,0,2.02-.65,2.31-2.04.29-1.38-.48-2.03-1.42-2.03s-1.97.65-2.26,2.03c-.3,1.39.42,2.04,1.37,2.04Z"/>
      <path class="cls-12" d="M73.94,56.76h-.71l.16-.75h.71l.08-.39c.26-1.22.98-1.77,2.38-1.77l-.16.76c-.82,0-1.15.3-1.3,1.01l-.08.39h1.15l-.16.75h-1.15l-1.01,4.73h-.91l1.01-4.73Z"/>
      <path class="cls-12" d="M77.26,56.76h-.71l.16-.75h.71l.29-1.38h.91l-.29,1.38h1.43l-.16.75h-1.43l-.69,3.23c-.11.54.04.73.6.73h.67l-.16.77h-.82c-.97,0-1.43-.4-1.2-1.5l.69-3.23Z"/>
      <path class="cls-12" d="M82.04,61.58c-1.56,0-2.48-1.1-2.11-2.84.37-1.73,1.71-2.82,3.31-2.82s2.39,1.12,2.07,2.62c-.04.2-.09.36-.15.55h-4.38c-.17,1.11.48,1.72,1.41,1.72.82,0,1.43-.42,1.75-1.01h.98c-.49,1-1.54,1.78-2.9,1.78ZM80.96,58.35h3.46c.24-1.07-.44-1.66-1.38-1.66-.89,0-1.76.59-2.08,1.66Z"/>
      <path class="cls-12" d="M90.56,58.39c.24-1.12-.25-1.69-1.17-1.69s-1.69.58-1.94,1.76l-.64,3.03h-.91l1.17-5.48h.91l-.17.78c.48-.57,1.21-.88,1.95-.88,1.27,0,2.07.78,1.74,2.35l-.69,3.23h-.9l.66-3.1Z"/>
    </g>
    <g>
      <path class="cls-12" d="M55.11,89.72c-1.19,0-1.88-.7-1.72-1.7h.87c-.07.53.29.93,1,.93.67,0,1.12-.36,1.21-.81.26-1.22-2.9-.51-2.47-2.55.18-.84,1.06-1.53,2.19-1.53s1.73.65,1.56,1.72h-.85c.08-.55-.22-.95-.9-.95-.62,0-1.06.32-1.16.76-.28,1.3,2.83.59,2.45,2.55-.19.9-1.07,1.58-2.19,1.58Z"/>
      <path class="cls-12" d="M60.38,89.72c-1.44,0-2.3-1.1-1.93-2.84.37-1.73,1.73-2.82,3.17-2.82s2.34,1.09,1.98,2.82c-.37,1.74-1.77,2.84-3.21,2.84ZM60.55,88.92c.88,0,1.89-.65,2.18-2.04.29-1.38-.41-2.03-1.29-2.03s-1.84.65-2.13,2.03c-.3,1.39.36,2.04,1.24,2.04Z"/>
      <path class="cls-12" d="M72.14,86.53c.24-1.12-.2-1.69-1.04-1.69s-1.57.59-1.82,1.77l-.64,3.02h-.84l.66-3.1c.24-1.12-.2-1.69-1.03-1.69s-1.57.59-1.82,1.77l-.64,3.02h-.85l1.16-5.48h.85l-.17.79c.46-.58,1.13-.89,1.8-.89.84,0,1.45.4,1.61,1.22.47-.79,1.28-1.22,2.06-1.22,1.16,0,1.9.78,1.56,2.35l-.69,3.23h-.84l.66-3.1Z"/>
      <path class="cls-12" d="M75.9,89.72c-1.45,0-2.29-1.1-1.92-2.84.37-1.73,1.63-2.82,3.12-2.82s2.21,1.12,1.89,2.62c-.04.2-.09.36-.15.55h-4.07c-.17,1.11.42,1.72,1.29,1.72.76,0,1.33-.42,1.65-1.01h.91c-.47,1-1.46,1.78-2.72,1.78ZM74.94,86.49h3.21c.24-1.07-.38-1.66-1.25-1.66-.83,0-1.64.59-1.96,1.66Z"/>
      <path class="cls-12" d="M80.67,84.9h-.66l.16-.75h.66l.29-1.38h.85l-.29,1.38h1.33l-.16.75h-1.33l-.69,3.23c-.12.54.03.73.55.73h.62l-.16.77h-.76c-.9,0-1.33-.4-1.09-1.5l.69-3.23Z"/>
      <path class="cls-12" d="M84.03,84.15h.85l-1.16,5.48h-.85l1.16-5.48ZM84.21,82.64c.07-.35.38-.62.71-.62.31,0,.5.27.43.62-.07.35-.38.62-.69.62-.33,0-.52-.27-.44-.62Z"/>
      <path class="cls-12" d="M93.16,86.53c.24-1.12-.2-1.69-1.04-1.69s-1.57.59-1.82,1.77l-.64,3.02h-.84l.66-3.1c.24-1.12-.2-1.69-1.03-1.69s-1.57.59-1.82,1.77l-.64,3.02h-.85l1.16-5.48h.85l-.17.79c.46-.58,1.13-.89,1.8-.89.84,0,1.45.4,1.61,1.22.47-.79,1.28-1.22,2.06-1.22,1.16,0,1.9.78,1.56,2.35l-.69,3.23h-.84l.66-3.1Z"/>
      <path class="cls-12" d="M96.92,89.72c-1.45,0-2.29-1.1-1.92-2.84.37-1.73,1.63-2.82,3.12-2.82s2.21,1.12,1.89,2.62c-.04.2-.09.36-.15.55h-4.07c-.17,1.11.42,1.72,1.29,1.72.76,0,1.33-.42,1.65-1.01h.91c-.47,1-1.46,1.78-2.72,1.78ZM95.96,86.49h3.21c.24-1.07-.38-1.66-1.25-1.66-.83,0-1.64.59-1.96,1.66Z"/>
      <path class="cls-12" d="M102.28,89.72c-1.19,0-1.88-.7-1.72-1.7h.87c-.07.53.29.93,1,.93.67,0,1.12-.36,1.21-.81.26-1.22-2.9-.51-2.47-2.55.18-.84,1.06-1.53,2.19-1.53s1.73.65,1.56,1.72h-.85c.08-.55-.22-.95-.9-.95-.62,0-1.06.32-1.16.76-.28,1.3,2.83.59,2.45,2.55-.19.9-1.07,1.58-2.19,1.58Z"/>
    </g>
    <g>
      <path class="cls-12" d="M328.44,61.55c-1.4,0-2.22-.78-2-1.93h.97c-.06.58.22,1.16,1.19,1.16.88,0,1.51-.5,1.65-1.16.4-1.88-3.62-.68-3.07-3.27.24-1.15,1.34-1.93,2.72-1.93s2.04.73,1.93,1.79h-1c.04-.47-.29-1-1.13-1.01-.75-.02-1.42.37-1.58,1.12-.38,1.8,3.61.68,3.07,3.26-.21.99-1.23,1.97-2.74,1.97Z"/>
      <path class="cls-12" d="M335.55,55.91c1.02,0,1.61.52,1.81,1.09l.21-1h.92l-1.17,5.48h-.92l.22-1.02c-.46.59-1.28,1.11-2.28,1.11-1.46,0-2.34-1.15-1.98-2.85.36-1.71,1.73-2.81,3.2-2.81ZM335.57,56.7c-1,0-2,.73-2.28,2.02s.41,2.05,1.41,2.05,2.02-.75,2.29-2.04c.27-1.27-.43-2.03-1.43-2.03Z"/>
      <path class="cls-12" d="M340.44,54.08h.91l-1.57,7.4h-.91l1.57-7.4Z"/>
      <path class="cls-12" d="M342.9,54.08h.91l-1.57,7.4h-.91l1.57-7.4Z"/>
      <path class="cls-12" d="M348.73,56h.94l-5.01,8.06h-.94l1.64-2.64-1.06-5.42h1.01l.78,4.44,2.64-4.44Z"/>
    </g>
    <g>
      <path class="cls-12" d="M318.2,79.94h-.71l.16-.75h.71l.29-1.38h.91l-.29,1.38h1.43l-.16.75h-1.43l-.69,3.23c-.11.54.04.73.6.73h.67l-.16.77h-.82c-.97,0-1.43-.4-1.2-1.5l.69-3.23Z"/>
      <path class="cls-12" d="M322.21,77.27h.91l-.58,2.71c.48-.58,1.23-.89,2-.89,1.22,0,2.02.78,1.69,2.35l-.69,3.23h-.9l.66-3.1c.24-1.12-.25-1.69-1.17-1.69s-1.69.58-1.94,1.76l-.64,3.03h-.91l1.57-7.4Z"/>
      <path class="cls-12" d="M329.38,84.76c-1.56,0-2.48-1.1-2.11-2.84.37-1.73,1.71-2.82,3.31-2.82s2.39,1.12,2.07,2.62c-.04.2-.09.36-.15.55h-4.38c-.17,1.11.48,1.72,1.41,1.72.82,0,1.43-.42,1.75-1.01h.98c-.49,1-1.54,1.78-2.9,1.78ZM328.3,81.53h3.46c.24-1.07-.44-1.66-1.38-1.66-.89,0-1.75.59-2.08,1.66Z"/>
      <path class="cls-12" d="M340.05,79.1c1.48,0,2.36,1.1,2,2.81-.36,1.7-1.73,2.85-3.2,2.85-1,0-1.6-.5-1.82-1.1l-.21,1.01h-.91l1.57-7.4h.91l-.62,2.94c.48-.61,1.32-1.11,2.29-1.11ZM339.69,79.89c-.99,0-2.02.76-2.29,2.03-.27,1.29.44,2.04,1.43,2.04s2.02-.76,2.29-2.05c.27-1.29-.42-2.02-1.43-2.02Z"/>
      <path class="cls-12" d="M346.11,79.1c1.02,0,1.61.52,1.81,1.09l.21-1h.92l-1.16,5.48h-.92l.22-1.02c-.46.59-1.28,1.11-2.28,1.11-1.46,0-2.34-1.15-1.98-2.85.36-1.71,1.73-2.81,3.2-2.81ZM346.12,79.89c-1,0-2,.73-2.28,2.02-.27,1.29.41,2.05,1.41,2.05s2.02-.75,2.29-2.04c.27-1.27-.43-2.03-1.43-2.03Z"/>
      <path class="cls-12" d="M350.33,84.67h-.91l1.16-5.48h.91l-.19.89c.44-.61,1.11-.99,1.98-.99l-.2.94h-.24c-.87,0-1.61.39-1.88,1.66l-.63,2.98Z"/>
    </g>
    <path class="cls-12" d="M353.83,80.61h3.99l-.16.77h-3.99l.16-.77Z"/>
    <g>
      <path class="cls-12" d="M333.63,91.09c1.48,0,2.37,1.1,2,2.81-.36,1.7-1.73,2.85-3.2,2.85-1,0-1.6-.5-1.81-1.1l-.21,1.01h-.91l1.57-7.4h.91l-.62,2.94c.48-.61,1.32-1.11,2.28-1.11ZM333.27,91.88c-.99,0-2.02.76-2.29,2.03-.27,1.29.44,2.04,1.43,2.04s2.02-.76,2.3-2.05c.27-1.29-.42-2.02-1.43-2.02Z"/>
      <path class="cls-12" d="M338.6,96.75c-1.56,0-2.48-1.1-2.11-2.84.37-1.73,1.71-2.82,3.31-2.82s2.39,1.12,2.07,2.62c-.04.2-.09.36-.15.55h-4.38c-.17,1.11.48,1.72,1.41,1.72.82,0,1.43-.42,1.75-1.01h.98c-.49,1-1.54,1.78-2.9,1.78ZM337.51,93.52h3.46c.24-1.07-.44-1.66-1.38-1.66-.89,0-1.76.59-2.08,1.66Z"/>
      <path class="cls-12" d="M343.36,96.66h-.91l1.16-5.48h.91l-.19.89c.44-.61,1.11-.99,1.98-.99l-.2.94h-.24c-.87,0-1.61.39-1.88,1.66l-.63,2.98Z"/>
    </g>
    <g>
      <path class="cls-12" d="M428.93,61.57c-1.28,0-2.03-.7-1.88-1.7h.94c-.06.53.32.93,1.09.93.72,0,1.2-.36,1.29-.81.26-1.22-3.13-.51-2.7-2.55.18-.84,1.11-1.53,2.33-1.53s1.87.65,1.7,1.72h-.91c.08-.55-.26-.95-.99-.95-.67,0-1.14.32-1.23.76-.28,1.3,3.05.59,2.68,2.55-.19.9-1.12,1.58-2.33,1.58Z"/>
      <path class="cls-12" d="M433.43,56.75h-.71l.16-.75h.71l.29-1.38h.91l-.29,1.38h1.43l-.16.75h-1.43l-.69,3.23c-.11.54.04.73.6.73h.67l-.16.77h-.82c-.97,0-1.43-.4-1.2-1.5l.69-3.23Z"/>
      <path class="cls-12" d="M440.72,61.48h-.91l.17-.81c-.47.57-1.21.89-1.94.89-1.26,0-2.08-.78-1.75-2.35l.68-3.21h.9l-.66,3.09c-.24,1.11.25,1.68,1.17,1.68s1.69-.58,1.94-1.76l.64-3.01h.91l-1.17,5.48Z"/>
      <path class="cls-12" d="M445.72,55.91c.86,0,1.56.44,1.8,1.07l.62-2.9h.92l-1.57,7.4h-.92l.22-1.03c-.46.61-1.28,1.12-2.28,1.12-1.47,0-2.35-1.15-1.99-2.85.36-1.71,1.73-2.81,3.21-2.81ZM445.72,56.7c-1,0-2,.73-2.28,2.02-.27,1.29.41,2.05,1.41,2.05s2.02-.75,2.29-2.04c.27-1.27-.43-2.03-1.43-2.03Z"/>
      <path class="cls-12" d="M453.97,56h.94l-5.01,8.06h-.94l1.64-2.64-1.06-5.42h1.01l.78,4.44,2.64-4.44Z"/>
    </g>
    <g>
      <path class="cls-12" d="M429.61,84.15h.93l.28,4.6,2.34-4.6h.93l.35,4.61,2.22-4.61h.9l-2.87,5.48h-.94l-.39-4.35-2.24,4.35h-.94l-.55-5.48Z"/>
      <path class="cls-12" d="M439.66,89.72c-1.55,0-2.49-1.1-2.12-2.84.37-1.73,1.82-2.82,3.37-2.82s2.54,1.09,2.17,2.82c-.37,1.74-1.85,2.84-3.41,2.84ZM439.83,88.92c.95,0,2.02-.65,2.31-2.04.29-1.38-.48-2.03-1.42-2.03s-1.97.65-2.26,2.03c-.3,1.39.42,2.04,1.37,2.04Z"/>
      <path class="cls-12" d="M444.6,89.63h-.91l1.17-5.48h.91l-.19.89c.44-.61,1.11-.99,1.98-.99l-.2.94h-.24c-.87,0-1.61.39-1.88,1.66l-.63,2.98Z"/>
      <path class="cls-12" d="M448.99,82.23h.91l-.92,4.35,2.63-2.43h1.27l-3.16,2.73,2,2.75h-1.24l-1.64-2.42-.51,2.42h-.91l1.57-7.4Z"/>
    </g>
    <g>
      <path class="cls-12" d="M467.43,56c1.02,0,1.61.52,1.81,1.09l.21-1h.92l-1.16,5.48h-.92l.22-1.02c-.46.59-1.28,1.11-2.28,1.11-1.46,0-2.34-1.15-1.98-2.85.36-1.71,1.73-2.81,3.2-2.81ZM467.44,56.79c-1,0-2,.73-2.28,2.02-.27,1.29.41,2.05,1.41,2.05s2.02-.75,2.29-2.04c.27-1.27-.43-2.03-1.43-2.03Z"/>
      <path class="cls-12" d="M471.95,56.84h-.71l.16-.75h.71l.29-1.38h.91l-.29,1.38h1.43l-.16.75h-1.43l-.69,3.23c-.11.54.04.73.6.73h.67l-.16.77h-.82c-.97,0-1.43-.4-1.2-1.5l.69-3.23Z"/>
      <path class="cls-12" d="M478.26,56.84h-.71l.16-.75h.71l.29-1.38h.91l-.29,1.38h1.43l-.16.75h-1.43l-.69,3.23c-.11.54.04.73.6.73h.67l-.16.77h-.82c-.97,0-1.43-.4-1.2-1.5l.69-3.23Z"/>
      <path class="cls-12" d="M482.27,54.17h.91l-.58,2.71c.48-.58,1.23-.89,2-.89,1.22,0,2.02.78,1.69,2.35l-.69,3.23h-.9l.66-3.1c.24-1.12-.25-1.69-1.17-1.69s-1.69.58-1.94,1.76l-.64,3.03h-.91l1.57-7.4Z"/>
      <path class="cls-12" d="M489.45,61.66c-1.56,0-2.48-1.1-2.11-2.84.37-1.73,1.71-2.82,3.31-2.82s2.39,1.12,2.07,2.62c-.04.2-.09.36-.15.55h-4.38c-.17,1.11.48,1.72,1.41,1.72.82,0,1.43-.42,1.75-1.01h.98c-.49,1-1.54,1.78-2.9,1.78ZM488.36,58.43h3.46c.24-1.07-.44-1.66-1.38-1.66-.89,0-1.75.59-2.08,1.66Z"/>
      <path class="cls-12" d="M497.54,54.17h.91l-1.57,7.4h-.91l1.57-7.4Z"/>
      <path class="cls-12" d="M499.59,56.09h.91l-1.16,5.48h-.91l1.16-5.48ZM499.76,54.58c.07-.35.4-.62.75-.62.33,0,.54.27.47.62-.07.35-.4.62-.73.62-.35,0-.56-.27-.49-.62Z"/>
      <path class="cls-12" d="M505.03,56c1.48,0,2.36,1.1,2,2.81-.36,1.7-1.73,2.85-3.2,2.85-1,0-1.6-.5-1.82-1.1l-.21,1.01h-.91l1.57-7.4h.91l-.62,2.94c.48-.61,1.32-1.11,2.29-1.11ZM504.67,56.79c-.99,0-2.02.76-2.29,2.03-.27,1.29.44,2.04,1.43,2.04s2.02-.76,2.29-2.05c.27-1.29-.42-2.02-1.43-2.02Z"/>
      <path class="cls-12" d="M508.55,61.57h-.91l1.16-5.48h.91l-.19.89c.44-.61,1.11-.99,1.98-.99l-.2.94h-.24c-.87,0-1.61.39-1.88,1.66l-.63,2.98Z"/>
      <path class="cls-12" d="M514.82,56c1.02,0,1.61.52,1.81,1.09l.21-1h.92l-1.16,5.48h-.92l.22-1.02c-.46.59-1.28,1.11-2.28,1.11-1.46,0-2.34-1.15-1.98-2.85.36-1.71,1.73-2.81,3.2-2.81ZM514.83,56.79c-1,0-2,.73-2.28,2.02-.27,1.29.41,2.05,1.41,2.05s2.02-.75,2.29-2.04c.27-1.27-.43-2.03-1.43-2.03Z"/>
      <path class="cls-12" d="M519.04,61.57h-.91l1.16-5.48h.91l-.19.89c.44-.61,1.11-.99,1.98-.99l-.2.94h-.24c-.87,0-1.61.39-1.88,1.66l-.63,2.98Z"/>
      <path class="cls-12" d="M526.81,56.09h.94l-5.01,8.06h-.94l1.64-2.64-1.06-5.42h1.01l.78,4.44,2.64-4.44Z"/>
      <path class="cls-12" d="M528.63,61.63c-.35,0-.56-.27-.49-.62.07-.35.4-.62.75-.62.33,0,.54.27.47.62-.07.35-.4.62-.73.62ZM530.77,54.51c1.31,0,2.04.79,1.77,2.06-.31,1.46-1.45,2.06-2.85,2.06l-.23.95h-.79l.3-1.58h.29c1.14,0,2.16-.22,2.41-1.43.17-.8-.24-1.3-1.05-1.3s-1.43.47-1.59,1.25h-.86c.25-1.21,1.3-2.01,2.61-2.01Z"/>
    </g>
    <g>
      <path class="cls-12" d="M469.46,90.46c-1.55,0-2.49-1.1-2.12-2.84.37-1.73,1.82-2.82,3.37-2.82s2.54,1.09,2.17,2.82c-.37,1.74-1.85,2.84-3.41,2.84ZM469.63,89.66c.95,0,2.02-.65,2.31-2.04.29-1.38-.48-2.03-1.42-2.03s-1.97.65-2.26,2.03c-.3,1.39.42,2.04,1.36,2.04Z"/>
      <path class="cls-12" d="M478.16,87.27c.24-1.12-.25-1.69-1.17-1.69s-1.69.58-1.94,1.76l-.64,3.03h-.91l1.16-5.48h.91l-.17.78c.48-.57,1.21-.88,1.95-.88,1.27,0,2.07.78,1.74,2.35l-.69,3.23h-.9l.66-3.1Z"/>
      <path class="cls-12" d="M484.76,90.44c-1.4,0-2.22-.78-2-1.93h.97c-.06.58.22,1.16,1.19,1.16.88,0,1.51-.5,1.65-1.16.4-1.88-3.62-.68-3.07-3.27.24-1.15,1.34-1.93,2.72-1.93s2.04.73,1.93,1.79h-1c.04-.47-.29-1-1.14-1.01-.74-.02-1.42.37-1.58,1.12-.38,1.8,3.61.68,3.06,3.26-.21.99-1.23,1.97-2.74,1.97Z"/>
      <path class="cls-12" d="M493.29,90.37h-.91l.17-.81c-.47.57-1.21.89-1.94.89-1.26,0-2.08-.78-1.75-2.35l.68-3.21h.9l-.66,3.09c-.24,1.11.25,1.68,1.17,1.68s1.69-.58,1.94-1.76l.64-3.01h.91l-1.16,5.48Z"/>
      <path class="cls-12" d="M499.5,87.27c.24-1.12-.25-1.69-1.17-1.69s-1.69.58-1.94,1.76l-.64,3.03h-.91l1.16-5.48h.91l-.17.78c.48-.57,1.21-.88,1.95-.88,1.27,0,2.07.78,1.74,2.35l-.69,3.23h-.9l.66-3.1Z"/>
      <path class="cls-12" d="M504.69,84.8c.86,0,1.56.44,1.8,1.07l.62-2.9h.92l-1.57,7.4h-.92l.22-1.03c-.46.61-1.28,1.12-2.28,1.12-1.47,0-2.35-1.15-1.99-2.85.36-1.71,1.73-2.81,3.21-2.81ZM504.69,85.59c-1,0-2,.73-2.28,2.02-.27,1.29.41,2.05,1.41,2.05s2.02-.75,2.29-2.04c.27-1.27-.43-2.03-1.43-2.03Z"/>
      <path class="cls-12" d="M511.44,84.8c1.02,0,1.61.52,1.81,1.09l.21-1h.92l-1.16,5.48h-.92l.22-1.02c-.46.59-1.28,1.11-2.29,1.11-1.46,0-2.34-1.15-1.98-2.85.36-1.71,1.73-2.81,3.2-2.81ZM511.45,85.59c-1,0-2,.73-2.28,2.02-.27,1.29.41,2.05,1.41,2.05s2.02-.75,2.29-2.04c.27-1.27-.43-2.03-1.43-2.03Z"/>
      <path class="cls-12" d="M519.7,84.89h.94l-5.01,8.06h-.94l1.64-2.64-1.06-5.42h1.01l.78,4.44,2.64-4.44Z"/>
      <path class="cls-12" d="M521.52,90.43c-.35,0-.56-.27-.49-.62.07-.35.4-.62.75-.62.33,0,.54.27.47.62-.07.35-.4.62-.73.62ZM523.66,83.31c1.31,0,2.04.79,1.77,2.06-.31,1.46-1.45,2.06-2.85,2.06l-.23.95h-.79l.3-1.58h.29c1.14,0,2.16-.22,2.41-1.43.17-.8-.24-1.3-1.05-1.3s-1.43.47-1.59,1.25h-.86c.25-1.21,1.3-2.01,2.61-2.01Z"/>
    </g>
    <g>
      <path class="cls-12" d="M114.58,61.57c-1.28,0-2.03-.7-1.88-1.7h.94c-.06.53.32.93,1.09.93.72,0,1.2-.36,1.29-.81.26-1.22-3.13-.51-2.7-2.55.18-.84,1.11-1.53,2.33-1.53s1.87.65,1.7,1.72h-.91c.08-.55-.26-.95-.99-.95-.67,0-1.14.32-1.23.76-.28,1.3,3.05.59,2.68,2.55-.19.9-1.12,1.58-2.33,1.58Z"/>
      <path class="cls-12" d="M119.09,56.75h-.71l.16-.75h.71l.29-1.38h.91l-.29,1.38h1.43l-.16.75h-1.43l-.69,3.23c-.11.54.04.73.6.73h.67l-.16.77h-.82c-.97,0-1.43-.4-1.2-1.5l.69-3.23Z"/>
      <path class="cls-12" d="M126.38,61.48h-.91l.17-.81c-.47.57-1.21.89-1.94.89-1.26,0-2.08-.78-1.75-2.35l.68-3.21h.9l-.66,3.09c-.24,1.11.25,1.68,1.17,1.68s1.69-.58,1.94-1.76l.64-3.01h.91l-1.17,5.48Z"/>
      <path class="cls-12" d="M131.38,55.91c.86,0,1.56.44,1.8,1.07l.62-2.9h.92l-1.57,7.4h-.92l.22-1.03c-.46.61-1.28,1.12-2.28,1.12-1.47,0-2.35-1.15-1.99-2.85.36-1.71,1.73-2.81,3.21-2.81ZM131.38,56.7c-1,0-2,.73-2.28,2.02-.27,1.29.41,2.05,1.41,2.05s2.02-.75,2.29-2.04c.27-1.27-.43-2.03-1.43-2.03Z"/>
      <path class="cls-12" d="M135.85,56h.91l-1.17,5.48h-.91l1.17-5.48ZM136.02,54.49c.07-.35.4-.62.75-.62.33,0,.54.27.47.62-.07.35-.4.62-.73.62-.35,0-.56-.27-.49-.62Z"/>
      <path class="cls-12" d="M139.49,61.57c-1.56,0-2.48-1.1-2.11-2.84.37-1.73,1.71-2.82,3.31-2.82s2.39,1.12,2.07,2.62c-.04.2-.09.36-.15.55h-4.38c-.17,1.11.48,1.72,1.41,1.72.82,0,1.43-.42,1.75-1.01h.98c-.49,1-1.54,1.78-2.9,1.78ZM138.41,58.34h3.46c.24-1.07-.44-1.66-1.38-1.66-.89,0-1.76.59-2.08,1.66Z"/>
      <path class="cls-12" d="M145.26,61.57c-1.28,0-2.03-.7-1.88-1.7h.94c-.06.53.32.93,1.09.93.72,0,1.2-.36,1.29-.81.26-1.22-3.13-.51-2.7-2.55.18-.84,1.11-1.53,2.33-1.53s1.87.65,1.7,1.72h-.91c.08-.55-.26-.95-.99-.95-.67,0-1.14.32-1.23.76-.28,1.3,3.05.59,2.68,2.55-.19.9-1.12,1.58-2.33,1.58Z"/>
    </g>
    <g>
      <path class="cls-12" d="M116.78,85.15h.93l.28,4.6,2.34-4.6h.93l.35,4.61,2.22-4.61h.9l-2.87,5.48h-.94l-.39-4.35-2.24,4.35h-.94l-.55-5.48Z"/>
      <path class="cls-12" d="M126.84,90.72c-1.55,0-2.5-1.1-2.12-2.84.37-1.73,1.82-2.82,3.37-2.82s2.54,1.09,2.17,2.82c-.37,1.74-1.85,2.84-3.41,2.84ZM127.01,89.92c.95,0,2.02-.65,2.31-2.04.29-1.38-.48-2.03-1.42-2.03s-1.97.65-2.26,2.03c-.3,1.39.42,2.04,1.37,2.04Z"/>
      <path class="cls-12" d="M131.78,90.63h-.91l1.17-5.48h.91l-.19.89c.44-.61,1.11-.99,1.98-.99l-.2.94h-.24c-.87,0-1.61.39-1.88,1.66l-.63,2.98Z"/>
      <path class="cls-12" d="M136.17,83.23h.91l-.92,4.35,2.63-2.43h1.27l-3.16,2.73,2,2.75h-1.24l-1.63-2.42-.51,2.42h-.91l1.57-7.4Z"/>
      <path class="cls-12" d="M141.67,90.72c-1.28,0-2.03-.7-1.88-1.7h.94c-.06.53.32.93,1.09.93.72,0,1.2-.36,1.29-.81.26-1.22-3.13-.51-2.7-2.55.18-.84,1.11-1.53,2.33-1.53s1.87.65,1.7,1.72h-.91c.08-.55-.26-.95-.99-.95-.67,0-1.14.32-1.23.76-.28,1.3,3.05.59,2.68,2.55-.19.9-1.12,1.58-2.33,1.58Z"/>
    </g>
    <g>
      <path class="cls-12" d="M382.68,61.57c-1.55,0-2.49-1.1-2.12-2.84.37-1.73,1.82-2.82,3.37-2.82s2.54,1.09,2.17,2.82c-.37,1.74-1.85,2.84-3.41,2.84ZM382.85,60.77c.95,0,2.02-.65,2.31-2.04.29-1.38-.48-2.03-1.42-2.03s-1.97.65-2.26,2.03c-.3,1.39.42,2.04,1.37,2.04Z"/>
      <path class="cls-12" d="M387.89,56.75h-.71l.16-.75h.71l.08-.39c.26-1.22.98-1.77,2.38-1.77l-.16.76c-.82,0-1.15.3-1.3,1.01l-.08.39h1.15l-.16.75h-1.15l-1.01,4.73h-.91l1.01-4.73Z"/>
      <path class="cls-12" d="M391.21,56.75h-.71l.16-.75h.71l.29-1.38h.91l-.29,1.38h1.43l-.16.75h-1.43l-.69,3.23c-.11.54.04.73.6.73h.67l-.16.77h-.82c-.97,0-1.43-.4-1.2-1.5l.69-3.23Z"/>
      <path class="cls-12" d="M395.99,61.57c-1.56,0-2.48-1.1-2.11-2.84.37-1.73,1.71-2.82,3.31-2.82s2.39,1.12,2.07,2.62c-.04.2-.09.36-.15.55h-4.38c-.17,1.11.48,1.72,1.41,1.72.82,0,1.43-.42,1.75-1.01h.98c-.49,1-1.54,1.78-2.9,1.78ZM394.91,58.34h3.46c.24-1.07-.44-1.66-1.38-1.66-.89,0-1.76.59-2.08,1.66Z"/>
      <path class="cls-12" d="M404.51,58.38c.24-1.12-.25-1.69-1.17-1.69s-1.69.58-1.94,1.76l-.64,3.03h-.91l1.17-5.48h.91l-.17.78c.48-.57,1.21-.88,1.95-.88,1.27,0,2.07.78,1.74,2.35l-.69,3.23h-.9l.66-3.1Z"/>
    </g>
    <g>
      <path class="cls-12" d="M367.29,89.72c-1.28,0-2.03-.7-1.88-1.7h.94c-.06.53.32.93,1.09.93.72,0,1.2-.36,1.29-.81.26-1.22-3.13-.51-2.7-2.55.18-.84,1.11-1.53,2.33-1.53s1.87.65,1.7,1.72h-.91c.08-.55-.26-.95-.99-.95-.67,0-1.14.32-1.23.76-.28,1.3,3.05.59,2.68,2.55-.19.9-1.12,1.58-2.33,1.58Z"/>
      <path class="cls-12" d="M372.96,89.72c-1.55,0-2.49-1.1-2.12-2.84.37-1.73,1.82-2.82,3.37-2.82s2.54,1.09,2.17,2.82c-.37,1.74-1.85,2.84-3.41,2.84ZM373.13,88.92c.95,0,2.02-.65,2.31-2.04.29-1.38-.48-2.03-1.42-2.03s-1.97.65-2.26,2.03c-.3,1.39.42,2.04,1.37,2.04Z"/>
      <path class="cls-12" d="M385.56,86.53c.24-1.12-.24-1.69-1.14-1.69s-1.67.59-1.92,1.77l-.64,3.02h-.9l.66-3.1c.24-1.12-.24-1.69-1.14-1.69s-1.68.59-1.93,1.77l-.64,3.02h-.91l1.17-5.48h.91l-.17.79c.48-.58,1.2-.89,1.92-.89.9,0,1.56.4,1.75,1.22.49-.79,1.36-1.22,2.2-1.22,1.25,0,2.05.78,1.72,2.35l-.69,3.23h-.9l.66-3.1Z"/>
      <path class="cls-12" d="M389.64,89.72c-1.56,0-2.48-1.1-2.11-2.84.37-1.73,1.71-2.82,3.31-2.82s2.39,1.12,2.07,2.62c-.04.2-.09.36-.15.55h-4.38c-.17,1.11.48,1.72,1.41,1.72.82,0,1.43-.42,1.75-1.01h.98c-.49,1-1.54,1.78-2.9,1.78ZM388.56,86.49h3.46c.24-1.07-.44-1.66-1.38-1.66-.89,0-1.76.59-2.08,1.66Z"/>
      <path class="cls-12" d="M394.7,84.9h-.71l.16-.75h.71l.29-1.38h.91l-.29,1.38h1.43l-.16.75h-1.43l-.69,3.23c-.11.54.04.73.6.73h.67l-.16.77h-.82c-.97,0-1.43-.4-1.2-1.5l.69-3.23Z"/>
      <path class="cls-12" d="M398.3,84.15h.91l-1.17,5.48h-.91l1.17-5.48ZM398.47,82.64c.07-.35.4-.62.75-.62.33,0,.54.27.47.62-.07.35-.4.62-.73.62-.35,0-.56-.27-.49-.62Z"/>
      <path class="cls-12" d="M408.15,86.53c.24-1.12-.24-1.69-1.14-1.69s-1.67.59-1.92,1.77l-.64,3.02h-.9l.66-3.1c.24-1.12-.24-1.69-1.14-1.69s-1.68.59-1.93,1.77l-.64,3.02h-.91l1.17-5.48h.91l-.17.79c.48-.58,1.2-.89,1.92-.89.9,0,1.56.4,1.75,1.22.49-.79,1.36-1.22,2.2-1.22,1.25,0,2.05.78,1.72,2.35l-.69,3.23h-.9l.66-3.1Z"/>
      <path class="cls-12" d="M412.24,89.72c-1.56,0-2.48-1.1-2.11-2.84.37-1.73,1.71-2.82,3.31-2.82s2.39,1.12,2.07,2.62c-.04.2-.09.36-.15.55h-4.38c-.17,1.11.48,1.72,1.41,1.72.82,0,1.43-.42,1.75-1.01h.98c-.49,1-1.54,1.78-2.9,1.78ZM411.16,86.49h3.46c.24-1.07-.44-1.66-1.38-1.66-.89,0-1.76.59-2.08,1.66Z"/>
      <path class="cls-12" d="M418.01,89.72c-1.28,0-2.03-.7-1.88-1.7h.94c-.06.53.32.93,1.09.93.72,0,1.2-.36,1.29-.81.26-1.22-3.13-.51-2.7-2.55.18-.84,1.11-1.53,2.33-1.53s1.87.65,1.7,1.72h-.91c.08-.55-.26-.95-.99-.95-.67,0-1.14.32-1.23.76-.28,1.3,3.05.59,2.68,2.55-.19.9-1.12,1.58-2.33,1.58Z"/>
    </g>
    <g>
      <path class="cls-12" d="M164.04,55.91c1.02,0,1.61.52,1.81,1.09l.21-1h.92l-1.17,5.48h-.92l.22-1.02c-.46.59-1.28,1.11-2.28,1.11-1.46,0-2.34-1.15-1.98-2.85.36-1.71,1.73-2.81,3.2-2.81ZM164.05,56.7c-1,0-2,.73-2.28,2.02-.27,1.29.41,2.05,1.41,2.05s2.02-.75,2.29-2.04c.27-1.27-.43-2.03-1.43-2.03Z"/>
      <path class="cls-12" d="M168.56,56.75h-.71l.16-.75h.71l.29-1.38h.91l-.29,1.38h1.43l-.16.75h-1.43l-.69,3.23c-.11.54.04.73.6.73h.67l-.16.77h-.82c-.97,0-1.43-.4-1.2-1.5l.69-3.23Z"/>
      <path class="cls-12" d="M174.87,56.75h-.71l.16-.75h.71l.29-1.38h.91l-.29,1.38h1.43l-.16.75h-1.43l-.69,3.23c-.11.54.04.73.6.73h.67l-.16.77h-.82c-.97,0-1.43-.4-1.2-1.5l.69-3.23Z"/>
      <path class="cls-12" d="M178.88,54.08h.91l-.58,2.71c.48-.58,1.23-.89,2-.89,1.22,0,2.02.78,1.69,2.35l-.69,3.23h-.9l.66-3.1c.24-1.12-.25-1.69-1.17-1.69s-1.69.58-1.94,1.76l-.64,3.03h-.91l1.57-7.4Z"/>
      <path class="cls-12" d="M186.06,61.57c-1.56,0-2.48-1.1-2.11-2.84.37-1.73,1.71-2.82,3.31-2.82s2.39,1.12,2.07,2.62c-.04.2-.09.36-.15.55h-4.38c-.17,1.11.48,1.72,1.41,1.72.82,0,1.43-.42,1.75-1.01h.98c-.49,1-1.54,1.78-2.9,1.78ZM184.97,58.34h3.46c.24-1.07-.44-1.66-1.38-1.66-.89,0-1.76.59-2.08,1.66Z"/>
      <path class="cls-12" d="M194.15,54.08h.91l-1.57,7.4h-.91l1.57-7.4Z"/>
      <path class="cls-12" d="M196.2,56h.91l-1.17,5.48h-.91l1.17-5.48ZM196.37,54.49c.07-.35.4-.62.75-.62.33,0,.54.27.47.62-.07.35-.4.62-.73.62-.35,0-.56-.27-.49-.62Z"/>
      <path class="cls-12" d="M201.64,55.91c1.48,0,2.36,1.1,2,2.81-.36,1.7-1.73,2.85-3.2,2.85-1,0-1.6-.5-1.81-1.1l-.21,1.01h-.91l1.57-7.4h.91l-.62,2.94c.48-.61,1.32-1.11,2.28-1.11ZM201.28,56.7c-.99,0-2.02.76-2.29,2.03-.27,1.29.44,2.04,1.43,2.04s2.02-.76,2.29-2.05c.27-1.29-.42-2.02-1.43-2.02Z"/>
      <path class="cls-12" d="M205.16,61.48h-.91l1.17-5.48h.91l-.19.89c.44-.61,1.11-.99,1.98-.99l-.2.94h-.24c-.87,0-1.61.39-1.88,1.66l-.63,2.98Z"/>
      <path class="cls-12" d="M211.43,55.91c1.02,0,1.61.52,1.81,1.09l.21-1h.92l-1.17,5.48h-.92l.22-1.02c-.46.59-1.28,1.11-2.28,1.11-1.46,0-2.34-1.15-1.98-2.85.36-1.71,1.73-2.81,3.2-2.81ZM211.44,56.7c-1,0-2,.73-2.28,2.02-.27,1.29.41,2.05,1.41,2.05s2.02-.75,2.29-2.04c.27-1.27-.43-2.03-1.43-2.03Z"/>
      <path class="cls-12" d="M215.65,61.48h-.91l1.17-5.48h.91l-.19.89c.44-.61,1.11-.99,1.98-.99l-.2.94h-.24c-.87,0-1.61.39-1.88,1.66l-.63,2.98Z"/>
      <path class="cls-12" d="M223.42,56h.94l-5.01,8.06h-.94l1.64-2.64-1.06-5.42h1.01l.78,4.44,2.64-4.44Z"/>
      <path class="cls-12" d="M224.38,61.54c-.35,0-.56-.27-.49-.62.07-.35.4-.62.75-.62.33,0,.54.27.47.62-.07.35-.4.62-.73.62Z"/>
    </g>
    <g>
      <path class="cls-12" d="M168.04,89.72c-1.55,0-2.49-1.1-2.12-2.84.37-1.73,1.82-2.82,3.37-2.82s2.54,1.09,2.17,2.82c-.37,1.74-1.85,2.84-3.41,2.84ZM168.21,88.92c.95,0,2.02-.65,2.31-2.04.29-1.38-.48-2.03-1.42-2.03s-1.97.65-2.26,2.03c-.3,1.39.42,2.04,1.37,2.04Z"/>
      <path class="cls-12" d="M176.74,86.53c.24-1.12-.25-1.69-1.17-1.69s-1.69.58-1.94,1.76l-.64,3.03h-.91l1.17-5.48h.91l-.17.78c.48-.57,1.21-.88,1.95-.88,1.27,0,2.07.78,1.74,2.35l-.69,3.23h-.9l.66-3.1Z"/>
      <path class="cls-12" d="M183.33,89.7c-1.4,0-2.22-.78-2-1.93h.97c-.06.58.22,1.16,1.19,1.16.88,0,1.51-.5,1.65-1.16.4-1.88-3.62-.68-3.07-3.27.24-1.15,1.34-1.93,2.72-1.93s2.04.73,1.93,1.79h-1c.04-.47-.29-1-1.13-1.01-.75-.02-1.42.37-1.58,1.12-.38,1.8,3.61.68,3.06,3.26-.21.99-1.23,1.97-2.74,1.97Z"/>
      <path class="cls-12" d="M191.87,89.63h-.91l.17-.81c-.47.57-1.21.89-1.94.89-1.26,0-2.08-.78-1.75-2.35l.68-3.21h.9l-.66,3.09c-.24,1.11.25,1.68,1.17,1.68s1.69-.58,1.94-1.76l.64-3.01h.91l-1.17,5.48Z"/>
      <path class="cls-12" d="M198.08,86.53c.24-1.12-.25-1.69-1.17-1.69s-1.69.58-1.94,1.76l-.64,3.03h-.91l1.17-5.48h.91l-.17.78c.48-.57,1.21-.88,1.95-.88,1.27,0,2.07.78,1.74,2.35l-.69,3.23h-.9l.66-3.1Z"/>
      <path class="cls-12" d="M203.26,84.06c.86,0,1.56.44,1.8,1.07l.62-2.9h.92l-1.57,7.4h-.92l.22-1.03c-.46.61-1.28,1.12-2.28,1.12-1.47,0-2.35-1.15-1.99-2.85.36-1.71,1.73-2.81,3.21-2.81ZM203.27,84.85c-1,0-2,.73-2.28,2.02-.27,1.29.41,2.05,1.41,2.05s2.02-.75,2.29-2.04c.27-1.27-.43-2.03-1.43-2.03Z"/>
      <path class="cls-12" d="M210.01,84.06c1.02,0,1.61.52,1.81,1.09l.21-1h.92l-1.17,5.48h-.92l.22-1.02c-.46.59-1.28,1.11-2.28,1.11-1.46,0-2.34-1.15-1.98-2.85.36-1.71,1.73-2.81,3.2-2.81ZM210.02,84.85c-1,0-2,.73-2.28,2.02-.27,1.29.41,2.05,1.41,2.05s2.02-.75,2.29-2.04c.27-1.27-.43-2.03-1.43-2.03Z"/>
      <path class="cls-12" d="M218.27,84.15h.94l-5.01,8.06h-.94l1.64-2.64-1.06-5.42h1.01l.78,4.44,2.64-4.44Z"/>
      <path class="cls-12" d="M219.24,89.69c-.35,0-.56-.27-.49-.62.07-.35.4-.62.75-.62.33,0,.54.27.47.62-.07.35-.4.62-.73.62Z"/>
    </g>
    <line class="cls-9" x1="48.04" y1="128.61" x2="48.04" y2="174.47"/>
    <line class="cls-7" x1="484.37" y1="128.47" x2="484.37" y2="173.24"/>
    <line class="cls-7" x1="405.92" y1="128.47" x2="405.92" y2="173.24"/>
    <line class="cls-7" x1="359.17" y1="128.47" x2="359.17" y2="173.24"/>
    <line class="cls-7" x1="308.37" y1="128.47" x2="308.37" y2="173.24"/>
    <line class="cls-7" x1="174.71" y1="128.47" x2="174.71" y2="173.24"/>
    <line class="cls-7" x1="93.92" y1="128.47" x2="93.92" y2="173.24"/>
    <g>
      <path class="cls-12" d="M119.76,32.79l1.71,4.64,1.7-4.64h.97l-2.15,5.48h-1.06l-2.15-5.48h.98Z"/>
      <path class="cls-12" d="M127.41,38.36c-1.56,0-2.71-1.1-2.71-2.84s1.11-2.82,2.71-2.82,2.63,1.12,2.63,2.62c0,.2,0,.36-.03.55h-4.38c.07,1.11.85,1.72,1.78,1.72.82,0,1.34-.42,1.54-1.01h.98c-.28,1-1.16,1.78-2.52,1.78ZM125.64,35.13h3.46c.01-1.07-.79-1.66-1.73-1.66-.89,0-1.63.59-1.73,1.66Z"/>
      <path class="cls-12" d="M132.15,38.27h-.91v-5.48h.91v.89c.31-.61.9-.99,1.77-.99v.94h-.24c-.87,0-1.53.39-1.53,1.66v2.98Z"/>
      <path class="cls-12" d="M137.93,32.7c1.48,0,2.6,1.1,2.6,2.81s-1.13,2.85-2.6,2.85c-1,0-1.71-.5-2.05-1.1v1.01h-.91v-7.4h.91v2.94c.35-.61,1.08-1.11,2.05-1.11ZM137.74,33.49c-.99,0-1.86.76-1.86,2.03s.87,2.04,1.86,2.04,1.86-.76,1.86-2.05-.85-2.02-1.86-2.02Z"/>
    </g>
    <g>
      <path class="cls-13" d="M184.85,118.61h-3.14l-.82,1.49h-2.15l4.84-8.42h2.38l1.26,8.42h-2.17l-.19-1.49ZM184.27,113.94l-1.69,3.08h2.08l-.39-3.08Z"/>
      <path class="cls-13" d="M192.01,113.31c.89,0,1.57.41,1.85,1.02l.66-3.11h2.05l-1.89,8.88h-2.05l.2-.96c-.5.61-1.3,1.06-2.29,1.06-1.64,0-2.66-1.34-2.22-3.46.45-2.11,2.04-3.43,3.68-3.43ZM192.23,115.09c-.77,0-1.59.58-1.81,1.64-.23,1.07.34,1.67,1.11,1.67s1.59-.59,1.81-1.66c.23-1.07-.33-1.66-1.11-1.66Z"/>
      <path class="cls-13" d="M199.05,113.4l.44,4.78,2.47-4.78h2.18l-3.8,6.7h-2.53l-.95-6.7h2.19Z"/>
      <path class="cls-13" d="M206.42,120.19c-1.97,0-3.1-1.32-2.65-3.44.45-2.12,2.12-3.44,4.11-3.44s3.06,1.29,2.62,3.33c-.04.19-.1.4-.16.6h-4.64c-.11.88.34,1.28,1,1.28.58,0,.96-.29,1.21-.65h2.18c-.6,1.31-2,2.32-3.67,2.32ZM205.96,116.1h2.57c.16-.73-.33-1.15-1.01-1.15s-1.27.41-1.55,1.15Z"/>
      <path class="cls-13" d="M212.81,120.1h-2.05l1.42-6.7h2.05l-.24,1.12c.62-.71,1.45-1.19,2.35-1.19l-.46,2.17h-.56c-.97,0-1.61.33-1.85,1.49l-.66,3.11Z"/>
      <path class="cls-13" d="M221.33,113.31c1.66,0,2.67,1.32,2.22,3.43-.45,2.11-2.04,3.46-3.69,3.46-.98,0-1.6-.44-1.84-1.03l-.2.94h-2.05l1.89-8.88h2.05l-.67,3.13c.5-.6,1.32-1.04,2.28-1.04ZM220.34,115.09c-.77,0-1.59.59-1.82,1.66-.23,1.07.34,1.66,1.11,1.66s1.6-.6,1.83-1.67c.23-1.07-.35-1.64-1.12-1.64Z"/>
      <path class="cls-13" d="M226.51,120.19c-1.79,0-2.77-1-2.59-2.29h2.03c-.05.47.3.78.87.78.53,0,.85-.24.92-.54.23-1.08-3.58-.3-3.06-2.76.24-1.14,1.41-2.08,3.16-2.08s2.48.96,2.33,2.28h-1.89c.04-.46-.25-.76-.82-.76-.48,0-.78.19-.85.52-.23,1.07,3.56.31,3.06,2.81-.25,1.16-1.46,2.04-3.14,2.04Z"/>
      <path class="cls-13" d="M235.86,120.19c-1.97,0-3.17-1.32-2.72-3.44.45-2.12,2.26-3.44,4.21-3.44s3.2,1.32,2.75,3.44c-.45,2.12-2.27,3.44-4.23,3.44ZM236.24,118.42c.73,0,1.53-.54,1.77-1.67.24-1.14-.32-1.67-1.04-1.67s-1.5.53-1.75,1.67c-.24,1.13.27,1.67,1.01,1.67Z"/>
      <path class="cls-13" d="M241.62,115.11h-.74l.36-1.7h.74l.04-.19c.37-1.75,1.64-2.62,3.65-2.51l-.37,1.74c-.78-.05-1.11.19-1.26.9v.06s1.09,0,1.09,0l-.36,1.7h-1.1l-1.06,4.99h-2.05l1.06-4.99Z"/>
      <path class="cls-13" d="M255.47,115.89c-.53,2.5-2.62,4.21-5.31,4.21h-3.15l1.79-8.42h3.15c2.69,0,4.05,1.7,3.52,4.21ZM250.4,118.32c1.55,0,2.65-.89,2.98-2.44.33-1.55-.39-2.46-1.94-2.46h-.97l-1.04,4.9h.97Z"/>
      <path class="cls-13" d="M258.57,120.19c-1.97,0-3.1-1.32-2.65-3.44.45-2.12,2.12-3.44,4.11-3.44s3.06,1.29,2.62,3.33c-.04.19-.1.4-.16.6h-4.64c-.11.88.34,1.28,1,1.28.58,0,.96-.29,1.2-.65h2.18c-.6,1.31-2,2.32-3.67,2.32ZM258.11,116.1h2.57c.16-.73-.33-1.15-1.01-1.15s-1.27.41-1.55,1.15Z"/>
      <path class="cls-13" d="M264.17,115.11h-.74l.36-1.7h.74l.04-.19c.37-1.75,1.64-2.62,3.65-2.51l-.37,1.74c-.78-.05-1.11.19-1.26.9v.06s1.09,0,1.09,0l-.36,1.7h-1.1l-1.06,4.99h-2.05l1.06-4.99Z"/>
      <path class="cls-13" d="M268.54,113.4h2.05l-1.42,6.7h-2.05l1.42-6.7ZM268.73,111.6c.13-.62.73-1.12,1.46-1.12s1.11.49.97,1.12c-.13.61-.73,1.1-1.45,1.1s-1.12-.49-.99-1.1Z"/>
      <path class="cls-13" d="M275.94,116.46c.19-.91-.2-1.42-.98-1.42s-1.39.5-1.58,1.42l-.77,3.63h-2.05l1.42-6.7h2.05l-.19.89c.53-.56,1.33-.96,2.23-.96,1.55,0,2.35,1.06,1.97,2.86l-.83,3.91h-2.04l.77-3.63Z"/>
      <path class="cls-13" d="M279.95,113.4h2.05l-1.42,6.7h-2.05l1.42-6.7ZM280.14,111.6c.13-.62.73-1.12,1.46-1.12s1.11.49.97,1.12c-.13.61-.73,1.1-1.45,1.1s-1.12-.49-.99-1.1Z"/>
      <path class="cls-13" d="M283.33,115.11h-.82l.36-1.7h.82l.35-1.63h2.05l-.35,1.63h1.34l-.36,1.7h-1.34l-.57,2.69c-.08.4.05.56.5.56h.73l-.37,1.74h-1.04c-1.39,0-2.24-.59-1.87-2.33l.57-2.66Z"/>
      <path class="cls-13" d="M289.67,120.19c-1.97,0-3.1-1.32-2.65-3.44.45-2.12,2.12-3.44,4.11-3.44s3.06,1.29,2.62,3.33c-.04.19-.1.4-.16.6h-4.64c-.11.88.34,1.28,1,1.28.58,0,.96-.29,1.2-.65h2.18c-.6,1.31-2,2.32-3.67,2.32ZM289.21,116.1h2.57c.16-.73-.33-1.15-1.01-1.15s-1.27.41-1.55,1.15Z"/>
      <path class="cls-13" d="M298.22,111.67h5.48l-.35,1.64h-3.43l-.38,1.78h2.57l-.34,1.6h-2.57l-.72,3.41h-2.05l1.79-8.42Z"/>
      <path class="cls-13" d="M304.94,120.1h-2.05l1.42-6.7h2.05l-.24,1.12c.62-.71,1.45-1.19,2.35-1.19l-.46,2.17h-.56c-.97,0-1.61.33-1.85,1.49l-.66,3.11Z"/>
      <path class="cls-13" d="M310.86,120.19c-1.97,0-3.1-1.32-2.65-3.44.45-2.12,2.12-3.44,4.11-3.44s3.06,1.29,2.62,3.33c-.04.19-.1.4-.16.6h-4.64c-.11.88.34,1.28,1,1.28.58,0,.96-.29,1.2-.65h2.18c-.6,1.31-2,2.32-3.67,2.32ZM310.4,116.1h2.57c.16-.73-.33-1.15-1.01-1.15s-1.27.41-1.55,1.15Z"/>
      <path class="cls-13" d="M323.94,120.59l-2.51,2.74h-2.48l.86-4.03c-.54.53-1.29.92-2.18.92-1.64,0-2.74-1.38-2.31-3.42.43-2.04,2.12-3.43,3.79-3.43.88,0,1.48.34,1.78.84l.16-.77h2.05l-1.69,7.93.72-.78h1.81ZM320.33,116.79c.24-1.13-.42-1.64-1.11-1.64s-1.57.53-1.81,1.66c-.24,1.13.43,1.64,1.11,1.64s1.58-.53,1.81-1.66Z"/>
      <path class="cls-13" d="M329.84,120.1h-2.05l.19-.91c-.53.58-1.34.98-2.24.98-1.55,0-2.36-1.07-1.98-2.86l.83-3.91h2.04l-.77,3.64c-.19.91.21,1.42.98,1.42s1.4-.5,1.6-1.42l.77-3.64h2.05l-1.42,6.7Z"/>
      <path class="cls-13" d="M334.15,120.19c-1.97,0-3.1-1.32-2.65-3.44.45-2.12,2.12-3.44,4.11-3.44s3.06,1.29,2.62,3.33c-.04.19-.1.4-.16.6h-4.64c-.11.88.34,1.28,1,1.28.58,0,.96-.29,1.21-.65h2.18c-.6,1.31-2,2.32-3.67,2.32ZM333.69,116.1h2.57c.16-.73-.33-1.15-1.01-1.15s-1.27.41-1.55,1.15Z"/>
      <path class="cls-13" d="M343.87,116.46c.19-.91-.2-1.42-.98-1.42s-1.39.5-1.58,1.42l-.77,3.63h-2.05l1.42-6.7h2.05l-.19.89c.53-.56,1.33-.96,2.23-.96,1.55,0,2.35,1.06,1.97,2.86l-.83,3.91h-2.04l.77-3.63Z"/>
      <path class="cls-13" d="M350.85,113.31c1.68,0,2.67.92,2.68,2.52h-2.18c-.07-.47-.34-.77-.9-.77-.73,0-1.36.58-1.6,1.69-.24,1.12.14,1.69.88,1.69.56,0,.95-.28,1.23-.77h2.18c-.68,1.55-2.07,2.52-3.75,2.52-1.97,0-3.08-1.32-2.63-3.44.45-2.11,2.12-3.44,4.09-3.44Z"/>
      <path class="cls-13" d="M359.65,113.4h2.22l-6.3,9.88h-2.21l2.26-3.41-1.35-6.47h2.29l.66,4.19,2.43-4.19Z"/>
    </g>
    <line class="cls-11" x1="233.71" y1="128.54" x2="233.71" y2="174.47"/>
    <g>
      <path class="cls-12" d="M8.04,142.7c-1.4,0-2.39-.78-2.41-1.93h.97c.06.58.47,1.16,1.44,1.16.88,0,1.4-.5,1.4-1.16,0-1.88-3.77-.68-3.77-3.27,0-1.15.93-1.93,2.31-1.93s2.2.73,2.31,1.79h-1c-.06-.47-.5-1-1.35-1.01-.75-.02-1.34.37-1.34,1.12,0,1.8,3.76.68,3.76,3.26,0,.99-.81,1.97-2.32,1.97Z"/>
      <path class="cls-12" d="M16.56,142.63h-.91v-.81c-.35.57-1.02.89-1.75.89-1.26,0-2.25-.78-2.25-2.35v-3.21h.9v3.09c0,1.11.61,1.68,1.53,1.68s1.57-.58,1.57-1.76v-3.01h.91v5.48Z"/>
      <path class="cls-12" d="M21.06,137.07c1.48,0,2.6,1.1,2.6,2.81s-1.13,2.85-2.6,2.85c-1,0-1.71-.5-2.05-1.1v1.01h-.91v-7.4h.91v2.94c.35-.61,1.08-1.11,2.05-1.11ZM20.87,137.86c-.99,0-1.86.76-1.86,2.03s.87,2.04,1.86,2.04,1.86-.76,1.86-2.05-.85-2.02-1.86-2.02Z"/>
      <path class="cls-12" d="M25.8,137.16v6.67c0,.99-.52,1.41-1.45,1.41h-.53v-.77h.38c.5,0,.69-.18.69-.66v-6.65h.91ZM24.74,135.65c0-.35.27-.62.61-.62s.61.27.61.62-.27.62-.61.62-.61-.27-.61-.62Z"/>
      <path class="cls-12" d="M29.71,142.72c-1.56,0-2.71-1.1-2.71-2.84s1.11-2.82,2.71-2.82,2.63,1.12,2.63,2.62c0,.2,0,.36-.03.55h-4.38c.07,1.11.85,1.72,1.78,1.72.82,0,1.34-.42,1.54-1.01h.98c-.28,1-1.16,1.78-2.52,1.78ZM27.94,139.49h3.46c.01-1.07-.79-1.66-1.73-1.66-.89,0-1.63.59-1.73,1.66Z"/>
      <path class="cls-12" d="M35.87,137.07c1.36,0,2.25.7,2.53,1.85h-.98c-.19-.66-.74-1.08-1.55-1.08-1,0-1.74.71-1.74,2.05s.74,2.07,1.74,2.07c.81,0,1.35-.39,1.55-1.08h.98c-.28,1.09-1.17,1.85-2.53,1.85-1.56,0-2.67-1.1-2.67-2.84s1.11-2.82,2.67-2.82Z"/>
      <path class="cls-12" d="M39.81,137.91h-.71v-.75h.71v-1.38h.91v1.38h1.43v.75h-1.43v3.23c0,.54.2.73.76.73h.67v.77h-.82c-.97,0-1.52-.4-1.52-1.5v-3.23Z"/>
    </g>
    <g>
      <path class="cls-12" d="M244.85,139.48h-3.55v3.16h-.91v-6.97h.91v3.06h3.55v-3.06h.91v6.97h-.91v-3.16Z"/>
      <path class="cls-12" d="M249.67,142.72c-1.56,0-2.71-1.1-2.71-2.84s1.11-2.82,2.71-2.82,2.63,1.12,2.63,2.62c0,.2,0,.36-.03.55h-4.38c.07,1.11.85,1.72,1.78,1.72.82,0,1.34-.42,1.54-1.01h.98c-.28,1-1.16,1.78-2.52,1.78ZM247.9,139.49h3.46c.01-1.07-.79-1.66-1.73-1.66-.89,0-1.63.59-1.73,1.66Z"/>
      <path class="cls-12" d="M253.5,135.24h.91v7.4h-.91v-7.4Z"/>
      <path class="cls-12" d="M258.92,137.07c1.47,0,2.6,1.1,2.6,2.81s-1.13,2.85-2.6,2.85c-1,0-1.71-.54-2.05-1.1v3.61h-.91v-8.08h.91v1.01c.33-.58,1.05-1.1,2.05-1.1ZM258.73,137.86c-.99,0-1.86.76-1.86,2.03s.87,2.04,1.86,2.04,1.86-.76,1.86-2.05-.85-2.02-1.86-2.02Z"/>
      <path class="cls-12" d="M262.57,135.65c0-.35.27-.62.62-.62.33,0,.6.27.6.62s-.27.62-.6.62c-.35,0-.62-.27-.62-.62ZM262.72,137.16h.91v5.48h-.91v-5.48Z"/>
      <path class="cls-12" d="M269.19,139.53c0-1.12-.61-1.69-1.53-1.69s-1.57.58-1.57,1.76v3.03h-.91v-5.48h.91v.78c.36-.57,1.02-.88,1.76-.88,1.27,0,2.24.78,2.24,2.35v3.23h-.9v-3.1Z"/>
      <path class="cls-12" d="M273.84,137.07c1,0,1.72.5,2.04,1.09v-1h.92v5.6c0,1.51-1.01,2.58-2.62,2.58-1.44,0-2.47-.73-2.65-1.9h.9c.2.66.85,1.11,1.75,1.11.97,0,1.7-.62,1.7-1.79v-1.15c-.33.59-1.04,1.12-2.04,1.12-1.47,0-2.6-1.15-2.6-2.85s1.13-2.81,2.6-2.81ZM274.02,137.86c-1,0-1.85.73-1.85,2.02s.85,2.05,1.85,2.05,1.86-.75,1.86-2.04-.86-2.03-1.86-2.03Z"/>
      <path class="cls-12" d="M281.34,137.16l1.71,4.64,1.7-4.64h.97l-2.15,5.48h-1.06l-2.15-5.48h.98Z"/>
      <path class="cls-12" d="M288.99,142.72c-1.56,0-2.71-1.1-2.71-2.84s1.11-2.82,2.71-2.82,2.63,1.12,2.63,2.62c0,.2,0,.36-.03.55h-4.38c.07,1.11.85,1.72,1.78,1.72.82,0,1.34-.42,1.54-1.01h.98c-.28,1-1.16,1.78-2.52,1.78ZM287.22,139.49h3.46c.01-1.07-.79-1.66-1.73-1.66-.89,0-1.63.59-1.73,1.66Z"/>
      <path class="cls-12" d="M293.73,142.63h-.91v-5.48h.91v.89c.31-.61.9-.99,1.77-.99v.94h-.24c-.87,0-1.53.39-1.53,1.66v2.98Z"/>
      <path class="cls-12" d="M299.51,137.07c1.48,0,2.6,1.1,2.6,2.81s-1.13,2.85-2.6,2.85c-1,0-1.71-.5-2.05-1.1v1.01h-.91v-7.4h.91v2.94c.35-.61,1.08-1.11,2.05-1.11ZM299.32,137.86c-.99,0-1.86.76-1.86,2.03s.87,2.04,1.86,2.04,1.86-.76,1.86-2.05-.85-2.02-1.86-2.02Z"/>
    </g>
    <g>
      <path class="cls-12" d="M318.13,142.72c-1.28,0-2.18-.7-2.24-1.7h.94c.05.53.52.93,1.29.93.72,0,1.12-.36,1.12-.81,0-1.22-3.24-.51-3.24-2.55,0-.84.79-1.53,2.01-1.53s2.01.65,2.07,1.72h-.91c-.04-.55-.46-.95-1.19-.95-.67,0-1.07.32-1.07.76,0,1.3,3.18.59,3.22,2.55,0,.9-.79,1.58-2,1.58Z"/>
      <path class="cls-12" d="M326.27,142.63h-.91v-.81c-.35.57-1.02.89-1.75.89-1.26,0-2.25-.78-2.25-2.35v-3.21h.9v3.09c0,1.11.61,1.68,1.53,1.68s1.57-.58,1.57-1.76v-3.01h.91v5.48Z"/>
      <path class="cls-12" d="M330.77,137.07c1.48,0,2.6,1.1,2.6,2.81s-1.13,2.85-2.6,2.85c-1,0-1.71-.5-2.05-1.1v1.01h-.91v-7.4h.91v2.94c.35-.61,1.08-1.11,2.05-1.11ZM330.58,137.86c-.99,0-1.86.76-1.86,2.03s.87,2.04,1.86,2.04,1.86-.76,1.86-2.05-.85-2.02-1.86-2.02Z"/>
      <path class="cls-12" d="M335.51,137.16v6.67c0,.99-.52,1.41-1.45,1.41h-.53v-.77h.38c.5,0,.69-.18.69-.66v-6.65h.91ZM334.45,135.65c0-.35.27-.62.61-.62s.61.27.61.62-.27.62-.61.62-.61-.27-.61-.62Z"/>
      <path class="cls-12" d="M339.42,142.72c-1.56,0-2.71-1.1-2.71-2.84s1.11-2.82,2.71-2.82,2.63,1.12,2.63,2.62c0,.2,0,.36-.03.55h-4.38c.07,1.11.85,1.72,1.78,1.72.82,0,1.34-.42,1.54-1.01h.98c-.28,1-1.16,1.78-2.52,1.78ZM337.65,139.49h3.46c.01-1.07-.79-1.66-1.73-1.66-.89,0-1.63.59-1.73,1.66Z"/>
      <path class="cls-12" d="M345.58,137.07c1.36,0,2.25.7,2.53,1.85h-.98c-.19-.66-.74-1.08-1.55-1.08-1,0-1.74.71-1.74,2.05s.74,2.07,1.74,2.07c.81,0,1.35-.39,1.55-1.08h.98c-.28,1.09-1.17,1.85-2.53,1.85-1.56,0-2.67-1.1-2.67-2.84s1.11-2.82,2.67-2.82Z"/>
      <path class="cls-12" d="M349.52,137.91h-.71v-.75h.71v-1.38h.91v1.38h1.43v.75h-1.43v3.23c0,.54.2.73.76.73h.67v.77h-.82c-.97,0-1.52-.4-1.52-1.5v-3.23Z"/>
    </g>
    <g>
      <path class="cls-12" d="M60.44,137.07l1.71,4.64,1.7-4.64h.97l-2.15,5.48h-1.06l-2.15-5.48h.98Z"/>
      <path class="cls-12" d="M68.09,142.63c-1.56,0-2.71-1.1-2.71-2.84s1.11-2.82,2.71-2.82,2.63,1.12,2.63,2.62c0,.2,0,.36-.03.55h-4.38c.07,1.11.85,1.72,1.78,1.72.82,0,1.34-.42,1.54-1.01h.98c-.28,1-1.16,1.78-2.52,1.78ZM66.32,139.4h3.46c.01-1.07-.79-1.66-1.73-1.66-.89,0-1.63.59-1.73,1.66Z"/>
      <path class="cls-12" d="M72.83,142.54h-.91v-5.48h.91v.89c.31-.61.9-.99,1.77-.99v.94h-.24c-.87,0-1.53.39-1.53,1.66v2.98Z"/>
      <path class="cls-12" d="M78.61,136.98c1.48,0,2.6,1.1,2.6,2.81s-1.13,2.85-2.6,2.85c-1,0-1.71-.5-2.05-1.1v1.01h-.91v-7.4h.91v2.94c.35-.61,1.08-1.11,2.05-1.11ZM78.42,137.77c-.99,0-1.86.76-1.86,2.03s.87,2.04,1.86,2.04,1.86-.76,1.86-2.05-.85-2.02-1.86-2.02Z"/>
    </g>
    <g>
      <path class="cls-12" d="M188.34,137.07c1.02,0,1.72.52,2.04,1.09v-1h.92v5.48h-.92v-1.02c-.33.59-1.04,1.11-2.05,1.11-1.46,0-2.59-1.15-2.59-2.85s1.13-2.81,2.6-2.81ZM188.52,137.86c-1,0-1.85.73-1.85,2.02s.85,2.05,1.85,2.05,1.86-.75,1.86-2.04-.86-2.03-1.86-2.03Z"/>
      <path class="cls-12" d="M195.11,137.07c.86,0,1.65.44,2.03,1.07v-2.9h.92v7.4h-.92v-1.03c-.33.61-1.04,1.12-2.04,1.12-1.47,0-2.6-1.15-2.6-2.85s1.13-2.81,2.61-2.81ZM195.28,137.86c-1,0-1.85.73-1.85,2.02s.85,2.05,1.85,2.05,1.86-.75,1.86-2.04-.86-2.03-1.86-2.03Z"/>
      <path class="cls-12" d="M199.94,137.16l1.71,4.64,1.7-4.64h.97l-2.15,5.48h-1.06l-2.15-5.48h.98Z"/>
      <path class="cls-12" d="M207.58,142.72c-1.56,0-2.71-1.1-2.71-2.84s1.11-2.82,2.71-2.82,2.63,1.12,2.63,2.62c0,.2,0,.36-.03.55h-4.38c.07,1.11.85,1.72,1.78,1.72.82,0,1.34-.42,1.54-1.01h.98c-.28,1-1.16,1.78-2.52,1.78ZM205.81,139.49h3.46c.01-1.07-.79-1.66-1.73-1.66-.89,0-1.63.59-1.73,1.66Z"/>
      <path class="cls-12" d="M212.32,142.63h-.91v-5.48h.91v.89c.31-.61.9-.99,1.77-.99v.94h-.24c-.87,0-1.53.39-1.53,1.66v2.98Z"/>
      <path class="cls-12" d="M218.1,137.07c1.48,0,2.6,1.1,2.6,2.81s-1.13,2.85-2.6,2.85c-1,0-1.71-.5-2.05-1.1v1.01h-.91v-7.4h.91v2.94c.35-.61,1.08-1.11,2.05-1.11ZM217.91,137.86c-.99,0-1.86.76-1.86,2.03s.87,2.04,1.86,2.04,1.86-.76,1.86-2.05-.85-2.02-1.86-2.02Z"/>
      <path class="cls-12" d="M222.19,142.69c-.35,0-.62-.27-.62-.62s.27-.62.62-.62c.33,0,.6.27.6.62s-.27.62-.6.62Z"/>
    </g>
    <g>
      <path class="cls-12" d="M372.38,137.69l1.71,4.64,1.7-4.64h.97l-2.15,5.48h-1.06l-2.15-5.48h.98Z"/>
      <path class="cls-12" d="M380.03,143.25c-1.56,0-2.71-1.1-2.71-2.84s1.11-2.82,2.71-2.82,2.63,1.12,2.63,2.62c0,.2,0,.36-.03.55h-4.38c.07,1.11.85,1.72,1.78,1.72.82,0,1.34-.42,1.54-1.01h.98c-.28,1-1.16,1.78-2.52,1.78ZM378.26,140.02h3.46c.01-1.07-.79-1.66-1.73-1.66-.89,0-1.63.59-1.73,1.66Z"/>
      <path class="cls-12" d="M384.77,143.16h-.91v-5.48h.91v.89c.31-.61.9-.99,1.77-.99v.94h-.24c-.87,0-1.53.39-1.53,1.66v2.98Z"/>
      <path class="cls-12" d="M390.55,137.6c1.48,0,2.6,1.1,2.6,2.81s-1.13,2.85-2.6,2.85c-1,0-1.71-.5-2.05-1.1v1.01h-.91v-7.4h.91v2.94c.35-.61,1.08-1.11,2.05-1.11ZM390.36,138.39c-.99,0-1.86.76-1.86,2.03s.87,2.04,1.86,2.04,1.86-.76,1.86-2.05-.85-2.02-1.86-2.02Z"/>
    </g>
    <g>
      <path class="cls-12" d="M492.81,137.6c1.02,0,1.72.52,2.04,1.09v-1h.92v5.48h-.92v-1.02c-.33.59-1.04,1.11-2.05,1.11-1.46,0-2.59-1.15-2.59-2.85s1.13-2.81,2.6-2.81ZM492.99,138.39c-1,0-1.85.73-1.85,2.02s.85,2.05,1.85,2.05,1.86-.75,1.86-2.04-.86-2.03-1.86-2.03Z"/>
      <path class="cls-12" d="M499.58,137.6c.86,0,1.65.44,2.03,1.07v-2.9h.92v7.4h-.92v-1.03c-.33.61-1.04,1.12-2.04,1.12-1.47,0-2.6-1.15-2.6-2.85s1.13-2.81,2.61-2.81ZM499.75,138.39c-1,0-1.85.73-1.85,2.02s.85,2.05,1.85,2.05,1.86-.75,1.86-2.04-.86-2.03-1.86-2.03Z"/>
      <path class="cls-12" d="M504.4,137.69l1.71,4.64,1.7-4.64h.97l-2.15,5.48h-1.06l-2.15-5.48h.98Z"/>
      <path class="cls-12" d="M512.05,143.25c-1.56,0-2.71-1.1-2.71-2.84s1.11-2.82,2.71-2.82,2.63,1.12,2.63,2.62c0,.2,0,.36-.03.55h-4.38c.07,1.11.85,1.72,1.78,1.72.82,0,1.34-.42,1.54-1.01h.98c-.28,1-1.16,1.78-2.52,1.78ZM510.28,140.02h3.46c.01-1.07-.79-1.66-1.73-1.66-.89,0-1.63.59-1.73,1.66Z"/>
      <path class="cls-12" d="M516.79,143.16h-.91v-5.48h.91v.89c.31-.61.9-.99,1.77-.99v.94h-.24c-.87,0-1.53.39-1.53,1.66v2.98Z"/>
      <path class="cls-12" d="M522.57,137.6c1.48,0,2.6,1.1,2.6,2.81s-1.13,2.85-2.6,2.85c-1,0-1.71-.5-2.05-1.1v1.01h-.91v-7.4h.91v2.94c.35-.61,1.08-1.11,2.05-1.11ZM522.38,138.39c-.99,0-1.86.76-1.86,2.03s.87,2.04,1.86,2.04,1.86-.76,1.86-2.05-.85-2.02-1.86-2.02Z"/>
      <path class="cls-12" d="M528.15,136.11c1.31,0,2.21.79,2.21,2.06,0,1.46-1.01,2.06-2.41,2.06l-.03.95h-.79l-.04-1.58h.29c1.14,0,2.11-.22,2.11-1.43,0-.8-.52-1.3-1.33-1.3s-1.33.47-1.33,1.25h-.86c0-1.21.87-2.01,2.18-2.01ZM527.52,143.22c-.35,0-.62-.27-.62-.62s.27-.62.62-.62c.33,0,.6.27.6.62s-.27.62-.6.62Z"/>
    </g>
    <g>
      <path class="cls-12" d="M415.86,137.6c1.36,0,2.25.7,2.53,1.85h-.98c-.19-.66-.74-1.08-1.55-1.08-1,0-1.74.71-1.74,2.05s.74,2.07,1.74,2.07c.81,0,1.35-.39,1.55-1.08h.98c-.28,1.09-1.17,1.85-2.53,1.85-1.56,0-2.67-1.1-2.67-2.84s1.11-2.82,2.67-2.82Z"/>
      <path class="cls-12" d="M421.99,143.25c-1.55,0-2.73-1.1-2.73-2.84s1.22-2.82,2.77-2.82,2.77,1.09,2.77,2.82-1.25,2.84-2.81,2.84ZM421.99,142.45c.95,0,1.88-.65,1.88-2.04s-.91-2.03-1.85-2.03-1.83.65-1.83,2.03.85,2.04,1.8,2.04Z"/>
      <path class="cls-12" d="M433.91,140.06c0-1.12-.6-1.69-1.5-1.69s-1.55.59-1.55,1.77v3.02h-.9v-3.1c0-1.12-.6-1.69-1.5-1.69s-1.55.59-1.55,1.77v3.02h-.91v-5.48h.91v.79c.36-.58,1.01-.89,1.73-.89.9,0,1.65.4,2.01,1.22.32-.79,1.1-1.22,1.94-1.22,1.25,0,2.22.78,2.22,2.35v3.23h-.9v-3.1Z"/>
      <path class="cls-12" d="M439.26,137.6c1.47,0,2.6,1.1,2.6,2.81s-1.13,2.85-2.6,2.85c-1,0-1.71-.54-2.05-1.1v3.61h-.91v-8.08h.91v1.01c.33-.58,1.05-1.1,2.05-1.1ZM439.07,138.39c-.99,0-1.86.76-1.86,2.03s.87,2.04,1.86,2.04,1.86-.76,1.86-2.05-.85-2.02-1.86-2.02Z"/>
      <path class="cls-12" d="M443.06,135.77h.91v7.4h-.91v-7.4Z"/>
      <path class="cls-12" d="M447.89,143.25c-1.56,0-2.71-1.1-2.71-2.84s1.11-2.82,2.71-2.82,2.63,1.12,2.63,2.62c0,.2,0,.36-.03.55h-4.38c.07,1.11.85,1.72,1.78,1.72.82,0,1.34-.42,1.54-1.01h.98c-.28,1-1.16,1.78-2.52,1.78ZM446.12,140.02h3.46c.01-1.07-.79-1.66-1.73-1.66-.89,0-1.63.59-1.73,1.66Z"/>
      <path class="cls-12" d="M459.63,140.06c0-1.12-.6-1.69-1.5-1.69s-1.55.59-1.55,1.77v3.02h-.9v-3.1c0-1.12-.6-1.69-1.5-1.69s-1.55.59-1.55,1.77v3.02h-.91v-5.48h.91v.79c.36-.58,1.01-.89,1.73-.89.9,0,1.65.4,2.01,1.22.32-.79,1.1-1.22,1.94-1.22,1.25,0,2.22.78,2.22,2.35v3.23h-.9v-3.1Z"/>
      <path class="cls-12" d="M464.39,143.25c-1.56,0-2.71-1.1-2.71-2.84s1.11-2.82,2.71-2.82,2.63,1.12,2.63,2.62c0,.2,0,.36-.03.55h-4.38c.07,1.11.85,1.72,1.78,1.72.82,0,1.34-.42,1.54-1.01h.98c-.28,1-1.16,1.78-2.52,1.78ZM462.62,140.02h3.46c.01-1.07-.79-1.66-1.73-1.66-.89,0-1.63.59-1.73,1.66Z"/>
      <path class="cls-12" d="M472.23,140.06c0-1.12-.61-1.69-1.53-1.69s-1.57.58-1.57,1.76v3.03h-.91v-5.48h.91v.78c.36-.57,1.02-.88,1.76-.88,1.27,0,2.24.78,2.24,2.35v3.23h-.9v-3.1Z"/>
      <path class="cls-12" d="M474.82,138.44h-.71v-.75h.71v-1.38h.91v1.38h1.43v.75h-1.43v3.23c0,.54.2.73.76.73h.67v.77h-.82c-.97,0-1.52-.4-1.52-1.5v-3.23Z"/>
    </g>
    <g class="cls-15">
      <g>
        <path class="cls-12" d="M15.27,166.45c-1.4,0-2.22-.78-2-1.93h.97c-.06.58.22,1.16,1.19,1.16.88,0,1.51-.5,1.65-1.16.4-1.88-3.62-.68-3.07-3.27.24-1.15,1.34-1.93,2.72-1.93s2.04.73,1.93,1.79h-1c.04-.47-.29-1-1.13-1.01-.75-.02-1.42.37-1.58,1.12-.38,1.8,3.61.68,3.06,3.26-.21.99-1.23,1.97-2.74,1.97Z"/>
        <path class="cls-12" d="M22.39,160.81c1.02,0,1.61.52,1.81,1.09l.21-1h.92l-1.17,5.48h-.92l.22-1.02c-.46.59-1.28,1.11-2.28,1.11-1.46,0-2.34-1.15-1.98-2.85.36-1.71,1.73-2.81,3.2-2.81ZM22.4,161.6c-1,0-2,.73-2.28,2.02-.27,1.29.41,2.05,1.41,2.05s2.02-.75,2.29-2.04c.27-1.27-.43-2.03-1.43-2.03Z"/>
        <path class="cls-12" d="M27.28,158.98h.91l-1.57,7.4h-.91l1.57-7.4Z"/>
        <path class="cls-12" d="M29.74,158.98h.91l-1.57,7.4h-.91l1.57-7.4Z"/>
        <path class="cls-12" d="M35.57,160.9h.94l-5.01,8.06h-.94l1.64-2.64-1.06-5.42h1.01l.78,4.44,2.64-4.44Z"/>
      </g>
      <g>
        <path class="cls-12" d="M265.96,162.9c-.46,2.16-2.15,3.47-4.44,3.47h-2.17l1.48-6.97h2.17c2.29,0,3.41,1.34,2.95,3.5ZM261.68,165.62c1.82,0,2.99-1.02,3.35-2.72.36-1.7-.36-2.76-2.18-2.76h-1.26l-1.17,5.48h1.26Z"/>
        <path class="cls-12" d="M268.79,166.46c-1.55,0-2.49-1.1-2.12-2.84.37-1.73,1.82-2.82,3.37-2.82s2.54,1.09,2.17,2.82c-.37,1.74-1.85,2.84-3.41,2.84ZM268.96,165.66c.95,0,2.02-.65,2.31-2.04.29-1.38-.48-2.03-1.42-2.03s-1.97.65-2.26,2.03c-.3,1.39.42,2.04,1.37,2.04Z"/>
        <path class="cls-12" d="M275.17,166.46c-1.56,0-2.48-1.1-2.11-2.84.37-1.73,1.71-2.82,3.31-2.82s2.39,1.12,2.07,2.62c-.04.2-.09.36-.15.55h-4.38c-.17,1.11.48,1.72,1.41,1.72.82,0,1.43-.42,1.75-1.01h.98c-.49,1-1.54,1.78-2.9,1.78ZM274.09,163.23h3.46c.24-1.07-.44-1.66-1.38-1.66-.89,0-1.76.59-2.08,1.66Z"/>
        <path class="cls-12" d="M280.94,166.46c-1.28,0-2.03-.7-1.88-1.7h.94c-.06.53.32.93,1.09.93.72,0,1.2-.36,1.29-.81.26-1.22-3.13-.51-2.7-2.55.18-.84,1.11-1.53,2.33-1.53s1.87.65,1.7,1.72h-.91c.08-.55-.26-.95-.99-.95-.67,0-1.14.32-1.23.76-.28,1.3,3.05.59,2.68,2.55-.19.9-1.12,1.58-2.33,1.58Z"/>
      </g>
      <g>
        <path class="cls-12" d="M55.74,166.47c-1.28,0-2.03-.7-1.88-1.7h.94c-.06.53.32.93,1.09.93.72,0,1.2-.36,1.29-.81.26-1.22-3.13-.51-2.7-2.55.18-.84,1.11-1.53,2.33-1.53s1.87.65,1.7,1.72h-.91c.08-.55-.26-.95-.99-.95-.67,0-1.14.32-1.23.76-.28,1.3,3.05.59,2.68,2.55-.19.9-1.12,1.58-2.33,1.58Z"/>
        <path class="cls-12" d="M60.24,161.65h-.71l.16-.75h.71l.29-1.38h.91l-.29,1.38h1.43l-.16.75h-1.43l-.69,3.23c-.11.54.04.73.6.73h.67l-.16.77h-.82c-.97,0-1.43-.4-1.2-1.5l.69-3.23Z"/>
        <path class="cls-12" d="M67.54,166.38h-.91l.17-.81c-.47.57-1.21.89-1.94.89-1.26,0-2.08-.78-1.75-2.35l.68-3.21h.9l-.66,3.09c-.24,1.11.25,1.68,1.17,1.68s1.69-.58,1.94-1.76l.64-3.01h.91l-1.17,5.48Z"/>
        <path class="cls-12" d="M72.53,160.81c.86,0,1.56.44,1.8,1.07l.62-2.9h.92l-1.57,7.4h-.92l.22-1.03c-.46.61-1.28,1.12-2.28,1.12-1.47,0-2.35-1.15-1.99-2.85.36-1.71,1.73-2.81,3.21-2.81ZM72.53,161.6c-1,0-2,.73-2.28,2.02-.27,1.29.41,2.05,1.41,2.05s2.02-.75,2.29-2.04c.27-1.27-.43-2.03-1.43-2.03Z"/>
        <path class="cls-12" d="M77,160.9h.91l-1.17,5.48h-.91l1.17-5.48ZM77.18,159.39c.07-.35.4-.62.75-.62.33,0,.54.27.47.62-.07.35-.4.62-.73.62-.35,0-.56-.27-.49-.62Z"/>
        <path class="cls-12" d="M80.65,166.47c-1.56,0-2.48-1.1-2.11-2.84.37-1.73,1.71-2.82,3.31-2.82s2.39,1.12,2.07,2.62c-.04.2-.09.36-.15.55h-4.38c-.17,1.11.48,1.72,1.41,1.72.82,0,1.43-.42,1.75-1.01h.98c-.49,1-1.54,1.78-2.9,1.78ZM79.57,163.24h3.46c.24-1.07-.44-1.66-1.38-1.66-.89,0-1.76.59-2.08,1.66Z"/>
        <path class="cls-12" d="M86.42,166.47c-1.28,0-2.03-.7-1.88-1.7h.94c-.06.53.32.93,1.09.93.72,0,1.2-.36,1.29-.81.26-1.22-3.13-.51-2.7-2.55.18-.84,1.11-1.53,2.33-1.53s1.87.65,1.7,1.72h-.91c.08-.55-.26-.95-.99-.95-.67,0-1.14.32-1.23.76-.28,1.3,3.05.59,2.68,2.55-.19.9-1.12,1.58-2.33,1.58Z"/>
      </g>
      <g>
        <path class="cls-12" d="M325.12,166.45c-1.4,0-2.22-.78-2-1.93h.97c-.06.58.22,1.16,1.19,1.16.88,0,1.51-.5,1.65-1.16.4-1.88-3.62-.68-3.07-3.27.24-1.15,1.34-1.93,2.72-1.93s2.04.73,1.93,1.79h-1c.04-.47-.29-1-1.13-1.01-.75-.02-1.42.37-1.58,1.12-.38,1.8,3.61.68,3.06,3.26-.21.99-1.23,1.97-2.74,1.97Z"/>
        <path class="cls-12" d="M332.24,160.81c1.02,0,1.61.52,1.81,1.09l.21-1h.92l-1.17,5.48h-.92l.22-1.02c-.46.59-1.28,1.11-2.28,1.11-1.46,0-2.34-1.15-1.98-2.85.36-1.71,1.73-2.81,3.2-2.81ZM332.25,161.6c-1,0-2,.73-2.28,2.02-.27,1.29.41,2.05,1.41,2.05s2.02-.75,2.29-2.04c.27-1.27-.43-2.03-1.43-2.03Z"/>
        <path class="cls-12" d="M337.13,158.98h.91l-1.57,7.4h-.91l1.57-7.4Z"/>
        <path class="cls-12" d="M339.59,158.98h.91l-1.57,7.4h-.91l1.57-7.4Z"/>
        <path class="cls-12" d="M345.42,160.9h.94l-5.01,8.06h-.94l1.64-2.64-1.06-5.42h1.01l.78,4.44,2.64-4.44Z"/>
      </g>
      <g>
        <path class="cls-12" d="M417.52,161.48c1.02,0,1.61.52,1.81,1.09l.21-1h.92l-1.17,5.48h-.92l.22-1.02c-.46.59-1.28,1.11-2.28,1.11-1.46,0-2.34-1.15-1.98-2.85.36-1.71,1.73-2.81,3.2-2.81ZM417.53,162.27c-1,0-2,.73-2.28,2.02-.27,1.29.41,2.05,1.41,2.05s2.02-.75,2.29-2.04c.27-1.27-.43-2.03-1.43-2.03Z"/>
        <path class="cls-12" d="M422.04,162.32h-.71l.16-.75h.71l.29-1.38h.91l-.29,1.38h1.43l-.16.75h-1.43l-.69,3.23c-.11.54.04.73.6.73h.67l-.16.77h-.82c-.97,0-1.43-.4-1.2-1.5l.69-3.23Z"/>
        <path class="cls-12" d="M428.35,162.32h-.71l.16-.75h.71l.29-1.38h.91l-.29,1.38h1.43l-.16.75h-1.43l-.69,3.23c-.11.54.04.73.6.73h.67l-.16.77h-.82c-.97,0-1.43-.4-1.2-1.5l.69-3.23Z"/>
        <path class="cls-12" d="M432.36,159.65h.91l-.58,2.71c.48-.58,1.23-.89,2-.89,1.22,0,2.02.78,1.69,2.35l-.69,3.23h-.9l.66-3.1c.24-1.12-.25-1.69-1.17-1.69s-1.69.58-1.94,1.76l-.64,3.03h-.91l1.57-7.4Z"/>
        <path class="cls-12" d="M439.54,167.14c-1.56,0-2.48-1.1-2.11-2.84.37-1.73,1.71-2.82,3.31-2.82s2.39,1.12,2.07,2.62c-.04.2-.09.36-.15.55h-4.38c-.17,1.11.48,1.72,1.41,1.72.82,0,1.43-.42,1.75-1.01h.98c-.49,1-1.54,1.78-2.9,1.78ZM438.45,163.91h3.46c.24-1.07-.44-1.66-1.38-1.66-.89,0-1.76.59-2.08,1.66Z"/>
        <path class="cls-12" d="M447.63,159.65h.91l-1.57,7.4h-.91l1.57-7.4Z"/>
        <path class="cls-12" d="M449.68,161.57h.91l-1.17,5.48h-.91l1.17-5.48ZM449.85,160.06c.07-.35.4-.62.75-.62.33,0,.54.27.47.62-.07.35-.4.62-.73.62-.35,0-.56-.27-.49-.62Z"/>
        <path class="cls-12" d="M455.12,161.48c1.48,0,2.36,1.1,2,2.81-.36,1.7-1.73,2.85-3.2,2.85-1,0-1.6-.5-1.81-1.1l-.21,1.01h-.91l1.57-7.4h.91l-.62,2.94c.48-.61,1.32-1.11,2.28-1.11ZM454.76,162.27c-.99,0-2.02.76-2.29,2.03-.27,1.29.44,2.04,1.43,2.04s2.02-.76,2.3-2.05c.27-1.29-.42-2.02-1.43-2.02Z"/>
        <path class="cls-12" d="M458.65,167.05h-.91l1.17-5.48h.91l-.19.89c.44-.61,1.11-.99,1.98-.99l-.2.94h-.24c-.87,0-1.61.39-1.88,1.66l-.63,2.98Z"/>
        <path class="cls-12" d="M464.91,161.48c1.02,0,1.61.52,1.81,1.09l.21-1h.92l-1.17,5.48h-.92l.22-1.02c-.46.59-1.28,1.11-2.28,1.11-1.46,0-2.34-1.15-1.98-2.85.36-1.71,1.73-2.81,3.2-2.81ZM464.92,162.27c-1,0-2,.73-2.28,2.02-.27,1.29.41,2.05,1.41,2.05s2.02-.75,2.29-2.04c.27-1.27-.43-2.03-1.43-2.03Z"/>
        <path class="cls-12" d="M469.14,167.05h-.91l1.17-5.48h.91l-.19.89c.44-.61,1.11-.99,1.98-.99l-.2.94h-.24c-.87,0-1.61.39-1.88,1.66l-.63,2.98Z"/>
        <path class="cls-12" d="M476.9,161.57h.94l-5.01,8.06h-.94l1.64-2.64-1.06-5.42h1.01l.78,4.44,2.64-4.44Z"/>
      </g>
      <g>
        <path class="cls-12" d="M499.94,161.86c.86,0,1.56.44,1.8,1.07l.62-2.9h.92l-1.57,7.4h-.92l.22-1.03c-.46.61-1.28,1.12-2.28,1.12-1.47,0-2.35-1.15-1.99-2.85.36-1.71,1.73-2.81,3.21-2.81ZM499.94,162.65c-1,0-2,.73-2.28,2.02-.27,1.29.41,2.05,1.41,2.05s2.02-.75,2.29-2.04c.27-1.27-.43-2.03-1.43-2.03Z"/>
        <path class="cls-12" d="M506.69,161.86c1.02,0,1.61.52,1.81,1.09l.21-1h.92l-1.17,5.48h-.92l.22-1.02c-.46.59-1.28,1.11-2.28,1.11-1.46,0-2.34-1.15-1.98-2.85.36-1.71,1.73-2.81,3.2-2.81ZM506.7,162.65c-1,0-2,.73-2.28,2.02-.27,1.29.41,2.05,1.41,2.05s2.02-.75,2.29-2.04c.27-1.27-.43-2.03-1.43-2.03Z"/>
        <path class="cls-12" d="M511.17,161.95h.91l-1.17,5.48h-.91l1.17-5.48ZM511.34,160.44c.07-.35.4-.62.75-.62.33,0,.54.27.47.62-.07.35-.4.62-.73.62-.35,0-.56-.27-.49-.62Z"/>
        <path class="cls-12" d="M514.04,160.03h.91l-1.57,7.4h-.91l1.57-7.4Z"/>
        <path class="cls-12" d="M519.87,161.95h.94l-5.01,8.06h-.94l1.64-2.64-1.06-5.42h1.01l.78,4.44,2.64-4.44Z"/>
        <path class="cls-12" d="M521.69,167.49c-.35,0-.56-.27-.49-.62.07-.35.4-.62.75-.62.33,0,.54.27.47.62-.07.35-.4.62-.73.62ZM523.84,160.37c1.31,0,2.04.79,1.77,2.06-.31,1.46-1.45,2.06-2.85,2.06l-.23.95h-.79l.3-1.58h.29c1.14,0,2.16-.22,2.41-1.43.17-.8-.24-1.3-1.05-1.3s-1.43.47-1.59,1.25h-.86c.25-1.21,1.3-2.01,2.61-2.01Z"/>
      </g>
      <g>
        <path class="cls-12" d="M117.69,166.48c-1.28,0-2.03-.7-1.88-1.7h.94c-.06.53.32.93,1.09.93.72,0,1.2-.36,1.29-.81.26-1.22-3.13-.51-2.7-2.55.18-.84,1.11-1.53,2.33-1.53s1.87.65,1.7,1.72h-.91c.08-.55-.26-.95-.99-.95-.67,0-1.14.32-1.23.76-.28,1.3,3.05.59,2.68,2.55-.19.9-1.12,1.58-2.33,1.58Z"/>
        <path class="cls-12" d="M124.5,160.82c1.36,0,2.1.7,2.14,1.85h-.98c-.05-.66-.51-1.08-1.32-1.08-1,0-1.89.71-2.18,2.05-.29,1.36.3,2.07,1.3,2.07.81,0,1.43-.39,1.78-1.08h.98c-.51,1.09-1.56,1.85-2.92,1.85-1.56,0-2.44-1.1-2.07-2.84.37-1.72,1.71-2.82,3.27-2.82Z"/>
        <path class="cls-12" d="M128.22,160.91h.91l-1.17,5.48h-.91l1.17-5.48ZM128.4,159.4c.07-.35.4-.62.75-.62.33,0,.54.27.47.62-.07.35-.4.62-.73.62-.35,0-.56-.27-.49-.62Z"/>
        <path class="cls-12" d="M131.87,166.48c-1.56,0-2.48-1.1-2.11-2.84.37-1.73,1.71-2.82,3.31-2.82s2.39,1.12,2.07,2.62c-.04.2-.09.36-.15.55h-4.38c-.17,1.11.48,1.72,1.41,1.72.82,0,1.43-.42,1.75-1.01h.98c-.49,1-1.54,1.78-2.9,1.78ZM130.79,163.25h3.46c.24-1.07-.44-1.66-1.38-1.66-.89,0-1.76.59-2.08,1.66Z"/>
        <path class="cls-12" d="M140.38,163.29c.24-1.12-.25-1.69-1.17-1.69s-1.69.58-1.94,1.76l-.64,3.03h-.91l1.17-5.48h.91l-.17.78c.48-.57,1.21-.88,1.95-.88,1.27,0,2.07.78,1.74,2.35l-.69,3.23h-.9l.66-3.1Z"/>
        <path class="cls-12" d="M145.63,160.82c1.36,0,2.1.7,2.14,1.85h-.98c-.05-.66-.51-1.08-1.32-1.08-1,0-1.89.71-2.18,2.05-.29,1.36.3,2.07,1.3,2.07.81,0,1.43-.39,1.78-1.08h.98c-.51,1.09-1.56,1.85-2.92,1.85-1.56,0-2.44-1.1-2.07-2.84.37-1.72,1.71-2.82,3.27-2.82Z"/>
        <path class="cls-12" d="M150.54,166.48c-1.56,0-2.48-1.1-2.11-2.84.37-1.73,1.71-2.82,3.31-2.82s2.39,1.12,2.07,2.62c-.04.2-.09.36-.15.55h-4.38c-.17,1.11.48,1.72,1.41,1.72.82,0,1.43-.42,1.75-1.01h.98c-.49,1-1.54,1.78-2.9,1.78ZM149.46,163.25h3.46c.24-1.07-.44-1.66-1.38-1.66-.89,0-1.76.59-2.08,1.66Z"/>
      </g>
      <g>
        <path class="cls-12" d="M371.36,167.48c-1.28,0-2.03-.7-1.88-1.7h.94c-.06.53.32.93,1.09.93.72,0,1.2-.36,1.29-.81.26-1.22-3.13-.51-2.7-2.55.18-.84,1.11-1.53,2.33-1.53s1.87.65,1.7,1.72h-.91c.08-.55-.26-.95-.99-.95-.67,0-1.14.32-1.23.76-.28,1.3,3.05.59,2.68,2.55-.19.9-1.12,1.58-2.33,1.58Z"/>
        <path class="cls-12" d="M375.86,162.66h-.71l.16-.75h.71l.29-1.38h.91l-.29,1.38h1.43l-.16.75h-1.43l-.69,3.23c-.11.54.05.73.6.73h.67l-.16.77h-.82c-.97,0-1.43-.4-1.2-1.5l.69-3.23Z"/>
        <path class="cls-12" d="M383.15,167.39h-.91l.17-.81c-.47.57-1.21.89-1.94.89-1.26,0-2.08-.78-1.75-2.35l.68-3.21h.9l-.66,3.09c-.24,1.11.25,1.68,1.17,1.68s1.69-.58,1.94-1.76l.64-3.01h.91l-1.17,5.48Z"/>
        <path class="cls-12" d="M388.15,161.82c.86,0,1.56.44,1.8,1.07l.62-2.9h.92l-1.57,7.4h-.92l.22-1.03c-.46.61-1.28,1.12-2.28,1.12-1.47,0-2.35-1.15-1.99-2.85.36-1.71,1.73-2.81,3.21-2.81ZM388.15,162.61c-1,0-2,.73-2.28,2.02s.41,2.05,1.41,2.05,2.02-.75,2.29-2.04c.27-1.27-.43-2.03-1.43-2.03Z"/>
        <path class="cls-12" d="M396.4,161.91h.94l-5.01,8.06h-.94l1.64-2.64-1.06-5.42h1.01l.78,4.44,2.64-4.44Z"/>
      </g>
      <g>
        <path class="cls-12" d="M195.34,160.82c.86,0,1.56.44,1.8,1.07l.62-2.9h.92l-1.57,7.4h-.92l.22-1.03c-.46.61-1.28,1.12-2.28,1.12-1.47,0-2.35-1.15-1.99-2.85.36-1.71,1.73-2.81,3.21-2.81ZM195.34,161.61c-1,0-2,.73-2.28,2.02-.27,1.29.41,2.05,1.41,2.05s2.02-.75,2.29-2.04c.27-1.27-.43-2.03-1.43-2.03Z"/>
        <path class="cls-12" d="M202.09,160.82c1.02,0,1.61.52,1.81,1.09l.21-1h.92l-1.17,5.48h-.92l.22-1.02c-.46.59-1.28,1.11-2.28,1.11-1.46,0-2.34-1.15-1.98-2.85.36-1.71,1.73-2.81,3.2-2.81ZM202.1,161.61c-1,0-2,.73-2.28,2.02-.27,1.29.41,2.05,1.41,2.05s2.02-.75,2.29-2.04c.27-1.27-.43-2.03-1.43-2.03Z"/>
        <path class="cls-12" d="M206.57,160.91h.91l-1.17,5.48h-.91l1.17-5.48ZM206.74,159.4c.07-.35.4-.62.75-.62.33,0,.54.27.47.62-.07.35-.4.62-.73.62-.35,0-.56-.27-.49-.62Z"/>
        <path class="cls-12" d="M209.44,158.99h.91l-1.57,7.4h-.91l1.57-7.4Z"/>
        <path class="cls-12" d="M215.27,160.91h.94l-5.01,8.06h-.94l1.64-2.64-1.06-5.42h1.01l.78,4.44,2.64-4.44Z"/>
        <path class="cls-12" d="M216.23,166.45c-.35,0-.56-.27-.49-.62.07-.35.4-.62.75-.62.33,0,.54.27.47.62-.07.35-.4.62-.73.62Z"/>
      </g>
    </g>
    <g>
      <path class="cls-12" d="M104.98,137.59c1.36,0,2.25.7,2.53,1.85h-.98c-.19-.66-.74-1.08-1.55-1.08-1,0-1.74.71-1.74,2.05s.74,2.07,1.74,2.07c.81,0,1.35-.39,1.55-1.08h.98c-.28,1.09-1.17,1.85-2.53,1.85-1.56,0-2.67-1.1-2.67-2.84s1.11-2.82,2.67-2.82Z"/>
      <path class="cls-12" d="M111.11,143.25c-1.55,0-2.73-1.1-2.73-2.84s1.22-2.82,2.77-2.82,2.77,1.09,2.77,2.82-1.25,2.84-2.81,2.84ZM111.11,142.45c.95,0,1.88-.65,1.88-2.04s-.91-2.03-1.85-2.03-1.83.65-1.83,2.03.85,2.04,1.8,2.04Z"/>
      <path class="cls-12" d="M123.03,140.06c0-1.12-.6-1.69-1.5-1.69s-1.55.59-1.55,1.77v3.02h-.9v-3.1c0-1.12-.6-1.69-1.5-1.69s-1.55.59-1.55,1.77v3.02h-.91v-5.48h.91v.79c.36-.58,1.01-.89,1.73-.89.9,0,1.65.4,2.01,1.22.32-.79,1.1-1.22,1.94-1.22,1.25,0,2.22.78,2.22,2.35v3.23h-.9v-3.1Z"/>
      <path class="cls-12" d="M128.38,137.59c1.47,0,2.6,1.1,2.6,2.81s-1.13,2.85-2.6,2.85c-1,0-1.71-.54-2.05-1.1v3.61h-.91v-8.08h.91v1.01c.33-.58,1.05-1.1,2.05-1.1ZM128.19,138.38c-.99,0-1.86.76-1.86,2.03s.87,2.04,1.86,2.04,1.86-.76,1.86-2.05-.85-2.02-1.86-2.02Z"/>
      <path class="cls-12" d="M132.18,135.76h.91v7.4h-.91v-7.4Z"/>
      <path class="cls-12" d="M137.01,143.25c-1.56,0-2.71-1.1-2.71-2.84s1.11-2.82,2.71-2.82,2.63,1.12,2.63,2.62c0,.2,0,.36-.03.55h-4.38c.07,1.11.85,1.72,1.78,1.72.82,0,1.34-.42,1.54-1.01h.98c-.28,1-1.16,1.78-2.52,1.78ZM135.24,140.02h3.46c.01-1.07-.79-1.66-1.73-1.66-.89,0-1.63.59-1.73,1.66Z"/>
      <path class="cls-12" d="M148.75,140.06c0-1.12-.6-1.69-1.5-1.69s-1.55.59-1.55,1.77v3.02h-.9v-3.1c0-1.12-.6-1.69-1.5-1.69s-1.55.59-1.55,1.77v3.02h-.91v-5.48h.91v.79c.36-.58,1.01-.89,1.73-.89.9,0,1.65.4,2.01,1.22.32-.79,1.1-1.22,1.94-1.22,1.25,0,2.22.78,2.22,2.35v3.23h-.9v-3.1Z"/>
      <path class="cls-12" d="M153.51,143.25c-1.56,0-2.71-1.1-2.71-2.84s1.11-2.82,2.71-2.82,2.63,1.12,2.63,2.62c0,.2,0,.36-.03.55h-4.38c.07,1.11.85,1.72,1.78,1.72.82,0,1.34-.42,1.54-1.01h.98c-.28,1-1.16,1.78-2.52,1.78ZM151.74,140.02h3.46c.01-1.07-.79-1.66-1.73-1.66-.89,0-1.63.59-1.73,1.66Z"/>
      <path class="cls-12" d="M161.35,140.06c0-1.12-.61-1.69-1.53-1.69s-1.57.58-1.57,1.76v3.03h-.91v-5.48h.91v.78c.36-.57,1.02-.88,1.76-.88,1.27,0,2.24.78,2.24,2.35v3.23h-.9v-3.1Z"/>
      <path class="cls-12" d="M163.94,138.43h-.71v-.75h.71v-1.38h.91v1.38h1.43v.75h-1.43v3.23c0,.54.2.73.76.73h.67v.77h-.82c-.97,0-1.52-.4-1.52-1.5v-3.23Z"/>
    </g>
    <g class="cls-2">
      <line class="cls-11" y1="68.02" x2="535.47" y2="68.02"/>
    </g>
  </g>
</svg>