<?xml version="1.0" encoding="UTF-8"?>
<svg id="Layer_2" data-name="Layer 2" xmlns="http://www.w3.org/2000/svg" viewBox="0 0 538.38 176.31">
  <defs>
    <style>
      .cls-1 {
        fill: #6d2a7f;
      }

      .cls-2 {
        fill: #8d619a;
      }

      .cls-3 {
        stroke-dasharray: 3.88 3.88;
      }

      .cls-3, .cls-4, .cls-5, .cls-6, .cls-7, .cls-8 {
        fill: none;
        stroke: #2a5caa;
        stroke-miterlimit: 10;
        stroke-width: .75px;
      }

      .cls-9 {
        font-size: 10px;
      }

      .cls-9, .cls-10, .cls-11, .cls-12 {
        fill: #231f20;
      }

      .cls-9, .cls-11, .cls-12 {
        font-family: PoppinsRegularEdited, 'Poppins Regular Edited';
      }

      .cls-11 {
        font-size: 10.22px;
      }

      .cls-4 {
        stroke-dasharray: 3.96 3.96;
      }

      .cls-13 {
        fill: #fff;
      }

      .cls-5 {
        stroke-dasharray: 4.07 4.07;
      }

      .cls-12 {
        font-size: 9.3px;
      }

      .cls-6 {
        stroke-dasharray: 3.87 3.87;
      }

      .cls-14 {
        fill: #b499bd;
      }

      .cls-7 {
        stroke-dasharray: 3.95 3.95;
      }
    </style>
  </defs>
  <g id="Layer_1-2" data-name="Layer 1">
    <g>
      <path class="cls-1" d="M538.38,164.15c0,6.71-1.88,12.15-4.2,12.15H6.43c-2.32,0-4.2-5.44-4.2-12.15V17.76C2.23,11.05,4.11,0,6.43,0h527.76c2.32,0,4.2,11.05,4.2,17.76v146.39Z"/>
      <path class="cls-13" d="M535.5,110.39c0,4.36-1.91,9.89-4.27,9.89H4.44c-2.36,0-4.27-5.53-4.27-9.89V14.44c0-4.36,1.91-7.89,4.27-7.89h526.79c2.36,0,4.27,3.53,4.27,7.89v95.95Z"/>
      <path class="cls-14" d="M535.47,51.05c0,.82-1.88,1.48-4.19,1.48H4.21C1.89,52.52.01,51.86.01,51.05v-28.96c0-.81,1.88-1.47,4.19-1.47h527.07c2.32,0,4.19.66,4.19,1.47v28.96Z"/>
      <path class="cls-2" d="M535.75,21.5c0,.62-1.88,1.12-4.2,1.12H4.21C1.89,22.61.01,22.11.01,21.5V1.12C.01.5,1.89,0,4.21,0h527.35c2.32,0,4.2.5,4.2,1.11v20.38Z"/>
    </g>
    <g>
      <path class="cls-13" d="M211.2,13.84l1.37,2.22h-2.48l-.77-1.45c-.31.06-.63.1-.96.1-2.39,0-3.95-1.79-3.41-4.32.54-2.53,2.86-4.31,5.25-4.31s3.93,1.78,3.39,4.31c-.31,1.48-1.22,2.69-2.39,3.46ZM208.77,12.84c1.34,0,2.43-.97,2.74-2.45.32-1.5-.36-2.45-1.7-2.45s-2.43.95-2.75,2.45c-.31,1.48.34,2.45,1.71,2.45Z"/>
      <path class="cls-13" d="M220.36,14.62h-2.05l.19-.91c-.53.58-1.34.98-2.24.98-1.55,0-2.36-1.07-1.98-2.85l.83-3.91h2.04l-.77,3.64c-.19.91.21,1.42.98,1.42s1.4-.5,1.6-1.42l.77-3.64h2.05l-1.42,6.7Z"/>
      <path class="cls-13" d="M224.67,14.72c-1.97,0-3.1-1.32-2.65-3.44.45-2.12,2.12-3.44,4.11-3.44s3.06,1.3,2.62,3.34c-.04.19-.1.4-.16.6h-4.64c-.11.88.34,1.28,1,1.28.58,0,.96-.29,1.21-.65h2.18c-.6,1.31-2,2.32-3.67,2.32ZM224.21,10.63h2.57c.16-.73-.33-1.15-1.01-1.15s-1.27.41-1.55,1.15Z"/>
      <path class="cls-13" d="M231.71,14.72c-1.79,0-2.77-1-2.59-2.29h2.03c-.05.47.3.78.87.78.53,0,.85-.24.92-.54.23-1.08-3.58-.3-3.06-2.76.24-1.14,1.41-2.08,3.16-2.08s2.48.96,2.33,2.28h-1.89c.04-.46-.25-.76-.82-.76-.48,0-.78.19-.85.52-.23,1.07,3.56.31,3.06,2.81-.25,1.16-1.46,2.04-3.14,2.04Z"/>
      <path class="cls-13" d="M236.98,9.63h-.82l.36-1.7h.82l.35-1.63h2.05l-.35,1.63h1.34l-.36,1.7h-1.34l-.57,2.69c-.08.4.05.56.5.56h.73l-.37,1.74h-1.04c-1.39,0-2.24-.59-1.87-2.33l.57-2.66Z"/>
      <path class="cls-13" d="M241.78,7.93h2.05l-1.42,6.7h-2.05l1.42-6.7ZM241.97,6.13c.13-.62.73-1.12,1.46-1.12s1.11.49.97,1.12c-.13.61-.73,1.1-1.45,1.1s-1.12-.49-.99-1.1Z"/>
      <path class="cls-13" d="M246.8,14.72c-1.97,0-3.17-1.32-2.72-3.44.45-2.12,2.25-3.44,4.21-3.44s3.2,1.32,2.75,3.44c-.45,2.12-2.27,3.44-4.23,3.44ZM247.18,12.94c.73,0,1.53-.54,1.77-1.67.24-1.14-.32-1.67-1.04-1.67s-1.5.53-1.75,1.67c-.24,1.13.27,1.67,1.01,1.67Z"/>
      <path class="cls-13" d="M256.69,10.99c.19-.91-.2-1.42-.98-1.42s-1.39.5-1.58,1.42l-.77,3.64h-2.05l1.42-6.7h2.05l-.19.89c.53-.56,1.33-.96,2.23-.96,1.55,0,2.35,1.06,1.97,2.86l-.83,3.91h-2.04l.77-3.64Z"/>
      <path class="cls-13" d="M261.98,14.72c-1.79,0-2.77-1-2.59-2.29h2.03c-.05.47.3.78.87.78.53,0,.85-.24.92-.54.23-1.08-3.58-.3-3.06-2.76.24-1.14,1.41-2.08,3.16-2.08s2.48.96,2.33,2.28h-1.89c.04-.46-.25-.76-.82-.76-.48,0-.78.19-.85.52-.23,1.07,3.56.31,3.06,2.81-.25,1.16-1.46,2.04-3.14,2.04Z"/>
      <path class="cls-13" d="M269.65,6.2h2.2l-.09,6.13,2.8-6.13h2.25l.14,6.13,2.53-6.13h2.21l-3.98,8.42h-2.48l-.16-5.54-2.57,5.54h-2.48l-.34-8.42Z"/>
      <path class="cls-13" d="M282.24,7.93h2.05l-1.42,6.7h-2.05l1.42-6.7ZM282.43,6.13c.13-.62.73-1.12,1.46-1.12s1.11.49.97,1.12c-.13.61-.73,1.1-1.45,1.1s-1.12-.49-.99-1.1Z"/>
      <path class="cls-13" d="M285.64,9.63h-.82l.36-1.7h.82l.35-1.63h2.05l-.35,1.63h1.34l-.36,1.7h-1.34l-.57,2.69c-.08.4.05.56.5.56h.73l-.37,1.74h-1.04c-1.39,0-2.24-.59-1.87-2.33l.57-2.66Z"/>
      <path class="cls-13" d="M290.9,5.75h2.05l-.66,3.08c.53-.58,1.35-.97,2.27-.97,1.52,0,2.32,1.06,1.94,2.86l-.83,3.91h-2.04l.77-3.64c.19-.91-.2-1.42-.98-1.42s-1.39.5-1.58,1.42l-.77,3.64h-2.05l1.89-8.88Z"/>
      <path class="cls-13" d="M301.21,5.02h1.69l-.72,2.65h-1.38l.41-2.65ZM303.49,5.02h1.69l-.72,2.65h-1.38l.41-2.65Z"/>
      <path class="cls-13" d="M310.22,11.16h-3.19l-.74,3.47h-2.05l1.79-8.42h2.05l-.7,3.3h3.19l.7-3.3h2.05l-1.79,8.42h-2.05l.74-3.47Z"/>
      <path class="cls-13" d="M315.93,14.72c-1.97,0-3.17-1.32-2.72-3.44.45-2.12,2.25-3.44,4.21-3.44s3.2,1.32,2.75,3.44c-.45,2.12-2.27,3.44-4.23,3.44ZM316.31,12.94c.73,0,1.53-.54,1.77-1.67.24-1.14-.32-1.67-1.04-1.67s-1.5.53-1.75,1.67c-.24,1.13.27,1.67,1.01,1.67Z"/>
      <path class="cls-13" d="M321.17,7.93h2.05l-.07,4.79,2.15-4.79h2.17l.13,4.76,1.95-4.76h1.93l-3.23,6.7h-2.27l-.13-4.34-2.01,4.34h-2.25l-.4-6.7Z"/>
      <path class="cls-13" d="M332.49,5.02h1.69l-.72,2.65h-1.38l.41-2.65ZM334.77,5.02h1.69l-.72,2.65h-1.38l.41-2.65Z"/>
    </g>
    <g>
      <path class="cls-10" d="M16.13,27.75h.97l1.52,5.91,1.68-5.91h1.02l1.6,5.89,1.53-5.89h.98l-2.02,6.97h-1.02l-1.62-5.61-1.68,5.61h-1.01s-1.95-6.97-1.95-6.97Z"/>
      <path class="cls-10" d="M30.89,31.56h-3.55v3.16h-.91v-6.97h.91v3.06h3.55v-3.06h.91v6.97h-.91v-3.16Z"/>
      <path class="cls-10" d="M33.15,30.67h3.99v.77h-3.99v-.77Z"/>
    </g>
    <text class="cls-9" transform="translate(38.08 34.71)"><tspan x="0" y="0"> </tspan></text>
    <g>
      <path class="cls-10" d="M14.57,41.24h.93l1.26,4.6,1.36-4.6h.93l1.33,4.61,1.24-4.61h.9l-1.71,5.48h-.94l-1.32-4.35-1.32,4.35h-.94l-1.72-5.48Z"/>
      <path class="cls-10" d="M25.81,46.8c-1.55,0-2.73-1.1-2.73-2.84s1.22-2.82,2.77-2.82,2.77,1.09,2.77,2.82-1.25,2.84-2.81,2.84ZM25.81,46c.95,0,1.88-.65,1.88-2.04s-.91-2.03-1.85-2.03-1.83.65-1.83,2.03.85,2.04,1.8,2.04Z"/>
      <path class="cls-10" d="M30.73,46.71h-.91v-5.48h.91v.89c.31-.61.9-.99,1.77-.99v.94h-.24c-.87,0-1.53.39-1.53,1.66v2.98Z"/>
      <path class="cls-10" d="M35.82,41.15c.86,0,1.65.44,2.03,1.07v-2.9h.92v7.4h-.92v-1.03c-.33.61-1.04,1.12-2.04,1.12-1.47,0-2.6-1.15-2.6-2.85s1.13-2.81,2.61-2.81ZM35.99,41.94c-1,0-1.85.73-1.85,2.02s.85,2.05,1.85,2.05,1.86-.75,1.86-2.04-.86-2.03-1.86-2.03Z"/>
    </g>
    <g>
      <path class="cls-10" d="M258.21,28.48h.97l1.52,5.91,1.68-5.91h1.02l1.6,5.89,1.53-5.89h.98l-2.02,6.97h-1.02l-1.62-5.61-1.68,5.61h-1.01s-1.95-6.97-1.95-6.97Z"/>
      <path class="cls-10" d="M272.97,32.29h-3.55v3.16h-.91v-6.97h.91v3.06h3.55v-3.06h.91v6.97h-.91v-3.16Z"/>
      <path class="cls-10" d="M275.23,31.4h3.99v.77h-3.99v-.77Z"/>
    </g>
    <text class="cls-9" transform="translate(280.16 35.45)"><tspan x="0" y="0"> </tspan></text>
    <g>
      <path class="cls-10" d="M256.65,41.97h.93l1.26,4.6,1.36-4.6h.93l1.33,4.61,1.24-4.61h.9l-1.71,5.48h-.94l-1.32-4.35-1.32,4.35h-.94l-1.72-5.48Z"/>
      <path class="cls-10" d="M267.89,47.53c-1.55,0-2.73-1.1-2.73-2.84s1.22-2.82,2.77-2.82,2.77,1.09,2.77,2.82-1.25,2.84-2.81,2.84ZM267.89,46.74c.95,0,1.88-.65,1.88-2.04s-.91-2.03-1.85-2.03-1.83.65-1.83,2.03.85,2.04,1.8,2.04Z"/>
      <path class="cls-10" d="M272.81,47.44h-.91v-5.48h.91v.89c.31-.61.9-.99,1.77-.99v.94h-.24c-.87,0-1.53.39-1.53,1.66v2.98Z"/>
      <path class="cls-10" d="M277.9,41.88c.86,0,1.65.44,2.03,1.07v-2.9h.92v7.4h-.92v-1.03c-.33.61-1.04,1.12-2.04,1.12-1.47,0-2.6-1.15-2.6-2.85s1.13-2.81,2.61-2.81ZM278.07,42.67c-1,0-1.85.73-1.85,2.02s.85,2.05,1.85,2.05,1.86-.75,1.86-2.04-.86-2.03-1.86-2.03Z"/>
    </g>
    <g>
      <path class="cls-10" d="M305.55,27.63h.91v2.71c.36-.58,1.04-.89,1.81-.89,1.22,0,2.19.78,2.19,2.35v3.23h-.9v-3.1c0-1.12-.61-1.69-1.53-1.69s-1.57.58-1.57,1.76v3.03h-.91v-7.4Z"/>
      <path class="cls-10" d="M314.32,35.11c-1.56,0-2.71-1.1-2.71-2.84s1.11-2.82,2.71-2.82,2.63,1.12,2.63,2.62c0,.2,0,.36-.03.55h-4.38c.07,1.11.85,1.72,1.78,1.72.82,0,1.34-.42,1.54-1.01h.98c-.28,1-1.16,1.78-2.52,1.78ZM312.55,31.89h3.46c0-1.07-.79-1.66-1.73-1.66-.89,0-1.63.59-1.73,1.66Z"/>
      <path class="cls-10" d="M318.15,27.63h.91v7.4h-.91v-7.4Z"/>
      <path class="cls-10" d="M323.57,29.46c1.47,0,2.6,1.1,2.6,2.81s-1.13,2.85-2.6,2.85c-1,0-1.71-.54-2.05-1.1v3.61h-.91v-8.08h.91v1.01c.33-.58,1.05-1.1,2.05-1.1ZM323.38,30.25c-.99,0-1.86.76-1.86,2.03s.87,2.04,1.86,2.04,1.86-.76,1.86-2.05-.85-2.02-1.86-2.02Z"/>
      <path class="cls-10" d="M327.22,28.04c0-.35.27-.62.62-.62.33,0,.6.27.6.62s-.27.62-.6.62c-.35,0-.62-.27-.62-.62ZM327.37,29.55h.91v5.48h-.91v-5.48Z"/>
      <path class="cls-10" d="M333.84,31.93c0-1.12-.61-1.69-1.53-1.69s-1.57.58-1.57,1.76v3.03h-.91v-5.48h.91v.78c.36-.57,1.02-.88,1.76-.88,1.27,0,2.24.78,2.24,2.35v3.23h-.9v-3.1Z"/>
      <path class="cls-10" d="M338.49,29.46c1,0,1.72.5,2.04,1.09v-1h.92v5.6c0,1.51-1.01,2.58-2.62,2.58-1.44,0-2.47-.73-2.65-1.9h.9c.2.66.85,1.11,1.75,1.11.97,0,1.7-.62,1.7-1.79v-1.15c-.33.59-1.04,1.12-2.04,1.12-1.47,0-2.6-1.15-2.6-2.85s1.13-2.81,2.6-2.81ZM338.67,30.25c-1,0-1.85.73-1.85,2.02s.85,2.05,1.85,2.05,1.86-.75,1.86-2.04-.86-2.03-1.86-2.03Z"/>
    </g>
    <g>
      <path class="cls-10" d="M313.45,41.55l1.71,4.64,1.7-4.64h.97l-2.15,5.48h-1.06l-2.15-5.48h.98Z"/>
      <path class="cls-10" d="M321.1,47.11c-1.56,0-2.71-1.1-2.71-2.84s1.11-2.82,2.71-2.82,2.63,1.12,2.63,2.62c0,.2,0,.36-.03.55h-4.38c.07,1.11.85,1.72,1.78,1.72.82,0,1.34-.42,1.54-1.01h.98c-.28,1-1.16,1.78-2.52,1.78ZM319.33,43.89h3.46c.01-1.07-.79-1.66-1.73-1.66-.89,0-1.63.59-1.73,1.66Z"/>
      <path class="cls-10" d="M325.84,47.02h-.91v-5.48h.91v.89c.31-.61.9-.99,1.77-.99v.94h-.24c-.87,0-1.53.39-1.53,1.66v2.98Z"/>
      <path class="cls-10" d="M331.62,41.46c1.48,0,2.6,1.1,2.6,2.81s-1.13,2.85-2.6,2.85c-1,0-1.71-.5-2.05-1.1v1.01h-.91v-7.4h.91v2.94c.35-.61,1.08-1.11,2.05-1.11ZM331.43,42.25c-.99,0-1.86.76-1.86,2.03s.87,2.04,1.86,2.04,1.86-.76,1.86-2.05-.85-2.02-1.86-2.02Z"/>
    </g>
    <g>
      <path class="cls-10" d="M61.5,36.22c1.02,0,1.72.52,2.04,1.09v-1h.92v5.48h-.92v-1.02c-.33.59-1.04,1.11-2.05,1.11-1.46,0-2.59-1.15-2.59-2.85s1.13-2.81,2.6-2.81ZM61.68,37.01c-1,0-1.85.73-1.85,2.02s.85,2.05,1.85,2.05,1.86-.75,1.86-2.04-.86-2.03-1.86-2.03Z"/>
      <path class="cls-10" d="M68.27,36.22c.86,0,1.65.44,2.03,1.07v-2.9h.92v7.4h-.92v-1.03c-.33.61-1.04,1.12-2.04,1.12-1.47,0-2.6-1.15-2.6-2.85s1.13-2.81,2.61-2.81ZM68.44,37.01c-1,0-1.85.73-1.85,2.02s.85,2.05,1.85,2.05,1.86-.75,1.86-2.04-.86-2.03-1.86-2.03Z"/>
      <path class="cls-10" d="M73.7,36.31v6.67c0,.99-.52,1.41-1.45,1.41h-.53v-.77h.38c.5,0,.69-.18.69-.66v-6.65h.91ZM72.64,34.8c0-.35.27-.62.61-.62s.61.27.61.62-.27.62-.61.62-.61-.27-.61-.62Z"/>
      <path class="cls-10" d="M77.61,41.87c-1.56,0-2.71-1.1-2.71-2.84s1.11-2.82,2.71-2.82,2.63,1.12,2.63,2.62c0,.2,0,.36-.03.55h-4.38c.07,1.11.85,1.72,1.78,1.72.82,0,1.34-.42,1.54-1.01h.98c-.28,1-1.16,1.78-2.52,1.78ZM75.84,38.65h3.46c.01-1.07-.79-1.66-1.73-1.66-.89,0-1.63.59-1.73,1.66Z"/>
      <path class="cls-10" d="M83.77,36.22c1.36,0,2.25.7,2.53,1.85h-.98c-.19-.66-.74-1.08-1.55-1.08-1,0-1.74.71-1.74,2.05s.74,2.07,1.74,2.07c.81,0,1.35-.39,1.55-1.08h.98c-.28,1.09-1.17,1.85-2.53,1.85-1.56,0-2.67-1.1-2.67-2.84s1.11-2.82,2.67-2.82Z"/>
      <path class="cls-10" d="M87.71,37.06h-.71v-.75h.71v-1.38h.91v1.38h1.43v.75h-1.43v3.23c0,.54.2.73.76.73h.67v.77h-.82c-.97,0-1.52-.4-1.52-1.5v-3.23Z"/>
      <path class="cls-10" d="M91,34.8c0-.35.27-.62.62-.62.33,0,.6.27.6.62s-.27.62-.6.62c-.35,0-.62-.27-.62-.62ZM91.15,36.31h.91v5.48h-.91v-5.48Z"/>
      <path class="cls-10" d="M93.94,36.31l1.71,4.64,1.7-4.64h.97l-2.15,5.48h-1.06l-2.15-5.48h.98Z"/>
      <path class="cls-10" d="M101.59,41.87c-1.56,0-2.71-1.1-2.71-2.84s1.11-2.82,2.71-2.82,2.63,1.12,2.63,2.62c0,.2,0,.36-.03.55h-4.38c.07,1.11.85,1.72,1.78,1.72.82,0,1.34-.42,1.54-1.01h.98c-.28,1-1.16,1.78-2.52,1.78ZM99.82,38.65h3.46c.01-1.07-.79-1.66-1.73-1.66-.89,0-1.63.59-1.73,1.66Z"/>
    </g>
    <g>
      <path class="cls-10" d="M188.08,30.93c0-1.12-.61-1.69-1.53-1.69s-1.57.58-1.57,1.76v3.03h-.91v-5.48h.91v.78c.36-.57,1.02-.88,1.76-.88,1.27,0,2.24.78,2.24,2.35v3.23h-.9v-3.1Z"/>
      <path class="cls-10" d="M192.86,34.11c-1.55,0-2.73-1.1-2.73-2.84s1.22-2.82,2.77-2.82,2.77,1.09,2.77,2.82-1.25,2.84-2.81,2.84ZM192.86,33.31c.95,0,1.88-.65,1.88-2.04s-.91-2.03-1.85-2.03-1.83.65-1.83,2.03.85,2.04,1.8,2.04Z"/>
      <path class="cls-10" d="M201.73,34.02h-.91v-.81c-.35.57-1.02.89-1.75.89-1.26,0-2.25-.78-2.25-2.35v-3.21h.9v3.09c0,1.11.61,1.68,1.53,1.68s1.57-.58,1.57-1.76v-3.01h.91v5.48Z"/>
      <path class="cls-10" d="M207.28,30.93c0-1.12-.61-1.69-1.53-1.69s-1.57.58-1.57,1.76v3.03h-.91v-5.48h.91v.78c.36-.57,1.02-.88,1.76-.88,1.27,0,2.24.78,2.24,2.35v3.23h-.9v-3.1Z"/>
      <path class="cls-10" d="M212.16,24.61h.91l-2.74,11.11h-.9l2.73-11.11Z"/>
    </g>
    <text class="cls-9" transform="translate(213.66 34.02)"><tspan x="0" y="0"> </tspan></text>
    <g>
      <path class="cls-10" d="M166.6,40.46c1.36,0,2.25.7,2.53,1.85h-.98c-.19-.66-.74-1.08-1.55-1.08-1,0-1.74.71-1.74,2.05s.74,2.07,1.74,2.07c.81,0,1.35-.39,1.55-1.08h.98c-.28,1.09-1.17,1.85-2.53,1.85-1.56,0-2.67-1.1-2.67-2.84s1.11-2.82,2.67-2.82Z"/>
      <path class="cls-10" d="M172.73,46.11c-1.55,0-2.73-1.1-2.73-2.84s1.22-2.82,2.77-2.82,2.77,1.09,2.77,2.82-1.25,2.84-2.81,2.84ZM172.73,45.31c.95,0,1.88-.65,1.88-2.04s-.91-2.03-1.85-2.03-1.83.65-1.83,2.03.85,2.04,1.8,2.04Z"/>
      <path class="cls-10" d="M184.64,42.93c0-1.12-.6-1.69-1.5-1.69s-1.55.59-1.55,1.77v3.02h-.9v-3.1c0-1.12-.6-1.69-1.5-1.69s-1.55.59-1.55,1.77v3.02h-.91v-5.48h.91v.79c.36-.58,1.01-.89,1.73-.89.9,0,1.65.4,2.01,1.22.32-.79,1.1-1.22,1.94-1.22,1.25,0,2.22.78,2.22,2.35v3.23h-.9v-3.1Z"/>
      <path class="cls-10" d="M190,40.46c1.47,0,2.6,1.1,2.6,2.81s-1.13,2.85-2.6,2.85c-1,0-1.71-.54-2.05-1.1v3.61h-.91v-8.08h.91v1.01c.33-.58,1.05-1.1,2.05-1.1ZM189.81,41.25c-.99,0-1.86.76-1.86,2.03s.87,2.04,1.86,2.04,1.86-.76,1.86-2.05-.85-2.02-1.86-2.02Z"/>
      <path class="cls-10" d="M193.8,38.63h.91v7.4h-.91v-7.4Z"/>
      <path class="cls-10" d="M198.63,46.11c-1.56,0-2.71-1.1-2.71-2.84s1.11-2.82,2.71-2.82,2.63,1.12,2.63,2.62c0,.2,0,.36-.03.55h-4.38c.07,1.11.85,1.72,1.78,1.72.82,0,1.34-.42,1.54-1.01h.98c-.28,1-1.16,1.78-2.52,1.78ZM196.86,42.89h3.46c.01-1.07-.79-1.66-1.73-1.66-.89,0-1.63.59-1.73,1.66Z"/>
      <path class="cls-10" d="M210.36,42.93c0-1.12-.6-1.69-1.5-1.69s-1.55.59-1.55,1.77v3.02h-.9v-3.1c0-1.12-.6-1.69-1.5-1.69s-1.55.59-1.55,1.77v3.02h-.91v-5.48h.91v.79c.36-.58,1.01-.89,1.73-.89.9,0,1.65.4,2.01,1.22.32-.79,1.1-1.22,1.94-1.22,1.25,0,2.22.78,2.22,2.35v3.23h-.9v-3.1Z"/>
      <path class="cls-10" d="M215.13,46.11c-1.56,0-2.71-1.1-2.71-2.84s1.11-2.82,2.71-2.82,2.63,1.12,2.63,2.62c0,.2,0,.36-.03.55h-4.38c.07,1.11.85,1.72,1.78,1.72.82,0,1.34-.42,1.54-1.01h.98c-.28,1-1.16,1.78-2.52,1.78ZM213.36,42.89h3.46c.01-1.07-.79-1.66-1.73-1.66-.89,0-1.63.59-1.73,1.66Z"/>
      <path class="cls-10" d="M222.97,42.93c0-1.12-.61-1.69-1.53-1.69s-1.57.58-1.57,1.76v3.03h-.91v-5.48h.91v.78c.36-.57,1.02-.88,1.76-.88,1.27,0,2.24.78,2.24,2.35v3.23h-.9v-3.1Z"/>
      <path class="cls-10" d="M225.56,41.3h-.71v-.75h.71v-1.38h.91v1.38h1.43v.75h-1.43v3.23c0,.54.2.73.76.73h.67v.77h-.82c-.97,0-1.52-.4-1.52-1.5v-3.23Z"/>
      <path class="cls-10" d="M230.78,38.97c1.31,0,2.21.79,2.21,2.06,0,1.46-1.01,2.06-2.41,2.06l-.03.95h-.79l-.04-1.58h.29c1.14,0,2.11-.22,2.11-1.43,0-.8-.52-1.3-1.33-1.3s-1.33.47-1.33,1.25h-.86c0-1.21.87-2.01,2.18-2.01ZM230.15,46.08c-.35,0-.62-.27-.62-.62s.27-.62.62-.62c.33,0,.6.27.6.62s-.27.62-.6.62Z"/>
    </g>
    <g>
      <path class="cls-10" d="M358.93,42.92c-1.28,0-2.18-.7-2.24-1.7h.94c.05.53.52.93,1.29.93.72,0,1.12-.36,1.12-.81,0-1.22-3.24-.51-3.24-2.55,0-.84.79-1.53,2.01-1.53s2.01.65,2.07,1.72h-.91c-.04-.55-.46-.95-1.19-.95-.67,0-1.07.32-1.07.76,0,1.3,3.18.59,3.22,2.55,0,.9-.79,1.58-2,1.58Z"/>
      <path class="cls-10" d="M367.06,42.83h-.91v-.81c-.35.57-1.02.89-1.75.89-1.26,0-2.25-.78-2.25-2.35v-3.21h.9v3.09c0,1.11.61,1.68,1.53,1.68s1.57-.58,1.57-1.76v-3.01h.91v5.48Z"/>
      <path class="cls-10" d="M371.57,37.27c1.48,0,2.6,1.1,2.6,2.81s-1.13,2.85-2.6,2.85c-1,0-1.71-.5-2.05-1.1v1.01h-.91v-7.4h.91v2.94c.35-.61,1.08-1.11,2.05-1.11ZM371.38,38.06c-.99,0-1.86.76-1.86,2.03s.87,2.04,1.86,2.04,1.86-.76,1.86-2.05-.85-2.02-1.86-2.02Z"/>
      <path class="cls-10" d="M376.31,37.36v6.67c0,.99-.52,1.41-1.45,1.41h-.53v-.77h.38c.5,0,.69-.18.69-.66v-6.65h.91ZM375.25,35.85c0-.35.27-.62.61-.62s.61.27.61.62-.27.62-.61.62-.61-.27-.61-.62Z"/>
      <path class="cls-10" d="M380.22,42.92c-1.56,0-2.71-1.1-2.71-2.84s1.11-2.82,2.71-2.82,2.63,1.12,2.63,2.62c0,.2,0,.36-.03.55h-4.38c.07,1.11.85,1.72,1.78,1.72.82,0,1.34-.42,1.54-1.01h.98c-.28,1-1.16,1.78-2.52,1.78ZM378.45,39.7h3.46c.01-1.07-.79-1.66-1.73-1.66-.89,0-1.63.59-1.73,1.66Z"/>
      <path class="cls-10" d="M386.38,37.27c1.36,0,2.25.7,2.53,1.85h-.98c-.19-.66-.74-1.08-1.55-1.08-1,0-1.74.71-1.74,2.05s.74,2.07,1.74,2.07c.81,0,1.35-.39,1.55-1.08h.98c-.28,1.09-1.17,1.85-2.53,1.85-1.56,0-2.67-1.1-2.67-2.84s1.11-2.82,2.67-2.82Z"/>
      <path class="cls-10" d="M390.32,38.11h-.71v-.75h.71v-1.38h.91v1.38h1.43v.75h-1.43v3.23c0,.54.2.73.76.73h.67v.77h-.82c-.97,0-1.52-.4-1.52-1.5v-3.23Z"/>
    </g>
    <g>
      <path class="cls-10" d="M465,37.03c1.36,0,2.25.7,2.53,1.85h-.98c-.19-.66-.74-1.08-1.55-1.08-1,0-1.74.71-1.74,2.05s.74,2.07,1.74,2.07c.81,0,1.35-.39,1.55-1.08h.98c-.28,1.09-1.17,1.85-2.53,1.85-1.56,0-2.67-1.1-2.67-2.84s1.11-2.82,2.67-2.82Z"/>
      <path class="cls-10" d="M471.13,42.68c-1.55,0-2.73-1.1-2.73-2.84s1.22-2.82,2.77-2.82,2.77,1.09,2.77,2.82-1.25,2.84-2.81,2.84ZM471.13,41.89c.95,0,1.88-.65,1.88-2.04s-.91-2.03-1.85-2.03-1.83.65-1.83,2.03.85,2.04,1.8,2.04Z"/>
      <path class="cls-10" d="M483.04,39.5c0-1.12-.6-1.69-1.5-1.69s-1.55.59-1.55,1.77v3.02h-.9v-3.1c0-1.12-.6-1.69-1.5-1.69s-1.55.59-1.55,1.77v3.02h-.91v-5.48h.91v.79c.36-.58,1.01-.89,1.73-.89.9,0,1.65.4,2.01,1.22.32-.79,1.1-1.22,1.94-1.22,1.25,0,2.22.78,2.22,2.35v3.23h-.9v-3.1Z"/>
      <path class="cls-10" d="M488.4,37.03c1.47,0,2.6,1.1,2.6,2.81s-1.13,2.85-2.6,2.85c-1,0-1.71-.54-2.05-1.1v3.61h-.91v-8.08h.91v1.01c.33-.58,1.05-1.1,2.05-1.1ZM488.21,37.82c-.99,0-1.86.76-1.86,2.03s.87,2.04,1.86,2.04,1.86-.76,1.86-2.05-.85-2.02-1.86-2.02Z"/>
      <path class="cls-10" d="M492.2,35.2h.91v7.4h-.91v-7.4Z"/>
      <path class="cls-10" d="M497.03,42.68c-1.56,0-2.71-1.1-2.71-2.84s1.11-2.82,2.71-2.82,2.63,1.12,2.63,2.62c0,.2,0,.36-.03.55h-4.38c.07,1.11.85,1.72,1.78,1.72.82,0,1.34-.42,1.54-1.01h.98c-.28,1-1.16,1.78-2.52,1.78ZM495.26,39.46h3.46c0-1.07-.79-1.66-1.73-1.66-.89,0-1.63.59-1.73,1.66Z"/>
      <path class="cls-10" d="M508.76,39.5c0-1.12-.6-1.69-1.5-1.69s-1.55.59-1.55,1.77v3.02h-.9v-3.1c0-1.12-.6-1.69-1.5-1.69s-1.55.59-1.55,1.77v3.02h-.91v-5.48h.91v.79c.36-.58,1.01-.89,1.73-.89.9,0,1.65.4,2.01,1.22.32-.79,1.1-1.22,1.94-1.22,1.25,0,2.22.78,2.22,2.35v3.23h-.9v-3.1Z"/>
      <path class="cls-10" d="M513.53,42.68c-1.56,0-2.71-1.1-2.71-2.84s1.11-2.82,2.71-2.82,2.63,1.12,2.63,2.62c0,.2,0,.36-.03.55h-4.38c.07,1.11.85,1.72,1.78,1.72.82,0,1.34-.42,1.54-1.01h.98c-.28,1-1.16,1.78-2.52,1.78ZM511.76,39.46h3.46c0-1.07-.79-1.66-1.73-1.66-.89,0-1.63.59-1.73,1.66Z"/>
      <path class="cls-10" d="M521.36,39.5c0-1.12-.61-1.69-1.53-1.69s-1.57.58-1.57,1.76v3.03h-.91v-5.48h.91v.78c.36-.57,1.02-.88,1.76-.88,1.27,0,2.24.78,2.24,2.35v3.23h-.9v-3.1Z"/>
      <path class="cls-10" d="M523.96,37.87h-.71v-.75h.71v-1.38h.91v1.38h1.43v.75h-1.43v3.23c0,.54.2.73.76.73h.67v.77h-.82c-.97,0-1.52-.4-1.52-1.5v-3.23Z"/>
      <path class="cls-10" d="M529.18,35.54c1.31,0,2.21.79,2.21,2.06,0,1.46-1.01,2.06-2.41,2.06l-.03.95h-.79l-.04-1.58h.29c1.14,0,2.11-.22,2.11-1.43,0-.8-.52-1.3-1.33-1.3s-1.33.47-1.33,1.25h-.86c0-1.21.87-2.01,2.18-2.01ZM528.55,42.65c-.35,0-.62-.27-.62-.62s.27-.62.62-.62c.33,0,.6.27.6.62s-.27.62-.6.62Z"/>
    </g>
    <g>
      <path class="cls-10" d="M419.4,37.36l1.71,4.64,1.7-4.64h.97l-2.15,5.48h-1.06l-2.15-5.48h.98Z"/>
      <path class="cls-10" d="M427.05,42.92c-1.56,0-2.71-1.1-2.71-2.84s1.11-2.82,2.71-2.82,2.63,1.12,2.63,2.62c0,.2,0,.36-.03.55h-4.38c.07,1.11.85,1.72,1.78,1.72.82,0,1.34-.42,1.54-1.01h.98c-.28,1-1.16,1.78-2.52,1.78ZM425.28,39.7h3.46c.01-1.07-.79-1.66-1.73-1.66-.89,0-1.63.59-1.73,1.66Z"/>
      <path class="cls-10" d="M431.79,42.83h-.91v-5.48h.91v.89c.31-.61.9-.99,1.77-.99v.94h-.24c-.87,0-1.53.39-1.53,1.66v2.98Z"/>
      <path class="cls-10" d="M437.57,37.27c1.48,0,2.6,1.1,2.6,2.81s-1.13,2.85-2.6,2.85c-1,0-1.71-.5-2.05-1.1v1.01h-.91v-7.4h.91v2.94c.35-.61,1.08-1.11,2.05-1.11ZM437.38,38.06c-.99,0-1.86.76-1.86,2.03s.87,2.04,1.86,2.04,1.86-.76,1.86-2.05-.85-2.02-1.86-2.02Z"/>
    </g>
    <line class="cls-7" x1="53.88" y1="22.61" x2="53.88" y2="105.52"/>
    <line class="cls-7" x1="110.88" y1="22.61" x2="110.88" y2="105.52"/>
    <line class="cls-6" x1="155.38" y1="22.61" x2="155.38" y2="103.78"/>
    <line class="cls-4" x1="297.88" y1="22.61" x2="297.88" y2="105.78"/>
    <line class="cls-3" x1="348.88" y1="22.28" x2="348.88" y2="103.78"/>
    <line class="cls-6" x1="402.88" y1="22.61" x2="402.88" y2="103.78"/>
    <line class="cls-6" x1="455.88" y1="22.61" x2="455.88" y2="103.78"/>
    <line class="cls-8" x1="240.54" y1="22.61" x2="240.54" y2="103.78"/>
    <path class="cls-13" d="M535.5,169.33c0,2.39-1.91,4.33-4.27,4.33H4.44c-2.36,0-4.27-1.94-4.27-4.33v-54.17c0-2.39,1.91-4.33,4.27-4.33h526.79c2.36,0,4.27,1.94,4.27,4.33v54.17Z"/>
    <g>
      <path class="cls-10" d="M11.05,157.48h4.72l-.16.74h-1.9l-1.32,6.23h-.91l1.32-6.23h-1.91l.16-.74Z"/>
      <path class="cls-10" d="M16.98,157.05h.91l-.58,2.71c.48-.58,1.23-.89,2-.89,1.22,0,2.02.78,1.69,2.35l-.69,3.23h-.9l.66-3.1c.24-1.12-.25-1.69-1.17-1.69s-1.69.58-1.94,1.76l-.64,3.03h-.91l1.57-7.4Z"/>
      <path class="cls-10" d="M24.16,164.54c-1.56,0-2.48-1.1-2.11-2.84.37-1.73,1.71-2.82,3.31-2.82s2.39,1.12,2.07,2.62c-.04.2-.09.36-.15.55h-4.38c-.17,1.11.48,1.72,1.41,1.72.82,0,1.43-.42,1.75-1.01h.98c-.49,1-1.54,1.78-2.9,1.78ZM23.07,161.31h3.46c.24-1.07-.44-1.66-1.38-1.66-.89,0-1.76.59-2.08,1.66Z"/>
      <path class="cls-10" d="M32.6,164.54c-1.28,0-2.03-.7-1.88-1.7h.94c-.06.53.32.93,1.09.93.72,0,1.2-.36,1.29-.81.26-1.22-3.13-.51-2.7-2.55.18-.84,1.11-1.53,2.33-1.53s1.87.65,1.7,1.72h-.91c.08-.55-.26-.95-.99-.95-.67,0-1.14.32-1.23.76-.28,1.3,3.05.59,2.68,2.55-.19.9-1.12,1.58-2.33,1.58Z"/>
      <path class="cls-10" d="M36.41,158.97h.93l.28,4.6,2.34-4.6h.93l.35,4.61,2.22-4.61h.9l-2.87,5.48h-.94l-.39-4.35-2.24,4.35h-.94l-.55-5.48Z"/>
      <path class="cls-10" d="M45.26,158.97h.91l-1.17,5.48h-.91l1.17-5.48ZM45.43,157.46c.07-.35.4-.62.75-.62.33,0,.54.27.47.62-.07.35-.4.62-.73.62-.35,0-.56-.27-.49-.62Z"/>
      <path class="cls-10" d="M55.12,161.35c.24-1.12-.24-1.69-1.14-1.69s-1.67.59-1.92,1.77l-.64,3.02h-.9l.66-3.1c.24-1.12-.24-1.69-1.14-1.69s-1.68.59-1.93,1.77l-.64,3.02h-.91l1.17-5.48h.91l-.17.79c.48-.58,1.2-.89,1.92-.89.9,0,1.56.4,1.75,1.22.49-.79,1.36-1.22,2.2-1.22,1.25,0,2.05.78,1.72,2.35l-.69,3.23h-.9l.66-3.1Z"/>
      <path class="cls-10" d="M65.42,161.35c.24-1.12-.24-1.69-1.14-1.69s-1.67.59-1.92,1.77l-.64,3.02h-.9l.66-3.1c.24-1.12-.24-1.69-1.14-1.69s-1.68.59-1.93,1.77l-.64,3.02h-.91l1.17-5.48h.91l-.17.79c.48-.58,1.2-.89,1.92-.89.9,0,1.56.4,1.75,1.22.49-.79,1.36-1.22,2.2-1.22,1.25,0,2.05.78,1.72,2.35l-.69,3.23h-.9l.66-3.1Z"/>
      <path class="cls-10" d="M69.51,164.54c-1.56,0-2.48-1.1-2.11-2.84.37-1.73,1.71-2.82,3.31-2.82s2.39,1.12,2.07,2.62c-.04.2-.09.36-.15.55h-4.38c-.17,1.11.48,1.72,1.41,1.72.82,0,1.43-.42,1.75-1.01h.98c-.49,1-1.54,1.78-2.9,1.78ZM68.42,161.31h3.46c.24-1.07-.44-1.66-1.38-1.66-.89,0-1.76.59-2.08,1.66Z"/>
      <path class="cls-10" d="M74.27,164.45h-.91l1.17-5.48h.91l-.19.89c.44-.61,1.11-.99,1.98-.99l-.2.94h-.24c-.87,0-1.61.39-1.88,1.66l-.63,2.98Z"/>
    </g>
    <g>
      <path class="cls-10" d="M381.34,160.97h.91l-1.17,5.48h-.91l1.17-5.48ZM381.51,159.46c.07-.35.4-.62.75-.62.33,0,.54.27.47.62-.07.35-.4.62-.73.62-.35,0-.56-.27-.49-.62Z"/>
      <path class="cls-10" d="M384.55,166.54c-1.28,0-2.03-.7-1.88-1.7h.94c-.06.53.32.93,1.09.93.72,0,1.2-.36,1.29-.81.26-1.22-3.13-.51-2.7-2.55.18-.84,1.11-1.53,2.33-1.53s1.87.65,1.7,1.72h-.91c.08-.55-.26-.95-.99-.95-.67,0-1.14.32-1.23.76-.28,1.3,3.05.59,2.68,2.55-.19.9-1.12,1.58-2.33,1.58Z"/>
    </g>
    <g>
      <path class="cls-10" d="M434.27,160.05l.18-.83h.92l-1.54,7.23h-.92l1.36-6.4Z"/>
      <path class="cls-10" d="M440.07,159.11c1.99,0,2.17,1.58,1.73,3.65-.45,2.1-1.3,3.69-3.29,3.69s-2.18-1.59-1.73-3.69c.44-2.07,1.29-3.65,3.29-3.65ZM439.89,159.94c-1.43,0-1.9,1.32-2.22,2.82-.33,1.56-.42,2.86,1.01,2.86s1.88-1.3,2.22-2.86c.32-1.5.41-2.82-1.01-2.82Z"/>
      <path class="cls-10" d="M446.66,159.05h.91l-.92,4.35,2.63-2.43h1.27l-3.16,2.73,2,2.75h-1.24l-1.63-2.42-.51,2.42h-.91l1.57-7.4Z"/>
      <path class="cls-10" d="M451.41,160.97h.91l-1.17,5.48h-.91l1.17-5.48ZM451.58,159.46c.07-.35.4-.62.75-.62.33,0,.54.27.47.62-.07.35-.4.62-.73.62-.35,0-.56-.27-.49-.62Z"/>
      <path class="cls-10" d="M454.27,159.05h.91l-1.57,7.4h-.91l1.57-7.4Z"/>
      <path class="cls-10" d="M457.53,166.54c-1.55,0-2.5-1.1-2.12-2.84.37-1.73,1.82-2.82,3.37-2.82s2.54,1.09,2.17,2.82c-.37,1.74-1.85,2.84-3.41,2.84ZM457.7,165.74c.95,0,2.02-.65,2.31-2.04.29-1.38-.48-2.03-1.42-2.03s-1.97.65-2.26,2.03c-.3,1.39.42,2.04,1.37,2.04Z"/>
      <path class="cls-10" d="M470.12,163.35c.24-1.12-.24-1.69-1.14-1.69s-1.67.59-1.92,1.77l-.64,3.02h-.9l.66-3.1c.24-1.12-.24-1.69-1.14-1.69s-1.67.59-1.93,1.77l-.64,3.02h-.91l1.17-5.48h.91l-.17.79c.48-.58,1.2-.89,1.92-.89.9,0,1.56.4,1.75,1.22.49-.79,1.36-1.22,2.2-1.22,1.25,0,2.05.78,1.72,2.35l-.69,3.23h-.9l.66-3.1Z"/>
      <path class="cls-10" d="M474.21,166.54c-1.56,0-2.48-1.1-2.11-2.84.37-1.73,1.71-2.82,3.31-2.82s2.39,1.12,2.07,2.62c-.04.2-.09.36-.15.55h-4.38c-.17,1.11.48,1.72,1.41,1.72.82,0,1.43-.42,1.75-1.01h.98c-.49,1-1.54,1.78-2.9,1.78ZM473.13,163.31h3.46c.24-1.07-.44-1.66-1.38-1.66-.89,0-1.75.59-2.08,1.66Z"/>
      <path class="cls-10" d="M479.27,161.72h-.71l.16-.75h.71l.29-1.38h.91l-.29,1.38h1.43l-.16.75h-1.43l-.69,3.23c-.12.54.04.73.6.73h.67l-.16.77h-.82c-.97,0-1.43-.4-1.2-1.5l.69-3.23Z"/>
      <path class="cls-10" d="M484.05,166.54c-1.56,0-2.48-1.1-2.11-2.84.37-1.73,1.71-2.82,3.31-2.82s2.39,1.12,2.07,2.62c-.04.2-.09.36-.15.55h-4.38c-.17,1.11.48,1.72,1.41,1.72.82,0,1.43-.42,1.75-1.01h.98c-.49,1-1.54,1.78-2.9,1.78ZM482.97,163.31h3.46c.24-1.07-.44-1.66-1.38-1.66-.89,0-1.75.59-2.08,1.66Z"/>
      <path class="cls-10" d="M488.81,166.45h-.91l1.17-5.48h.91l-.19.89c.44-.61,1.11-.99,1.98-.99l-.2.94h-.24c-.87,0-1.61.39-1.88,1.66l-.63,2.98Z"/>
      <path class="cls-10" d="M493.55,166.54c-1.28,0-2.03-.7-1.88-1.7h.94c-.06.53.32.93,1.09.93.72,0,1.2-.36,1.29-.81.26-1.22-3.13-.51-2.7-2.55.18-.84,1.11-1.53,2.33-1.53s1.87.65,1.7,1.72h-.91c.08-.55-.26-.95-.99-.95-.67,0-1.14.32-1.23.76-.28,1.3,3.05.59,2.68,2.55-.19.9-1.12,1.58-2.33,1.58Z"/>
      <path class="cls-10" d="M502.96,160.88c1.02,0,1.61.52,1.81,1.09l.21-1h.92l-1.17,5.48h-.92l.22-1.02c-.46.59-1.28,1.11-2.28,1.11-1.46,0-2.34-1.15-1.98-2.85.36-1.71,1.73-2.81,3.2-2.81ZM502.98,161.67c-1,0-2,.73-2.28,2.02-.27,1.29.41,2.05,1.41,2.05s2.02-.75,2.29-2.04c.27-1.27-.43-2.03-1.43-2.03Z"/>
      <path class="cls-10" d="M506.8,160.97h.93l.28,4.6,2.34-4.6h.93l.35,4.61,2.22-4.61h.9l-2.87,5.48h-.94l-.39-4.35-2.24,4.35h-.94l-.55-5.48Z"/>
      <path class="cls-10" d="M517.92,160.88c1.02,0,1.61.52,1.81,1.09l.21-1h.92l-1.17,5.48h-.92l.22-1.02c-.46.59-1.28,1.11-2.28,1.11-1.46,0-2.34-1.15-1.98-2.85.36-1.71,1.73-2.81,3.2-2.81ZM517.94,161.67c-1,0-2,.73-2.28,2.02-.27,1.29.41,2.05,1.41,2.05s2.02-.75,2.29-2.04c.27-1.27-.43-2.03-1.43-2.03Z"/>
      <path class="cls-10" d="M526.18,160.97h.94l-5.01,8.06h-.94l1.64-2.64-1.06-5.42h1.01l.78,4.44,2.64-4.44Z"/>
      <path class="cls-10" d="M527.15,166.51c-.35,0-.56-.27-.49-.62.08-.35.4-.62.75-.62.33,0,.54.27.47.62-.07.35-.4.62-.73.62Z"/>
    </g>
    <g>
      <path class="cls-14" d="M535.75,148.54c0,.56-1.88,1.02-4.2,1.02H4.21c-2.32,0-4.2-.46-4.2-1.02v-20.63c0-.56,1.88-1.02,4.2-1.02h527.35c2.32,0,4.2.46,4.2,1.02v20.63Z"/>
      <path class="cls-2" d="M535.61,127.78c0,.62-1.88,1.12-4.19,1.12H4.21c-2.32,0-4.19-.5-4.19-1.12v-22.38c0-.62,1.88-1.11,4.19-1.11h527.21c2.32,0,4.19.5,4.19,1.11v22.38Z"/>
    </g>
    <g>
      <path class="cls-10" d="M24.85,141.45c-1.4,0-2.39-.78-2.41-1.93h.97c.06.58.47,1.16,1.44,1.16.88,0,1.4-.5,1.4-1.16,0-1.88-3.77-.68-3.77-3.27,0-1.15.93-1.93,2.31-1.93s2.2.73,2.31,1.79h-1c-.06-.47-.5-1-1.35-1.01-.75-.02-1.34.37-1.34,1.12,0,1.8,3.76.68,3.76,3.26,0,.99-.81,1.97-2.32,1.97Z"/>
      <path class="cls-10" d="M33.37,141.38h-.91v-.81c-.35.57-1.02.89-1.75.89-1.26,0-2.25-.78-2.25-2.35v-3.21h.9v3.09c0,1.11.61,1.68,1.53,1.68s1.57-.58,1.57-1.76v-3.01h.91v5.48Z"/>
      <path class="cls-10" d="M37.87,135.81c1.48,0,2.6,1.1,2.6,2.81s-1.13,2.85-2.6,2.85c-1,0-1.71-.5-2.05-1.1v1.01h-.91v-7.4h.91v2.94c.35-.61,1.08-1.11,2.05-1.11ZM37.68,136.6c-.99,0-1.86.76-1.86,2.03s.87,2.04,1.86,2.04,1.86-.76,1.86-2.05-.85-2.02-1.86-2.02Z"/>
      <path class="cls-10" d="M42.61,135.9v6.67c0,.99-.52,1.41-1.45,1.41h-.53v-.77h.38c.5,0,.69-.18.69-.66v-6.65h.91ZM41.55,134.39c0-.35.27-.62.61-.62s.61.27.61.62-.27.62-.61.62-.61-.27-.61-.62Z"/>
      <path class="cls-10" d="M46.52,141.47c-1.56,0-2.71-1.1-2.71-2.84s1.11-2.82,2.71-2.82,2.63,1.12,2.63,2.62c0,.2,0,.36-.03.55h-4.38c.07,1.11.85,1.72,1.78,1.72.82,0,1.34-.42,1.54-1.01h.98c-.28,1-1.16,1.78-2.52,1.78ZM44.75,138.24h3.46c.01-1.07-.79-1.66-1.73-1.66-.89,0-1.63.59-1.73,1.66Z"/>
      <path class="cls-10" d="M52.68,135.81c1.36,0,2.25.7,2.53,1.85h-.98c-.19-.66-.74-1.08-1.55-1.08-1,0-1.74.71-1.74,2.05s.74,2.07,1.74,2.07c.81,0,1.35-.39,1.55-1.08h.98c-.28,1.09-1.17,1.85-2.53,1.85-1.56,0-2.67-1.1-2.67-2.84s1.11-2.82,2.67-2.82Z"/>
      <path class="cls-10" d="M56.62,136.65h-.71v-.75h.71v-1.38h.91v1.38h1.43v.75h-1.43v3.23c0,.54.2.73.76.73h.67v.77h-.82c-.97,0-1.52-.4-1.52-1.5v-3.23Z"/>
    </g>
    <g>
      <path class="cls-10" d="M22.65,63.61h-3.55l-.67,3.16h-.91l1.48-6.97h.91l-.65,3.06h3.55l.65-3.06h.91l-1.48,6.97h-.91l.67-3.16Z"/>
      <path class="cls-10" d="M26.8,66.86c-1.55,0-2.5-1.1-2.12-2.84.37-1.73,1.82-2.82,3.37-2.82s2.54,1.09,2.17,2.82c-.37,1.74-1.85,2.84-3.41,2.84ZM26.97,66.06c.95,0,2.02-.65,2.31-2.04.29-1.38-.48-2.03-1.42-2.03s-1.97.65-2.26,2.03c-.3,1.39.42,2.04,1.37,2.04Z"/>
      <path class="cls-10" d="M31.34,61.29h.93l.28,4.6,2.34-4.6h.93l.35,4.61,2.22-4.61h.9l-2.87,5.48h-.94l-.4-4.35-2.24,4.35h-.94l-.55-5.48Z"/>
    </g>
    <text class="cls-11" transform="translate(26.17 85.77) scale(.98) skewX(-12)"><tspan x="0" y="0"> </tspan></text>
    <g>
      <path class="cls-10" d="M22.64,94.61h-3.55l-.67,3.16h-.91l1.48-6.97h.91l-.65,3.06h3.55l.65-3.06h.91l-1.48,6.97h-.91l.67-3.16Z"/>
      <path class="cls-10" d="M26.79,97.86c-1.55,0-2.5-1.1-2.12-2.84.37-1.73,1.82-2.82,3.37-2.82s2.54,1.09,2.17,2.82c-.37,1.74-1.85,2.84-3.41,2.84ZM26.96,97.06c.95,0,2.02-.65,2.31-2.04.29-1.38-.48-2.03-1.42-2.03s-1.97.65-2.26,2.03c-.3,1.39.42,2.04,1.37,2.04Z"/>
      <path class="cls-10" d="M31.34,92.29h.93l.28,4.6,2.34-4.6h.93l.35,4.61,2.22-4.61h.9l-2.87,5.48h-.94l-.39-4.35-2.24,4.35h-.94l-.55-5.48Z"/>
    </g>
    <g>
      <path class="cls-10" d="M264.72,63.61h-3.55l-.67,3.16h-.91l1.48-6.97h.91l-.65,3.06h3.55l.65-3.06h.91l-1.48,6.97h-.91l.67-3.16Z"/>
      <path class="cls-10" d="M268.87,66.86c-1.55,0-2.5-1.1-2.12-2.84.37-1.73,1.82-2.82,3.37-2.82s2.54,1.09,2.17,2.82c-.37,1.74-1.85,2.84-3.41,2.84ZM269.04,66.06c.95,0,2.02-.65,2.31-2.04.29-1.38-.48-2.03-1.42-2.03s-1.97.65-2.26,2.03c-.3,1.39.42,2.04,1.37,2.04Z"/>
      <path class="cls-10" d="M273.42,61.29h.93l.28,4.6,2.34-4.6h.93l.35,4.61,2.22-4.61h.9l-2.87,5.48h-.94l-.4-4.35-2.24,4.35h-.94l-.55-5.48Z"/>
    </g>
    <text class="cls-11" transform="translate(268.24 85.77) scale(.98) skewX(-12)"><tspan x="0" y="0"> </tspan></text>
    <g>
      <path class="cls-10" d="M264.72,94.61h-3.55l-.67,3.16h-.91l1.48-6.97h.91l-.65,3.06h3.55l.65-3.06h.91l-1.48,6.97h-.91l.67-3.16Z"/>
      <path class="cls-10" d="M268.87,97.86c-1.55,0-2.5-1.1-2.12-2.84.37-1.73,1.82-2.82,3.37-2.82s2.54,1.09,2.17,2.82c-.37,1.74-1.85,2.84-3.41,2.84ZM269.04,97.06c.95,0,2.02-.65,2.31-2.04.29-1.38-.48-2.03-1.42-2.03s-1.97.65-2.26,2.03c-.3,1.39.42,2.04,1.37,2.04Z"/>
      <path class="cls-10" d="M273.42,92.29h.93l.28,4.6,2.34-4.6h.93l.35,4.61,2.22-4.61h.9l-2.87,5.48h-.94l-.39-4.35-2.24,4.35h-.94l-.55-5.48Z"/>
    </g>
    <g>
      <path class="cls-10" d="M76.52,62.04h-.71l.16-.75h.71l.29-1.38h.91l-.29,1.38h1.43l-.16.75h-1.43l-.69,3.23c-.11.54.04.73.6.73h.67l-.16.77h-.82c-.97,0-1.43-.4-1.2-1.5l.69-3.23Z"/>
      <path class="cls-10" d="M82.4,61.2c1.02,0,1.61.52,1.81,1.09l.21-1h.92l-1.16,5.48h-.92l.22-1.02c-.46.59-1.28,1.11-2.28,1.11-1.46,0-2.34-1.15-1.98-2.85.36-1.71,1.73-2.81,3.2-2.81ZM82.41,61.99c-1,0-2,.73-2.28,2.02-.27,1.29.41,2.05,1.41,2.05s2.02-.75,2.29-2.04c.27-1.27-.43-2.03-1.43-2.03Z"/>
      <path class="cls-10" d="M87.29,59.37h.91l-1.57,7.4h-.91l1.57-7.4Z"/>
      <path class="cls-10" d="M89.75,59.37h.91l-1.57,7.4h-.91l1.57-7.4Z"/>
    </g>
    <text class="cls-11" transform="translate(80.87 85.77) scale(.98) skewX(-12)"><tspan x="0" y="0"> </tspan></text>
    <g>
      <path class="cls-10" d="M76.95,94.67c.24-1.12-.24-1.69-1.14-1.69s-1.67.59-1.92,1.77l-.64,3.02h-.9l.66-3.1c.24-1.12-.24-1.69-1.14-1.69s-1.68.59-1.93,1.77l-.64,3.02h-.91l1.17-5.48h.91l-.17.79c.48-.58,1.2-.89,1.92-.89.9,0,1.56.4,1.75,1.22.49-.79,1.36-1.22,2.2-1.22,1.25,0,2.05.78,1.72,2.35l-.69,3.23h-.9l.66-3.1Z"/>
      <path class="cls-10" d="M83.55,97.77h-.91l.17-.81c-.47.57-1.21.89-1.94.89-1.26,0-2.08-.78-1.75-2.35l.68-3.21h.9l-.66,3.09c-.24,1.11.25,1.68,1.17,1.68s1.69-.58,1.94-1.76l.64-3.01h.91l-1.17,5.48Z"/>
      <path class="cls-10" d="M88.6,92.2c1.36,0,2.1.7,2.14,1.85h-.98c-.05-.66-.51-1.08-1.32-1.08-1,0-1.89.71-2.17,2.05-.29,1.36.3,2.07,1.3,2.07.81,0,1.43-.39,1.78-1.08h.98c-.51,1.09-1.56,1.85-2.92,1.85-1.56,0-2.44-1.1-2.07-2.84.37-1.72,1.71-2.82,3.27-2.82Z"/>
      <path class="cls-10" d="M92.73,90.37h.91l-.58,2.71c.48-.58,1.23-.89,2-.89,1.22,0,2.02.78,1.69,2.35l-.69,3.23h-.9l.66-3.1c.24-1.12-.25-1.69-1.17-1.69s-1.69.58-1.94,1.76l-.64,3.03h-.91l1.57-7.4Z"/>
    </g>
    <g>
      <path class="cls-10" d="M317.8,61.2c1.36,0,2.1.7,2.13,1.85h-.98c-.05-.66-.51-1.08-1.32-1.08-1,0-1.89.71-2.17,2.05-.29,1.36.3,2.07,1.3,2.07.81,0,1.43-.39,1.78-1.08h.98c-.51,1.09-1.56,1.85-2.92,1.85-1.56,0-2.44-1.1-2.07-2.84.37-1.72,1.71-2.82,3.27-2.82Z"/>
      <path class="cls-10" d="M323.8,61.2c1.02,0,1.61.52,1.81,1.09l.21-1h.92l-1.17,5.48h-.92l.22-1.02c-.46.59-1.28,1.11-2.28,1.11-1.46,0-2.34-1.15-1.98-2.85.36-1.71,1.73-2.81,3.2-2.81ZM323.81,61.99c-1,0-2,.73-2.28,2.02-.27,1.29.41,2.05,1.41,2.05s2.02-.75,2.29-2.04c.27-1.27-.43-2.03-1.43-2.03Z"/>
      <path class="cls-10" d="M331.79,63.67c.24-1.12-.25-1.69-1.17-1.69s-1.69.58-1.94,1.76l-.64,3.03h-.91l1.17-5.48h.91l-.17.78c.48-.57,1.21-.88,1.95-.88,1.27,0,2.07.78,1.74,2.35l-.69,3.23h-.9l.66-3.1Z"/>
    </g>
    <text class="cls-11" transform="translate(321.8 85.77) scale(.98) skewX(-12)"><tspan x="0" y="0"> </tspan></text>
    <g>
      <path class="cls-10" d="M315.07,92.2c.86,0,1.56.44,1.8,1.07l.62-2.9h.92l-1.57,7.4h-.92l.22-1.03c-.46.61-1.28,1.12-2.28,1.12-1.47,0-2.35-1.15-1.99-2.85.36-1.71,1.73-2.81,3.21-2.81ZM315.07,92.99c-1,0-2,.73-2.28,2.02-.27,1.29.41,2.05,1.41,2.05s2.02-.75,2.29-2.04c.27-1.27-.43-2.03-1.43-2.03Z"/>
      <path class="cls-10" d="M320.74,97.86c-1.55,0-2.5-1.1-2.12-2.84.37-1.73,1.82-2.82,3.37-2.82s2.54,1.09,2.17,2.82c-.37,1.74-1.85,2.84-3.41,2.84ZM320.91,97.06c.95,0,2.02-.65,2.31-2.04.29-1.38-.48-2.03-1.42-2.03s-1.97.65-2.26,2.03c-.29,1.39.42,2.04,1.37,2.04Z"/>
      <path class="cls-10" d="M327.12,97.86c-1.56,0-2.48-1.1-2.11-2.84.37-1.73,1.71-2.82,3.31-2.82s2.39,1.12,2.07,2.62c-.04.2-.09.36-.15.55h-4.38c-.17,1.11.48,1.72,1.41,1.72.82,0,1.43-.42,1.75-1.01h.98c-.49,1-1.54,1.78-2.9,1.78ZM326.04,94.63h3.46c.24-1.07-.44-1.66-1.38-1.66-.89,0-1.75.59-2.08,1.66Z"/>
      <path class="cls-10" d="M332.89,97.86c-1.28,0-2.03-.7-1.88-1.7h.94c-.06.53.32.93,1.09.93.72,0,1.2-.36,1.29-.81.26-1.22-3.13-.51-2.7-2.55.18-.84,1.11-1.53,2.33-1.53s1.87.65,1.7,1.72h-.91c.08-.55-.26-.95-.99-.95-.67,0-1.14.32-1.23.76-.28,1.3,3.05.59,2.68,2.55-.19.9-1.12,1.58-2.33,1.58Z"/>
    </g>
    <g>
      <path class="cls-10" d="M416.38,63.67c.24-1.12-.24-1.69-1.14-1.69s-1.67.59-1.92,1.77l-.64,3.02h-.9l.66-3.1c.24-1.12-.24-1.69-1.14-1.69s-1.68.59-1.93,1.77l-.64,3.02h-.91l1.17-5.48h.91l-.17.79c.48-.58,1.2-.89,1.92-.89.9,0,1.56.4,1.75,1.22.49-.79,1.36-1.22,2.2-1.22,1.25,0,2.05.78,1.72,2.35l-.69,3.23h-.9l.66-3.1Z"/>
      <path class="cls-10" d="M420.46,66.86c-1.56,0-2.48-1.1-2.11-2.84.37-1.73,1.71-2.82,3.31-2.82s2.39,1.12,2.07,2.62c-.04.2-.09.36-.15.55h-4.38c-.17,1.11.48,1.72,1.41,1.72.82,0,1.43-.42,1.75-1.01h.98c-.49,1-1.54,1.78-2.9,1.78ZM419.38,63.63h3.46c.24-1.07-.44-1.66-1.38-1.66-.89,0-1.76.59-2.08,1.66Z"/>
      <path class="cls-10" d="M427.76,61.2c1.02,0,1.61.52,1.81,1.09l.21-1h.92l-1.17,5.48h-.92l.22-1.02c-.46.59-1.28,1.11-2.28,1.11-1.46,0-2.34-1.15-1.98-2.85.36-1.71,1.73-2.81,3.2-2.81ZM427.77,61.99c-1,0-2,.73-2.28,2.02-.27,1.29.41,2.05,1.41,2.05s2.02-.75,2.29-2.04c.27-1.27-.43-2.03-1.43-2.03Z"/>
      <path class="cls-10" d="M432.99,66.86c-1.28,0-2.03-.7-1.88-1.7h.94c-.06.53.32.93,1.09.93.72,0,1.2-.36,1.29-.81.26-1.22-3.13-.51-2.7-2.55.18-.84,1.12-1.53,2.33-1.53s1.87.65,1.7,1.72h-.91c.08-.55-.26-.95-.99-.95-.67,0-1.14.32-1.23.76-.28,1.3,3.05.59,2.68,2.55-.19.9-1.12,1.58-2.33,1.58Z"/>
      <path class="cls-10" d="M441.15,66.77h-.91l.17-.81c-.47.57-1.21.89-1.94.89-1.26,0-2.08-.78-1.75-2.35l.68-3.21h.9l-.66,3.09c-.24,1.11.25,1.68,1.17,1.68s1.69-.58,1.94-1.76l.64-3.01h.91l-1.17,5.48Z"/>
      <path class="cls-10" d="M443.6,66.77h-.91l1.17-5.48h.91l-.19.89c.44-.61,1.11-.99,1.98-.99l-.2.94h-.24c-.87,0-1.61.39-1.88,1.66l-.63,2.98Z"/>
      <path class="cls-10" d="M448.77,66.86c-1.56,0-2.48-1.1-2.11-2.84.37-1.73,1.71-2.82,3.31-2.82s2.39,1.12,2.07,2.62c-.04.2-.09.36-.15.55h-4.38c-.17,1.11.48,1.72,1.41,1.72.82,0,1.43-.42,1.75-1.01h.98c-.49,1-1.54,1.78-2.9,1.78ZM447.69,63.63h3.46c.24-1.07-.44-1.66-1.38-1.66-.89,0-1.76.59-2.08,1.66Z"/>
    </g>
    <text class="cls-11" transform="translate(428.11 85.77) scale(.98) skewX(-12)"><tspan x="0" y="0"> </tspan></text>
    <g>
      <path class="cls-10" d="M424.58,94.67c.24-1.12-.24-1.69-1.14-1.69s-1.67.59-1.92,1.77l-.64,3.02h-.9l.66-3.1c.24-1.12-.24-1.69-1.14-1.69s-1.67.59-1.93,1.77l-.64,3.02h-.91l1.17-5.48h.91l-.17.79c.48-.58,1.2-.89,1.92-.89.9,0,1.56.4,1.75,1.22.49-.79,1.36-1.22,2.2-1.22,1.25,0,2.05.78,1.72,2.35l-.69,3.23h-.9l.66-3.1Z"/>
      <path class="cls-10" d="M429.76,92.2c1.02,0,1.61.52,1.81,1.09l.21-1h.92l-1.17,5.48h-.92l.22-1.02c-.46.59-1.28,1.11-2.29,1.11-1.46,0-2.34-1.15-1.98-2.85.36-1.71,1.73-2.81,3.2-2.81ZM429.77,92.99c-1,0-2,.73-2.28,2.02-.27,1.29.41,2.05,1.41,2.05s2.02-.75,2.29-2.04c.27-1.27-.43-2.03-1.43-2.03Z"/>
      <path class="cls-10" d="M434.65,90.37h.91l-.92,4.35,2.63-2.43h1.27l-3.16,2.73,2,2.75h-1.24l-1.64-2.42-.51,2.42h-.91l1.57-7.4Z"/>
      <path class="cls-10" d="M440.57,97.86c-1.56,0-2.48-1.1-2.11-2.84.37-1.73,1.71-2.82,3.31-2.82s2.39,1.12,2.07,2.62c-.04.2-.09.36-.15.55h-4.38c-.17,1.11.48,1.72,1.41,1.72.82,0,1.43-.42,1.75-1.01h.98c-.49,1-1.54,1.78-2.9,1.78ZM439.49,94.63h3.46c.24-1.07-.44-1.66-1.38-1.66-.89,0-1.75.59-2.08,1.66Z"/>
    </g>
    <g>
      <path class="cls-10" d="M462.18,61.21c.93,0,1.45.52,1.62,1.09l.21-1h.84l-1.17,5.48h-.84l.22-1.02c-.43.59-1.18,1.11-2.1,1.11-1.33,0-2.11-1.15-1.75-2.85.36-1.71,1.63-2.81,2.96-2.81ZM462.18,62c-.91,0-1.84.73-2.11,2.02-.27,1.29.34,2.05,1.25,2.05s1.85-.75,2.12-2.04c.27-1.27-.35-2.03-1.26-2.03Z"/>
      <path class="cls-10" d="M470.76,61.21c.91,0,1.46.5,1.62,1.09l.21-1h.84l-1.19,5.6c-.32,1.51-1.47,2.58-2.93,2.58-1.31,0-2.09-.73-2.01-1.9h.82c.04.66.54,1.11,1.36,1.11.88,0,1.68-.62,1.93-1.79l.25-1.15c-.43.59-1.18,1.12-2.09,1.12-1.34,0-2.12-1.15-1.76-2.85.36-1.71,1.63-2.81,2.96-2.81ZM470.76,62c-.91,0-1.84.73-2.11,2.02-.27,1.29.34,2.05,1.25,2.05s1.85-.75,2.12-2.04c.27-1.27-.35-2.03-1.26-2.03Z"/>
      <path class="cls-10" d="M474.84,61.3h.83l-1.17,5.48h-.83l1.17-5.48ZM475.02,59.79c.07-.35.38-.62.7-.62.3,0,.49.27.41.62-.07.35-.38.62-.68.62-.32,0-.51-.27-.43-.62Z"/>
      <path class="cls-10" d="M476.74,66.78h-.83l1.17-5.48h.83l-.19.89c.41-.61,1.03-.99,1.82-.99l-.2.94h-.22c-.79,0-1.47.39-1.74,1.66l-.63,2.98Z"/>
      <path class="cls-10" d="M482.55,61.21c.93,0,1.45.52,1.62,1.09l.21-1h.84l-1.17,5.48h-.84l.22-1.02c-.43.59-1.18,1.11-2.1,1.11-1.33,0-2.11-1.15-1.75-2.85.36-1.71,1.63-2.81,2.96-2.81ZM482.54,62c-.91,0-1.84.73-2.11,2.02-.27,1.29.34,2.05,1.25,2.05s1.85-.75,2.12-2.04c.27-1.27-.35-2.03-1.26-2.03Z"/>
      <path class="cls-10" d="M486.62,62.05h-.65l.16-.75h.65l.08-.39c.26-1.22.92-1.77,2.2-1.77l-.16.76c-.75,0-1.05.3-1.21,1.01l-.08.39h1.05l-.16.75h-1.05l-1.01,4.73h-.83l1.01-4.73Z"/>
      <path class="cls-10" d="M489.61,62.05h-.65l.16-.75h.65l.08-.39c.26-1.22.92-1.77,2.2-1.77l-.16.76c-.75,0-1.05.3-1.21,1.01l-.08.39h1.05l-.16.75h-1.05l-1.01,4.73h-.83l1.01-4.73Z"/>
      <path class="cls-10" d="M493.58,66.87c-1.42,0-2.23-1.1-1.86-2.84.37-1.73,1.61-2.82,3.06-2.82s2.15,1.12,1.83,2.62c-.04.2-.09.36-.14.55h-3.98c-.17,1.11.41,1.72,1.25,1.72.75,0,1.31-.42,1.61-1.01h.89c-.47,1-1.43,1.78-2.67,1.78ZM492.66,63.64h3.15c.24-1.07-.37-1.66-1.22-1.66-.81,0-1.61.59-1.93,1.66Z"/>
      <path class="cls-10" d="M497.68,62.08l1.02-2.27h.92l-1.36,2.27h-.58Z"/>
      <path class="cls-10" d="M500.83,66.87c-1.16,0-1.83-.7-1.68-1.7h.85c-.07.53.28.93.98.93.66,0,1.09-.36,1.19-.81.26-1.22-2.84-.51-2.4-2.55.18-.84,1.04-1.53,2.15-1.53s1.69.65,1.52,1.72h-.83c.08-.55-.22-.95-.88-.95-.61,0-1.04.32-1.13.76-.28,1.3,2.77.59,2.39,2.55-.19.9-1.05,1.58-2.15,1.58Z"/>
      <path class="cls-10" d="M510.57,63.68c.24-1.12-.2-1.69-1.03-1.69s-1.55.58-1.8,1.76l-.64,3.03h-.83l1.17-5.48h.83l-.17.78c.45-.57,1.11-.88,1.79-.88,1.16,0,1.87.78,1.54,2.35l-.69,3.23h-.82l.66-3.1Z"/>
      <path class="cls-10" d="M514.22,66.87c-1.42,0-2.23-1.1-1.86-2.84.37-1.73,1.61-2.82,3.06-2.82s2.15,1.12,1.83,2.62c-.04.2-.09.36-.14.55h-3.98c-.17,1.11.41,1.72,1.25,1.72.75,0,1.31-.42,1.61-1.01h.89c-.47,1-1.43,1.78-2.67,1.78ZM513.3,63.64h3.15c.24-1.07-.37-1.66-1.22-1.66-.81,0-1.61.59-1.93,1.66Z"/>
      <path class="cls-10" d="M521.03,61.21c1.24,0,1.9.7,1.91,1.85h-.89c-.03-.66-.44-1.08-1.18-1.08-.91,0-1.73.71-2.02,2.05-.29,1.36.23,2.07,1.14,2.07.74,0,1.31-.39,1.64-1.08h.89c-.49,1.09-1.46,1.85-2.69,1.85-1.42,0-2.2-1.1-1.83-2.84.37-1.72,1.61-2.82,3.03-2.82Z"/>
      <path class="cls-10" d="M524.82,59.38h.83l-.92,4.35,2.44-2.43h1.16l-2.93,2.73,1.77,2.75h-1.13l-1.44-2.42-.51,2.42h-.83l1.57-7.4Z"/>
      <path class="cls-10" d="M528.97,66.84c-.32,0-.51-.27-.43-.62.08-.35.38-.62.7-.62.3,0,.49.27.41.62-.07.35-.38.62-.68.62ZM531.06,59.72c1.19,0,1.84.79,1.57,2.06-.31,1.46-1.36,2.06-2.63,2.06l-.23.95h-.72l.3-1.58h.26c1.04,0,1.97-.22,2.22-1.43.17-.8-.2-1.3-.93-1.3s-1.31.47-1.48,1.25h-.78c.25-1.21,1.22-2.01,2.41-2.01Z"/>
    </g>
    <text class="cls-12" transform="translate(492.58 77.78) scale(.98 1.07) skewX(-13.15)"><tspan x="0" y="0"> </tspan></text>
    <text class="cls-11" transform="translate(495 77.78) scale(.98) skewX(-12)"><tspan x="0" y="0"> </tspan></text>
    <g>
      <path class="cls-10" d="M465.18,89.87c-1.16,0-1.83-.7-1.68-1.7h.85c-.07.53.27.93.97.93.66,0,1.1-.36,1.19-.81.26-1.22-2.84-.51-2.4-2.55.18-.84,1.04-1.53,2.15-1.53s1.69.65,1.52,1.72h-.83c.08-.55-.22-.95-.88-.95-.61,0-1.04.32-1.13.76-.28,1.3,2.77.59,2.39,2.55-.19.9-1.05,1.58-2.15,1.58Z"/>
      <path class="cls-10" d="M472.6,89.78h-.83l.17-.81c-.44.57-1.12.89-1.78.89-1.15,0-1.88-.78-1.55-2.35l.68-3.21h.82l-.66,3.09c-.24,1.11.2,1.68,1.03,1.68s1.55-.58,1.8-1.76l.64-3.01h.83l-1.17,5.48Z"/>
      <path class="cls-10" d="M477.31,84.21c1.24,0,1.9.7,1.91,1.85h-.89c-.03-.66-.44-1.08-1.18-1.08-.91,0-1.73.71-2.02,2.05-.29,1.36.23,2.07,1.14,2.07.74,0,1.31-.39,1.64-1.08h.89c-.49,1.09-1.46,1.85-2.69,1.85-1.42,0-2.2-1.1-1.83-2.84.37-1.72,1.61-2.82,3.03-2.82Z"/>
      <path class="cls-10" d="M481.11,82.38h.83l-.58,2.71c.45-.58,1.13-.89,1.83-.89,1.11,0,1.83.78,1.49,2.35l-.69,3.23h-.82l.66-3.1c.24-1.12-.2-1.69-1.03-1.69s-1.55.58-1.8,1.76l-.64,3.03h-.83l1.57-7.4Z"/>
      <path class="cls-10" d="M491.03,84.21c.78,0,1.41.44,1.62,1.07l.62-2.9h.84l-1.57,7.4h-.84l.22-1.03c-.43.61-1.18,1.12-2.09,1.12-1.34,0-2.12-1.15-1.76-2.85.36-1.71,1.63-2.81,2.97-2.81ZM491.02,85c-.91,0-1.84.73-2.11,2.02-.27,1.29.34,2.05,1.25,2.05s1.85-.75,2.12-2.04c.27-1.27-.35-2.03-1.26-2.03Z"/>
      <path class="cls-10" d="M496.07,89.87c-1.42,0-2.23-1.1-1.86-2.84.37-1.73,1.61-2.82,3.06-2.82s2.15,1.12,1.83,2.62c-.04.2-.08.36-.14.55h-3.98c-.17,1.11.41,1.72,1.25,1.72.75,0,1.31-.42,1.62-1.01h.89c-.47,1-1.43,1.78-2.67,1.78ZM495.15,86.64h3.15c.24-1.07-.37-1.66-1.22-1.66-.81,0-1.61.59-1.93,1.66Z"/>
      <path class="cls-10" d="M501.15,82.38h.83l-1.57,7.4h-.83l1.57-7.4Z"/>
      <path class="cls-10" d="M502.98,84.3h.83l-1.17,5.48h-.83l1.17-5.48ZM503.17,82.79c.07-.35.38-.62.7-.62.3,0,.49.27.41.62-.07.35-.38.62-.68.62-.32,0-.51-.27-.43-.62Z"/>
      <path class="cls-10" d="M507.36,84.21c1.24,0,1.9.7,1.91,1.85h-.89c-.03-.66-.44-1.08-1.18-1.08-.91,0-1.73.71-2.02,2.05-.29,1.36.23,2.07,1.14,2.07.74,0,1.31-.39,1.64-1.08h.89c-.49,1.09-1.46,1.85-2.69,1.85-1.42,0-2.2-1.1-1.83-2.84.37-1.72,1.61-2.82,3.03-2.82Z"/>
      <path class="cls-10" d="M510.74,84.3h.83l-1.17,5.48h-.83l1.17-5.48ZM510.93,82.79c.07-.35.38-.62.7-.62.3,0,.49.27.41.62-.07.35-.38.62-.68.62-.32,0-.51-.27-.43-.62Z"/>
      <path class="cls-10" d="M513.97,89.87c-1.41,0-2.25-1.1-1.88-2.84.37-1.73,1.71-2.82,3.12-2.82s2.29,1.09,1.92,2.82c-.37,1.74-1.74,2.84-3.16,2.84ZM514.14,89.07c.86,0,1.85-.65,2.14-2.04.29-1.38-.4-2.03-1.25-2.03s-1.8.65-2.1,2.03c-.3,1.39.34,2.04,1.2,2.04Z"/>
      <path class="cls-10" d="M522.06,89.78h-.83l.17-.81c-.44.57-1.12.89-1.78.89-1.15,0-1.88-.78-1.55-2.35l.68-3.21h.82l-.66,3.09c-.24,1.11.2,1.68,1.03,1.68s1.55-.58,1.8-1.76l.64-3.01h.83l-1.17,5.48Z"/>
      <path class="cls-10" d="M525.21,89.87c-1.16,0-1.83-.7-1.68-1.7h.85c-.07.53.27.93.97.93.66,0,1.1-.36,1.19-.81.26-1.22-2.84-.51-2.4-2.55.18-.84,1.04-1.53,2.15-1.53s1.69.65,1.52,1.72h-.83c.08-.55-.22-.95-.88-.95-.61,0-1.04.32-1.13.76-.28,1.3,2.77.59,2.39,2.55-.19.9-1.05,1.58-2.15,1.58Z"/>
    </g>
    <g>
      <path class="cls-10" d="M479.5,96.21c1.24,0,1.9.7,1.91,1.85h-.89c-.03-.66-.44-1.08-1.18-1.08-.91,0-1.73.71-2.02,2.05-.29,1.36.23,2.07,1.14,2.07.74,0,1.31-.39,1.64-1.08h.89c-.49,1.09-1.46,1.85-2.69,1.85-1.42,0-2.2-1.1-1.83-2.84.37-1.72,1.61-2.82,3.03-2.82Z"/>
      <path class="cls-10" d="M483.88,101.87c-1.41,0-2.25-1.1-1.88-2.84.37-1.73,1.71-2.82,3.12-2.82s2.29,1.09,1.92,2.82c-.37,1.74-1.74,2.84-3.16,2.84ZM484.05,101.07c.86,0,1.85-.65,2.14-2.04.29-1.38-.4-2.03-1.25-2.03s-1.8.65-2.1,2.03c-.29,1.39.34,2.04,1.2,2.04Z"/>
      <path class="cls-10" d="M489.7,101.87c-1.41,0-2.25-1.1-1.88-2.84.37-1.73,1.71-2.82,3.12-2.82s2.29,1.09,1.92,2.82c-.37,1.74-1.74,2.84-3.16,2.84ZM489.87,101.07c.86,0,1.85-.65,2.14-2.04.29-1.38-.4-2.03-1.25-2.03s-1.8.65-2.1,2.03c-.29,1.39.34,2.04,1.2,2.04Z"/>
      <path class="cls-10" d="M494.94,94.38h.83l-.92,4.35,2.44-2.43h1.16l-2.93,2.73,1.77,2.75h-1.13l-1.44-2.42-.51,2.42h-.83l1.57-7.4Z"/>
      <path class="cls-10" d="M499.22,96.3h.83l-1.17,5.48h-.83l1.17-5.48ZM499.41,94.79c.07-.35.38-.62.7-.62.3,0,.49.27.41.62-.07.35-.38.62-.68.62-.32,0-.51-.27-.43-.62Z"/>
      <path class="cls-10" d="M502.43,101.87c-1.42,0-2.23-1.1-1.86-2.84.37-1.73,1.61-2.82,3.06-2.82s2.15,1.12,1.83,2.62c-.04.2-.09.36-.14.55h-3.98c-.17,1.11.41,1.72,1.25,1.72.75,0,1.31-.42,1.61-1.01h.89c-.47,1-1.43,1.78-2.67,1.78ZM501.51,98.64h3.15c.24-1.07-.37-1.66-1.22-1.66-.81,0-1.61.59-1.93,1.66Z"/>
      <path class="cls-10" d="M507.68,101.87c-1.16,0-1.83-.7-1.68-1.7h.85c-.07.53.28.93.98.93.66,0,1.09-.36,1.19-.81.26-1.22-2.84-.51-2.4-2.55.18-.84,1.04-1.53,2.15-1.53s1.69.65,1.52,1.72h-.83c.08-.55-.22-.95-.88-.95-.61,0-1.04.32-1.13.76-.28,1.3,2.77.59,2.39,2.55-.19.9-1.05,1.58-2.15,1.58Z"/>
      <path class="cls-10" d="M511.72,101.84c-.32,0-.51-.27-.43-.62.08-.35.38-.62.7-.62.3,0,.49.27.41.62-.07.35-.38.62-.68.62ZM513.81,94.72c1.19,0,1.84.79,1.57,2.06-.31,1.46-1.36,2.06-2.63,2.06l-.23.95h-.72l.3-1.58h.26c1.04,0,1.97-.22,2.22-1.43.17-.8-.2-1.3-.93-1.3s-1.31.47-1.48,1.25h-.78c.25-1.21,1.22-2.01,2.41-2.01Z"/>
    </g>
    <g>
      <path class="cls-10" d="M131.61,61.29h.91l-1.16,5.48h-.91l1.16-5.48ZM131.78,59.78c.07-.35.4-.62.75-.62.33,0,.54.27.47.62-.07.35-.4.62-.73.62-.35,0-.56-.27-.49-.62Z"/>
      <path class="cls-10" d="M134.82,66.86c-1.28,0-2.03-.7-1.88-1.7h.94c-.06.53.32.93,1.09.93.72,0,1.2-.36,1.29-.81.26-1.22-3.13-.51-2.7-2.55.18-.84,1.11-1.53,2.33-1.53s1.87.65,1.7,1.72h-.91c.08-.55-.26-.95-.99-.95-.67,0-1.14.32-1.23.76-.28,1.3,3.05.59,2.68,2.55-.19.9-1.12,1.58-2.33,1.58Z"/>
    </g>
    <text class="cls-11" transform="translate(132.18 85.77) scale(.98) skewX(-12)"><tspan x="0" y="0"> </tspan></text>
    <g>
      <path class="cls-10" d="M131.61,92.29h.91l-1.17,5.48h-.91l1.17-5.48ZM131.78,90.78c.07-.35.4-.62.75-.62.33,0,.54.27.47.62-.07.35-.4.62-.73.62-.35,0-.56-.27-.49-.62Z"/>
      <path class="cls-10" d="M134.82,97.86c-1.28,0-2.03-.7-1.88-1.7h.94c-.06.53.32.93,1.09.93.72,0,1.2-.36,1.29-.81.26-1.22-3.13-.51-2.7-2.55.18-.84,1.11-1.53,2.33-1.53s1.87.65,1.7,1.72h-.91c.08-.55-.26-.95-.99-.95-.67,0-1.14.32-1.23.76-.28,1.3,3.05.59,2.68,2.55-.19.9-1.12,1.58-2.33,1.58Z"/>
    </g>
    <g>
      <path class="cls-10" d="M372.27,61.29h.94l-5.01,8.06h-.94l1.64-2.64-1.06-5.42h1.01l.78,4.44,2.64-4.44Z"/>
      <path class="cls-10" d="M375.33,66.86c-1.55,0-2.5-1.1-2.12-2.84.37-1.73,1.82-2.82,3.37-2.82s2.54,1.09,2.17,2.82c-.37,1.74-1.85,2.84-3.41,2.84ZM375.5,66.06c.95,0,2.02-.65,2.31-2.04.29-1.38-.48-2.03-1.42-2.03s-1.97.65-2.26,2.03c-.3,1.39.42,2.04,1.37,2.04Z"/>
      <path class="cls-10" d="M384.22,66.77h-.91l.17-.81c-.47.57-1.21.89-1.94.89-1.26,0-2.08-.78-1.75-2.35l.68-3.21h.9l-.66,3.09c-.24,1.11.25,1.68,1.17,1.68s1.69-.58,1.94-1.76l.64-3.01h.91l-1.17,5.48Z"/>
    </g>
    <text class="cls-11" transform="translate(374.44 77.77) scale(.98) skewX(-12)"><tspan x="0" y="0"> </tspan></text>
    <g>
      <path class="cls-10" d="M370.41,84.29h.94l-5.01,8.06h-.94l1.64-2.64-1.06-5.42h1.01l.78,4.44,2.64-4.44Z"/>
      <path class="cls-10" d="M373.46,89.86c-1.55,0-2.49-1.1-2.12-2.84.37-1.73,1.82-2.82,3.37-2.82s2.54,1.09,2.17,2.82c-.37,1.74-1.85,2.84-3.41,2.84ZM373.63,89.06c.95,0,2.02-.65,2.31-2.04.29-1.38-.48-2.03-1.42-2.03s-1.97.65-2.26,2.03c-.3,1.39.42,2.04,1.36,2.04Z"/>
      <path class="cls-10" d="M382.35,89.77h-.91l.17-.81c-.47.57-1.21.89-1.94.89-1.26,0-2.08-.78-1.75-2.35l.68-3.21h.9l-.66,3.09c-.24,1.11.25,1.68,1.17,1.68s1.69-.58,1.94-1.76l.64-3.01h.91l-1.17,5.48Z"/>
      <path class="cls-10" d="M384.8,89.77h-.91l1.17-5.48h.91l-.19.89c.44-.61,1.11-.99,1.98-.99l-.2.94h-.24c-.87,0-1.61.39-1.88,1.66l-.63,2.98Z"/>
    </g>
    <g>
      <path class="cls-10" d="M356.26,96.2c1,0,1.61.5,1.81,1.09l.21-1h.92l-1.19,5.6c-.32,1.51-1.56,2.58-3.17,2.58-1.44,0-2.31-.73-2.24-1.9h.9c.06.66.61,1.11,1.51,1.11.97,0,1.83-.62,2.08-1.79l.24-1.15c-.46.59-1.28,1.12-2.28,1.12-1.47,0-2.35-1.15-1.99-2.85.36-1.71,1.73-2.81,3.2-2.81ZM356.27,96.99c-1,0-2,.73-2.28,2.02-.27,1.29.41,2.05,1.41,2.05s2.02-.75,2.29-2.04c.27-1.27-.43-2.03-1.43-2.03Z"/>
      <path class="cls-10" d="M360.48,101.77h-.91l1.17-5.48h.91l-.19.89c.44-.61,1.11-.99,1.98-.99l-.2.94h-.24c-.87,0-1.61.39-1.88,1.66l-.63,2.98Z"/>
      <path class="cls-10" d="M366.75,96.2c1.02,0,1.61.52,1.81,1.09l.21-1h.92l-1.17,5.48h-.92l.22-1.02c-.46.59-1.28,1.11-2.28,1.11-1.46,0-2.34-1.15-1.98-2.85.36-1.71,1.73-2.81,3.2-2.81ZM366.76,96.99c-1,0-2,.73-2.28,2.02-.27,1.29.41,2.05,1.41,2.05s2.02-.75,2.29-2.04c.27-1.27-.43-2.03-1.43-2.03Z"/>
      <path class="cls-10" d="M374.73,98.67c.24-1.12-.25-1.69-1.17-1.69s-1.69.58-1.94,1.76l-.64,3.03h-.91l1.17-5.48h.91l-.17.78c.48-.57,1.21-.88,1.95-.88,1.27,0,2.07.78,1.74,2.35l-.69,3.23h-.9l.66-3.1Z"/>
      <path class="cls-10" d="M379.92,96.2c.86,0,1.56.44,1.8,1.07l.62-2.9h.92l-1.57,7.4h-.92l.22-1.03c-.46.61-1.28,1.12-2.28,1.12-1.47,0-2.35-1.15-1.99-2.85.36-1.71,1.73-2.81,3.21-2.81ZM379.92,96.99c-1,0-2,.73-2.28,2.02-.27,1.29.41,2.05,1.41,2.05s2.02-.75,2.29-2.04c.27-1.27-.43-2.03-1.43-2.03Z"/>
      <path class="cls-10" d="M391.79,98.67c.24-1.12-.24-1.69-1.14-1.69s-1.67.59-1.92,1.77l-.64,3.02h-.9l.66-3.1c.24-1.12-.24-1.69-1.14-1.69s-1.68.59-1.93,1.77l-.64,3.02h-.91l1.17-5.48h.91l-.17.79c.48-.58,1.2-.89,1.92-.89.9,0,1.56.4,1.75,1.22.49-.79,1.36-1.22,2.2-1.22,1.25,0,2.05.78,1.72,2.35l-.69,3.23h-.9l.66-3.1Z"/>
      <path class="cls-10" d="M396.97,96.2c1.02,0,1.61.52,1.81,1.09l.21-1h.92l-1.17,5.48h-.92l.22-1.02c-.46.59-1.28,1.11-2.28,1.11-1.46,0-2.34-1.15-1.98-2.85.36-1.71,1.73-2.81,3.2-2.81ZM396.98,96.99c-1,0-2,.73-2.28,2.02-.27,1.29.41,2.05,1.41,2.05s2.02-.75,2.29-2.04c.27-1.27-.43-2.03-1.43-2.03Z"/>
    </g>
    <g>
      <path class="cls-10" d="M178.47,61.2c1.02,0,1.61.52,1.81,1.09l.21-1h.92l-1.16,5.48h-.92l.22-1.02c-.46.59-1.28,1.11-2.28,1.11-1.46,0-2.34-1.15-1.98-2.85.36-1.71,1.73-2.81,3.2-2.81ZM178.48,61.99c-1,0-2,.73-2.28,2.02-.27,1.29.41,2.05,1.41,2.05s2.02-.75,2.29-2.04c.27-1.27-.43-2.03-1.43-2.03Z"/>
      <path class="cls-10" d="M187.9,61.2c1,0,1.61.5,1.81,1.09l.21-1h.92l-1.19,5.6c-.32,1.51-1.56,2.58-3.17,2.58-1.44,0-2.31-.73-2.24-1.9h.9c.06.66.61,1.11,1.51,1.11.97,0,1.83-.62,2.08-1.79l.24-1.15c-.46.59-1.28,1.12-2.28,1.12-1.47,0-2.35-1.15-1.99-2.85.36-1.71,1.73-2.81,3.2-2.81ZM187.91,61.99c-1,0-2,.73-2.28,2.02-.27,1.29.41,2.05,1.41,2.05s2.02-.75,2.29-2.04c.27-1.27-.43-2.03-1.43-2.03Z"/>
      <path class="cls-10" d="M192.38,61.29h.91l-1.16,5.48h-.91l1.16-5.48ZM192.55,59.78c.07-.35.4-.62.75-.62.33,0,.54.27.47.62-.07.35-.4.62-.73.62-.35,0-.56-.27-.49-.62Z"/>
      <path class="cls-10" d="M194.58,66.77h-.91l1.16-5.48h.91l-.19.89c.44-.61,1.11-.99,1.98-.99l-.2.94h-.24c-.87,0-1.61.39-1.88,1.66l-.63,2.98Z"/>
      <path class="cls-10" d="M200.85,61.2c1.02,0,1.61.52,1.81,1.09l.21-1h.92l-1.16,5.48h-.92l.22-1.02c-.46.59-1.28,1.11-2.28,1.11-1.46,0-2.34-1.15-1.98-2.85.36-1.71,1.73-2.81,3.2-2.81ZM200.86,61.99c-1,0-2,.73-2.28,2.02-.27,1.29.41,2.05,1.41,2.05s2.02-.75,2.29-2.04c.27-1.27-.43-2.03-1.43-2.03Z"/>
      <path class="cls-10" d="M205.34,62.04h-.71l.16-.75h.71l.08-.39c.26-1.22.98-1.77,2.38-1.77l-.16.76c-.82,0-1.15.3-1.3,1.01l-.08.39h1.15l-.16.75h-1.15l-1.01,4.73h-.91l1.01-4.73Z"/>
      <path class="cls-10" d="M208.63,62.04h-.71l.16-.75h.71l.08-.39c.26-1.22.98-1.77,2.38-1.77l-.16.76c-.82,0-1.15.3-1.3,1.01l-.08.39h1.15l-.16.75h-1.15l-1.01,4.73h-.91l1.01-4.73Z"/>
      <path class="cls-10" d="M213.09,66.86c-1.56,0-2.48-1.1-2.11-2.84.37-1.73,1.71-2.82,3.31-2.82s2.39,1.12,2.07,2.62c-.04.2-.09.36-.15.55h-4.38c-.17,1.11.48,1.72,1.41,1.72.82,0,1.43-.42,1.75-1.01h.98c-.49,1-1.54,1.78-2.9,1.78ZM212.01,63.63h3.46c.24-1.07-.44-1.66-1.38-1.66-.89,0-1.76.59-2.08,1.66Z"/>
      <path class="cls-10" d="M218.08,66.83c-.35,0-.56-.27-.49-.62.07-.35.4-.62.75-.62.33,0,.54.27.47.62-.07.35-.4.62-.73.62ZM220.22,59.71c1.31,0,2.04.79,1.77,2.06-.31,1.46-1.45,2.06-2.85,2.06l-.23.95h-.79l.3-1.58h.29c1.14,0,2.16-.22,2.41-1.43.17-.8-.24-1.3-1.05-1.3s-1.43.47-1.59,1.25h-.86c.25-1.21,1.3-2.01,2.61-2.01Z"/>
    </g>
    <text class="cls-11" transform="translate(196.5 85.77) scale(.98) skewX(-12)"><tspan x="0" y="0"> </tspan></text>
    <g>
      <path class="cls-10" d="M160.34,93.04h-.71l.16-.75h.71l.29-1.38h.91l-.29,1.38h1.43l-.16.75h-1.43l-.69,3.23c-.11.54.04.73.6.73h.67l-.16.77h-.82c-.97,0-1.43-.4-1.2-1.5l.69-3.23Z"/>
      <path class="cls-10" d="M164.35,90.37h.91l-.58,2.71c.48-.58,1.23-.89,2-.89,1.22,0,2.02.78,1.69,2.35l-.69,3.23h-.9l.66-3.1c.24-1.12-.25-1.69-1.17-1.69s-1.69.58-1.94,1.76l-.64,3.03h-.91l1.57-7.4Z"/>
      <path class="cls-10" d="M170.34,92.29h.91l-1.17,5.48h-.91l1.17-5.48ZM170.51,90.78c.07-.35.4-.62.75-.62.33,0,.54.27.47.62-.07.35-.4.62-.73.62-.35,0-.56-.27-.49-.62Z"/>
      <path class="cls-10" d="M173.56,97.86c-1.28,0-2.03-.7-1.88-1.7h.94c-.06.53.32.93,1.09.93.72,0,1.2-.36,1.29-.81.26-1.22-3.13-.51-2.7-2.55.18-.84,1.11-1.53,2.33-1.53s1.87.65,1.7,1.72h-.91c.08-.55-.26-.95-.99-.95-.67,0-1.14.32-1.23.76-.28,1.3,3.05.59,2.68,2.55-.19.9-1.12,1.58-2.33,1.58Z"/>
      <path class="cls-10" d="M183.67,92.2c1.48,0,2.37,1.1,2,2.81-.36,1.7-1.73,2.85-3.2,2.85-1,0-1.6-.5-1.82-1.1l-.21,1.01h-.91l1.57-7.4h.91l-.62,2.94c.48-.61,1.32-1.11,2.28-1.11ZM183.31,92.99c-.99,0-2.02.76-2.29,2.03-.27,1.29.44,2.04,1.43,2.04s2.02-.76,2.29-2.05c.27-1.29-.42-2.02-1.43-2.02Z"/>
      <path class="cls-10" d="M188.64,97.86c-1.56,0-2.48-1.1-2.11-2.84.37-1.73,1.71-2.82,3.31-2.82s2.39,1.12,2.07,2.62c-.04.2-.09.36-.15.55h-4.38c-.17,1.11.48,1.72,1.41,1.72.82,0,1.43-.42,1.75-1.01h.98c-.49,1-1.54,1.78-2.9,1.78ZM187.55,94.63h3.46c.24-1.07-.44-1.66-1.38-1.66-.89,0-1.76.59-2.08,1.66Z"/>
      <path class="cls-10" d="M195.93,92.2c1.02,0,1.61.52,1.81,1.09l.21-1h.92l-1.17,5.48h-.92l.22-1.02c-.46.59-1.28,1.11-2.28,1.11-1.46,0-2.34-1.15-1.98-2.85.36-1.71,1.73-2.81,3.2-2.81ZM195.94,92.99c-1,0-2,.73-2.28,2.02-.27,1.29.41,2.05,1.41,2.05s2.02-.75,2.29-2.04c.27-1.27-.43-2.03-1.43-2.03Z"/>
      <path class="cls-10" d="M202.76,92.2c1.36,0,2.1.7,2.14,1.85h-.98c-.05-.66-.51-1.08-1.32-1.08-1,0-1.89.71-2.17,2.05-.29,1.36.3,2.07,1.3,2.07.81,0,1.43-.39,1.78-1.08h.98c-.51,1.09-1.56,1.85-2.92,1.85-1.56,0-2.44-1.1-2.07-2.84.37-1.72,1.71-2.82,3.27-2.82Z"/>
      <path class="cls-10" d="M206.89,90.37h.91l-.58,2.71c.48-.58,1.23-.89,2-.89,1.22,0,2.02.78,1.69,2.35l-.69,3.23h-.9l.66-3.1c.24-1.12-.25-1.69-1.17-1.69s-1.69.58-1.94,1.76l-.64,3.03h-.91l1.57-7.4Z"/>
      <path class="cls-10" d="M218.53,92.2c1.48,0,2.37,1.1,2,2.81-.36,1.7-1.73,2.85-3.2,2.85-1,0-1.6-.5-1.82-1.1l-.21,1.01h-.91l1.57-7.4h.91l-.62,2.94c.48-.61,1.32-1.11,2.28-1.11ZM218.17,92.99c-.99,0-2.02.76-2.29,2.03-.27,1.29.44,2.04,1.43,2.04s2.02-.76,2.29-2.05c.27-1.29-.42-2.02-1.43-2.02Z"/>
      <path class="cls-10" d="M224.59,92.2c1.02,0,1.61.52,1.81,1.09l.21-1h.92l-1.17,5.48h-.92l.22-1.02c-.46.59-1.28,1.11-2.28,1.11-1.46,0-2.34-1.15-1.98-2.85.36-1.71,1.73-2.81,3.2-2.81ZM224.6,92.99c-1,0-2,.73-2.28,2.02-.27,1.29.41,2.05,1.41,2.05s2.02-.75,2.29-2.04c.27-1.27-.43-2.03-1.43-2.03Z"/>
      <path class="cls-10" d="M229.48,90.37h.91l-1.57,7.4h-.91l1.57-7.4Z"/>
      <path class="cls-10" d="M231.94,90.37h.91l-1.57,7.4h-.91l1.57-7.4Z"/>
      <path class="cls-10" d="M233.96,97.83c-.35,0-.56-.27-.49-.62.07-.35.4-.62.75-.62.33,0,.54.27.47.62-.07.35-.4.62-.73.62ZM236.11,90.71c1.31,0,2.04.79,1.77,2.06-.31,1.46-1.45,2.06-2.85,2.06l-.23.95h-.79l.3-1.58h.29c1.14,0,2.16-.22,2.41-1.43.17-.8-.24-1.3-1.05-1.3s-1.43.47-1.59,1.25h-.86c.25-1.21,1.3-2.01,2.61-2.01Z"/>
    </g>
    <g>
      <path class="cls-10" d="M286.7,138.47h-1.34v2.91h-.91v-6.97h2.25c1.64,0,2.41.9,2.41,2.04,0,1.06-.68,2.02-2.41,2.02ZM286.7,137.72c1.04,0,1.48-.49,1.48-1.27s-.44-1.29-1.48-1.29h-1.34v2.56h1.34Z"/>
      <path class="cls-10" d="M291.15,141.38h-.91v-5.48h.91v.89c.31-.61.9-.99,1.77-.99v.94h-.24c-.87,0-1.53.39-1.53,1.66v2.98Z"/>
      <path class="cls-10" d="M296.36,141.47c-1.55,0-2.73-1.1-2.73-2.84s1.22-2.82,2.77-2.82,2.77,1.09,2.77,2.82-1.25,2.84-2.81,2.84ZM296.36,140.67c.95,0,1.88-.65,1.88-2.04s-.91-2.03-1.85-2.03-1.83.65-1.83,2.03.85,2.04,1.8,2.04Z"/>
      <path class="cls-10" d="M304.37,138.28c0-1.12-.61-1.69-1.53-1.69s-1.57.58-1.57,1.76v3.03h-.91v-5.48h.91v.78c.36-.57,1.02-.88,1.76-.88,1.27,0,2.24.78,2.24,2.35v3.23h-.9v-3.1Z"/>
      <path class="cls-10" d="M309.15,141.47c-1.55,0-2.73-1.1-2.73-2.84s1.22-2.82,2.77-2.82,2.77,1.09,2.77,2.82-1.25,2.84-2.81,2.84ZM309.15,140.67c.95,0,1.88-.65,1.88-2.04s-.91-2.03-1.85-2.03-1.83.65-1.83,2.03.85,2.04,1.8,2.04Z"/>
      <path class="cls-10" d="M318.02,141.38h-.91v-.81c-.35.57-1.02.89-1.75.89-1.26,0-2.25-.78-2.25-2.35v-3.21h.9v3.09c0,1.11.61,1.68,1.53,1.68s1.57-.58,1.57-1.76v-3.01h.91v5.48Z"/>
      <path class="cls-10" d="M323.57,138.28c0-1.12-.61-1.69-1.53-1.69s-1.57.58-1.57,1.76v3.03h-.91v-5.48h.91v.78c.36-.57,1.02-.88,1.76-.88,1.27,0,2.24.78,2.24,2.35v3.23h-.9v-3.1Z"/>
    </g>
    <g>
      <path class="cls-10" d="M109.25,135.9l1.71,4.64,1.7-4.64h.97l-2.15,5.48h-1.06l-2.15-5.48h.98Z"/>
      <path class="cls-10" d="M116.9,141.47c-1.56,0-2.71-1.1-2.71-2.84s1.11-2.82,2.71-2.82,2.63,1.12,2.63,2.62c0,.2,0,.36-.03.55h-4.38c.07,1.11.85,1.72,1.78,1.72.82,0,1.34-.42,1.54-1.01h.98c-.28,1-1.16,1.78-2.52,1.78ZM115.13,138.24h3.46c.01-1.07-.79-1.66-1.73-1.66-.89,0-1.63.59-1.73,1.66Z"/>
      <path class="cls-10" d="M121.64,141.38h-.91v-5.48h.91v.89c.31-.61.9-.99,1.77-.99v.94h-.24c-.87,0-1.53.39-1.53,1.66v2.98Z"/>
      <path class="cls-10" d="M127.41,135.81c1.48,0,2.6,1.1,2.6,2.81s-1.13,2.85-2.6,2.85c-1,0-1.71-.5-2.05-1.1v1.01h-.91v-7.4h.91v2.94c.35-.61,1.08-1.11,2.05-1.11ZM127.22,136.6c-.99,0-1.86.76-1.86,2.03s.87,2.04,1.86,2.04,1.86-.76,1.86-2.05-.85-2.02-1.86-2.02Z"/>
    </g>
    <g>
      <path class="cls-10" d="M111.29,158.86c.86,0,1.56.44,1.8,1.07l.62-2.9h.92l-1.57,7.4h-.92l.22-1.03c-.46.61-1.28,1.12-2.28,1.12-1.47,0-2.35-1.15-1.99-2.85.36-1.71,1.73-2.81,3.21-2.81ZM111.29,159.64c-1,0-2,.73-2.28,2.02-.27,1.29.41,2.05,1.41,2.05s2.02-.75,2.29-2.04c.27-1.27-.43-2.03-1.43-2.03Z"/>
      <path class="cls-10" d="M115.76,158.94h.91l-1.16,5.48h-.91l1.16-5.48ZM115.93,157.43c.07-.35.4-.62.75-.62.33,0,.54.27.47.62-.07.35-.4.62-.73.62-.35,0-.56-.27-.49-.62Z"/>
      <path class="cls-10" d="M118.55,158.94l.72,4.64,2.69-4.64h.97l-3.31,5.48h-1.06l-.98-5.48h.98Z"/>
      <path class="cls-10" d="M125.01,164.51c-1.56,0-2.48-1.1-2.11-2.84.37-1.73,1.71-2.82,3.31-2.82s2.39,1.12,2.07,2.62c-.04.2-.09.36-.15.55h-4.38c-.17,1.11.48,1.72,1.41,1.72.82,0,1.43-.42,1.75-1.01h.98c-.49,1-1.54,1.78-2.9,1.78ZM123.93,161.28h3.46c.24-1.07-.44-1.66-1.38-1.66-.89,0-1.76.59-2.08,1.66Z"/>
      <path class="cls-10" d="M130.78,164.51c-1.28,0-2.03-.7-1.88-1.7h.94c-.06.53.32.93,1.09.93.72,0,1.2-.36,1.29-.81.26-1.22-3.13-.51-2.7-2.55.18-.84,1.11-1.53,2.33-1.53s1.87.65,1.7,1.72h-.91c.08-.55-.26-.95-.99-.95-.67,0-1.14.32-1.23.76-.28,1.3,3.05.59,2.68,2.55-.19.9-1.12,1.58-2.33,1.58Z"/>
    </g>
    <g>
      <path class="cls-10" d="M353.02,135.9l1.71,4.64,1.7-4.64h.97l-2.15,5.48h-1.06l-2.15-5.48h.98Z"/>
      <path class="cls-10" d="M360.67,141.47c-1.56,0-2.71-1.1-2.71-2.84s1.11-2.82,2.71-2.82,2.63,1.12,2.63,2.62c0,.2,0,.36-.03.55h-4.38c.07,1.11.85,1.72,1.78,1.72.82,0,1.34-.42,1.54-1.01h.98c-.28,1-1.16,1.78-2.52,1.78ZM358.9,138.24h3.46c0-1.07-.79-1.66-1.73-1.66-.89,0-1.63.59-1.73,1.66Z"/>
      <path class="cls-10" d="M365.41,141.38h-.91v-5.48h.91v.89c.31-.61.9-.99,1.77-.99v.94h-.24c-.87,0-1.53.39-1.53,1.66v2.98Z"/>
      <path class="cls-10" d="M371.19,135.81c1.48,0,2.6,1.1,2.6,2.81s-1.13,2.85-2.6,2.85c-1,0-1.71-.5-2.05-1.1v1.01h-.91v-7.4h.91v2.94c.35-.61,1.08-1.11,2.05-1.11ZM371,136.6c-.99,0-1.86.76-1.86,2.03s.87,2.04,1.86,2.04,1.86-.76,1.86-2.05-.85-2.02-1.86-2.02Z"/>
      <path class="cls-10" d="M378.76,134.4l-.59,2.27h-1.01l.96-2.27h.64ZM380.39,134.4l-.59,2.27h-1.01l.96-2.27h.64Z"/>
      <path class="cls-10" d="M381.72,136.65h-.71v-.75h.71v-1.38h.91v1.38h1.43v.75h-1.43v3.23c0,.54.2.73.76.73h.67v.77h-.82c-.97,0-1.52-.4-1.52-1.5v-3.23Z"/>
      <path class="cls-10" d="M387.55,141.47c-1.55,0-2.73-1.1-2.73-2.84s1.22-2.82,2.77-2.82,2.77,1.09,2.77,2.82-1.25,2.84-2.81,2.84ZM387.55,140.67c.95,0,1.88-.65,1.88-2.04s-.91-2.03-1.85-2.03-1.83.65-1.83,2.03.85,2.04,1.8,2.04Z"/>
      <path class="cls-10" d="M397.19,135.81c1.48,0,2.6,1.1,2.6,2.81s-1.13,2.85-2.6,2.85c-1,0-1.71-.5-2.05-1.1v1.01h-.91v-7.4h.91v2.94c.35-.61,1.08-1.11,2.05-1.11ZM397,136.6c-.99,0-1.86.76-1.86,2.03s.87,2.04,1.86,2.04,1.86-.76,1.86-2.05-.85-2.02-1.86-2.02Z"/>
      <path class="cls-10" d="M403.36,141.47c-1.56,0-2.71-1.1-2.71-2.84s1.11-2.82,2.71-2.82,2.63,1.12,2.63,2.62c0,.2,0,.36-.03.55h-4.38c.07,1.11.85,1.72,1.78,1.72.82,0,1.34-.42,1.54-1.01h.98c-.28,1-1.16,1.78-2.52,1.78ZM401.59,138.24h3.46c0-1.07-.79-1.66-1.73-1.66-.89,0-1.63.59-1.73,1.66Z"/>
      <path class="cls-10" d="M406.83,136.68l.59-2.27h1.01l-.96,2.27h-.64ZM408.46,136.68l.59-2.27h1.01l-.96,2.27h-.64Z"/>
    </g>
    <g>
      <path class="cls-10" d="M176.59,138.28c0-1.12-.6-1.69-1.5-1.69s-1.55.59-1.55,1.77v3.02h-.9v-3.1c0-1.12-.6-1.69-1.5-1.69s-1.55.59-1.55,1.77v3.02h-.91v-5.48h.91v.79c.36-.58,1.01-.89,1.73-.89.9,0,1.65.4,2.01,1.22.32-.79,1.1-1.22,1.94-1.22,1.25,0,2.22.78,2.22,2.35v3.23h-.9v-3.1Z"/>
      <path class="cls-10" d="M181.35,141.47c-1.56,0-2.71-1.1-2.71-2.84s1.11-2.82,2.71-2.82,2.63,1.12,2.63,2.62c0,.2,0,.36-.03.55h-4.38c.07,1.11.85,1.72,1.78,1.72.82,0,1.34-.42,1.54-1.01h.98c-.28,1-1.16,1.78-2.52,1.78ZM179.58,138.24h3.46c.01-1.07-.79-1.66-1.73-1.66-.89,0-1.63.59-1.73,1.66Z"/>
      <path class="cls-10" d="M187.44,135.81c1.02,0,1.72.52,2.04,1.09v-1h.92v5.48h-.92v-1.02c-.33.59-1.04,1.11-2.05,1.11-1.46,0-2.59-1.15-2.59-2.85s1.13-2.81,2.6-2.81ZM187.62,136.6c-1,0-1.85.73-1.85,2.02s.85,2.05,1.85,2.05,1.86-.75,1.86-2.04-.86-2.03-1.86-2.03Z"/>
      <path class="cls-10" d="M193.88,141.47c-1.28,0-2.18-.7-2.24-1.7h.94c.05.53.52.93,1.29.93.72,0,1.12-.36,1.12-.81,0-1.22-3.24-.51-3.24-2.55,0-.84.79-1.53,2.01-1.53s2.01.65,2.07,1.72h-.91c-.04-.55-.46-.95-1.19-.95-.67,0-1.07.32-1.07.76,0,1.3,3.18.59,3.22,2.55,0,.9-.79,1.58-2,1.58Z"/>
      <path class="cls-10" d="M202.02,141.38h-.91v-.81c-.35.57-1.02.89-1.75.89-1.26,0-2.25-.78-2.25-2.35v-3.21h.9v3.09c0,1.11.61,1.68,1.53,1.68s1.57-.58,1.57-1.76v-3.01h.91v5.48Z"/>
      <path class="cls-10" d="M204.47,141.38h-.91v-5.48h.91v.89c.31-.61.9-.99,1.77-.99v.94h-.24c-.87,0-1.53.39-1.53,1.66v2.98Z"/>
      <path class="cls-10" d="M209.66,141.47c-1.56,0-2.71-1.1-2.71-2.84s1.11-2.82,2.71-2.82,2.63,1.12,2.63,2.62c0,.2,0,.36-.03.55h-4.38c.07,1.11.85,1.72,1.78,1.72.82,0,1.34-.42,1.54-1.01h.98c-.28,1-1.16,1.78-2.52,1.78ZM207.89,138.24h3.46c.01-1.07-.79-1.66-1.73-1.66-.89,0-1.63.59-1.73,1.66Z"/>
      <path class="cls-10" d="M221.4,138.28c0-1.12-.6-1.69-1.5-1.69s-1.55.59-1.55,1.77v3.02h-.9v-3.1c0-1.12-.6-1.69-1.5-1.69s-1.55.59-1.55,1.77v3.02h-.91v-5.48h.91v.79c.36-.58,1.01-.89,1.73-.89.9,0,1.65.4,2.01,1.22.32-.79,1.1-1.22,1.94-1.22,1.25,0,2.22.78,2.22,2.35v3.23h-.9v-3.1Z"/>
      <path class="cls-10" d="M226.16,141.47c-1.56,0-2.71-1.1-2.71-2.84s1.11-2.82,2.71-2.82,2.63,1.12,2.63,2.62c0,.2,0,.36-.03.55h-4.38c.07,1.11.85,1.72,1.78,1.72.82,0,1.34-.42,1.54-1.01h.98c-.28,1-1.16,1.78-2.52,1.78ZM224.39,138.24h3.46c.01-1.07-.79-1.66-1.73-1.66-.89,0-1.63.59-1.73,1.66Z"/>
      <path class="cls-10" d="M234,138.28c0-1.12-.61-1.69-1.53-1.69s-1.57.58-1.57,1.76v3.03h-.91v-5.48h.91v.78c.36-.57,1.02-.88,1.76-.88,1.27,0,2.24.78,2.24,2.35v3.23h-.9v-3.1Z"/>
      <path class="cls-10" d="M236.59,136.65h-.71v-.75h.71v-1.38h.91v1.38h1.43v.75h-1.43v3.23c0,.54.2.73.76.73h.67v.77h-.82c-.97,0-1.52-.4-1.52-1.5v-3.23Z"/>
      <path class="cls-10" d="M240.32,141.44c-.35,0-.62-.27-.62-.62s.27-.62.62-.62c.33,0,.6.27.6.62s-.27.62-.6.62Z"/>
    </g>
    <g>
      <path class="cls-10" d="M450.85,138.28c0-1.12-.6-1.69-1.5-1.69s-1.55.59-1.55,1.77v3.02h-.9v-3.1c0-1.12-.6-1.69-1.5-1.69s-1.55.59-1.55,1.77v3.02h-.91v-5.48h.91v.79c.36-.58,1.01-.89,1.73-.89.9,0,1.65.4,2.01,1.22.32-.79,1.1-1.22,1.94-1.22,1.25,0,2.22.78,2.22,2.35v3.23h-.9v-3.1Z"/>
      <path class="cls-10" d="M455.61,141.47c-1.56,0-2.71-1.1-2.71-2.84s1.11-2.82,2.71-2.82,2.63,1.12,2.63,2.62c0,.2,0,.36-.03.55h-4.38c.07,1.11.85,1.72,1.78,1.72.82,0,1.34-.42,1.54-1.01h.98c-.28,1-1.16,1.78-2.52,1.78ZM453.84,138.24h3.46c.01-1.07-.79-1.66-1.73-1.66-.89,0-1.63.59-1.73,1.66Z"/>
      <path class="cls-10" d="M461.7,135.81c1.02,0,1.72.52,2.04,1.09v-1h.92v5.48h-.92v-1.02c-.33.59-1.04,1.11-2.05,1.11-1.46,0-2.59-1.15-2.59-2.85s1.13-2.81,2.6-2.81ZM461.88,136.6c-1,0-1.85.73-1.85,2.02s.85,2.05,1.85,2.05,1.86-.75,1.86-2.04-.86-2.03-1.86-2.03Z"/>
      <path class="cls-10" d="M468.14,141.47c-1.28,0-2.18-.7-2.24-1.7h.94c.05.53.52.93,1.29.93.72,0,1.12-.36,1.12-.81,0-1.22-3.24-.51-3.24-2.55,0-.84.79-1.53,2.01-1.53s2.01.65,2.07,1.72h-.91c-.04-.55-.46-.95-1.19-.95-.67,0-1.07.32-1.07.76,0,1.3,3.18.59,3.22,2.55,0,.9-.79,1.58-2,1.58Z"/>
      <path class="cls-10" d="M476.28,141.38h-.91v-.81c-.35.57-1.02.89-1.75.89-1.26,0-2.25-.78-2.25-2.35v-3.21h.9v3.09c0,1.11.61,1.68,1.53,1.68s1.57-.58,1.57-1.76v-3.01h.91v5.48Z"/>
      <path class="cls-10" d="M478.73,141.38h-.91v-5.48h.91v.89c.31-.61.9-.99,1.77-.99v.94h-.24c-.87,0-1.53.39-1.53,1.66v2.98Z"/>
      <path class="cls-10" d="M483.92,141.47c-1.56,0-2.71-1.1-2.71-2.84s1.11-2.82,2.71-2.82,2.63,1.12,2.63,2.62c0,.2,0,.36-.03.55h-4.38c.07,1.11.85,1.72,1.78,1.72.82,0,1.34-.42,1.54-1.01h.98c-.28,1-1.16,1.78-2.52,1.78ZM482.15,138.24h3.46c0-1.07-.79-1.66-1.73-1.66-.89,0-1.63.59-1.73,1.66Z"/>
      <path class="cls-10" d="M495.66,138.28c0-1.12-.6-1.69-1.5-1.69s-1.55.59-1.55,1.77v3.02h-.9v-3.1c0-1.12-.6-1.69-1.5-1.69s-1.55.59-1.55,1.77v3.02h-.91v-5.48h.91v.79c.36-.58,1.01-.89,1.73-.89.9,0,1.65.4,2.01,1.22.32-.79,1.1-1.22,1.94-1.22,1.25,0,2.22.78,2.22,2.35v3.23h-.9v-3.1Z"/>
      <path class="cls-10" d="M500.42,141.47c-1.56,0-2.71-1.1-2.71-2.84s1.11-2.82,2.71-2.82,2.63,1.12,2.63,2.62c0,.2,0,.36-.03.55h-4.38c.07,1.11.85,1.72,1.78,1.72.82,0,1.34-.42,1.54-1.01h.98c-.28,1-1.16,1.78-2.52,1.78ZM498.65,138.24h3.46c.01-1.07-.79-1.66-1.73-1.66-.89,0-1.63.59-1.73,1.66Z"/>
      <path class="cls-10" d="M508.26,138.28c0-1.12-.61-1.69-1.53-1.69s-1.57.58-1.57,1.76v3.03h-.91v-5.48h.91v.78c.36-.57,1.02-.88,1.76-.88,1.27,0,2.24.78,2.24,2.35v3.23h-.9v-3.1Z"/>
      <path class="cls-10" d="M510.85,136.65h-.71v-.75h.71v-1.38h.91v1.38h1.43v.75h-1.43v3.23c0,.54.2.73.76.73h.67v.77h-.82c-.97,0-1.52-.4-1.52-1.5v-3.23Z"/>
      <path class="cls-10" d="M514.58,141.44c-.35,0-.62-.27-.62-.62s.27-.62.62-.62c.33,0,.6.27.6.62s-.27.62-.6.62Z"/>
    </g>
    <g>
      <path class="cls-10" d="M172.37,158.02l.18-.83h.92l-1.54,7.23h-.92l1.36-6.4Z"/>
      <path class="cls-10" d="M178.17,157.08c1.99,0,2.17,1.58,1.73,3.65-.45,2.1-1.3,3.69-3.29,3.69s-2.18-1.59-1.73-3.69c.44-2.07,1.3-3.65,3.29-3.65ZM178,157.91c-1.43,0-1.9,1.32-2.22,2.82-.33,1.56-.42,2.86,1.01,2.86s1.88-1.3,2.22-2.86c.32-1.5.41-2.82-1.01-2.82Z"/>
      <path class="cls-10" d="M191.76,161.32c.24-1.12-.24-1.69-1.14-1.69s-1.67.59-1.92,1.77l-.64,3.02h-.9l.66-3.1c.24-1.12-.24-1.69-1.14-1.69s-1.68.59-1.93,1.77l-.64,3.02h-.91l1.16-5.48h.91l-.17.79c.48-.58,1.2-.89,1.92-.89.9,0,1.56.4,1.75,1.22.49-.79,1.36-1.22,2.2-1.22,1.25,0,2.05.78,1.72,2.35l-.69,3.23h-.9l.66-3.1Z"/>
      <path class="cls-10" d="M195.84,164.51c-1.56,0-2.48-1.1-2.11-2.84.37-1.73,1.71-2.82,3.31-2.82s2.39,1.12,2.07,2.62c-.04.2-.09.36-.15.55h-4.38c-.17,1.11.48,1.72,1.41,1.72.82,0,1.43-.42,1.75-1.01h.98c-.49,1-1.54,1.78-2.9,1.78ZM194.76,161.28h3.46c.24-1.07-.44-1.66-1.38-1.66-.89,0-1.76.59-2.08,1.66Z"/>
      <path class="cls-10" d="M200.9,159.69h-.71l.16-.75h.71l.29-1.38h.91l-.29,1.38h1.43l-.16.75h-1.43l-.69,3.23c-.11.54.04.73.6.73h.67l-.16.77h-.82c-.97,0-1.43-.4-1.2-1.5l.69-3.23Z"/>
      <path class="cls-10" d="M205.68,164.51c-1.56,0-2.48-1.1-2.11-2.84.37-1.73,1.71-2.82,3.31-2.82s2.39,1.12,2.07,2.62c-.04.2-.09.36-.15.55h-4.38c-.17,1.11.48,1.72,1.41,1.72.82,0,1.43-.42,1.75-1.01h.98c-.49,1-1.54,1.78-2.9,1.78ZM204.6,161.28h3.46c.24-1.07-.44-1.66-1.38-1.66-.89,0-1.76.59-2.08,1.66Z"/>
      <path class="cls-10" d="M210.44,164.42h-.91l1.16-5.48h.91l-.19.89c.44-.61,1.11-.99,1.98-.99l-.2.94h-.24c-.87,0-1.61.39-1.88,1.66l-.63,2.98Z"/>
      <path class="cls-10" d="M215.18,164.51c-1.28,0-2.03-.7-1.88-1.7h.94c-.06.53.32.93,1.09.93.72,0,1.2-.36,1.29-.81.26-1.22-3.13-.51-2.7-2.55.18-.84,1.11-1.53,2.33-1.53s1.87.65,1.7,1.72h-.91c.08-.55-.26-.95-.99-.95-.67,0-1.14.32-1.23.76-.28,1.3,3.05.59,2.68,2.55-.19.9-1.12,1.58-2.33,1.58Z"/>
      <path class="cls-10" d="M224.61,158.86c.86,0,1.56.44,1.8,1.07l.62-2.9h.92l-1.57,7.4h-.92l.22-1.03c-.46.61-1.28,1.12-2.28,1.12-1.47,0-2.35-1.15-1.99-2.85.36-1.71,1.73-2.81,3.21-2.81ZM224.61,159.64c-1,0-2,.73-2.28,2.02-.27,1.29.41,2.05,1.41,2.05s2.02-.75,2.29-2.04c.27-1.27-.43-2.03-1.43-2.03Z"/>
      <path class="cls-10" d="M230.26,164.51c-1.56,0-2.48-1.1-2.11-2.84.37-1.73,1.71-2.82,3.31-2.82s2.39,1.12,2.07,2.62c-.04.2-.09.36-.15.55h-4.38c-.17,1.11.48,1.72,1.41,1.72.82,0,1.43-.42,1.75-1.01h.98c-.49,1-1.54,1.78-2.9,1.78ZM229.18,161.28h3.46c.24-1.07-.44-1.66-1.38-1.66-.89,0-1.76.59-2.08,1.66Z"/>
      <path class="cls-10" d="M236.46,164.51c-1.56,0-2.48-1.1-2.11-2.84.37-1.73,1.71-2.82,3.31-2.82s2.39,1.12,2.07,2.62c-.04.2-.09.36-.15.55h-4.38c-.17,1.11.48,1.72,1.41,1.72.82,0,1.43-.42,1.75-1.01h.98c-.49,1-1.54,1.78-2.9,1.78ZM235.38,161.28h3.46c.24-1.07-.44-1.66-1.38-1.66-.89,0-1.76.59-2.08,1.66Z"/>
      <path class="cls-10" d="M244.46,158.86c1.47,0,2.36,1.1,2,2.81-.36,1.7-1.73,2.85-3.2,2.85-1,0-1.59-.54-1.82-1.1l-.77,3.61h-.91l1.72-8.08h.91l-.21,1.01c.45-.58,1.28-1.1,2.28-1.1ZM244.1,159.64c-.99,0-2.02.76-2.29,2.03-.27,1.29.44,2.04,1.43,2.04s2.02-.76,2.29-2.05c.27-1.29-.42-2.02-1.43-2.02Z"/>
      <path class="cls-10" d="M247.35,164.48c-.35,0-.56-.27-.49-.62.07-.35.4-.62.75-.62.33,0,.54.27.47.62-.07.35-.4.62-.73.62Z"/>
    </g>
    <g>
      <path class="cls-10" d="M302.81,159.92l-1.28,6.02h.44l-.1.47h-1.79l.1-.47h.44l1.28-6.02h-.44l.1-.48h1.79l-.1.48h-.44Z"/>
      <path class="cls-10" d="M304.13,161.72h-.71l.16-.75h.71l.29-1.38h.91l-.29,1.38h1.43l-.16.75h-1.43l-.69,3.23c-.12.54.04.73.6.73h.67l-.16.77h-.82c-.97,0-1.43-.4-1.2-1.5l.69-3.23Z"/>
    </g>
    <line class="cls-5" x1="89.43" y1="128.89" x2="89.43" y2="173.66"/>
    <line class="cls-5" x1="150.38" y1="128.89" x2="150.38" y2="173.66"/>
    <line class="cls-5" x1="340.88" y1="128.89" x2="340.88" y2="173.66"/>
    <line class="cls-5" x1="423.88" y1="128.89" x2="423.88" y2="173.66"/>
    <line class="cls-8" x1="268.4" y1="128.89" x2="268.4" y2="173.66"/>
    <g>
      <path class="cls-10" d="M122.15,27.67l1.71,4.64,1.7-4.64h.97l-2.15,5.48h-1.06l-2.15-5.48h.98Z"/>
      <path class="cls-10" d="M129.8,33.23c-1.56,0-2.71-1.1-2.71-2.84s1.11-2.82,2.71-2.82,2.63,1.12,2.63,2.62c0,.2,0,.36-.03.55h-4.38c.07,1.11.85,1.72,1.78,1.72.82,0,1.34-.42,1.54-1.01h.98c-.28,1-1.16,1.78-2.52,1.78ZM128.03,30.01h3.46c.01-1.07-.79-1.66-1.73-1.66-.89,0-1.63.59-1.73,1.66Z"/>
      <path class="cls-10" d="M134.54,33.15h-.91v-5.48h.91v.89c.31-.61.9-.99,1.77-.99v.94h-.24c-.87,0-1.53.39-1.53,1.66v2.98Z"/>
      <path class="cls-10" d="M140.32,27.58c1.48,0,2.6,1.1,2.6,2.81s-1.13,2.85-2.6,2.85c-1,0-1.71-.5-2.05-1.1v1.01h-.91v-7.4h.91v2.94c.35-.61,1.08-1.11,2.05-1.11ZM140.13,28.37c-.99,0-1.86.76-1.86,2.03s.87,2.04,1.86,2.04,1.86-.76,1.86-2.05-.85-2.02-1.86-2.02Z"/>
    </g>
    <g>
      <path class="cls-10" d="M117.35,40.17l-.59,2.27h-1.01l.96-2.27h.64ZM118.98,40.17l-.59,2.27h-1.01l.96-2.27h.64Z"/>
      <path class="cls-10" d="M120.31,42.42h-.71v-.75h.71v-1.38h.91v1.38h1.43v.75h-1.43v3.23c0,.54.2.73.76.73h.67v.77h-.82c-.97,0-1.52-.4-1.52-1.5v-3.23Z"/>
      <path class="cls-10" d="M126.14,47.23c-1.55,0-2.73-1.1-2.73-2.84s1.22-2.82,2.77-2.82,2.77,1.09,2.77,2.82-1.25,2.84-2.81,2.84ZM126.14,46.44c.95,0,1.88-.65,1.88-2.04s-.91-2.03-1.85-2.03-1.83.65-1.83,2.03.85,2.04,1.8,2.04Z"/>
      <path class="cls-10" d="M135.78,41.58c1.48,0,2.6,1.1,2.6,2.81s-1.13,2.85-2.6,2.85c-1,0-1.71-.5-2.05-1.1v1.01h-.91v-7.4h.91v2.94c.35-.61,1.08-1.11,2.05-1.11ZM135.59,42.37c-.99,0-1.86.76-1.86,2.03s.87,2.04,1.86,2.04,1.86-.76,1.86-2.05-.85-2.02-1.86-2.02Z"/>
      <path class="cls-10" d="M141.95,47.23c-1.56,0-2.71-1.1-2.71-2.84s1.11-2.82,2.71-2.82,2.63,1.12,2.63,2.62c0,.2,0,.36-.03.55h-4.38c.07,1.11.85,1.72,1.78,1.72.82,0,1.34-.42,1.54-1.01h.98c-.28,1-1.16,1.78-2.52,1.78ZM140.18,44.01h3.46c.01-1.07-.79-1.66-1.73-1.66-.89,0-1.63.59-1.73,1.66Z"/>
      <path class="cls-10" d="M145.42,42.45l.59-2.27h1.01l-.96,2.27h-.64ZM147.05,42.45l.59-2.27h1.01l-.96,2.27h-.64Z"/>
    </g>
    <text class="cls-9" transform="translate(148.92 47.15)"><tspan x="0" y="0"> </tspan></text>
    <g>
      <path class="cls-13" d="M188.11,118.89h-3.14l-.82,1.49h-2.15l4.84-8.42h2.38l1.25,8.42h-2.17l-.19-1.49ZM187.54,114.22l-1.69,3.08h2.08l-.39-3.08Z"/>
      <path class="cls-13" d="M196.68,116.74c.19-.91-.2-1.42-.98-1.42s-1.39.5-1.58,1.42l-.77,3.64h-2.05l1.42-6.7h2.05l-.19.89c.53-.56,1.33-.96,2.23-.96,1.55,0,2.35,1.06,1.97,2.86l-.83,3.91h-2.04l.77-3.64Z"/>
      <path class="cls-13" d="M201.96,120.48c-1.79,0-2.77-1-2.59-2.29h2.03c-.05.47.3.78.87.78.53,0,.85-.24.92-.54.23-1.08-3.58-.3-3.06-2.76.24-1.14,1.41-2.08,3.16-2.08s2.48.96,2.33,2.28h-1.89c.04-.46-.25-.76-.82-.76-.48,0-.78.19-.85.52-.23,1.07,3.56.31,3.06,2.81-.25,1.16-1.47,2.04-3.15,2.04Z"/>
      <path class="cls-13" d="M206.58,113.68h2.05l-.07,4.79,2.15-4.79h2.17l.13,4.76,1.95-4.76h1.93l-3.24,6.7h-2.27l-.13-4.34-2.01,4.34h-2.25l-.4-6.7Z"/>
      <path class="cls-13" d="M219.09,120.48c-1.97,0-3.1-1.32-2.65-3.44s2.12-3.44,4.11-3.44,3.06,1.3,2.62,3.34c-.04.19-.1.4-.16.6h-4.64c-.12.88.34,1.28,1,1.28.58,0,.96-.29,1.21-.65h2.18c-.6,1.31-2,2.32-3.67,2.32ZM218.63,116.38h2.57c.16-.73-.33-1.15-1.01-1.15s-1.27.41-1.55,1.15Z"/>
      <path class="cls-13" d="M225.46,120.38h-2.05l1.42-6.7h2.05l-.24,1.12c.62-.71,1.45-1.19,2.35-1.19l-.46,2.17h-.56c-.97,0-1.61.34-1.85,1.49l-.66,3.11Z"/>
      <path class="cls-13" d="M229.86,113.68h2.05l-1.42,6.7h-2.05l1.42-6.7ZM230.05,111.88c.13-.62.73-1.12,1.46-1.12s1.11.49.97,1.12c-.13.61-.73,1.1-1.45,1.1s-1.12-.49-.99-1.1Z"/>
      <path class="cls-13" d="M237.26,116.74c.19-.91-.2-1.42-.98-1.42s-1.39.5-1.58,1.42l-.77,3.64h-2.05l1.42-6.7h2.05l-.19.89c.53-.56,1.33-.96,2.23-.96,1.55,0,2.35,1.06,1.97,2.86l-.83,3.91h-2.04l.77-3.64Z"/>
      <path class="cls-13" d="M243.83,113.59c.98,0,1.61.44,1.84,1.04l.2-.95h2.05l-1.42,6.68c-.38,1.79-1.74,3.31-4.05,3.31-1.99,0-3.07-1.01-2.91-2.6h2.03c.02.5.46.83,1.17.83.78,0,1.48-.41,1.72-1.54l.2-.95c-.5.59-1.3,1.06-2.29,1.06-1.64,0-2.66-1.34-2.22-3.46.45-2.11,2.04-3.43,3.68-3.43ZM244.05,115.38c-.77,0-1.59.58-1.81,1.64-.23,1.07.34,1.67,1.11,1.67s1.59-.59,1.81-1.66-.33-1.66-1.11-1.66Z"/>
      <path class="cls-13" d="M254.31,113.59c1,0,1.61.46,1.84,1.04l.2-.95h2.05l-1.42,6.7h-2.05l.2-.95c-.5.59-1.3,1.04-2.3,1.04-1.63,0-2.65-1.34-2.2-3.46.45-2.11,2.04-3.43,3.68-3.43ZM254.53,115.38c-.77,0-1.59.58-1.81,1.64-.23,1.07.34,1.67,1.11,1.67s1.59-.59,1.81-1.66-.33-1.66-1.11-1.66Z"/>
      <path class="cls-13" d="M265.02,111.96l-1.31,3.22h-2.1l2.03-3.22h1.38ZM267.76,111.96l-1.31,3.22h-2.1l2.03-3.22h1.38Z"/>
      <path class="cls-13" d="M273.18,116.91h-3.19l-.74,3.47h-2.05l1.79-8.42h2.05l-.7,3.3h3.19l.7-3.3h2.05l-1.79,8.42h-2.05l.74-3.47Z"/>
      <path class="cls-13" d="M278.89,120.48c-1.97,0-3.17-1.32-2.72-3.44s2.26-3.44,4.21-3.44,3.2,1.32,2.75,3.44c-.45,2.12-2.27,3.44-4.23,3.44ZM279.27,118.7c.73,0,1.53-.54,1.77-1.67.24-1.14-.32-1.67-1.04-1.67s-1.5.53-1.75,1.67c-.24,1.13.27,1.67,1.01,1.67Z"/>
      <path class="cls-13" d="M284.13,113.68h2.05l-.07,4.79,2.15-4.79h2.17l.13,4.76,1.95-4.76h1.93l-3.24,6.7h-2.27l-.13-4.34-2.01,4.34h-2.25l-.4-6.7Z"/>
      <path class="cls-13" d="M294.7,115.17l1.31-3.22h2.1l-2.03,3.22h-1.38ZM297.43,115.17l1.31-3.22h2.1l-2.03,3.22h-1.38Z"/>
      <path class="cls-13" d="M309.37,119.6l1.38,2.22h-2.48l-.77-1.45c-.31.06-.63.1-.96.1-2.39,0-3.95-1.79-3.41-4.32.54-2.53,2.86-4.31,5.25-4.31s3.93,1.78,3.39,4.31c-.31,1.48-1.22,2.69-2.39,3.46ZM306.93,118.59c1.34,0,2.43-.97,2.74-2.45.32-1.5-.36-2.45-1.7-2.45s-2.43.95-2.75,2.45c-.31,1.48.34,2.45,1.71,2.45Z"/>
      <path class="cls-13" d="M318.52,120.38h-2.05l.19-.91c-.53.58-1.34.98-2.24.98-1.55,0-2.36-1.07-1.98-2.86l.83-3.91h2.04l-.77,3.64c-.19.91.21,1.42.98,1.42s1.4-.5,1.6-1.42l.77-3.64h2.05l-1.42,6.7Z"/>
      <path class="cls-13" d="M322.85,120.48c-1.97,0-3.1-1.32-2.65-3.44.45-2.12,2.12-3.44,4.11-3.44s3.06,1.3,2.62,3.34c-.04.19-.1.4-.16.6h-4.64c-.12.88.34,1.28,1,1.28.58,0,.96-.29,1.21-.65h2.18c-.6,1.31-2,2.32-3.67,2.32ZM322.39,116.38h2.57c.16-.73-.33-1.15-1.01-1.15s-1.27.41-1.55,1.15Z"/>
      <path class="cls-13" d="M329.88,120.48c-1.79,0-2.77-1-2.59-2.29h2.03c-.05.47.3.78.87.78.53,0,.86-.24.92-.54.23-1.08-3.58-.3-3.06-2.76.24-1.14,1.41-2.08,3.16-2.08s2.48.96,2.33,2.28h-1.89c.04-.46-.25-.76-.82-.76-.48,0-.79.19-.85.52-.23,1.07,3.56.31,3.06,2.81-.25,1.16-1.46,2.04-3.14,2.04Z"/>
      <path class="cls-13" d="M335.14,115.39h-.82l.36-1.7h.82l.35-1.63h2.05l-.35,1.63h1.34l-.36,1.7h-1.34l-.57,2.69c-.08.4.05.56.5.56h.73l-.37,1.74h-1.04c-1.39,0-2.24-.59-1.87-2.33l.57-2.66Z"/>
      <path class="cls-13" d="M339.94,113.68h2.05l-1.42,6.7h-2.05l1.42-6.7ZM340.13,111.88c.13-.62.73-1.12,1.46-1.12s1.11.49.97,1.12c-.13.61-.73,1.1-1.45,1.1s-1.12-.49-.99-1.1Z"/>
      <path class="cls-13" d="M344.98,120.48c-1.97,0-3.17-1.32-2.72-3.44.45-2.12,2.25-3.44,4.21-3.44s3.2,1.32,2.75,3.44c-.45,2.12-2.27,3.44-4.23,3.44ZM345.36,118.7c.73,0,1.53-.54,1.77-1.67.24-1.14-.32-1.67-1.04-1.67s-1.5.53-1.75,1.67c-.24,1.13.27,1.67,1.01,1.67Z"/>
      <path class="cls-13" d="M354.87,116.74c.19-.91-.2-1.42-.98-1.42s-1.39.5-1.58,1.42l-.77,3.64h-2.05l1.42-6.7h2.05l-.19.89c.53-.56,1.33-.96,2.23-.96,1.55,0,2.35,1.06,1.97,2.86l-.83,3.91h-2.04l.77-3.64Z"/>
    </g>
    <line class="cls-8" x1="534.9" y1="74.22" y2="74.22"/>
  </g>
</svg>